<svg width="48" height="48" viewBox="0 0 48 48" fill="none" xmlns="http://www.w3.org/2000/svg">
<rect width="48" height="48" rx="8" fill="#E8EEFB"/>
<path d="M26.5291 29.7865C26.8283 29.7147 27.141 29.6481 27.4489 29.5639C28.6748 29.2289 29.7993 28.6932 30.72 27.7727C31.6548 26.8379 32.1659 25.6916 32.2742 24.3602C32.3759 23.1087 32.2136 21.8982 31.668 20.7612C31.5513 20.5181 31.4099 20.2853 31.2605 20.0614C31.114 19.8421 30.943 19.6401 30.7917 19.4421C31.208 18.3686 31.256 17.2944 30.7773 16.24C30.5243 15.6827 30.6111 15.7706 30.0412 15.8295C28.8609 15.9516 27.8691 16.4895 27.0324 17.3453C26.9976 17.3811 26.916 17.4024 26.8695 17.3872C25.757 17.0276 24.6139 16.949 23.4585 16.9977C22.6564 17.0317 21.8665 17.1476 21.1025 17.4172C21.0608 17.432 20.9824 17.3962 20.9461 17.3586C20.2238 16.6079 19.3703 16.1009 18.3599 15.8918C18.1114 15.8403 17.8539 15.8348 17.6015 15.8018C17.4962 15.7882 17.4374 15.8344 17.3828 15.9202C17.0185 16.4913 16.8879 17.1273 16.8954 17.7977C16.902 18.3846 16.9905 18.9542 17.3027 19.473C17.2792 19.5023 17.2558 19.5346 17.2291 19.5639C16.3417 20.5447 15.8637 21.711 15.7352 23.0365C15.6341 24.0811 15.725 25.0997 16.1338 26.0728C16.6532 27.3098 17.5439 28.1868 18.681 28.8194C19.515 29.2832 20.4099 29.5672 21.3381 29.7495C21.3909 29.76 21.4431 29.7733 21.5073 29.7878C21.2696 30.284 21.2477 30.8073 21.2294 31.3322C21.2276 31.3803 21.1913 31.4528 21.1523 31.4704C20.0653 31.9641 18.398 31.4994 17.7045 30.5131C17.646 30.4298 17.5961 30.3404 17.5397 30.2556C17.1244 29.6332 16.5737 29.22 15.8325 29.121C15.683 29.1009 15.5222 29.1213 15.3739 29.1565C15.1516 29.2089 15.117 29.3464 15.2677 29.5265C15.3292 29.5999 15.3973 29.6727 15.4757 29.7251C16.0644 30.1211 16.4303 30.6991 16.7049 31.3418C16.8801 31.7517 17.0896 32.1298 17.4023 32.4443C18.088 33.1342 18.9244 33.4562 19.8691 33.4704C20.3162 33.4772 20.7643 33.4136 21.2255 33.3809C21.2222 33.3674 21.2306 33.3856 21.2306 33.4038C21.2312 33.9435 21.2405 34.4835 21.2273 35.0229C21.2186 35.3846 21.0473 35.6721 20.7556 35.8731C20.5533 36.0125 20.3336 36.0347 20.0972 35.9512C16.0822 34.535 13.0806 31.0183 12.237 26.7383C11.0957 20.9477 14.1663 15.1014 19.5063 12.8966C25.6934 10.3421 32.7021 13.4323 35.1629 19.7996C37.2093 25.0948 35.4051 31.1805 30.8262 34.4292C29.9241 35.0691 28.9542 35.5712 27.9204 35.9453C27.5882 36.0656 27.3097 35.9808 27.0732 35.731C26.8617 35.5071 26.7662 35.2344 26.7671 34.9199C26.7704 33.784 26.7743 32.6479 26.765 31.512C26.7617 31.1176 26.7341 30.7219 26.6906 30.3299C26.6702 30.1461 26.5856 29.9697 26.5291 29.7865Z" fill="#485776"/>
</svg>
