<svg width="48" height="48" viewBox="0 0 48 48" fill="none" xmlns="http://www.w3.org/2000/svg">
<rect width="48" height="48" rx="8" fill="#E8EEFB"/>
<mask id="path-2-inside-1_6_626" fill="white">
<path d="M34.8502 32.5422C36.1814 31.7915 37 30.4139 37 28.9241V19.0759C37 17.5861 36.1814 16.2085 34.8502 15.4578L26.1835 10.5706C24.8342 9.80979 23.1658 9.80979 21.8165 10.5706L13.1498 15.4578C11.8186 16.2085 11 17.5861 11 19.0759V28.9241C11 30.4139 11.8186 31.7915 13.1498 32.5422L21.8165 37.4294C23.1658 38.1902 24.8342 38.1902 26.1835 37.4294L34.8502 32.5422Z"/>
</mask>
<path d="M21.8165 37.4294L22.7988 35.6872L21.8165 37.4294ZM26.1835 37.4294L25.2011 35.6872L26.1835 37.4294ZM13.1498 32.5422L12.1674 34.2843H12.1674L13.1498 32.5422ZM13.1498 15.4578L14.1322 17.1999L13.1498 15.4578ZM26.1835 10.5706L25.2011 12.3128L26.1835 10.5706ZM21.8165 10.5706L22.7988 12.3128L21.8165 10.5706ZM34.8502 15.4578L35.8326 13.7157V13.7157L34.8502 15.4578ZM34.8502 32.5422L35.8326 34.2843L34.8502 32.5422ZM39 28.9241V19.0759H35V28.9241H39ZM35.8326 13.7157L27.1659 8.82854L25.2011 12.3128L33.8678 17.1999L35.8326 13.7157ZM20.8341 8.82854L12.1674 13.7157L14.1322 17.1999L22.7988 12.3128L20.8341 8.82854ZM9 19.0759V28.9241H13V19.0759H9ZM12.1674 34.2843L20.8341 39.1715L22.7988 35.6872L14.1322 30.8001L12.1674 34.2843ZM27.1659 39.1715L35.8326 34.2843L33.8678 30.8001L25.2011 35.6872L27.1659 39.1715ZM20.8341 39.1715C22.7932 40.2762 25.2068 40.2762 27.1659 39.1715L25.2011 35.6872C24.4617 36.1042 23.5383 36.1042 22.7988 35.6872L20.8341 39.1715ZM9 28.9241C9 31.1585 10.2277 33.1905 12.1674 34.2843L14.1322 30.8001C13.4095 30.3926 13 29.6692 13 28.9241H9ZM12.1674 13.7157C10.2277 14.8095 9 16.8415 9 19.0759H13C13 18.3308 13.4095 17.6074 14.1322 17.1999L12.1674 13.7157ZM27.1659 8.82854C25.2068 7.72382 22.7932 7.72382 20.8341 8.82854L22.7988 12.3128C23.5383 11.8957 24.4617 11.8957 25.2011 12.3128L27.1659 8.82854ZM39 19.0759C39 16.8415 37.7723 14.8095 35.8326 13.7157L33.8678 17.1999C34.5905 17.6074 35 18.3308 35 19.0759H39ZM35 28.9241C35 29.6692 34.5905 30.3926 33.8678 30.8001L35.8326 34.2843C37.7723 33.1905 39 31.1585 39 28.9241H35Z" fill="#485776" mask="url(#path-2-inside-1_6_626)"/>
<circle cx="24" cy="24" r="4" stroke="#485776" stroke-width="2"/>
<path d="M29.821 20.1107C30.3238 20.8617 30.6851 21.7155 30.8668 22.6339L29.8858 22.8279C29.9606 23.2062 30 23.598 30 24C30 24.402 29.9606 24.7938 29.8858 25.1721L30.8668 25.3661C30.6851 26.2845 30.3238 27.1383 29.821 27.8893L28.99 27.333C28.5517 27.9877 27.9877 28.5517 27.333 28.99L27.8893 29.821C27.1383 30.3238 26.2845 30.6851 25.3661 30.8668L25.1721 29.8858C24.7938 29.9606 24.402 30 24 30C23.598 30 23.2062 29.9606 22.8279 29.8858L22.6339 30.8668C21.7155 30.6851 20.8617 30.3238 20.1107 29.821L20.667 28.99C20.0123 28.5517 19.4483 27.9877 19.01 27.333L18.179 27.8893C17.6762 27.1383 17.3149 26.2845 17.1332 25.3661L18.1142 25.1721C18.0394 24.7938 18 24.402 18 24C18 23.598 18.0394 23.2062 18.1142 22.8279L17.1332 22.6339C17.3149 21.7155 17.6762 20.8617 18.179 20.1107L19.01 20.667C19.4483 20.0123 20.0123 19.4483 20.667 19.01L20.1107 18.179C20.8617 17.6762 21.7155 17.3149 22.6339 17.1332L22.8279 18.1142C23.2062 18.0394 23.598 18 24 18C24.402 18 24.7938 18.0394 25.1721 18.1142L25.3661 17.1332C26.2845 17.3149 27.1383 17.6762 27.8893 18.179L27.333 19.01C27.9877 19.4483 28.5517 20.0123 28.99 20.667L29.821 20.1107Z" stroke="#485776" stroke-width="2" stroke-dasharray="3 3"/>
</svg>
