<svg width="48" height="48" viewBox="0 0 48 48" fill="none" xmlns="http://www.w3.org/2000/svg">
<rect width="48" height="48" rx="8" fill="#E8EEFB"/>
<path d="M29 24L21.5 28.3301L21.5 19.6699L29 24Z" stroke="#485776" stroke-width="2"/>
<mask id="path-3-inside-1_6_647" fill="white">
<path d="M34.8502 32.5422C36.1814 31.7915 37 30.4139 37 28.9241V19.0759C37 17.5861 36.1814 16.2085 34.8502 15.4578L26.1835 10.5706C24.8342 9.80979 23.1658 9.80979 21.8165 10.5706L13.1498 15.4578C11.8186 16.2085 11 17.5861 11 19.0759V28.9241C11 30.4139 11.8186 31.7915 13.1498 32.5422L21.8165 37.4294C23.1658 38.1902 24.8342 38.1902 26.1835 37.4294L34.8502 32.5422Z"/>
</mask>
<path d="M21.8165 37.4294L22.7988 35.6872L21.8165 37.4294ZM26.1835 37.4294L25.2011 35.6872L26.1835 37.4294ZM13.1498 32.5422L12.1674 34.2843H12.1674L13.1498 32.5422ZM13.1498 15.4578L14.1322 17.1999L13.1498 15.4578ZM26.1835 10.5706L25.2011 12.3128L26.1835 10.5706ZM21.8165 10.5706L22.7988 12.3128L21.8165 10.5706ZM34.8502 15.4578L35.8326 13.7157V13.7157L34.8502 15.4578ZM34.8502 32.5422L35.8326 34.2843L34.8502 32.5422ZM39 28.9241V19.0759H35V28.9241H39ZM35.8326 13.7157L27.1659 8.82854L25.2011 12.3128L33.8678 17.1999L35.8326 13.7157ZM20.8341 8.82854L12.1674 13.7157L14.1322 17.1999L22.7988 12.3128L20.8341 8.82854ZM9 19.0759V28.9241H13V19.0759H9ZM12.1674 34.2843L20.8341 39.1715L22.7988 35.6872L14.1322 30.8001L12.1674 34.2843ZM27.1659 39.1715L35.8326 34.2843L33.8678 30.8001L25.2011 35.6872L27.1659 39.1715ZM20.8341 39.1715C22.7932 40.2762 25.2068 40.2762 27.1659 39.1715L25.2011 35.6872C24.4617 36.1042 23.5383 36.1042 22.7988 35.6872L20.8341 39.1715ZM9 28.9241C9 31.1585 10.2277 33.1905 12.1674 34.2843L14.1322 30.8001C13.4095 30.3926 13 29.6692 13 28.9241H9ZM12.1674 13.7157C10.2277 14.8095 9 16.8415 9 19.0759H13C13 18.3308 13.4095 17.6074 14.1322 17.1999L12.1674 13.7157ZM27.1659 8.82854C25.2068 7.72382 22.7932 7.72382 20.8341 8.82854L22.7988 12.3128C23.5383 11.8957 24.4617 11.8957 25.2011 12.3128L27.1659 8.82854ZM39 19.0759C39 16.8415 37.7723 14.8095 35.8326 13.7157L33.8678 17.1999C34.5905 17.6074 35 18.3308 35 19.0759H39ZM35 28.9241C35 29.6692 34.5905 30.3926 33.8678 30.8001L35.8326 34.2843C37.7723 33.1905 39 31.1585 39 28.9241H35Z" fill="#485776" mask="url(#path-3-inside-1_6_647)"/>
</svg>
