<svg width="48" height="48" viewBox="0 0 48 48" fill="none" xmlns="http://www.w3.org/2000/svg">
<rect width="48" height="48" rx="8" fill="#E8EEFB"/>
<path fill-rule="evenodd" clip-rule="evenodd" d="M32.4444 28H35V38H12L12 28H14.5556L14.5556 35.5H32.4444V28Z" fill="#485776"/>
<path d="M17.228 27.2911L29.6974 29.8564L30.2215 27.4165L17.7522 24.8501L17.228 27.2911ZM18.8781 21.4469L30.429 26.7125L31.505 24.4514L19.9538 19.1857L18.8781 21.4469ZM22.0743 15.9L31.8669 23.8818L33.4978 21.9649L23.7051 13.9833L22.0743 15.9ZM28.3954 10L26.3504 11.4888L33.955 21.4968L36 20.0083L28.3954 10ZM17 33H29.6944V30.5149L17 30.5149V33Z" fill="#485776"/>
</svg>
