<svg width="48" height="48" viewBox="0 0 48 48" fill="none" xmlns="http://www.w3.org/2000/svg">
<rect width="48" height="48" rx="8" fill="#E8EEFB"/>
<path fill-rule="evenodd" clip-rule="evenodd" d="M37 28.9241C37 30.4139 36.1814 31.7915 34.8502 32.5422L26.1835 37.4294C24.8342 38.1902 23.1658 38.1902 21.8165 37.4294L13.1498 32.5422C11.8186 31.7915 11 30.4139 11 28.9241V19.0759C11 17.5861 11.8186 16.2085 13.1498 15.4578L21.8165 10.5706C23.1658 9.80979 24.8342 9.80979 26.1835 10.5706L34.8502 15.4578C36.1814 16.2085 37 17.5861 37 19.0759V28.9241ZM35 28.9241V19.0759C35 18.3308 34.5905 17.6074 33.8678 17.1999L25.2011 12.3128C24.4617 11.8957 23.5383 11.8957 22.7988 12.3128L14.1322 17.1999C13.4095 17.6074 13 18.3308 13 19.0759V28.9241C13 29.6692 13.4095 30.3926 14.1322 30.8001L16.0765 31.8965C16.1699 31.2254 16.3485 30.5673 16.609 29.9385C17.011 28.9679 17.6003 28.086 18.3431 27.3431C19.0162 26.6701 19.8033 26.1232 20.6672 25.7273C19.644 24.8117 19 23.4811 19 22C19 19.2386 21.2386 17 24 17C26.7614 17 29 19.2386 29 22C29 23.4811 28.356 24.8117 27.3328 25.7273C28.1967 26.1232 28.9838 26.6701 29.6569 27.3431C30.3997 28.086 30.989 28.9679 31.391 29.9385C31.6515 30.5673 31.8301 31.2254 31.9235 31.8965L33.8678 30.8001C34.5905 30.3926 35 29.6692 35 28.9241ZM24 25C25.6569 25 27 23.6569 27 22C27 20.3431 25.6569 19 24 19C22.3431 19 21 20.3431 21 22C21 23.6569 22.3431 25 24 25ZM24 27C23.2121 27 22.4319 27.1552 21.7039 27.4567C20.9759 27.7583 20.3145 28.2002 19.7574 28.7574C19.2002 29.3145 18.7583 29.9759 18.4567 30.7039C18.1576 31.4261 18.0025 32.1997 18 32.9812L22.7988 35.6872C23.5383 36.1042 24.4617 36.1042 25.2011 35.6872L30 32.9812C29.9975 32.1997 29.8424 31.4261 29.5433 30.7039C29.2417 29.9759 28.7998 29.3145 28.2426 28.7574C27.6855 28.2002 27.0241 27.7583 26.2961 27.4567C25.5681 27.1552 24.7879 27 24 27Z" fill="#485776"/>
</svg>
