<svg width="48" height="48" viewBox="0 0 48 48" fill="none" xmlns="http://www.w3.org/2000/svg">
<rect width="48" height="48" rx="8" fill="#E8EEFB"/>
<path d="M33.2481 20.4399C35.6843 18.8769 37.2472 16.3537 37.7988 13.1607C38.1895 10.7938 37.8908 8.89587 37.8908 8.80655C37.8448 8.47162 37.615 8.20367 37.2932 8.0697C36.9714 7.93573 36.6037 8.00271 36.3509 8.20367L21.5724 19.3011C21.8253 18.3187 21.6414 17.3139 21.0438 16.51C20.0785 15.2596 18.4467 15.0363 17.1596 15.5275L16.9757 15.4159C16.0334 14.813 15.0451 14.679 14.0568 15.0363C12.1492 15.7285 10.6553 18.1847 10.0117 20.3059C9.96575 20.4846 10.0577 20.6855 10.2415 20.7525C10.2875 20.7748 10.3335 20.7748 10.4024 20.7748C10.5403 20.7748 10.6782 20.7078 10.7472 20.5739C11.7585 18.5866 13.4363 16.8673 14.6544 16.577C14.9991 16.4877 15.2979 16.5323 15.5507 16.6886L15.6197 16.7333C14.9762 17.5148 14.5854 18.5196 14.4475 19.703C14.3096 20.9311 14.4935 22.2709 14.9072 23.1864C15.0681 23.5436 15.4128 23.7446 15.8036 23.7446C15.8955 23.7446 16.0104 23.7222 16.1024 23.6999C16.9987 23.4096 18.4467 22.8514 19.6418 21.9806C19.4809 22.3155 19.389 22.6728 19.366 23.0524C19.2971 23.9232 19.5729 24.7717 20.1475 25.4416C20.722 26.1114 21.5495 26.5357 22.4458 26.6027C22.5378 26.6027 22.6527 26.625 22.7446 26.625C22.7676 26.625 22.8136 26.625 22.8365 26.625C22.0091 27.7638 21.7103 29.3715 22.4918 31.1354C24.1926 34.9313 22.0551 37.4545 20.5382 38.3477C20.1934 38.5486 20.0096 38.9505 20.1245 39.3301C20.2394 39.7097 20.5841 39.9777 20.9979 40C21.1358 40 21.2737 40 21.4116 40C26.8816 40 29.2949 37.3875 30.2602 35.8022C31.8001 33.2567 31.7312 29.9743 30.0764 27.2502C29.226 25.8435 27.5711 24.6824 25.7095 24.928C25.9393 24.5261 26.0772 24.1018 26.1232 23.6329C26.1692 23.1194 26.1002 22.6281 25.8933 22.1592C26.33 22.2039 26.7667 22.2262 27.2264 22.2262C29.0881 22.1592 31.2255 21.7573 33.2481 20.4399ZM16.4241 21.534C16.3322 21.0428 16.2862 20.4622 16.3552 19.8594C16.4471 19.0778 16.7229 18.0284 17.5963 17.4255C17.8031 17.2692 18.1249 17.1799 18.4467 17.1799C18.8144 17.1799 19.2051 17.3139 19.458 17.6488C19.9176 18.274 19.7108 19.1002 19.2971 19.6361C18.7455 20.3283 17.7342 21.0205 16.4241 21.534ZM22.5837 24.6824C22.193 24.6601 21.8482 24.4814 21.5954 24.1912C21.3426 23.9009 21.2277 23.5436 21.2507 23.164C21.2737 22.7844 21.4575 22.4495 21.7563 22.2039C22.0091 21.9806 22.3539 21.8689 22.6757 21.8689C22.7216 21.8689 22.7676 21.8689 22.7906 21.8689C23.1813 21.8913 23.526 22.0699 23.7789 22.3602C24.0317 22.6505 24.1466 23.0077 24.1236 23.3873C24.1006 23.7669 23.9168 24.1018 23.618 24.3475C23.3422 24.5931 22.9744 24.7047 22.5837 24.6824ZM26.2151 26.625C26.8127 26.625 27.4562 26.8706 28.0308 27.4958C28.0998 27.5628 28.0998 27.6521 28.0768 27.7191C27.732 28.4336 26.9966 29.3045 26.2841 29.751C26.1692 29.818 26.1232 29.9743 26.1692 30.086C26.2151 30.22 26.376 30.2869 26.5139 30.2646C27.0885 30.153 27.9159 29.8404 28.6054 29.4161C28.6744 29.3715 28.7203 29.3491 28.7893 29.3045C28.9042 29.2152 29.0881 29.2821 29.134 29.4161C29.4328 30.2423 29.5707 31.0908 29.5477 31.9169C29.5477 32.0063 29.4788 32.0956 29.3868 32.1179C28.6514 32.3635 27.778 32.4975 27.0885 32.3859C26.9276 32.3635 26.7667 32.4082 26.7208 32.5645C26.6518 32.7208 26.7437 32.8548 26.8816 32.9441C27.3873 33.2344 28.1457 33.547 28.9502 33.7256C29.0881 33.7479 29.18 33.9042 29.111 34.0159C28.9961 34.3061 28.8582 34.5741 28.6973 34.842C28.4445 35.2663 28.1457 35.6459 27.801 35.9808C27.732 36.0478 27.6171 36.0701 27.5252 36.0255C27.1574 35.8468 26.8127 35.6235 26.5599 35.4226C26.4679 35.3333 26.33 35.3333 26.2381 35.4226C26.1462 35.4896 26.1002 35.6459 26.1692 35.7575C26.2841 35.9808 26.4909 36.2711 26.7208 36.5837C26.7897 36.6953 26.7667 36.8293 26.6748 36.8963C25.9393 37.3429 25.1119 37.6778 24.1696 37.9011C23.9627 37.9457 23.8248 37.7448 23.9168 37.5662C25.3188 35.3556 25.1809 32.5645 24.2156 30.3986C23.4571 28.7016 24.2155 27.3842 25.2498 26.8929C25.4796 26.7143 25.8244 26.625 26.2151 26.625ZM24.0547 19.837L36.0521 10.8162C36.0291 13.0044 35.4545 16.7556 32.1679 18.8769C29.2719 20.7302 25.9623 20.3283 24.0547 19.837Z" fill="#485776"/>
</svg>
