<svg width="48" height="48" viewBox="0 0 48 48" fill="none" xmlns="http://www.w3.org/2000/svg">
<rect width="48" height="48" rx="8" fill="#E8EEFB"/>
<path d="M23 19C23 18.4477 23.4477 18 24 18C24.5523 18 25 18.4477 25 19V23H29C29.5523 23 30 23.4477 30 24C30 24.5523 29.5523 25 29 25H25V29C25 29.5523 24.5523 30 24 30C23.4477 30 23 29.5523 23 29V25H19C18.4477 25 18 24.5523 18 24C18 23.4477 18.4477 23 19 23H23V19Z" fill="#485776"/>
<path fill-rule="evenodd" clip-rule="evenodd" d="M34.8502 32.5422C36.1814 31.7915 37 30.4139 37 28.9241V19.0759C37 17.5861 36.1814 16.2085 34.8502 15.4578L26.1835 10.5706C24.8342 9.80979 23.1658 9.80979 21.8165 10.5706L13.1498 15.4578C11.8186 16.2085 11 17.5861 11 19.0759V28.9241C11 30.4139 11.8186 31.7915 13.1498 32.5422L21.8165 37.4294C23.1658 38.1902 24.8342 38.1902 26.1835 37.4294L34.8502 32.5422ZM33.8678 17.1999C34.5905 17.6074 35 18.3308 35 19.0759V28.9241C35 29.6692 34.5905 30.3926 33.8678 30.8001L25.2011 35.6872C24.4617 36.1042 23.5383 36.1042 22.7988 35.6872L14.1322 30.8001C13.4095 30.3926 13 29.6692 13 28.9241V19.0759C13 18.3308 13.4095 17.6074 14.1322 17.1999L22.7988 12.3128C23.5383 11.8957 24.4617 11.8957 25.2011 12.3128L33.8678 17.1999Z" fill="#485776"/>
</svg>
