<svg width="48" height="48" viewBox="0 0 48 48" fill="none" xmlns="http://www.w3.org/2000/svg">
<rect width="48" height="48" rx="8" fill="#E8EEFB"/>
<path d="M19.5224 31.754C18.8566 31.0927 18.8566 30.0204 19.5224 29.3591L22.0859 26.8132L11.9988 16.7952C10.6671 15.4725 10.6671 13.328 11.9988 12.0053L24.4973 24.4183L37.0012 12C38.3329 13.3227 38.3329 15.4672 37.0012 16.7898L26.9087 26.8132L29.4666 29.3536C30.1325 30.0149 30.1325 31.0871 29.4666 31.7485C28.8007 32.4098 27.7211 32.4098 27.0552 31.7485L24.4973 29.2081L21.9339 31.754C21.268 32.4153 20.1883 32.4153 19.5224 31.754Z" fill="#485776"/>
<path d="M30.0047 25.6967C29.3527 26.3667 29.3527 27.4531 30.0047 28.1231C30.6566 28.7932 31.7136 28.7932 32.3656 28.1231L36.7647 23.6018C38.0686 22.2617 38.0686 20.089 36.7647 18.7489L30.0047 25.6967Z" fill="#485776"/>
<path d="M19.1592 28.1235C19.8112 27.4535 19.8112 26.3671 19.1592 25.697L12.3992 18.7493C11.0953 20.0894 11.0953 22.2621 12.3992 23.6022L16.7983 28.1235C17.4503 28.7936 18.5073 28.7936 19.1592 28.1235Z" fill="#485776"/>
<path d="M24.5 36C25.5075 36 26.3243 34.9926 26.3243 33.75C26.3243 32.5074 25.5075 31.5 24.5 31.5C23.4925 31.5 22.6757 32.5074 22.6757 33.75C22.6757 34.9926 23.4925 36 24.5 36Z" fill="#485776"/>
</svg>
