<svg width="48" height="48" viewBox="0 0 48 48" fill="none" xmlns="http://www.w3.org/2000/svg">
<rect width="48" height="48" rx="8" fill="#E8EEFB"/>
<path fill-rule="evenodd" clip-rule="evenodd" d="M28.315 13.7057C28.3507 13.2558 28.1152 12.826 27.709 12.5996L25.5511 11.3969C24.6017 10.8677 23.4299 10.8677 22.4805 11.3969L20.4999 12.5008C20.0937 12.7272 19.8582 13.157 19.8939 13.6069L20.0319 15.3445C20.0663 15.7777 19.8491 16.1938 19.4671 16.4265L17.9089 17.3758C17.3 17.7467 16.4909 17.534 16.1634 16.917L15.9314 16.4798C15.6127 15.8791 14.8343 15.6586 14.2272 15.997L12.524 16.9463C11.4242 17.5592 10.8338 18.7618 11.041 19.9669L12.8019 30.2056C13.087 31.8632 14.0969 33.3244 15.5766 34.22L23.0254 38.7286C23.6295 39.0942 24.3994 39.0901 24.9993 38.7182L32.2978 34.1929C33.7189 33.3117 34.6968 31.9048 34.9993 30.3062L36.9505 19.9959C37.1812 18.7771 36.5914 17.5503 35.476 16.9286L33.9473 16.0766C33.3402 15.7382 32.5618 15.9588 32.2431 16.5594L32.0533 16.917C31.7258 17.534 30.9167 17.7467 30.3078 17.3758L28.7496 16.4265C28.3677 16.1938 28.1505 15.7777 28.1849 15.3445L28.315 13.7057ZM25.3568 26.8419C26.3713 26.3692 27.0707 25.3703 27.0707 24.2145C27.0707 22.6027 25.7104 21.2961 24.0325 21.2961C22.3545 21.2961 20.9942 22.6027 20.9942 24.2145C20.9942 25.3102 21.6227 26.2648 22.5523 26.7639V30.1263C22.5523 30.8702 23.1801 31.4733 23.9546 31.4733C24.729 31.4733 25.3568 30.8702 25.3568 30.1263V26.8419Z" fill="#485776"/>
</svg>
