<svg width="130" height="130" viewBox="0 0 130 130" fill="none" xmlns="http://www.w3.org/2000/svg">
<path d="M87.8528 27.3283C87.8528 30.1595 85.5517 32.4546 82.7132 32.4546C79.8747 32.4546 77.5737 30.1595 77.5737 27.3283C77.5737 24.4972 79.8747 22.202 82.7132 22.202C85.5517 22.202 87.8528 24.4972 87.8528 27.3283Z" fill="#293858"/>
<path d="M93.6347 99.7383C93.6347 102.569 91.3337 104.865 88.4952 104.865C85.6567 104.865 83.3556 102.569 83.3556 99.7383C83.3556 96.9071 85.6567 94.612 88.4952 94.612C91.3337 94.612 93.6347 96.9071 93.6347 99.7383Z" fill="#293858"/>
<path d="M84.1821 45.2707C86.5644 45.2707 88.4957 43.3444 88.4957 40.9682C88.4957 38.5921 86.5644 36.6658 84.1821 36.6658C81.7998 36.6658 79.8685 38.5921 79.8685 40.9682C79.8685 43.3444 81.7998 45.2707 84.1821 45.2707Z" fill="#293858"/>
<path d="M99.9688 42.6156C99.9688 44.9918 98.0376 46.918 95.6553 46.918C93.2729 46.918 91.3417 44.9918 91.3417 42.6156C91.3417 40.2394 93.2729 38.3131 95.6553 38.3131C98.0376 38.3131 99.9688 40.2394 99.9688 42.6156Z" fill="#293858"/>
<path d="M82.7139 56.1639C84.7414 56.1639 86.385 54.5245 86.385 52.5022C86.385 50.4799 84.7414 48.8406 82.7139 48.8406C80.6864 48.8406 79.0428 50.4799 79.0428 52.5022C79.0428 54.5245 80.6864 56.1639 82.7139 56.1639Z" fill="#293858"/>
<path d="M97.8563 54.0591C97.8563 56.0814 96.2127 57.7208 94.1852 57.7208C92.1577 57.7208 90.5141 56.0814 90.5141 54.0591C90.5141 52.0369 92.1577 50.3975 94.1852 50.3975C96.2127 50.3975 97.8563 52.0369 97.8563 54.0591Z" fill="#293858"/>
<path d="M103.364 61.2905C105.391 61.2905 107.035 59.6511 107.035 57.6288C107.035 55.6066 105.391 53.9672 103.364 53.9672C101.336 53.9672 99.6924 55.6066 99.6924 57.6288C99.6924 59.6511 101.336 61.2905 103.364 61.2905Z" fill="#293858"/>
<path d="M94.0019 63.3042C94.0019 65.0737 92.5638 66.5081 90.7897 66.5081C89.0156 66.5081 87.5775 65.0737 87.5775 63.3042C87.5775 61.5347 89.0156 60.1003 90.7897 60.1003C92.5638 60.1003 94.0019 61.5347 94.0019 63.3042Z" fill="#293858"/>
<path d="M79.3182 64.9512C81.0923 64.9512 82.5304 63.5168 82.5304 61.7473C82.5304 59.9778 81.0923 58.5433 79.3182 58.5433C77.5442 58.5433 76.106 59.9778 76.106 61.7473C76.106 63.5168 77.5442 64.9512 79.3182 64.9512Z" fill="#293858"/>
<path d="M103.271 66.8739C103.271 68.6434 101.833 70.0779 100.059 70.0779C98.2851 70.0779 96.8469 68.6434 96.8469 66.8739C96.8469 65.1044 98.2851 63.67 100.059 63.67C101.833 63.67 103.271 65.1044 103.271 66.8739Z" fill="#293858"/>
<path d="M86.2018 73.1901C87.7224 73.1901 88.9551 71.9605 88.9551 70.4438C88.9551 68.9271 87.7224 67.6976 86.2018 67.6976C84.6812 67.6976 83.4485 68.9271 83.4485 70.4438C83.4485 71.9605 84.6812 73.1901 86.2018 73.1901Z" fill="#293858"/>
<path d="M98.2246 73.9228C98.2246 75.4395 96.9919 76.669 95.4713 76.669C93.9506 76.669 92.7179 75.4395 92.7179 73.9228C92.7179 72.4061 93.9506 71.1765 95.4713 71.1765C96.9919 71.1765 98.2246 72.4061 98.2246 73.9228Z" fill="#293858"/>
<path d="M74.8203 71.5418C76.3409 71.5418 77.5736 70.3123 77.5736 68.7956C77.5736 67.2789 76.3409 66.0493 74.8203 66.0493C73.2997 66.0493 72.0669 67.2789 72.0669 68.7956C72.0669 70.3123 73.2997 71.5418 74.8203 71.5418Z" fill="#293858"/>
<path d="M83.4476 75.3878C83.4476 76.6518 82.4203 77.6764 81.1531 77.6764C79.8859 77.6764 78.8587 76.6518 78.8587 75.3878C78.8587 74.1239 79.8859 73.0993 81.1531 73.0993C82.4203 73.0993 83.4476 74.1239 83.4476 75.3878Z" fill="#293858"/>
<path d="M85.0996 83.9925C86.2147 83.9925 87.1187 83.0909 87.1187 81.9786C87.1187 80.8664 86.2147 79.9647 85.0996 79.9647C83.9844 79.9647 83.0805 80.8664 83.0805 81.9786C83.0805 83.0909 83.9844 83.9925 85.0996 83.9925Z" fill="#293858"/>
<path d="M81.8873 83.627C81.8873 84.537 81.1477 85.2747 80.2353 85.2747C79.323 85.2747 78.5833 84.537 78.5833 83.627C78.5833 82.7169 79.323 81.9792 80.2353 81.9792C81.1477 81.9792 81.8873 82.7169 81.8873 83.627Z" fill="#293858"/>
<path d="M75.9216 80.5137C77.0367 80.5137 77.9407 79.612 77.9407 78.4998C77.9407 77.3875 77.0367 76.4859 75.9216 76.4859C74.8065 76.4859 73.9025 77.3875 73.9025 78.4998C73.9025 79.612 74.8065 80.5137 75.9216 80.5137Z" fill="#293858"/>
<path d="M71.9762 73.8317C71.9762 75.0957 70.9489 76.1203 69.6817 76.1203C68.4145 76.1203 67.3873 75.0957 67.3873 73.8317C67.3873 72.5678 68.4145 71.5432 69.6817 71.5432C70.9489 71.5432 71.9762 72.5678 71.9762 73.8317Z" fill="#293858"/>
<path d="M69.589 58.9091C70.8562 58.9091 71.8835 57.8845 71.8835 56.6206C71.8835 55.3567 70.8562 54.3321 69.589 54.3321C68.3219 54.3321 67.2946 55.3567 67.2946 56.6206C67.2946 57.8845 68.3219 58.9091 69.589 58.9091Z" fill="#293858"/>
<path d="M72.6178 48.84C72.6178 49.9522 71.7138 50.8539 70.5987 50.8539C69.4835 50.8539 68.5796 49.9522 68.5796 48.84C68.5796 47.7277 69.4835 46.8261 70.5987 46.8261C71.7138 46.8261 72.6178 47.7277 72.6178 48.84Z" fill="#293858"/>
<path d="M72.8018 44.2628C73.7141 44.2628 74.4538 43.5251 74.4538 42.6151C74.4538 41.7051 73.7141 40.9673 72.8018 40.9673C71.8894 40.9673 71.1497 41.7051 71.1497 42.6151C71.1497 43.5251 71.8894 44.2628 72.8018 44.2628Z" fill="#293858"/>
<path d="M70.966 39.1372C70.966 40.2495 70.062 41.1511 68.9469 41.1511C67.8318 41.1511 66.9278 40.2495 66.9278 39.1372C66.9278 38.025 67.8318 37.1233 68.9469 37.1233C70.062 37.1233 70.966 38.025 70.966 39.1372Z" fill="#293858"/>
<path d="M90.3311 81.1539C91.5983 81.1539 92.6256 80.1292 92.6256 78.8653C92.6256 77.6014 91.5983 76.5768 90.3311 76.5768C89.0639 76.5768 88.0367 77.6014 88.0367 78.8653C88.0367 80.1292 89.0639 81.1539 90.3311 81.1539Z" fill="#293858"/>
<path d="M66.01 36.2078C66.01 37.4717 64.9827 38.4963 63.7155 38.4963C62.4484 38.4963 61.4211 37.4717 61.4211 36.2078C61.4211 34.9439 62.4484 33.9193 63.7155 33.9193C64.9827 33.9193 66.01 34.9439 66.01 36.2078Z" fill="#293858"/>
<path d="M65.2758 48.2C66.543 48.2 67.5703 47.1754 67.5703 45.9115C67.5703 44.6476 66.543 43.623 65.2758 43.623C64.0086 43.623 62.9814 44.6476 62.9814 45.9115C62.9814 47.1754 64.0086 48.2 65.2758 48.2Z" fill="#293858"/>
<path d="M65.4601 54.6989C65.4601 56.2156 64.2274 57.4452 62.7067 57.4452C61.1861 57.4452 59.9534 56.2156 59.9534 54.6989C59.9534 53.1822 61.1861 51.9527 62.7067 51.9527C64.2274 51.9527 65.4601 53.1822 65.4601 54.6989Z" fill="#293858"/>
<path d="M54.3538 57.4446C56.1279 57.4446 57.5661 56.0101 57.5661 54.2407C57.5661 52.4712 56.1279 51.0367 54.3538 51.0367C52.5798 51.0367 51.1416 52.4712 51.1416 54.2407C51.1416 56.0101 52.5798 57.4446 54.3538 57.4446Z" fill="#293858"/>
<path d="M48.2976 55.981C48.2976 58.0033 46.654 59.6427 44.6265 59.6427C42.599 59.6427 40.9553 58.0033 40.9553 55.981C40.9553 53.9587 42.599 52.3194 44.6265 52.3194C46.654 52.3194 48.2976 53.9587 48.2976 55.981Z" fill="#293858"/>
<path d="M33.9801 64.861C36.3624 64.861 38.2937 62.9347 38.2937 60.5586C38.2937 58.1824 36.3624 56.2561 33.9801 56.2561C31.5978 56.2561 29.6665 58.1824 29.6665 60.5586C29.6665 62.9347 31.5978 64.861 33.9801 64.861Z" fill="#293858"/>
<path d="M28.106 68.5219C28.106 71.3531 25.805 73.6482 22.9665 73.6482C20.128 73.6482 17.8269 71.3531 17.8269 68.5219C17.8269 65.6908 20.128 63.3956 22.9665 63.3956C25.805 63.3956 28.106 65.6908 28.106 68.5219Z" fill="#293858"/>
<path d="M29.6673 54.1502C32.0496 54.1502 33.9808 52.2239 33.9808 49.8477C33.9808 47.4716 32.0496 45.5453 29.6673 45.5453C27.285 45.5453 25.3537 47.4716 25.3537 49.8477C25.3537 52.2239 27.285 54.1502 29.6673 54.1502Z" fill="#293858"/>
<path d="M43.9833 45.2701C43.9833 47.2924 42.3397 48.9318 40.3122 48.9318C38.2847 48.9318 36.641 47.2924 36.641 45.2701C36.641 43.2479 38.2847 41.6085 40.3122 41.6085C42.3397 41.6085 43.9833 43.2479 43.9833 45.2701Z" fill="#293858"/>
<path d="M38.7516 39.2281C40.7791 39.2281 42.4228 37.5887 42.4228 35.5664C42.4228 33.5442 40.7791 31.9048 38.7516 31.9048C36.7241 31.9048 35.0805 33.5442 35.0805 35.5664C35.0805 37.5887 36.7241 39.2281 38.7516 39.2281Z" fill="#293858"/>
<path d="M51.693 33.8275C51.693 35.597 50.2548 37.0314 48.4807 37.0314C46.7067 37.0314 45.2685 35.597 45.2685 33.8275C45.2685 32.058 46.7067 30.6235 48.4807 30.6235C50.2548 30.6235 51.693 32.058 51.693 33.8275Z" fill="#293858"/>
<path d="M56.8318 37.0315C58.3524 37.0315 59.5851 35.802 59.5851 34.2853C59.5851 32.7686 58.3524 31.539 56.8318 31.539C55.3112 31.539 54.0785 32.7686 54.0785 34.2853C54.0785 35.802 55.3112 37.0315 56.8318 37.0315Z" fill="#293858"/>
<path d="M61.1458 43.9879C61.1458 45.5046 59.9131 46.7341 58.3925 46.7341C56.8718 46.7341 55.6391 45.5046 55.6391 43.9879C55.6391 42.4712 56.8718 41.2417 58.3925 41.2417C59.9131 41.2417 61.1458 42.4712 61.1458 43.9879Z" fill="#293858"/>
<path d="M50.041 46.8267C51.8151 46.8267 53.2533 45.3923 53.2533 43.6228C53.2533 41.8533 51.8151 40.4189 50.041 40.4189C48.267 40.4189 46.8288 41.8533 46.8288 43.6228C46.8288 45.3923 48.267 46.8267 50.041 46.8267Z" fill="#293858"/>
<path d="M42.6066 69.5285C42.6066 70.4386 41.867 71.1763 40.9546 71.1763C40.0422 71.1763 39.3026 70.4386 39.3026 69.5285C39.3026 68.6185 40.0422 67.8808 40.9546 67.8808C41.867 67.8808 42.6066 68.6185 42.6066 69.5285Z" fill="#293858"/>
<path d="M47.563 70.3531C48.6781 70.3531 49.5821 69.4514 49.5821 68.3392C49.5821 67.2269 48.6781 66.3252 47.563 66.3252C46.4478 66.3252 45.5438 67.2269 45.5438 68.3392C45.5438 69.4514 46.4478 70.3531 47.563 70.3531Z" fill="#293858"/>
<path d="M57.1072 65.3188C57.1072 66.5828 56.08 67.6074 54.8128 67.6074C53.5456 67.6074 52.5184 66.5828 52.5184 65.3188C52.5184 64.0549 53.5456 63.0303 54.8128 63.0303C56.08 63.0303 57.1072 64.0549 57.1072 65.3188Z" fill="#293858"/>
<path d="M56.5566 74.9298C58.0773 74.9298 59.31 73.7003 59.31 72.1836C59.31 70.6669 58.0773 69.4373 56.5566 69.4373C55.036 69.4373 53.8033 70.6669 53.8033 72.1836C53.8033 73.7003 55.036 74.9298 56.5566 74.9298Z" fill="#293858"/>
<path d="M50.0416 74.3799C50.0416 75.6439 49.0144 76.6685 47.7472 76.6685C46.48 76.6685 45.4527 75.6439 45.4527 74.3799C45.4527 73.116 46.48 72.0914 47.7472 72.0914C49.0144 72.0914 50.0416 73.116 50.0416 74.3799Z" fill="#293858"/>
<path d="M39.945 76.577C41.0601 76.577 41.9641 75.6753 41.9641 74.5631C41.9641 73.4508 41.0601 72.5491 39.945 72.5491C38.8299 72.5491 37.9259 73.4508 37.9259 74.5631C37.9259 75.6753 38.8299 76.577 39.945 76.577Z" fill="#293858"/>
<path d="M42.3307 80.6054C42.3307 81.8694 41.3035 82.894 40.0363 82.894C38.7691 82.894 37.7418 81.8694 37.7418 80.6054C37.7418 79.3415 38.7691 78.3169 40.0363 78.3169C41.3035 78.3169 42.3307 79.3415 42.3307 80.6054Z" fill="#293858"/>
<path d="M49.3982 84.0837C50.9188 84.0837 52.1515 82.8542 52.1515 81.3375C52.1515 79.8208 50.9188 78.5912 49.3982 78.5912C47.8776 78.5912 46.6449 79.8208 46.6449 81.3375C46.6449 82.8542 47.8776 84.0837 49.3982 84.0837Z" fill="#293858"/>
<path d="M63.5328 79.6898C63.5328 81.4593 62.0946 82.8938 60.3206 82.8938C58.5465 82.8938 57.1083 81.4593 57.1083 79.6898C57.1083 77.9203 58.5465 76.4859 60.3206 76.4859C62.0946 76.4859 63.5328 77.9203 63.5328 79.6898Z" fill="#293858"/>
<path d="M66.7436 90.8572C68.7711 90.8572 70.4147 89.2179 70.4147 87.1956C70.4147 85.1733 68.7711 83.5339 66.7436 83.5339C64.7161 83.5339 63.0725 85.1733 63.0725 87.1956C63.0725 89.2179 64.7161 90.8572 66.7436 90.8572Z" fill="#293858"/>
<path d="M56.4654 88.7524C56.4654 90.5219 55.0273 91.9563 53.2532 91.9563C51.4791 91.9563 50.041 90.5219 50.041 88.7524C50.041 86.9829 51.4791 85.5484 53.2532 85.5484C55.0273 85.5484 56.4654 86.9829 56.4654 88.7524Z" fill="#293858"/>
<path d="M45.6352 98.1807C47.4093 98.1807 48.8474 96.7462 48.8474 94.9767C48.8474 93.2073 47.4093 91.7728 45.6352 91.7728C43.8612 91.7728 42.423 93.2073 42.423 94.9767C42.423 96.7462 43.8612 98.1807 45.6352 98.1807Z" fill="#293858"/>
<path d="M55.6388 102.575C55.6388 104.598 53.9952 106.237 51.9677 106.237C49.9402 106.237 48.2966 104.598 48.2966 102.575C48.2966 100.553 49.9402 98.9137 51.9677 98.9137C53.9952 98.9137 55.6388 100.553 55.6388 102.575Z" fill="#293858"/>
<path d="M68.8553 107.702C71.2376 107.702 73.1689 105.776 73.1689 103.4C73.1689 101.023 71.2376 99.0971 68.8553 99.0971C66.473 99.0971 64.5418 101.023 64.5418 103.4C64.5418 105.776 66.473 107.702 68.8553 107.702Z" fill="#293858"/>
<path d="M63.2567 96.3499C63.2567 98.3721 61.6131 100.011 59.5856 100.011C57.5581 100.011 55.9145 98.3721 55.9145 96.3499C55.9145 94.3276 57.5581 92.6882 59.5856 92.6882C61.6131 92.6882 63.2567 94.3276 63.2567 96.3499Z" fill="#293858"/>
<path d="M75.9226 98.548C78.3049 98.548 80.2362 96.6218 80.2362 94.2456C80.2362 91.8695 78.3049 89.9432 75.9226 89.9432C73.5403 89.9432 71.6091 91.8695 71.6091 94.2456C71.6091 96.6218 73.5403 98.548 75.9226 98.548Z" fill="#293858"/>
<path d="M44.5337 87.5628C44.5337 89.0795 43.301 90.3091 41.7804 90.3091C40.2597 90.3091 39.027 89.0795 39.027 87.5628C39.027 86.0461 40.2597 84.8166 41.7804 84.8166C43.301 84.8166 44.5337 86.0461 44.5337 87.5628Z" fill="#293858"/>
<path fill-rule="evenodd" clip-rule="evenodd" d="M32.476 8.7019C52.5721 -2.90063 77.3317 -2.90063 97.4279 8.7019C117.524 20.3044 129.904 41.7468 129.904 64.9519C129.904 88.157 117.524 109.599 97.4279 121.202C77.3317 132.804 52.5721 132.804 32.476 121.202C12.3798 109.599 0 88.157 0 64.9519C0 41.7468 12.3798 20.3044 32.476 8.7019ZM3 64.9519C3 42.8186 14.808 22.3666 33.976 11.3C53.1439 0.233339 76.7599 0.233339 95.9279 11.3C115.096 22.3666 126.904 42.8186 126.904 64.9519C126.904 87.0852 115.096 107.537 95.9279 118.604C76.7599 129.67 53.1439 129.67 33.976 118.604C14.808 107.537 3 87.0852 3 64.9519Z" fill="#293858"/>
</svg>
