<svg width="130" height="130" viewBox="0 0 130 130" fill="none" xmlns="http://www.w3.org/2000/svg">
<path d="M41.8398 36.5144C40.5555 36.5144 39.5144 37.5576 39.5144 38.8445C39.5144 40.1314 40.5555 41.1746 41.8398 41.1746H68.0006C72.9038 41.1746 77.4547 42.6556 81.2409 45.1951C82.3081 45.911 83.7524 45.6244 84.4668 44.555C85.1812 43.4855 84.8952 42.0383 83.8279 41.3224C79.3002 38.2855 73.8533 36.5144 68.0006 36.5144H41.8398Z" fill="#293858"/>
<path d="M90.5494 47.6136C89.7638 46.5955 88.3034 46.4083 87.2873 47.1954C86.2713 47.9825 86.0844 49.4459 86.87 50.464C89.9842 54.5003 91.836 59.5594 91.836 65.0584C91.836 74.5377 86.3251 82.7317 78.328 86.5906C77.1709 87.1489 76.6846 88.5415 77.2418 89.7009C77.7991 90.8604 79.1888 91.3477 80.3459 90.7893C89.8913 86.1833 96.4868 76.3949 96.4868 65.0584C96.4868 58.4919 94.2711 52.4373 90.5494 47.6136Z" fill="#293858"/>
<path d="M41.8398 88.9422C40.5555 88.9422 39.5144 89.9854 39.5144 91.2723C39.5144 92.5592 40.5555 93.6024 41.8398 93.6024H71.4887C72.773 93.6024 73.8141 92.5592 73.8141 91.2723C73.8141 89.9854 72.773 88.9422 71.4887 88.9422H41.8398Z" fill="#293858"/>
<path d="M44.1628 49.3294C44.1628 48.0425 45.204 46.9993 46.4882 46.9993H67.9982C74.1035 46.9993 79.499 50.0435 82.7552 54.6893C83.4933 55.7424 83.2397 57.1957 82.1887 57.9353C81.1377 58.675 79.6874 58.4208 78.9492 57.3677C76.5264 53.911 72.5246 51.6595 67.9982 51.6595H46.4882C45.204 51.6595 44.1628 50.6163 44.1628 49.3294Z" fill="#293858"/>
<path d="M83.6947 62.7276C84.979 62.7276 86.0201 63.7708 86.0201 65.0577C86.0201 75.0311 77.9515 83.1162 67.9982 83.1162H46.4882C45.204 83.1162 44.1628 82.073 44.1628 80.7861C44.1628 79.4992 45.204 78.4559 46.4882 78.4559H67.9982C75.3829 78.4559 81.3693 72.4574 81.3693 65.0577C81.3693 63.7708 82.4104 62.7276 83.6947 62.7276Z" fill="#293858"/>
<path d="M49.9788 56.9026C48.6946 56.9026 47.6534 57.9458 47.6534 59.2327C47.6534 60.5196 48.6946 61.5628 49.9788 61.5628H66.838C68.7645 61.5628 70.3261 63.1277 70.3261 65.058C70.3261 66.9884 68.7645 68.5532 66.838 68.5532C65.5537 68.5532 64.5126 69.5964 64.5126 70.8833C64.5126 72.1702 65.5537 73.2134 66.838 73.2134C71.333 73.2134 74.977 69.5621 74.977 65.058C74.977 60.5539 71.333 56.9026 66.838 56.9026H49.9788Z" fill="#293858"/>
<path d="M49.9788 68.5532C48.6946 68.5532 47.6534 69.5964 47.6534 70.8833C47.6534 72.1702 48.6946 73.2134 49.9788 73.2134H58.1178C59.4021 73.2134 60.4432 72.1702 60.4432 70.8833C60.4432 69.5964 59.4021 68.5532 58.1178 68.5532H49.9788Z" fill="#293858"/>
<path fill-rule="evenodd" clip-rule="evenodd" d="M32.476 8.7019C52.5721 -2.90063 77.3317 -2.90063 97.4279 8.7019C117.524 20.3044 129.904 41.7468 129.904 64.9519C129.904 88.157 117.524 109.599 97.4279 121.202C77.3317 132.804 52.5721 132.804 32.476 121.202C12.3798 109.599 0 88.157 0 64.9519C0 41.7468 12.3798 20.3044 32.476 8.7019ZM3 64.9519C3 42.8186 14.808 22.3666 33.976 11.3C53.1439 0.233339 76.7599 0.233339 95.9279 11.3C115.096 22.3666 126.904 42.8186 126.904 64.9519C126.904 87.0852 115.096 107.537 95.9279 118.604C76.7599 129.67 53.1439 129.67 33.976 118.604C14.808 107.537 3 87.0852 3 64.9519Z" fill="#293858"/>
</svg>
