<svg width="130" height="130" viewBox="0 0 130 130" fill="none" xmlns="http://www.w3.org/2000/svg">
<path fill-rule="evenodd" clip-rule="evenodd" d="M55.2138 65.1695C55.2138 61.4411 56.5569 59.0549 59.6161 56.967C68.4952 51.0015 79.4636 62.7833 72.5991 70.9859C66.1822 78.5173 55.2138 74.8634 55.2138 65.1695ZM63.8691 69.4199C65.3614 69.4199 71.1068 62.8579 70.6591 61.6648C69.9875 59.9497 69.316 60.1734 66.5553 62.8579C64.6153 64.8712 63.9437 65.1695 62.8245 64.4984C61.3322 63.529 59.6907 63.9018 59.6907 65.2441C59.6907 66.288 62.8245 69.4199 63.8691 69.4199Z" fill="#293858"/>
<path fill-rule="evenodd" clip-rule="evenodd" d="M60.4368 26.6176C60.8099 25.6482 61.5561 24.6788 62.0784 24.4551C64.6153 23.4111 67.0776 24.0077 68.7937 26.0956C69.9129 27.5124 71.7037 28.4818 74.166 29.0783C77.6729 29.9731 84.3882 32.9559 86.4028 34.5964C86.9997 35.0438 88.7159 35.3421 90.2082 35.1929C93.7897 34.9692 95.7297 36.9826 95.3566 40.4873C95.2074 42.2024 96.0281 44.6632 97.9681 48.6153C99.535 51.7472 101.027 55.6993 101.251 57.3398C101.475 59.204 102.072 60.4717 102.669 60.4717C104.385 60.4717 105.952 62.7833 105.952 65.3932C105.952 67.4811 105.504 68.2268 103.788 69.2708C102.072 70.2402 101.475 71.2096 101.102 73.5958C100.878 75.2363 99.3112 79.263 97.7443 82.544C95.9535 86.1233 94.7597 89.4789 94.7597 91.0448C94.7597 94.475 93.6404 95.5189 90.1336 95.5189C88.3428 95.5189 85.5074 96.4883 82.5228 98.0543C79.9113 99.4711 75.8821 101.037 73.7183 101.484C70.8083 102.156 69.4652 102.827 68.9429 104.02C67.8983 106.481 62.8245 106.63 60.8099 104.243C59.8399 103.125 57.3776 101.857 53.9453 100.813C50.8115 99.9185 46.5585 97.8306 43.6485 95.8918C40.2908 93.5802 38.0524 92.5362 36.2616 92.5362C32.6801 92.5362 31.0386 90.4483 31.5609 86.5707C31.8593 84.4828 31.4863 82.3203 30.5909 80.0087C29.7701 78.0699 28.8001 75.0871 28.3524 73.2975C27.7555 71.0604 26.9347 69.8673 25.6663 69.2708C24.0248 68.5251 23.8009 68.0031 24.0248 65.0204C24.174 62.3359 24.6217 61.4411 25.8155 60.9191C26.9347 60.3971 27.8301 58.8312 28.6509 55.6993C29.397 53.164 30.8893 49.361 32.1578 47.2731C33.6501 44.5886 34.3216 42.277 34.3216 40.1145C34.3216 36.0878 35.2916 35.1184 39.3208 35.1184C41.5593 35.1184 43.5739 34.5218 45.6631 33.1796C48.9461 31.0917 56.1092 28.4072 58.3476 28.4072C59.0938 28.4072 59.9891 27.6615 60.4368 26.6176ZM62.3022 33.0305C61.2576 32.583 60.4368 31.6882 60.4368 31.0171C60.4368 30.4206 59.8399 29.8986 59.1684 29.9731C56.8553 30.0477 51.2592 32.0611 47.3792 34.2236C43.9469 36.0878 43.6485 36.5352 43.4246 39.2197C43.2754 40.8602 42.6785 42.7989 42.007 43.4701C41.037 44.5886 41.1116 45.4834 42.6039 52.2692C44.9169 62.7088 45.4392 62.7833 53.8707 55.1028C60.0638 49.4355 60.3622 49.0627 60.5861 45.7071C60.7353 42.8735 61.183 42.0533 62.526 41.4567C63.8691 40.8602 64.1676 40.1145 64.1676 37.2809C64.1676 34.3727 63.8691 33.7761 62.3022 33.0305ZM86.179 36.2369L80.5828 33.4779C72.8975 29.6003 70.3606 29.3766 67.7491 32.2102C66.1076 33.9998 65.6599 35.1929 65.6599 37.8028C65.6599 40.189 65.9583 41.0839 66.7791 41.0839C68.2714 41.0839 69.3906 43.4701 69.3906 46.4528C69.3906 48.5407 70.286 49.8084 75.2852 54.8045C83.3436 62.7833 84.0151 62.6342 86.7013 52.3437C88.4174 45.7071 88.5666 44.4394 87.6713 43.7683C87.0743 43.3209 86.552 41.4567 86.4028 39.5925L86.179 36.2369ZM41.1116 53.2385C40.2908 49.5847 39.3954 46.0054 39.097 45.3343C37.7539 41.755 33.7247 46.08 31.0386 53.9842C29.5463 58.3838 29.5463 60.3971 30.964 60.9191C31.5609 61.1428 32.2324 61.9631 32.4562 62.7833C32.8293 63.9019 33.6501 64.2001 36.6347 64.2001C38.9477 64.2001 40.2908 63.9019 40.2908 63.3053C40.2908 62.8579 40.8131 61.8885 41.41 61.2174C42.4546 60.0243 42.4546 59.2786 41.1116 53.2385ZM98.9381 55.4756C98.192 53.0894 96.6997 49.5847 95.6551 47.5713C92.5212 41.755 91.1035 42.7244 88.4174 52.7911C86.552 59.8006 86.4774 60.4717 87.5966 61.5902C88.2682 62.2613 88.7905 63.1562 88.7905 63.529C88.7905 63.9019 90.6559 64.2001 92.8943 64.2001C95.9535 64.2001 96.9981 63.9019 96.9981 63.1562C96.9981 62.5596 97.7443 61.5157 98.6396 60.9191C99.226 60.4929 99.6029 60.219 99.784 59.8491C100.11 59.1836 99.8014 58.2077 98.9381 55.4756ZM79.8367 64.7221C79.8367 61.7394 79.4636 61.1428 74.0167 55.7739C68.4952 50.3304 68.0475 50.0321 64.9137 50.0321C61.6307 50.0321 61.2576 50.3304 55.363 56.2213C49.9161 61.6648 49.2446 62.7088 49.2446 65.095C49.2446 67.9286 47.3046 70.1656 44.7677 70.1656C44.0216 70.1656 42.8277 72.4027 41.2608 76.5785C39.2462 81.8729 39.0224 83.1405 39.7685 84.4082C40.7143 86.0806 40.8798 86.0513 52.2325 84.0439L53.1246 83.8862C58.9445 82.8423 59.7653 82.4694 60.6607 80.6798C61.4068 79.1138 62.2276 78.6664 65.063 78.3682C68.1968 78.0699 69.316 77.3988 74.2406 72.9247C79.5382 68.1523 79.8367 67.6303 79.8367 64.7221ZM39.4701 76.4294C41.6339 70.8367 41.7831 69.7182 40.9623 68.2268C39.6193 65.6169 33.9485 65.7661 31.4116 68.4505C29.397 70.6876 29.5463 72.9992 32.0832 79.0393C33.3516 81.9474 34.1724 82.8423 35.4408 82.8423C36.7839 82.8423 37.4554 81.7983 39.4701 76.4294ZM100.132 70.9113L98.3412 68.7488C96.8489 66.81 96.1027 66.5118 92.8943 66.5118C89.7605 66.5118 88.9397 66.81 87.7459 68.376C86.4028 70.3148 86.4028 70.4639 87.9697 77.1751L88.132 77.845C89.8014 84.7365 90.1527 86.1866 90.9441 86.4906C91.155 86.5716 91.3972 86.5712 91.7039 86.5708L91.7751 86.5707C93.7897 86.5707 96.7743 81.8729 98.565 75.982L100.132 70.9113ZM86.552 78.5919C85.6567 74.4906 84.3882 70.9113 83.7167 70.3148C83.0451 69.8673 82.1498 69.4199 81.7767 69.4199C81.329 69.4199 78.3444 71.657 75.2106 74.416C70.286 78.741 69.4652 79.8595 69.4652 81.9474C69.3906 85.0048 68.1968 87.3164 66.7791 87.3164C65.8837 87.3164 65.6599 88.4349 65.6599 92.1633C65.6599 94.9224 65.9583 97.0103 66.406 97.0103C66.8537 97.0103 67.8237 97.8306 68.7191 98.8C70.0621 100.366 70.5844 100.515 73.3452 99.8439C74.9867 99.4711 78.419 98.1288 80.9559 96.7866C85.209 94.5495 85.4328 94.2513 85.6567 91.4177C85.8059 89.7772 86.4028 87.8384 87.0743 87.1673C88.1189 85.9742 88.1189 85.1539 86.552 78.5919ZM61.7799 97.9797C63.7945 95.9663 64.1676 95.1461 64.1676 92.0142C64.1676 88.8823 63.8691 88.2112 61.7053 86.5707L59.3176 84.6319L50.2146 86.1233C42.38 87.391 40.9623 87.8384 40.5893 89.106C39.9177 91.194 45.2154 95.6681 51.11 98.0543C57.6761 100.664 58.9445 100.664 61.7799 97.9797Z" fill="#293858"/>
<path fill-rule="evenodd" clip-rule="evenodd" d="M32.476 8.7019C52.5721 -2.90063 77.3317 -2.90063 97.4279 8.7019C117.524 20.3044 129.904 41.7468 129.904 64.9519C129.904 88.157 117.524 109.599 97.4279 121.202C77.3317 132.804 52.5721 132.804 32.476 121.202C12.3798 109.599 0 88.157 0 64.9519C0 41.7468 12.3798 20.3044 32.476 8.7019ZM3 64.9519C3 42.8186 14.808 22.3666 33.976 11.3C53.1439 0.233339 76.7599 0.233339 95.9279 11.3C115.096 22.3666 126.904 42.8186 126.904 64.9519C126.904 87.0852 115.096 107.537 95.9279 118.604C76.7599 129.67 53.1439 129.67 33.976 118.604C14.808 107.537 3 87.0852 3 64.9519Z" fill="#293858"/>
</svg>
