<svg width="150" height="150" viewBox="0 0 150 150" fill="none" xmlns="http://www.w3.org/2000/svg">
<path d="M99.1495 65.1238C105.526 61.0326 109.617 54.4281 111.061 46.0703C112.084 39.8751 111.302 34.9071 111.302 34.6734C111.181 33.7967 110.58 33.0953 109.738 32.7446C108.895 32.394 107.933 32.5693 107.271 33.0953L68.5884 62.143C69.2501 59.5714 68.7688 56.9413 67.2047 54.8373C64.678 51.5643 60.4066 50.9798 57.0377 52.2656L56.5564 51.9734C54.0899 50.3954 51.503 50.0447 48.9161 50.9798C43.9229 52.7917 40.0125 59.2207 38.328 64.7731C38.2077 65.2407 38.4483 65.7667 38.9296 65.942C39.0499 66.0005 39.1703 66.0005 39.3507 66.0005C39.7117 66.0005 40.0727 65.8251 40.2531 65.4745C42.9002 60.2728 47.2918 55.7724 50.4803 55.0126C51.3827 54.7788 52.1648 54.8957 52.8265 55.3048L53.007 55.4217C51.3225 57.4673 50.2998 60.0974 49.9388 63.1951C49.5779 66.4096 50.0592 69.9164 51.142 72.3126C51.5632 73.2478 52.4656 73.7738 53.4883 73.7738C53.7289 73.7738 54.0297 73.7154 54.2703 73.6569C56.6166 72.8971 60.4066 71.436 63.5349 69.1566C63.1138 70.0333 62.8732 70.9684 62.813 71.962C62.6325 74.2414 63.3545 76.4623 64.8585 78.2157C66.3625 79.9691 68.5282 81.0796 70.8744 81.2549C71.1151 81.2549 71.4159 81.3134 71.6565 81.3134C71.7167 81.3134 71.837 81.3134 71.8971 81.3134C69.7314 84.2941 68.9493 88.5022 70.9948 93.1195C75.4466 103.055 69.8517 109.66 65.8812 111.998C64.9788 112.524 64.4975 113.576 64.7983 114.569C65.0991 115.563 66.0015 116.264 67.0844 116.323C67.4453 116.323 67.8063 116.323 68.1672 116.323C82.4853 116.323 88.802 109.484 91.3287 105.335C95.3594 98.6718 95.179 90.0803 90.8475 82.9498C88.6215 79.2677 84.29 76.2285 79.4171 76.8714C80.0187 75.8194 80.3797 74.7089 80.5 73.4816C80.6203 72.1373 80.4398 70.8515 79.8984 69.6241C81.0414 69.741 82.1845 69.7995 83.3876 69.7995C88.2606 69.6241 93.8554 68.5721 99.1495 65.1238ZM55.1126 67.9876C54.8719 66.7018 54.7516 65.1822 54.9321 63.6042C55.1727 61.5586 55.8947 58.8116 58.1807 57.2336C58.7222 56.8244 59.5644 56.5906 60.4066 56.5906C61.3692 56.5906 62.3919 56.9413 63.0537 57.818C64.2569 59.4545 63.7154 61.617 62.6326 63.0197C61.1887 64.8315 58.5417 66.6434 55.1126 67.9876ZM71.2354 76.2285C70.2127 76.1701 69.3103 75.7025 68.6485 74.9427C67.9868 74.1829 67.686 73.2478 67.7461 72.2542C67.8063 71.2606 68.2876 70.3839 69.0696 69.741C69.7314 69.1566 70.6338 68.8643 71.476 68.8643C71.5963 68.8643 71.7167 68.8643 71.7768 68.8643C72.7995 68.9228 73.7019 69.3903 74.3637 70.1501C75.0255 70.9099 75.3262 71.8451 75.2661 72.8387C75.2059 73.8322 74.7247 74.7089 73.9426 75.3518C73.2207 75.9948 72.2581 76.287 71.2354 76.2285ZM80.7406 81.3134C82.3048 81.3134 83.9892 81.9563 85.4932 83.5927C85.6737 83.7681 85.6737 84.0019 85.6136 84.1772C84.7112 86.0475 82.7861 88.3269 80.9211 89.4958C80.6203 89.6711 80.5 90.0803 80.6203 90.3725C80.7406 90.7232 81.1617 90.8985 81.5227 90.8401C83.0267 90.5478 85.1924 89.7296 86.9972 88.6191C87.1777 88.5022 87.298 88.4438 87.4785 88.3269C87.7793 88.0931 88.2606 88.2684 88.3809 88.6191C89.163 90.7816 89.5239 93.0026 89.4638 95.1651C89.4638 95.3989 89.2833 95.6326 89.0427 95.6911C87.1176 96.334 84.8315 96.6847 83.0267 96.3924C82.6056 96.334 82.1845 96.4509 82.0641 96.86C81.8837 97.2691 82.1243 97.6198 82.4853 97.8536C83.8088 98.6134 85.794 99.4316 87.8996 99.8992C88.2606 99.9577 88.5012 100.367 88.3207 100.659C88.0199 101.419 87.659 102.12 87.2379 102.822C86.5761 103.932 85.794 104.926 84.8916 105.802C84.7112 105.978 84.4104 106.036 84.1697 105.919C83.2072 105.452 82.3048 104.867 81.643 104.341C81.4024 104.107 81.0414 104.107 80.8008 104.341C80.5601 104.516 80.4398 104.926 80.6203 105.218C80.9211 105.802 81.4625 106.562 82.0641 107.38C82.2446 107.673 82.1845 108.023 81.9438 108.199C80.0187 109.367 77.853 110.244 75.3864 110.829C74.845 110.946 74.484 110.42 74.7247 109.952C78.3944 104.166 78.0334 96.86 75.5067 91.1907C73.5215 86.7488 75.5067 83.3005 78.2139 82.0147C78.8155 81.5471 79.7179 81.3134 80.7406 81.3134ZM75.0856 63.5457L106.489 39.9335C106.429 45.6612 104.925 55.4802 96.322 61.0326C88.7419 65.8836 80.0789 64.8316 75.0856 63.5457Z" fill="#293858"/>
<path d="M62.75 8.80459C70.3303 4.42809 79.6697 4.42809 87.25 8.80459L126.202 31.2935C133.782 35.67 138.452 43.7581 138.452 52.5111V97.4889C138.452 106.242 133.782 114.33 126.202 118.707L87.25 141.195C79.6697 145.572 70.3303 145.572 62.75 141.195L23.7981 118.707C16.2178 114.33 11.5481 106.242 11.5481 97.4889V52.5111C11.5481 43.7581 16.2178 35.67 23.7981 31.2935L62.75 8.80459Z" stroke="#293858" stroke-width="3"/>
</svg>
