<svg width="150" height="150" viewBox="0 0 150 150" fill="none" xmlns="http://www.w3.org/2000/svg">
<path fill-rule="evenodd" clip-rule="evenodd" d="M83.3982 57.6642C83.3982 55.5245 81.4742 53.8 79.4738 52.5853C79.8297 52.139 80.2106 51.7252 80.6165 51.3608C81.871 50.2833 83.3983 49.7446 84.9801 49.3136C85.0892 49.3136 85.1983 49.2597 85.3073 49.2058C85.9619 48.8287 86.1801 47.9667 85.7982 47.3202C85.4164 46.6737 84.5437 46.4582 83.8892 46.8353C83.0165 47.2663 82.2528 47.805 81.4892 48.3977C80.7256 48.9903 80.071 49.6907 79.5256 50.4988C79.2011 51.0329 78.9005 51.567 78.6552 52.1167C78.0682 51.7995 77.4966 51.5279 76.988 51.3043C75.7561 50.7629 74.3592 50.7891 73.1424 51.3628C72.5661 51.6345 71.9077 51.9695 71.2378 52.3601C70.9882 51.709 70.6679 51.0727 70.2529 50.4988C69.7075 49.6907 69.0529 48.9903 68.2893 48.3977C67.5257 47.8051 66.7075 47.3202 65.8894 46.8354C65.8348 46.8084 65.7802 46.7949 65.7257 46.7814C65.6711 46.768 65.6166 46.7545 65.562 46.7276C64.7984 46.5121 64.0893 46.9431 63.8712 47.6973C63.653 48.4516 64.0893 49.152 64.853 49.3675C66.4348 49.7985 67.962 50.3372 69.2166 51.4147C69.6749 51.8263 70.1014 52.3008 70.4961 52.8141C68.5692 54.0543 66.762 55.7324 66.762 57.6642C66.762 59.945 67.9938 61.979 69.9059 63.3021C69.0095 63.8074 68.205 64.4444 67.5141 65.1908C67.4642 65.1765 67.4135 65.1639 67.362 65.1528C57.8712 63.0517 43.9622 60.5734 35.7259 59.2804C32.7805 58.8494 31.0351 60.5734 30.6532 62.459C30.2169 64.6141 31.2532 67.3617 33.435 69.8938C35.7805 72.5337 39.0532 74.5271 42.6531 75.3891C43.2659 75.5484 43.9025 75.6794 44.5573 75.785C44.4407 76.2201 44.3888 76.6675 44.3986 77.1132C44.4532 81.0461 48.4895 83.7398 52.0349 83.7398C57.9309 83.7398 62.7079 80.1131 65.7778 76.9527C66.15 77.7592 66.6206 78.5025 67.1763 79.1691C65.6332 81.5956 64.7984 84.7783 64.7984 88.3732C64.7984 96.0774 68.7256 106.852 75.1074 106.852C81.4891 106.852 85.4164 96.0774 85.3073 88.3732C85.3073 84.8072 84.4899 81.6624 82.9698 79.2506C83.5257 78.5982 83.999 77.8703 84.377 77.0802C87.4503 80.2276 92.1862 83.74 98.0163 83.74C101.562 83.74 105.598 80.9923 105.653 77.1133C105.653 76.6699 105.593 76.2247 105.472 75.7917C106.149 75.6851 106.811 75.5519 107.453 75.3893C111.053 74.5273 114.325 72.5339 116.671 69.894C118.853 67.4158 119.889 64.6142 119.453 62.4592C119.071 60.5197 117.325 58.7957 114.38 59.2806C106.144 60.5736 92.2891 63.0519 82.7437 65.153C82.7221 65.1576 82.7007 65.1626 82.6793 65.1678C81.9891 64.4269 81.1866 63.7948 80.2931 63.2932C82.2061 61.9609 83.4295 59.9188 83.3982 57.6642ZM79.5663 81.821C78.2317 82.4329 76.7251 82.7702 75.1074 82.7702C73.4454 82.7702 71.9006 82.4142 70.5392 81.7701C69.6664 83.2956 69.1633 85.3033 69.0691 87.5804L69.2712 87.6995C69.8835 88.0608 70.4811 88.4135 71.1257 88.6964C71.6708 89.0132 72.2349 89.2741 72.8178 89.4901C73.1446 89.6111 73.1284 90.0904 72.7839 90.1457C72.1158 90.253 71.4399 90.3127 70.7438 90.3127C70.2064 90.338 69.669 90.3277 69.1372 90.3096C69.2917 92.1144 69.6496 93.8853 70.1351 95.4971C70.5187 95.7236 70.8985 95.9382 71.2893 96.1312C71.8125 96.4219 72.3554 96.6739 72.9179 96.8871C73.2371 97.0082 73.2234 97.4678 72.8869 97.5278C72.2498 97.6413 71.5957 97.7145 70.962 97.7474L70.9364 97.7487C72.1477 100.66 73.7356 102.65 75.0528 102.65C76.3645 102.65 77.9445 100.677 79.1538 97.7857C78.5459 97.7225 77.955 97.6416 77.3813 97.5335C77.0454 97.4703 77.0324 97.0087 77.3526 96.8902C77.9147 96.6822 78.4572 96.4433 78.9802 96.1851C79.2963 96.0289 79.6053 95.8586 79.915 95.6793C80.4282 94.0208 80.8074 92.1861 80.968 90.3149C80.4899 90.3294 80.0078 90.3354 79.5256 90.3127C78.8374 90.3127 78.1492 90.2543 77.4846 90.1493C77.14 90.0949 77.1282 89.6227 77.4571 89.5072C78.0651 89.2938 78.6415 89.0415 79.1983 88.7503C79.7901 88.4409 80.3818 88.1095 80.9878 87.7702L81.0421 87.7397C80.9636 85.4234 80.4523 83.393 79.5663 81.821ZM76.0815 55.0817C75.4543 54.846 74.7647 54.86 74.1447 55.1135C72.9354 55.608 71.0165 56.5584 71.0165 57.6103C71.0165 59.1463 72.8711 60.6274 75.1074 60.6274C77.2892 60.6274 79.1983 59.4185 79.1983 57.6103C79.23 56.45 77.3015 55.5403 76.0815 55.0817ZM75.1074 66.2304C71.562 66.2304 69.1074 68.7626 69.1074 72.3722C69.1074 75.9819 71.562 78.514 75.1074 78.514C78.6528 78.514 81.1073 75.9819 81.1073 72.3722C81.1073 68.7626 78.6528 66.2304 75.1074 66.2304ZM106.307 70.8638C99.7618 72.4262 89.9982 70.4328 85.4164 69.3553C94.3618 67.4696 106.962 65.2069 114.816 63.9677C114.38 65.6917 111.653 69.5708 106.307 70.8638ZM89.3982 75.3354C91.6891 77.2749 94.6891 79.0528 98.0163 79.0528C99.2709 79.0528 100.144 78.4063 100.58 77.8137C100.907 77.3827 100.907 77.0594 100.907 76.9517C100.853 76.8978 100.471 76.6284 99.4345 76.5745C96.3254 76.5207 93.0527 76.0897 89.3982 75.3354ZM35.235 63.9676C35.6168 65.6916 38.3441 69.5706 43.744 70.8636C50.2349 72.426 60.053 70.4326 64.6348 69.3551C55.6894 67.4695 43.0895 65.2067 35.235 63.9676ZM50.6168 76.5744C53.7258 76.4667 56.9985 76.0895 60.653 75.3353C58.3621 77.3287 55.3622 79.0527 52.0349 79.0527C50.8349 79.0527 49.9077 78.4062 49.4713 77.8136C49.144 77.3287 49.144 77.0054 49.144 76.9515C49.1986 76.8438 49.5804 76.6283 50.6168 76.5744Z" fill="#293858"/>
<path d="M62.75 8.80459C70.3303 4.42809 79.6697 4.42809 87.25 8.80459L126.202 31.2935C133.782 35.67 138.452 43.7581 138.452 52.5111V97.4889C138.452 106.242 133.782 114.33 126.202 118.707L87.25 141.195C79.6697 145.572 70.3303 145.572 62.75 141.195L23.7981 118.707C16.2178 114.33 11.5481 106.242 11.5481 97.4889V52.5111C11.5481 43.7581 16.2178 35.67 23.7981 31.2935L62.75 8.80459Z" stroke="#293858" stroke-width="3"/>
</svg>
