<svg width="150" height="150" viewBox="0 0 150 150" fill="none" xmlns="http://www.w3.org/2000/svg">
<path fill-rule="evenodd" clip-rule="evenodd" d="M72.3701 46.7482C71.2598 46.7482 70.2357 47.0643 69.3734 47.6176C68.9946 46.8622 68.5646 46.1208 68.0816 45.3967C66.5653 43.1234 64.9644 41.7039 63.1648 40.4042C59.3085 37.8047 54.0407 36.1578 51.0816 36.18C48.1225 36.2021 47.7552 41.5146 51.3387 41.379C58.4243 41.1109 64.2364 42.438 68.5336 48.2795C67.4149 49.3509 66.7255 50.9009 66.7255 52.657C66.7255 55.5876 68.6454 57.944 71.2759 58.4604C70.0973 58.9809 69.0288 59.7494 67.8507 60.634C67.7956 60.6858 67.5997 60.8465 67.2869 61.1032C64.2922 63.5611 50.5828 74.8129 47.0651 83.3972C43.3445 92.3024 49.4294 100.225 50.2859 101.34C50.3237 101.39 50.3514 101.426 50.3675 101.448C51.4209 102.859 53.951 102.703 54.6412 101.083L68.1813 71.8101C68.7364 72.3503 69.3782 72.82 70.0881 73.2029C71.0735 74.0536 71.6733 75.2385 71.6733 76.1989C71.6733 77.257 71.3003 77.5278 69.6314 78.739L69.3719 78.9275C69.2715 79.0005 69.2159 79.0694 69.2002 79.1341C66.9582 80.7299 65.3751 83.3137 65.0273 86.4024C65.0219 86.4497 65.0176 86.4971 65.0144 86.5446C64.6012 92.5306 64.557 101.621 66.5742 108.326C66.5837 108.357 66.5936 108.389 66.604 108.42C67.4269 110.881 68.4055 112.965 69.5788 114.491C70.7385 115.999 72.3863 117.323 74.4977 117.323C76.609 117.323 78.2569 115.999 79.4165 114.491C80.5827 112.974 81.5565 110.907 82.3763 108.465C84.8563 101.679 84.8022 92.5538 84.1826 86.5027C83.9429 82.774 81.7602 79.9035 78.912 78.4511C77.5369 77.4755 77.3509 77.1671 77.3509 76.1989C77.3509 75.1019 78.757 73.7323 80.0437 72.8297C80.1241 72.7733 80.1487 72.7207 80.1245 72.6718C80.493 72.4144 80.837 72.1312 81.1531 71.8252L94.6863 101.083C95.3764 102.703 97.9065 102.859 98.9599 101.448C98.9759 101.426 99.0032 101.39 99.0406 101.342L99.0416 101.341C99.8981 100.225 105.983 92.3024 102.262 83.3972C98.6174 74.5022 84.235 62.8224 81.7832 60.8313C81.6812 60.7485 81.5999 60.6824 81.5409 60.634C80.6788 59.9277 79.4393 59.0659 78.0017 58.4697C80.6572 57.973 82.6008 55.6056 82.6008 52.657C82.6008 50.8865 81.9 49.3256 80.7652 48.2533C85.0604 42.434 90.8657 41.1113 97.9407 41.379C101.524 41.5146 101.157 36.2021 98.1978 36.18C95.2387 36.1578 89.9709 37.8047 86.1146 40.4042C84.315 41.7039 82.7141 43.1234 81.1978 45.3967C80.7196 46.1136 80.2934 46.8474 79.9173 47.595C79.0625 47.0557 78.0513 46.7482 76.9562 46.7482L72.3701 46.7482ZM77.852 64.6885L77.6072 64.1592C77.0445 63.2186 75.9081 62.5383 74.675 62.5383C72.9267 62.5383 71.3726 63.9058 71.3726 65.4442V66.6407C71.3726 68.1791 72.9267 69.5466 74.675 69.5466C76.4233 69.5466 77.9774 68.1792 77.9774 66.6407V65.4442C77.9774 65.1856 77.9334 64.9318 77.852 64.6885ZM51.9216 85.2205C53.4756 81.3916 57.555 76.8333 61.6344 72.822L51.9216 93.9724C51.1445 91.6021 50.5618 88.3202 51.9216 85.2205ZM87.693 72.822C91.7724 76.8333 95.8518 81.3916 97.4059 85.2205C98.7657 88.3202 98.1829 91.6021 97.4059 93.9724L87.693 72.822ZM72.1345 51.593C71.7455 51.593 71.3565 52.1251 71.3565 52.6571C71.3565 53.1892 71.7455 53.7213 72.1345 53.7213H77.1918C77.5808 53.7213 77.9698 53.1892 77.9698 52.6571C77.9698 52.1251 77.5808 51.593 77.1918 51.593L72.1345 51.593ZM70.633 97.6271C70.5219 95.794 70.4875 93.9357 70.5077 92.1442L73.4242 94.1049C74.1794 94.6126 75.1481 94.6126 75.9033 94.1049L78.8092 92.1513C78.8501 93.9425 78.8175 95.8015 78.6864 97.6327L74.6638 100.337L70.633 97.6271ZM71.3786 103.836C71.5534 104.73 71.7585 105.584 71.9975 106.385C72.7001 108.476 73.3993 109.812 73.9821 110.57C74.219 110.878 74.392 111.037 74.4977 111.117C74.6034 111.037 74.7763 110.878 75.0132 110.57C75.6004 109.807 76.3057 108.456 77.0136 106.338C77.0238 106.308 77.0344 106.277 77.0454 106.247C77.3081 105.533 77.5371 104.773 77.7354 103.98L75.9033 105.211C75.1481 105.719 74.1794 105.719 73.4242 105.211L71.3786 103.836ZM74.6638 89.2305L70.7904 86.6265C71.2091 84.8551 72.7043 83.5508 74.5997 83.5508C76.7094 83.5508 78.2173 85.0561 78.455 86.6818L74.6638 89.2305Z" fill="#293858"/>
<path d="M62.75 8.80459C70.3303 4.42809 79.6697 4.42809 87.25 8.80459L126.202 31.2935C133.782 35.67 138.452 43.7581 138.452 52.5111V97.4889C138.452 106.242 133.782 114.33 126.202 118.707L87.25 141.195C79.6697 145.572 70.3303 145.572 62.75 141.195L23.7981 118.707C16.2178 114.33 11.5481 106.242 11.5481 97.4889V52.5111C11.5481 43.7581 16.2178 35.67 23.7981 31.2935L62.75 8.80459Z" stroke="#293858" stroke-width="3"/>
</svg>
