<svg width="150" height="150" viewBox="0 0 150 150" fill="none" xmlns="http://www.w3.org/2000/svg">
<path d="M62.75 8.80459C70.3303 4.42809 79.6697 4.42809 87.25 8.80459L126.202 31.2935C133.782 35.67 138.452 43.7581 138.452 52.5111V97.4889C138.452 106.242 133.782 114.33 126.202 118.707L87.25 141.195C79.6697 145.572 70.3303 145.572 62.75 141.195L23.7981 118.707C16.2178 114.33 11.5481 106.242 11.5481 97.4889V52.5111C11.5481 43.7581 16.2178 35.67 23.7981 31.2935L62.75 8.80459Z" stroke="#293858" stroke-width="3"/>
<path fill-rule="evenodd" clip-rule="evenodd" d="M86.6587 35.1747C79.4281 30.9418 70.362 30.9418 63.1317 35.1747L45.9339 45.2429C39.146 49.2167 35 56.3272 35 63.9944V86.0054C35 93.6729 39.146 100.783 45.9339 104.757L63.1317 114.825C70.362 119.058 79.4281 119.058 86.6584 114.825L103.856 104.757C105.476 103.809 106.945 102.683 108.242 101.413C109.276 100.402 108.986 98.7412 107.758 97.9712C106.719 97.32 105.365 97.5443 104.466 98.3734C103.542 99.2255 102.513 99.9899 101.391 100.647L84.1934 110.715C78.4833 114.058 71.3068 114.058 65.5967 110.715L48.3991 100.647C46.301 99.4184 44.5312 97.8156 43.1551 95.9624C42.7394 95.4025 42.955 94.6229 43.5769 94.2995L49.9293 90.9962C50.4713 90.7144 51.1367 90.8811 51.5195 91.3532C52.6302 92.7227 54.0005 93.9089 55.5876 94.8381L67.0526 101.55C71.8729 104.372 77.9172 104.372 82.7375 101.55L94.2025 94.8381C94.76 94.5117 95.2908 94.1536 95.7927 93.7671C97.0016 92.8364 96.7376 91.0613 95.4437 90.2499C94.4536 89.6293 93.176 89.7981 92.2002 90.4403C92.0493 90.5396 91.895 90.6355 91.7375 90.7277L80.2722 97.4399C76.9723 99.3721 72.8181 99.3721 69.5179 97.4399L58.0529 90.7277C54.9669 88.9212 53.1341 85.7265 53.1341 82.3369V67.663C53.1341 64.2734 54.9669 61.0789 58.0529 59.2721L69.5179 52.5599C72.8181 50.6281 76.9723 50.6281 80.2722 52.5599L91.7375 59.2721C91.9692 59.4079 92.1936 59.5513 92.411 59.7021C93.3953 60.385 94.7122 60.5743 95.7223 59.9287C96.977 59.1264 97.2444 57.4036 96.0891 56.467C95.501 55.99 94.8708 55.5532 94.2025 55.162L82.7375 48.4498C81.2303 47.5675 79.6037 46.9609 77.9321 46.6305C77.3363 46.5126 76.8839 46.0107 76.8839 45.4104V38.2156C76.8839 37.505 77.5095 36.9483 78.217 37.0767C80.2977 37.4546 82.324 38.1907 84.1934 39.2849L101.391 49.3534C102.56 50.0374 103.626 50.8374 104.579 51.7322C105.483 52.58 106.859 52.8092 107.905 52.1404C109.11 51.3698 109.395 49.7336 108.384 48.7265C107.051 47.3994 105.534 46.2254 103.856 45.2429L86.6587 35.1747ZM65.5967 39.2849C67.1921 38.3511 68.9017 37.6781 70.6617 37.2659C71.3841 37.0968 72.0481 37.6597 72.0481 38.393V45.6025C72.0481 46.1776 71.6321 46.6659 71.0683 46.8082C69.6748 47.1598 68.3213 47.7072 67.0526 48.4498L55.5876 55.162C51.0625 57.8113 48.2984 62.5514 48.2984 67.663V82.3371C48.2984 83.3205 48.4009 84.2902 48.5981 85.234C48.7135 85.7845 48.4684 86.357 47.9648 86.6187L41.7885 89.8304C41.1076 90.1846 40.2672 89.8279 40.1255 89.0807C39.9342 88.0748 39.8357 87.0459 39.8357 86.0057V63.9944C39.8357 58.0492 43.0503 52.4844 48.3989 49.3534L65.5967 39.2849Z" fill="#293858"/>
<path fill-rule="evenodd" clip-rule="evenodd" d="M71.6617 62.0336C74.0159 60.6553 76.9679 60.6553 79.3221 62.0336L84.9214 65.3117C87.1316 66.6054 88.4813 68.9206 88.4813 71.4168V78.5833C88.4813 81.0798 87.1316 83.395 84.9214 84.6887L79.3221 87.9669C76.9679 89.3451 74.0159 89.3451 71.6617 87.9669L66.0624 84.6887C63.8525 83.395 62.5025 81.0798 62.5025 78.5833V71.4168C62.5025 68.9206 63.8525 66.6054 66.0624 65.3117L71.6617 62.0336ZM76.9141 66.0484L82.5134 69.3265C83.3177 69.7973 83.7578 70.6027 83.7578 71.4168V78.5833C83.7578 79.3978 83.3177 80.2032 82.5134 80.6739L76.9141 83.952C76.0448 84.461 74.9393 84.461 74.0697 83.952L68.4703 80.6739C67.6661 80.2032 67.226 79.3978 67.226 78.5833V71.4168C67.226 70.6027 67.6661 69.7973 68.4703 69.3265L74.0697 66.0484C74.9393 65.5395 76.0448 65.5395 76.9141 66.0484Z" fill="#293858"/>
</svg>
