<svg width="130" height="130" viewBox="0 0 130 130" fill="none" xmlns="http://www.w3.org/2000/svg">
<path d="M64.2409 29.9519C65.4341 29.9519 66.4014 30.9204 66.4014 32.1151L66.4016 97.5827C66.4016 99.8289 65.4341 100.952 64.2409 100.952C63.0477 100.952 62.0803 99.8289 62.0803 97.5827V32.1151C62.0803 30.9204 63.0477 29.9519 64.2409 29.9519Z" fill="#293858"/>
<path d="M99.8041 49.4688C99.3711 48.3556 98.1186 47.8046 97.0067 48.238L97.7908 50.2539C97.0067 48.238 97.0042 48.2392 97.0042 48.2392L97.0013 48.2403L96.9944 48.2428L96.9767 48.2501L96.924 48.2714C96.8818 48.2887 96.825 48.3126 96.7546 48.3433C96.6137 48.4047 96.4186 48.493 96.1772 48.6108C95.6942 48.8461 95.0235 49.2 94.2278 49.6915C92.6386 50.6728 90.5372 52.2113 88.4393 54.4616C84.2104 58.998 80.0863 66.3371 80.0863 77.5411V85.2291L80.0859 85.3794L80.0854 85.4929C80.0788 86.781 80.0672 89.1216 81.1126 88.5983C82.2342 88.0368 83.917 85.7906 83.917 80.7369V77.5411C83.917 67.519 88.0552 61.2142 91.5983 57.4135C93.3864 55.4955 95.1711 54.1919 96.4963 53.3736C97.158 52.965 97.7016 52.6795 98.0686 52.5006C98.2522 52.4112 98.391 52.3486 98.478 52.3107L98.5114 52.2962C98.532 52.2874 98.5482 52.2806 98.56 52.2757L98.5684 52.2722L98.5822 52.2665C99.6891 51.8306 100.236 50.5795 99.8041 49.4688Z" fill="#293858"/>
<path d="M31.8972 48.3159C30.7853 47.8822 29.5328 48.4332 29.0998 49.5464C28.6677 50.6572 29.2147 51.9082 30.3218 52.3444L30.3355 52.3499C30.352 52.3567 30.3824 52.3694 30.4259 52.3885C30.5129 52.4263 30.6518 52.4888 30.8352 52.5782C31.2023 52.7572 31.7459 53.0428 32.4076 53.4513C33.7328 54.2697 35.5173 55.5731 37.3055 57.4911C40.8485 61.292 44.6563 67.5968 44.6563 77.6188V80.8145C44.6563 85.8685 46.6695 88.1145 47.7914 88.676C48.8365 89.1994 48.8249 86.8588 48.8186 85.5708L48.8185 85.5519C48.818 85.465 48.8176 85.3827 48.8176 85.307V77.6188C48.8176 66.4147 44.6935 59.0758 40.4647 54.5392C38.3667 52.2889 36.2653 50.7504 34.676 49.7691C33.8805 49.2779 33.2097 48.924 32.7268 48.6886C32.4852 48.5708 32.2901 48.4823 32.1494 48.4212C32.079 48.3905 32.0221 48.3666 31.9798 48.3491L31.9273 48.3277L31.9094 48.3206L31.9026 48.3179L31.8997 48.3168C31.8997 48.3168 31.8972 48.3159 31.1133 50.331L31.8972 48.3159Z" fill="#293858"/>
<path d="M85.3857 39.1889C84.5632 38.3231 83.148 38.3349 82.2835 39.1584C82.1938 39.2473 82.1813 39.2552 82.174 39.2597C82.1631 39.2665 82.1528 39.277 81.8711 39.5861L81.8642 39.5937L81.7908 39.6744C81.4785 40.0169 81.0474 40.5159 80.5374 41.1743C79.5175 42.4908 78.1814 44.4457 76.853 47.0601C74.1917 52.2981 71.5768 60.1534 71.5768 70.7653C71.5768 73.8489 71.6145 79.1573 71.652 83.6871C71.6706 85.9536 71.6895 88.0279 71.7035 89.5357L71.7269 94.2137C71.7282 94.3346 71.7277 94.4567 71.7273 94.5777L71.7272 94.6167C71.7219 95.6753 71.7172 96.6562 72.6985 96.4597C75.5029 95.8982 76.0246 91.406 76.0246 88.0368C76.0185 87.402 76.0118 86.9257 76.0046 86.4176L76.0044 86.405C75.9944 85.7112 75.9837 84.9527 75.9731 83.6512C75.9353 79.1187 75.8979 73.8282 75.8979 70.7653C75.8979 60.8932 78.3245 53.7058 80.7044 49.0219C81.8967 46.6753 83.0813 44.9497 83.9519 43.8258C84.3871 43.2638 84.7438 42.8526 84.983 42.5902C85.0909 42.4717 85.2001 42.3539 85.3146 42.2418C86.1739 41.4178 86.2062 40.0526 85.3857 39.1889Z" fill="#293858"/>
<path d="M46.5707 39.1123C45.7061 38.289 44.3385 38.3231 43.516 39.1889C42.6955 40.0527 42.7277 41.4179 43.5871 42.2418L43.5952 42.2498L43.6041 42.2586C43.6152 42.2697 43.6315 42.2859 43.6529 42.3078C43.7088 42.3649 43.799 42.459 43.9187 42.5902C44.1579 42.8527 44.5145 43.2639 44.9497 43.8258C45.8204 44.9497 47.005 46.6754 48.1973 49.0219C50.5771 53.7059 53.0038 60.8933 53.0038 70.7654C53.0038 73.828 52.9663 79.1187 52.9286 83.6512C52.9179 84.9528 52.9073 85.7092 52.8973 86.4033L52.8971 86.4177C52.8899 86.9258 52.8831 87.4022 52.877 88.0368C52.877 91.406 53.3988 95.8983 56.2032 96.4598C57.1845 96.6563 57.1797 95.6752 57.1745 94.6168L57.1744 94.5774C57.1739 94.4564 57.1735 94.3346 57.1747 94.2138L57.1981 89.5355C57.2122 88.0279 57.2311 85.9536 57.2497 83.6872C57.2872 79.1574 57.3249 73.849 57.3249 70.7654C57.3249 60.1535 54.7101 52.2981 52.0486 47.0602C50.7203 44.4458 49.3842 42.4909 48.3643 41.1743C47.8543 40.5159 47.4232 40.017 47.1111 39.6743C46.9548 39.503 46.8285 39.3709 46.7367 39.2772C46.6908 39.2306 46.6538 39.1935 46.6259 39.166L46.5911 39.1319L46.5791 39.1203L46.5743 39.1159L46.5725 39.1139C46.5725 39.1139 46.5707 39.1123 45.0815 40.6797L46.5707 39.1123Z" fill="#293858"/>
<path fill-rule="evenodd" clip-rule="evenodd" d="M32.476 8.7019C52.5721 -2.90063 77.3317 -2.90063 97.4279 8.7019C117.524 20.3044 129.904 41.7468 129.904 64.9519C129.904 88.157 117.524 109.599 97.4279 121.202C77.3317 132.804 52.5721 132.804 32.476 121.202C12.3798 109.599 0 88.157 0 64.9519C0 41.7468 12.3798 20.3044 32.476 8.7019ZM3 64.9519C3 42.8186 14.808 22.3666 33.976 11.3C53.1439 0.233339 76.7599 0.233339 95.9279 11.3C115.096 22.3666 126.904 42.8186 126.904 64.9519C126.904 87.0852 115.096 107.537 95.9279 118.604C76.7599 129.67 53.1439 129.67 33.976 118.604C14.808 107.537 3 87.0852 3 64.9519Z" fill="#293858"/>
</svg>
