<svg width="130" height="130" viewBox="0 0 130 130" fill="none" xmlns="http://www.w3.org/2000/svg">
<path fill-rule="evenodd" clip-rule="evenodd" d="M73.7965 35.7664C74.7652 36.3063 75.3267 37.3312 75.2415 38.4039L74.9312 42.3119C74.8492 43.345 75.3671 44.3372 76.278 44.8921L79.9936 47.1557C81.4456 48.0402 83.3751 47.5331 84.156 46.0616L84.6084 45.209C85.3686 43.7766 87.2247 43.2508 88.6724 44.0577L92.3178 46.0894C94.9775 47.5719 96.3839 50.4973 95.8339 53.4036L91.1811 77.9899C90.4597 81.8018 88.1277 85.1568 84.7389 87.258L67.3349 98.0492C65.9044 98.9361 64.0684 98.9457 62.6279 98.0739L44.8654 87.3227C41.3368 85.1869 38.9285 81.7026 38.2487 77.7499L34.0498 53.3345C33.5556 50.4609 34.9634 47.5932 37.586 46.1315L41.6475 43.8677C43.0952 43.0608 44.9513 43.5867 45.7115 45.0191L46.2647 46.0616C47.0456 47.533 48.9751 48.0402 50.4271 47.1556L54.1427 44.8921C55.0536 44.3372 55.5715 43.3449 55.4895 42.3119L55.1605 38.1682C55.0753 37.0955 55.6368 36.0706 56.6055 35.5307L61.3286 32.8983C63.5925 31.6364 66.3867 31.6364 68.6506 32.8983L73.7965 35.7664ZM72.2743 63.4635C72.2743 66.2196 70.6064 68.6015 68.1874 69.7287V77.5607C68.1874 79.3347 66.6903 80.7728 64.8435 80.7728C62.9968 80.7728 61.4997 79.3347 61.4997 77.5607V69.5426C59.283 68.3525 57.7843 66.0761 57.7843 63.4635C57.7843 59.6199 61.028 56.504 65.0293 56.504C69.0306 56.504 72.2743 59.6199 72.2743 63.4635Z" fill="#293858"/>
<path fill-rule="evenodd" clip-rule="evenodd" d="M32.476 8.7019C52.5721 -2.90063 77.3317 -2.90063 97.4279 8.7019C117.524 20.3044 129.904 41.7468 129.904 64.9519C129.904 88.157 117.524 109.599 97.4279 121.202C77.3317 132.804 52.5721 132.804 32.476 121.202C12.3798 109.599 0 88.157 0 64.9519C0 41.7468 12.3798 20.3044 32.476 8.7019ZM3 64.9519C3 42.8186 14.808 22.3666 33.976 11.3C53.1439 0.233339 76.7599 0.233339 95.9279 11.3C115.096 22.3666 126.904 42.8186 126.904 64.9519C126.904 87.0852 115.096 107.537 95.9279 118.604C76.7599 129.67 53.1439 129.67 33.976 118.604C14.808 107.537 3 87.0852 3 64.9519Z" fill="#293858"/>
</svg>
