<svg width="130" height="130" viewBox="0 0 130 130" fill="none" xmlns="http://www.w3.org/2000/svg">
<path fill-rule="evenodd" clip-rule="evenodd" d="M76.1119 38.9919C76.1119 32.8947 71.1691 27.9519 65.0719 27.9519C58.9747 27.9519 54.0319 32.8947 54.0319 38.9919H48.5119C39.3661 38.9919 31.9519 46.4061 31.9519 55.5519V80.3919C31.9519 89.5377 39.3661 96.9519 48.5119 96.9519H81.6319C90.7777 96.9519 98.1919 89.5377 98.1919 80.3919V55.5519C98.1919 46.4061 90.7777 38.9919 81.6319 38.9919H76.1119ZM83.0119 61.0719H92.6719V74.8719H83.0119C79.2011 74.8719 76.1119 71.7827 76.1119 67.9719C76.1119 64.1611 79.2011 61.0719 83.0119 61.0719ZM83.0119 55.5519H92.6719C92.6719 49.4547 87.7291 44.5119 81.6319 44.5119H48.5119C42.4147 44.5119 37.4719 49.4547 37.4719 55.5519V80.3919C37.4719 86.4891 42.4147 91.4319 48.5119 91.4319H81.6319C87.7291 91.4319 92.6719 86.4891 92.6719 80.3919H83.0119C76.1525 80.3919 70.5919 74.8313 70.5919 67.9719C70.5919 61.1125 76.1525 55.5519 83.0119 55.5519Z" fill="#293858"/>
<path fill-rule="evenodd" clip-rule="evenodd" d="M32.476 8.7019C52.5721 -2.90063 77.3317 -2.90063 97.4279 8.7019C117.524 20.3044 129.904 41.7468 129.904 64.9519C129.904 88.157 117.524 109.599 97.4279 121.202C77.3317 132.804 52.5721 132.804 32.476 121.202C12.3798 109.599 0 88.157 0 64.9519C0 41.7468 12.3798 20.3044 32.476 8.7019ZM3 64.9519C3 42.8186 14.808 22.3666 33.976 11.3C53.1439 0.233339 76.7599 0.233339 95.9279 11.3C115.096 22.3666 126.904 42.8186 126.904 64.9519C126.904 87.0852 115.096 107.537 95.9279 118.604C76.7599 129.67 53.1439 129.67 33.976 118.604C14.808 107.537 3 87.0852 3 64.9519Z" fill="#293858"/>
</svg>
