<svg width="80" height="29" viewBox="0 0 80 29" fill="none" xmlns="http://www.w3.org/2000/svg">
<path d="M0 1.5C0 0.671573 0.671573 0 1.5 0H13.5C15.9853 0 18 2.01472 18 4.5V24.5C18 26.9853 15.9853 29 13.5 29H1.5C0.671573 29 0 28.3284 0 27.5C0 26.6716 0.671573 26 1.5 26H13.5C14.3284 26 15 25.3284 15 24.5V4.5C15 3.67157 14.3284 3 13.5 3H1.5C0.671573 3 0 2.32843 0 1.5Z" fill="#293858"/>
<path d="M40.0675 3.96073C38.0487 3.36986 35.9065 3.34402 33.874 3.88601L22.3865 6.94935C21.586 7.16281 20.7641 6.68695 20.5506 5.88649C20.3372 5.08604 20.8131 4.2641 21.6135 4.05065L33.101 0.987304C35.6637 0.303924 38.3647 0.33651 40.9102 1.08152L55.8659 5.4588C57.7235 6.00249 59 7.70613 59 9.64166C59 9.79182 58.9924 9.9402 58.9776 10.0865L73.9363 6.78653C75.5259 6.43587 77.1837 6.93311 78.3179 8.10072C80.6205 10.4712 79.8204 14.4153 76.7761 15.7012L50.5091 26.7961C48.7237 27.5502 46.8052 27.9388 44.8671 27.9388H21.5C20.6716 27.9388 20 27.2672 20 26.4388C20 25.6103 20.6716 24.9388 21.5 24.9388H44.8671C46.4042 24.9388 47.9258 24.6306 49.3418 24.0325L75.6088 12.9376C76.709 12.473 76.9981 11.0477 76.166 10.191C75.7561 9.76906 75.157 9.58937 74.5826 9.71609L55.3231 13.9648C55.1689 13.9988 55.0149 14.0077 54.8656 13.9943C54.7914 13.9981 54.7168 14 54.6417 14H39.2778C38.4494 14 37.7778 13.3284 37.7778 12.5C37.7778 11.6716 38.4494 11 39.2778 11H54.6417C55.3919 11 56 10.3919 56 9.64166C56 9.03843 55.6022 8.50746 55.0232 8.33801L40.0675 3.96073Z" fill="#293858"/>
</svg>
