<svg width="58" height="57" viewBox="0 0 58 57" fill="none" xmlns="http://www.w3.org/2000/svg">
<path d="M56.2806 28.5C56.954 28.5 57.5027 27.9537 57.4739 27.2808C57.1921 20.6949 54.6339 14.3955 50.2155 9.46974C45.5251 4.24077 39.0689 0.928156 32.0858 0.16761C25.1027 -0.592935 18.0847 1.25217 12.3787 5.34883C6.67259 9.4455 2.68041 15.5051 1.16827 22.3648C-0.343884 29.2245 0.730522 36.401 4.18529 42.5171C7.64007 48.6331 13.2318 53.2579 19.8875 55.5039C26.5431 57.7499 33.7937 57.4588 40.2479 54.6865C46.3278 52.075 51.2975 47.435 54.3223 41.578C54.6313 40.9796 54.3632 40.2533 53.7521 39.9701C53.141 39.6869 52.4187 39.9543 52.1073 40.5514C49.3369 45.8636 44.8129 50.0714 39.2854 52.4456C33.3835 54.9806 26.7533 55.2468 20.6673 53.193C14.5812 51.1393 9.46796 46.9102 6.30883 41.3175C3.1497 35.7249 2.16723 29.1625 3.54998 22.8898C4.93273 16.6172 8.58327 11.0761 13.801 7.33001C19.0188 3.58392 25.4362 1.89671 31.8217 2.59217C38.2072 3.28763 44.111 6.31677 48.4 11.0983C52.417 15.5765 54.7525 21.2964 55.0326 27.281C55.0641 27.9537 55.6071 28.5 56.2806 28.5Z" fill="#293858"/>
<path d="M19.6357 29.9418L33.4926 9.77142L31.5131 25.5716H38.7715L25.2445 46.4143L27.224 29.9418H19.6357Z" fill="#293858"/>
</svg>
