<svg width="47" height="61" viewBox="0 0 47 61" fill="none" xmlns="http://www.w3.org/2000/svg">
<path d="M40.1672 18.4554C40.1823 18.8628 39.834 19.2149 39.3759 19.1975C38.9388 19.1809 38.5637 18.8045 38.539 18.3126C38.458 16.7057 38.1249 15.1187 37.5492 13.6103C36.8123 11.6793 35.6931 9.91701 34.2586 8.42901C32.8242 6.94101 31.1041 5.75794 29.2014 4.95072C27.2988 4.1435 25.2527 3.72874 23.1859 3.73131C21.1191 3.73387 19.0741 4.15371 17.1734 4.96565C15.2728 5.7776 13.5556 6.96493 12.1249 8.45649C10.6942 9.94805 9.57931 11.7131 8.84716 13.6459C8.27523 15.1557 7.94603 16.7436 7.86911 18.3507C7.84556 18.8427 7.47141 19.22 7.03433 19.2377C6.57633 19.2562 6.22717 18.905 6.24127 18.4975C6.30542 16.6444 6.67291 14.8113 7.33179 13.0719C8.14122 10.9351 9.37373 8.98374 10.9555 7.33476C12.5372 5.68578 14.4356 4.37313 16.5368 3.47549C18.6381 2.57785 20.8989 2.11371 23.1839 2.11087C25.4688 2.10803 27.7309 2.56657 29.8343 3.45898C31.9378 4.3514 33.8394 5.65933 35.4253 7.30438C37.0111 8.94943 38.2484 10.8977 39.0632 13.0325C39.7264 14.7702 40.0984 16.6024 40.1672 18.4554Z" fill="#293858" stroke="#293858"/>
<mask id="path-2-inside-1_398_3663" fill="white">
<path fill-rule="evenodd" clip-rule="evenodd" d="M41.5167 24.2952H5.48333C3.75284 24.2952 2.35 25.692 2.35 27.4152V55.4952C2.35 57.2183 3.75284 58.6152 5.48333 58.6152H41.5167C43.2472 58.6152 44.65 57.2183 44.65 55.4952V27.4152C44.65 25.692 43.2472 24.2952 41.5167 24.2952ZM5.48333 21.9552C2.45497 21.9552 0 24.3997 0 27.4152V55.4952C0 58.5106 2.45497 60.9552 5.48333 60.9552H41.5167C44.545 60.9552 47 58.5106 47 55.4952V27.4152C47 24.3997 44.545 21.9552 41.5167 21.9552H5.48333Z"/>
</mask>
<path fill-rule="evenodd" clip-rule="evenodd" d="M41.5167 24.2952H5.48333C3.75284 24.2952 2.35 25.692 2.35 27.4152V55.4952C2.35 57.2183 3.75284 58.6152 5.48333 58.6152H41.5167C43.2472 58.6152 44.65 57.2183 44.65 55.4952V27.4152C44.65 25.692 43.2472 24.2952 41.5167 24.2952ZM5.48333 21.9552C2.45497 21.9552 0 24.3997 0 27.4152V55.4952C0 58.5106 2.45497 60.9552 5.48333 60.9552H41.5167C44.545 60.9552 47 58.5106 47 55.4952V27.4152C47 24.3997 44.545 21.9552 41.5167 21.9552H5.48333Z" fill="#293858"/>
<path d="M41.5167 21.2952H5.48333V27.2952H41.5167V21.2952ZM5.48333 21.2952C2.10806 21.2952 -0.65 24.0231 -0.65 27.4152H5.35C5.35 27.3609 5.39762 27.2952 5.48333 27.2952V21.2952ZM-0.65 27.4152V55.4952H5.35V27.4152H-0.65ZM-0.65 55.4952C-0.65 58.8872 2.10806 61.6152 5.48333 61.6152V55.6152C5.39762 55.6152 5.35 55.5494 5.35 55.4952H-0.65ZM5.48333 61.6152H41.5167V55.6152H5.48333V61.6152ZM41.5167 61.6152C44.8919 61.6152 47.65 58.8872 47.65 55.4952H41.65C41.65 55.5494 41.6024 55.6152 41.5167 55.6152V61.6152ZM47.65 55.4952V27.4152H41.65V55.4952H47.65ZM47.65 27.4152C47.65 24.0231 44.8919 21.2952 41.5167 21.2952V27.2952C41.6024 27.2952 41.65 27.3609 41.65 27.4152H47.65ZM5.48333 18.9552C0.810192 18.9552 -3 22.7308 -3 27.4152H3C3 26.0686 4.09975 24.9552 5.48333 24.9552V18.9552ZM-3 27.4152V55.4952H3V27.4152H-3ZM-3 55.4952C-3 60.1796 0.810193 63.9552 5.48333 63.9552V57.9552C4.09975 57.9552 3 56.8417 3 55.4952H-3ZM5.48333 63.9552H41.5167V57.9552H5.48333V63.9552ZM41.5167 63.9552C46.1898 63.9552 50 60.1796 50 55.4952H44C44 56.8417 42.9002 57.9552 41.5167 57.9552V63.9552ZM50 55.4952V27.4152H44V55.4952H50ZM50 27.4152C50 22.7308 46.1898 18.9552 41.5167 18.9552V24.9552C42.9002 24.9552 44 26.0686 44 27.4152H50ZM41.5167 18.9552H5.48333V24.9552H41.5167V18.9552Z" fill="#293858" mask="url(#path-2-inside-1_398_3663)"/>
<path d="M19.5 38.4552C19.5 36.246 21.2909 34.4552 23.5 34.4552C25.7091 34.4552 27.5 36.246 27.5 38.4552C27.5 40.6643 25.7091 42.4552 23.5 42.4552C21.2909 42.4552 19.5 40.6643 19.5 38.4552Z" fill="#293858" stroke="#293858"/>
<path d="M21.5 42.2052C21.5 41.2869 22.3446 40.4552 23.5 40.4552C24.6554 40.4552 25.5 41.2869 25.5 42.2052V46.7052C25.5 47.6234 24.6554 48.4552 23.5 48.4552C22.3446 48.4552 21.5 47.6234 21.5 46.7052V42.2052Z" fill="#293858" stroke="#293858"/>
</svg>
