<svg width="76" height="42" viewBox="0 0 76 42" fill="none" xmlns="http://www.w3.org/2000/svg">
<path fill-rule="evenodd" clip-rule="evenodd" d="M27.0693 26.503C26.9767 26.7892 26.7115 26.9829 26.4123 26.9829H25.1513C24.6766 26.9829 24.3433 26.5126 24.4982 26.0613L28.1843 15.3217C28.2804 15.0415 28.5427 14.8535 28.8373 14.8535H31.138C31.4328 14.8535 31.6952 15.0416 31.7912 15.3219L35.4721 26.0615C35.6268 26.5128 35.2935 26.9829 34.8189 26.9829H33.5578C33.2584 26.9829 32.9931 26.789 32.9006 26.5026L32.1628 24.2171H27.8086L27.0693 26.503ZM30.0495 17.6703L31.5166 22.2153H28.4561L29.9261 17.6703C29.9348 17.6435 29.9597 17.6253 29.9878 17.6253C30.0159 17.6253 30.0408 17.6435 30.0495 17.6703Z" fill="#293858"/>
<path fill-rule="evenodd" clip-rule="evenodd" d="M37.9303 26.9829C37.5487 26.9829 37.2394 26.6718 37.2394 26.288V15.5484C37.2394 15.1646 37.5487 14.8535 37.9303 14.8535H41.9973C42.9119 14.8535 43.6912 15.0292 44.335 15.3806C44.9788 15.7281 45.4695 16.2117 45.8071 16.8316C46.1486 17.4476 46.3194 18.1583 46.3194 18.9638C46.3194 19.7692 46.1466 20.4799 45.8012 21.0959C45.4557 21.7118 44.9552 22.1916 44.2996 22.5351C43.648 22.8786 42.8589 23.0503 41.9325 23.0503H39.7891V26.288C39.7891 26.6718 39.4798 26.9829 39.0982 26.9829H37.9303ZM41.5203 20.9952H39.7891V17.645C39.7891 17.2612 40.0984 16.9501 40.48 16.9501H41.5085C42.0032 16.9501 42.4114 17.035 42.7333 17.2048C43.0552 17.3706 43.2947 17.6055 43.4517 17.9096C43.6127 18.2096 43.6931 18.561 43.6931 18.9638C43.6931 19.3626 43.6127 19.7159 43.4517 20.0239C43.2947 20.3279 43.0552 20.5668 42.7333 20.7405C42.4153 20.9103 42.011 20.9952 41.5203 20.9952Z" fill="#293858"/>
<path d="M50.5252 15.5484C50.5252 15.1646 50.2158 14.8535 49.8343 14.8535H48.6664C48.2848 14.8535 47.9755 15.1646 47.9755 15.5484V26.288C47.9755 26.6718 48.2848 26.9829 48.6664 26.9829H49.8343C50.2159 26.9829 50.5252 26.6718 50.5252 26.288V15.5484Z" fill="#293858"/>
<path fill-rule="evenodd" clip-rule="evenodd" d="M58.3818 21.4552C58.3818 32.777 49.2566 41.9552 38 41.9552C26.7434 41.9552 17.6182 32.777 17.6182 21.4552C17.6182 10.1334 26.7434 0.9552 38 0.9552C49.2566 0.9552 58.3818 10.1334 58.3818 21.4552ZM56.6545 21.4552C56.6545 31.8176 48.3026 40.2179 38 40.2179C27.6974 40.2179 19.3455 31.8176 19.3455 21.4552C19.3455 11.0928 27.6974 2.69249 38 2.69249C48.3026 2.69249 56.6545 11.0928 56.6545 21.4552Z" fill="#293858"/>
<path d="M59.7636 20.5866C59.7636 20.1068 60.1503 19.7179 60.6273 19.7179H61.8364C62.3133 19.7179 62.7 20.1068 62.7 20.5866C62.7 21.0663 62.3133 21.4552 61.8364 21.4552H60.6273C60.1503 21.4552 59.7636 21.0663 59.7636 20.5866Z" fill="#293858"/>
<path d="M63.3909 20.5866C63.3909 20.1068 63.7776 19.7179 64.2545 19.7179H66.6727C67.1497 19.7179 67.5364 20.1068 67.5364 20.5866C67.5364 21.0663 67.1497 21.4552 66.6727 21.4552H64.2545C63.7776 21.4552 63.3909 21.0663 63.3909 20.5866Z" fill="#293858"/>
<path d="M68.2273 20.5866C68.2273 20.1068 68.6139 19.7179 69.0909 19.7179H71.5091C71.9861 19.7179 72.3727 20.1068 72.3727 20.5866C72.3727 21.0663 71.9861 21.4552 71.5091 21.4552H69.0909C68.6139 21.4552 68.2273 21.0663 68.2273 20.5866Z" fill="#293858"/>
<path d="M73.0636 20.5866C73.0636 20.1068 73.4503 19.7179 73.9273 19.7179H75.1364C75.6133 19.7179 76 20.1068 76 20.5866C76 21.0663 75.6133 21.4552 75.1364 21.4552H73.9273C73.4503 21.4552 73.0636 21.0663 73.0636 20.5866Z" fill="#293858"/>
<path d="M58.7181 12.142C58.269 12.3038 58.0355 12.8011 58.1964 13.2527C58.3573 13.7043 58.8518 13.9393 59.3008 13.7774L60.439 13.3671C60.888 13.2053 61.1215 12.708 60.9606 12.2564C60.7997 11.8048 60.3053 11.5699 59.8563 11.7317L58.7181 12.142Z" fill="#293858"/>
<path d="M62.1327 10.9112C61.6837 11.073 61.4501 11.5703 61.611 12.0219C61.7719 12.4736 62.2664 12.7085 62.7154 12.5466L64.9918 11.7261C65.4408 11.5642 65.6744 11.0669 65.5135 10.6153C65.3525 10.1637 64.8581 9.9288 64.4091 10.0906L62.1327 10.9112Z" fill="#293858"/>
<path d="M66.6855 9.27012C66.2365 9.43196 66.003 9.92927 66.1639 10.3809C66.3248 10.8325 66.8192 11.0674 67.2682 10.9056L69.5446 10.085C69.9937 9.92318 70.2272 9.42588 70.0663 8.97426C69.9054 8.52265 69.4109 8.28774 68.9619 8.44959L66.6855 9.27012Z" fill="#293858"/>
<path d="M71.2383 7.62906C70.7893 7.79091 70.5558 8.28821 70.7167 8.73983C70.8776 9.19144 71.372 9.42635 71.8211 9.2645L72.9593 8.85424C73.4083 8.69239 73.6418 8.19509 73.4809 7.74347C73.32 7.29186 72.8256 7.05695 72.3766 7.2188L71.2383 7.62906Z" fill="#293858"/>
<path d="M0 20.5866C0 20.1068 0.386663 19.7179 0.863636 19.7179H2.07273C2.5497 19.7179 2.93636 20.1068 2.93636 20.5866C2.93636 21.0663 2.5497 21.4552 2.07273 21.4552H0.863636C0.386663 21.4552 0 21.0663 0 20.5866Z" fill="#293858"/>
<path d="M3.62727 20.5866C3.62727 20.1068 4.01394 19.7179 4.49091 19.7179H6.90909C7.38606 19.7179 7.77273 20.1068 7.77273 20.5866C7.77273 21.0663 7.38606 21.4552 6.90909 21.4552H4.49091C4.01394 21.4552 3.62727 21.0663 3.62727 20.5866Z" fill="#293858"/>
<path d="M8.46364 20.5866C8.46364 20.1068 8.8503 19.7179 9.32727 19.7179H11.7455C12.2224 19.7179 12.6091 20.1068 12.6091 20.5866C12.6091 21.0663 12.2224 21.4552 11.7455 21.4552H9.32727C8.8503 21.4552 8.46364 21.0663 8.46364 20.5866Z" fill="#293858"/>
<path d="M13.3 20.5866C13.3 20.1068 13.6867 19.7179 14.1636 19.7179H15.3727C15.8497 19.7179 16.2364 20.1068 16.2364 20.5866C16.2364 21.0663 15.8497 21.4552 15.3727 21.4552H14.1636C13.6867 21.4552 13.3 21.0663 13.3 20.5866Z" fill="#293858"/>
<path d="M2.45802 32.4207C2.009 32.5826 1.77545 33.0799 1.93637 33.5315C2.09728 33.9831 2.59172 34.218 3.04073 34.0562L4.17894 33.6459C4.62795 33.4841 4.8615 32.9868 4.70059 32.5351C4.53968 32.0835 4.04524 31.8486 3.59622 32.0105L2.45802 32.4207Z" fill="#293858"/>
<path d="M5.87264 31.1899C5.42363 31.3518 5.19008 31.8491 5.35099 32.3007C5.5119 32.7523 6.00634 32.9872 6.45536 32.8254L8.73177 32.0049C9.18078 31.843 9.41433 31.3457 9.25342 30.8941C9.09251 30.4425 8.59807 30.2076 8.14906 30.3694L5.87264 31.1899Z" fill="#293858"/>
<path d="M10.4255 29.5489C9.97647 29.7107 9.74292 30.208 9.90383 30.6597C10.0647 31.1113 10.5592 31.3462 11.0082 31.1843L13.2846 30.3638C13.7336 30.202 13.9672 29.7046 13.8063 29.253C13.6453 28.8014 13.1509 28.5665 12.7019 28.7284L10.4255 29.5489Z" fill="#293858"/>
<path d="M14.9783 27.9078C14.5293 28.0697 14.2958 28.567 14.4567 29.0186C14.6176 29.4702 15.112 29.7051 15.561 29.5433L16.6992 29.133C17.1482 28.9712 17.3818 28.4739 17.2209 28.0222C17.06 27.5706 16.5655 27.3357 16.1165 27.4976L14.9783 27.9078Z" fill="#293858"/>
</svg>
