<svg width="79" height="74" viewBox="0 0 79 74" fill="none" xmlns="http://www.w3.org/2000/svg">
<path fill-rule="evenodd" clip-rule="evenodd" d="M54.0888 31.8082C54.0888 35.9332 50.7402 39.2772 46.6094 39.2772C42.4785 39.2772 39.1299 35.9332 39.1299 31.8082C39.1299 27.6832 42.4785 24.3392 46.6094 24.3392C50.7402 24.3392 54.0888 27.6832 54.0888 31.8082ZM50.3491 31.8082C50.3491 33.8707 48.6748 35.5427 46.6094 35.5427C44.544 35.5427 42.8696 33.8707 42.8696 31.8082C42.8696 29.7457 44.544 28.0737 46.6094 28.0737C48.6748 28.0737 50.3491 29.7457 50.3491 31.8082Z" fill="#293858"/>
<path fill-rule="evenodd" clip-rule="evenodd" d="M55.6327 14.7229C53.3533 13.4087 50.4708 13.8123 48.6412 15.7019L48.5689 15.7766C48.1925 16.1654 47.5504 16.4256 46.726 16.4267C45.9112 16.4277 45.2795 16.1711 44.8986 15.7778L44.825 15.7017C42.9954 13.8122 40.1129 13.4086 37.8335 14.7227L36.3656 15.5691C34.0862 16.8832 32.995 19.5779 33.7188 22.1049L33.7481 22.2071C33.8983 22.7315 33.8042 23.4119 33.3956 24.1186C32.9869 24.8254 32.4439 25.2471 31.9139 25.3794L31.8109 25.4051C29.2575 26.0426 27.4662 28.3336 27.4662 30.9619V32.6546C27.4662 35.2829 29.2575 37.574 31.8109 38.2115L31.9136 38.2371C32.4452 38.3698 32.9836 38.7878 33.3901 39.493C33.8013 40.2064 33.8966 40.8918 33.7477 41.4118L33.7191 41.5117C32.9952 44.0387 34.0864 46.7333 36.3658 48.0475L37.8338 48.8938C40.1131 50.208 42.9957 49.8044 44.8252 47.9149L44.8978 47.8399C45.2742 47.4512 45.9161 47.191 46.7403 47.1899C47.555 47.1889 48.1866 47.4454 48.5674 47.8387L48.641 47.9147C50.4706 49.8042 53.3531 50.2078 55.6325 48.8937L57.1004 48.0473C59.3798 46.7332 60.471 44.0385 59.7471 41.5115L59.718 41.4099C59.5678 40.8854 59.662 40.2048 60.0707 39.498C60.4793 38.7912 61.0223 38.3695 61.5523 38.2372L61.6553 38.2115C64.2087 37.574 66 35.2829 66 32.6546L66 30.9619C66 28.3336 64.2087 26.0426 61.6553 25.4051L61.5525 25.3794C61.0209 25.2467 60.4827 24.8288 60.0762 24.1237C59.665 23.4104 59.5698 22.7251 59.7187 22.2053L59.7474 22.105C60.4713 19.5781 59.38 16.8834 57.1006 15.5692L55.6327 14.7229ZM51.3297 18.2978C51.9664 17.6402 52.9696 17.4997 53.7628 17.9571L55.2308 18.8034C56.024 19.2608 56.4038 20.1985 56.1519 21.0779L56.1231 21.1782C55.6229 22.9243 56.0688 24.6575 56.8351 25.9868C57.6072 27.3263 58.885 28.563 60.6454 29.0025L60.7483 29.0281C61.6369 29.25 62.2603 30.0473 62.2603 30.9619V32.6546C62.2603 33.5693 61.6369 34.3666 60.7483 34.5884L60.6453 34.6141C58.8846 35.0537 57.6039 36.2955 56.832 37.6307C56.0599 38.966 55.6233 40.6944 56.1225 42.437L56.1516 42.5386C56.4035 43.4181 56.0238 44.3558 55.2305 44.8132L53.7626 45.6595C52.9693 46.1168 51.9662 45.9764 51.3295 45.3188L51.2559 45.2428C49.9946 43.9401 48.2832 43.4534 46.7355 43.4554C45.1995 43.4574 43.4735 43.9383 42.2093 45.244L42.1367 45.319C41.5 45.9765 40.4969 46.117 39.7036 45.6596L38.2357 44.8133C37.4424 44.356 37.0627 43.4182 37.3146 42.5388L37.3432 42.4389C37.8435 40.6926 37.3975 38.9593 36.6312 37.6299C35.859 36.2903 34.5811 35.0536 32.8206 34.6141L32.718 34.5884C31.8293 34.3666 31.206 33.5693 31.206 32.6546V30.9619C31.206 30.0473 31.8294 29.25 32.718 29.0281L32.8209 29.0024C34.5817 28.5628 35.8623 27.3211 36.6343 25.9859C37.4062 24.6507 37.8428 22.9224 37.3436 21.18L37.3144 21.0778C37.0624 20.1984 37.4422 19.2606 38.2354 18.8033L39.7034 17.9569C40.4966 17.4996 41.4998 17.6401 42.1365 18.2976L42.2101 18.3737C43.4715 19.6764 45.183 20.1632 46.7308 20.1612C48.2669 20.1592 49.9931 19.6782 51.2574 18.3725L51.3297 18.2978Z" fill="#293858"/>
<path fill-rule="evenodd" clip-rule="evenodd" d="M26.6384 55.4288C26.8496 59.5484 23.6766 63.0604 19.5512 63.273C15.4259 63.4856 11.9104 60.3183 11.6992 56.1987C11.488 52.0791 14.661 48.5672 18.7864 48.3546C22.9117 48.142 26.4272 51.3092 26.6384 55.4288ZM22.9036 55.6213C23.0092 57.6811 21.4227 59.4371 19.36 59.5434C17.2973 59.6497 15.5396 58.0661 15.434 56.0063C15.3284 53.9465 16.9149 52.1905 18.9776 52.0842C21.0403 51.9779 22.798 53.5615 22.9036 55.6213Z" fill="#293858"/>
<path fill-rule="evenodd" clip-rule="evenodd" d="M27.3054 38.2866C24.9617 37.0915 22.1037 37.6429 20.3733 39.6241L20.3049 39.7024C19.9488 40.1101 19.3209 40.4031 18.4977 40.4466C17.684 40.4895 17.04 40.2658 16.6395 39.8925L16.5621 39.8204C14.6382 38.0275 11.7388 37.7728 9.5297 39.2025L8.10702 40.1233C5.89793 41.553 4.94612 44.3003 5.79843 46.7867L5.83289 46.8872C6.00978 47.4032 5.95055 48.0876 5.57868 48.8144C5.20678 49.5413 4.68607 49.9904 4.16357 50.1498L4.06203 50.1808C1.54462 50.9488 -0.127009 53.329 0.00757101 55.9539L0.0942416 57.6443C0.228821 60.2692 2.13506 62.465 4.71776 62.9702L4.82159 62.9905C5.35929 63.0957 5.91833 63.4854 6.36043 64.1688C6.80767 64.8601 6.93795 65.5397 6.81583 66.0667L6.79236 66.1679C6.19883 68.7288 7.4266 71.3638 9.77026 72.5589L11.2796 73.3285C13.6233 74.5237 16.4813 73.9722 18.2117 71.991L18.2804 71.9125C18.6363 71.5049 19.2641 71.2119 20.0872 71.1685C20.9008 71.1255 21.5446 71.3492 21.9451 71.7224L22.0225 71.7945C23.9464 73.5874 26.8457 73.8421 29.0548 72.4123L30.4775 71.4916C32.6866 70.0618 33.6384 67.3146 32.7861 64.8282L32.7518 64.7282C32.5749 64.2121 32.6342 63.5276 33.0061 62.8006C33.378 62.0737 33.8987 61.6246 34.4213 61.4652L34.5227 61.4342C37.0402 60.6662 38.7118 58.286 38.5772 55.6611L38.4905 53.9707C38.356 51.3458 36.4497 49.15 33.867 48.6448L33.763 48.6244C33.2254 48.5193 32.6664 48.1296 32.2244 47.4463C31.7773 46.7551 31.647 46.0756 31.7691 45.5488L31.7927 45.4472C32.3862 42.8863 31.1584 40.2514 28.8148 39.0563L27.3054 38.2866ZM23.1912 42.0782C23.7934 41.3888 24.788 41.1969 25.6036 41.6128L27.1129 42.3824C27.9286 42.7983 28.3558 43.7153 28.1493 44.6065L28.1257 44.7081C27.7156 46.4777 28.2496 48.1856 29.083 49.4738C29.9227 50.7718 31.2621 51.941 33.0427 52.2893L33.1467 52.3097C34.0455 52.4855 34.7089 53.2497 34.7557 54.1631L34.8424 55.8536C34.8892 56.7671 34.3075 57.5954 33.4314 57.8627L33.3299 57.8936C31.594 58.4233 30.3786 59.7293 29.676 61.1025C28.9734 62.4758 28.6259 64.2244 29.2136 65.939L29.2479 66.039C29.5445 66.9043 29.2133 67.8603 28.4445 68.3579L27.0218 69.2787C26.253 69.7762 25.244 69.6876 24.5745 69.0636L24.4971 68.9915C23.1707 67.7555 21.4367 67.3575 19.8911 67.4391C18.3573 67.5202 16.6582 68.0893 15.4625 69.4583L15.3938 69.5369C14.7917 70.2264 13.797 70.4183 12.9814 70.0024L11.4721 69.2327C10.6565 68.8168 10.2292 67.8998 10.4357 67.0086L10.4592 66.9074C10.8694 65.1376 10.3353 63.4296 9.50186 62.1413C8.66211 60.8433 7.3226 59.674 5.5419 59.3256L5.43808 59.3053C4.53928 59.1295 3.87589 58.3653 3.82905 57.4519L3.74238 55.7614C3.69555 54.8479 4.27729 54.0196 5.15337 53.7523L5.2549 53.7213C6.99081 53.1917 8.20614 51.8857 8.90873 50.5125C9.6113 49.1394 9.95878 47.3909 9.37108 45.6764L9.33662 45.5759C9.04001 44.7106 9.37125 43.7545 10.14 43.257L11.5627 42.3362C12.3315 41.8387 13.3405 41.9273 14.01 42.5512L14.0875 42.6234C15.4139 43.8595 17.1481 44.2575 18.6937 44.1759C20.2277 44.0949 21.927 43.5257 23.1228 42.1566L23.1912 42.0782Z" fill="#293858"/>
<path d="M38.5945 9.32559C38.3894 8.72859 38.7065 8.07574 39.3121 7.89766C42.3363 7.0084 45.5029 6.68783 48.6504 6.95588C52.1779 7.25631 55.604 8.28947 58.7095 9.98933C61.8151 11.6892 64.5318 14.0183 66.6859 16.8279C68.8401 19.6374 70.3843 22.8655 71.2199 26.3058C72.0555 29.7461 72.164 33.3229 71.5386 36.8076C70.9132 40.2922 69.5675 43.608 67.5877 46.543C65.6079 49.478 63.0374 51.9676 60.0407 53.8527C57.3668 55.5346 54.406 56.7023 51.3108 57.2993C50.6909 57.4188 50.1097 56.9842 50.0181 56.3596C49.9265 55.7351 50.3593 55.1573 50.9786 55.035C53.7592 54.4859 56.4188 53.4303 58.8235 51.9177C61.5511 50.202 63.8906 47.936 65.6926 45.2647C67.4946 42.5933 68.7194 39.5754 69.2886 36.4038C69.8579 33.2321 69.7591 29.9766 68.9985 26.8454C68.238 23.7141 66.8325 20.776 64.8718 18.2188C62.9112 15.6616 60.4385 13.5417 57.612 11.9945C54.7854 10.4474 51.6671 9.50703 48.4564 9.23359C45.6258 8.99253 42.7783 9.2745 40.0555 10.062C39.4491 10.2374 38.7996 9.92259 38.5945 9.32559Z" fill="#293858"/>
</svg>
