<svg width="61" height="61" viewBox="0 0 61 61" fill="none" xmlns="http://www.w3.org/2000/svg">
<path fill-rule="evenodd" clip-rule="evenodd" d="M0 3.7677C0 2.2144 1.26049 0.9552 2.81538 0.9552H26.2769C27.8318 0.9552 29.0923 2.2144 29.0923 3.7677V27.2052C29.0923 28.7585 27.8318 30.0177 26.2769 30.0177H2.81539C1.26049 30.0177 0 28.7585 0 27.2052V3.7677ZM2.81538 3.7677H26.2769V27.2052H2.81538V3.7677Z" fill="#293858"/>
<path fill-rule="evenodd" clip-rule="evenodd" d="M31.9077 3.7677C31.9077 2.2144 33.1682 0.9552 34.7231 0.9552H58.1846C59.7395 0.9552 61 2.2144 61 3.7677V27.2052C61 28.7585 59.7395 30.0177 58.1846 30.0177H34.7231C33.1682 30.0177 31.9077 28.7585 31.9077 27.2052V3.7677ZM34.7231 3.7677H58.1846V27.2052H34.7231V3.7677Z" fill="#293858"/>
<path d="M31.9077 34.7052C31.9077 33.1519 33.1682 31.8927 34.7231 31.8927H58.1846C59.7395 31.8927 61 33.1519 61 34.7052V58.1427C61 59.696 59.7395 60.9552 58.1846 60.9552H34.7231C33.1682 60.9552 31.9077 59.696 31.9077 58.1427V34.7052Z" fill="#293858"/>
<path fill-rule="evenodd" clip-rule="evenodd" d="M0 34.7052C0 33.1519 1.26049 31.8927 2.81538 31.8927H26.2769C27.8318 31.8927 29.0923 33.1519 29.0923 34.7052V58.1427C29.0923 59.696 27.8318 60.9552 26.2769 60.9552H2.81539C1.26049 60.9552 0 59.696 0 58.1427V34.7052ZM2.81538 34.7052H26.2769V58.1427H2.81538V34.7052Z" fill="#293858"/>
</svg>
