<svg width="57" height="58" viewBox="0 0 57 58" fill="none" xmlns="http://www.w3.org/2000/svg">
<path fill-rule="evenodd" clip-rule="evenodd" d="M28.5 4.13407L3.34542 29.5892L6.10073 31.4256C6.79639 31.8892 7.21426 32.6699 7.21426 33.5059V56C7.21426 56.8285 6.54269 57.5 5.71426 57.5C4.88583 57.5 4.21426 56.8285 4.21426 56V33.7735L1.17713 31.7494C-0.130719 30.8777 -0.319369 29.0298 0.785368 27.9118L26.7217 1.6655C27.7004 0.675146 29.2996 0.675137 30.2782 1.66549L56.1522 27.8487C57.3066 29.0169 57.0401 30.962 55.614 31.7767L52 33.8412V56C52 56.8285 51.3284 57.5 50.5 57.5C49.6715 57.5 49 56.8285 49 56V33.551C49 32.6538 49.4808 31.8253 50.2599 31.3803L53.5609 29.4945L28.5 4.13407ZM54.0183 29.9574C54.018 29.9571 54.0177 29.9568 54.0175 29.9565L54.0183 29.9574ZM2.84165 29.2535C2.8414 29.2533 2.84115 29.2532 2.8409 29.253L2.5636 29.6691L2.8409 29.253L2.84165 29.2535Z" fill="#293858"/>
</svg>
