<svg width="82" height="64" viewBox="0 0 82 64" fill="none" xmlns="http://www.w3.org/2000/svg">
<path fill-rule="evenodd" clip-rule="evenodd" d="M76.3146 20.0226H41.6854C39.6872 20.0226 38.0674 21.6424 38.0674 23.6406V58.2698C38.0674 60.268 39.6872 61.8878 41.6854 61.8878H76.3146C78.3128 61.8878 79.9326 60.268 79.9326 58.2698V23.6406C79.9326 21.6424 78.3128 20.0226 76.3146 20.0226ZM41.6854 17.9552C38.5454 17.9552 36 20.5006 36 23.6406V58.2698C36 61.4098 38.5454 63.9552 41.6854 63.9552H76.3146C79.4546 63.9552 82 61.4098 82 58.2698V23.6406C82 20.5006 79.4546 17.9552 76.3146 17.9552H41.6854Z" fill="#293858"/>
<path fill-rule="evenodd" clip-rule="evenodd" d="M6.70968 3.01972C4.14423 3.01972 2.06452 5.09943 2.06452 7.66488V42.2455C2.06452 44.811 4.14423 46.8907 6.70968 46.8907H35.8319V48.9552H6.70968C3.00403 48.9552 0 45.9512 0 42.2455V7.66488C0 3.95922 3.00403 0.9552 6.70968 0.9552H41.2903C44.996 0.9552 48 3.95923 48 7.66488V17.6473H45.9355V7.66488C45.9355 5.09943 43.8558 3.01972 41.2903 3.01972H6.70968Z" fill="#293858"/>
<path d="M45 27.9552H73V29.9552H45V27.9552Z" fill="#293858"/>
<path d="M9 24L9 11L11 11L11 24L9 24Z" fill="#293858"/>
<path d="M9 40L9 27L11 27L11 40L9 40Z" fill="#293858"/>
<path d="M45 34.9552H73V36.9552H45V34.9552Z" fill="#293858"/>
<path d="M16 24L16 11L18 11L18 24L16 24Z" fill="#293858"/>
<path d="M16 40L16 27L18 27L18 40L16 40Z" fill="#293858"/>
<path d="M45 42H73V44H45V42Z" fill="#293858"/>
<path d="M24 24L24 11L26 11L26 24L24 24Z" fill="#293858"/>
<path d="M24 40L24 27L26 27L26 40L24 40Z" fill="#293858"/>
<path d="M45 49H61V51H45V49Z" fill="#293858"/>
<path d="M31 29L31 11L33 11L33 29L31 29Z" fill="#293858"/>
</svg>
