<svg width="54" height="45" viewBox="0 0 54 45" fill="none" xmlns="http://www.w3.org/2000/svg">
<path d="M7.33981 4.09091C7.33981 3.80849 7.57453 3.57955 7.86408 3.57955H46.1359C46.4255 3.57955 46.6602 3.80849 46.6602 4.09091V5.11364C46.6602 5.39605 46.4255 5.625 46.1359 5.625H7.86408C7.57453 5.625 7.33981 5.39605 7.33981 5.11364V4.09091Z" fill="#293858"/>
<path d="M42.9903 18.4091C42.7007 18.4091 42.466 18.638 42.466 18.9205V20.9659C42.466 21.2483 42.7007 21.4773 42.9903 21.4773H46.1359C46.4255 21.4773 46.6602 21.2483 46.6602 20.9659V18.9205C46.6602 18.638 46.4255 18.4091 46.1359 18.4091H42.9903Z" fill="#293858"/>
<path d="M35.6505 18.9205C35.6505 18.638 35.8852 18.4091 36.1748 18.4091H39.3204C39.6099 18.4091 39.8447 18.638 39.8447 18.9205V20.9659C39.8447 21.2483 39.6099 21.4773 39.3204 21.4773H36.1748C35.8852 21.4773 35.6505 21.2483 35.6505 20.9659V18.9205Z" fill="#293858"/>
<path d="M7.86408 18.4091C7.57453 18.4091 7.33981 18.638 7.33981 18.9205V20.9659C7.33981 21.2483 7.57453 21.4773 7.86408 21.4773H11.0097C11.2993 21.4773 11.534 21.2483 11.534 20.9659V18.9205C11.534 18.638 11.2993 18.4091 11.0097 18.4091H7.86408Z" fill="#293858"/>
<path d="M7.33981 33.2386C7.33981 32.9562 7.57453 32.7273 7.86408 32.7273H11.0097C11.2993 32.7273 11.534 32.9562 11.534 33.2386V35.2841C11.534 35.5665 11.2993 35.7955 11.0097 35.7955H7.86408C7.57453 35.7955 7.33981 35.5665 7.33981 35.2841V33.2386Z" fill="#293858"/>
<path d="M15.7282 32.7273C15.4386 32.7273 15.2039 32.9562 15.2039 33.2386V35.2841C15.2039 35.5665 15.4386 35.7955 15.7282 35.7955H23.068C23.3575 35.7955 23.5922 35.5665 23.5922 35.2841V33.2386C23.5922 32.9562 23.3575 32.7273 23.068 32.7273H15.7282Z" fill="#293858"/>
<path fill-rule="evenodd" clip-rule="evenodd" d="M0 41.9318C0 43.6263 1.40835 45 3.14563 45H50.8544C52.5917 45 54 43.6263 54 41.9318V3.06818C54 1.37367 52.5917 0 50.8544 0H3.14563C1.40835 0 0 1.37367 0 3.06818V41.9318ZM2.09709 3.06818C2.09709 2.50335 2.56654 2.04545 3.14563 2.04545H50.8544C51.4335 2.04545 51.9029 2.50335 51.9029 3.06818V13.2955C51.9029 13.8603 51.4335 14.3182 50.8544 14.3182H3.14563C2.56654 14.3182 2.09709 13.8603 2.09709 13.2955V3.06818ZM2.09709 17.3864V27.6136C2.09709 28.1785 2.56654 28.6364 3.14563 28.6364H50.8544C51.4335 28.6364 51.9029 28.1785 51.9029 27.6136V17.3864C51.9029 16.8215 51.4335 16.3636 50.8544 16.3636H3.14563C2.56654 16.3636 2.09709 16.8215 2.09709 17.3864ZM50.8544 30.6818C51.4335 30.6818 51.9029 31.1397 51.9029 31.7045V41.4205C51.9029 41.9853 51.4335 42.4432 50.8544 42.4432H3.14563C2.56654 42.4432 2.09709 41.9853 2.09709 41.4205V31.7045C2.09709 31.1397 2.56654 30.6818 3.14563 30.6818H50.8544Z" fill="#293858"/>
</svg>
