<svg width="56" height="65" viewBox="0 0 56 65" fill="none" xmlns="http://www.w3.org/2000/svg">
<path fill-rule="evenodd" clip-rule="evenodd" d="M56 17.0788C56 26.5112 48.4195 34.1575 39.0685 34.1575C35.535 34.1575 32.2543 33.0658 29.5399 31.1984L18.5084 42.3256L25.4758 49.3534L20.2704 54.6042L13.3031 47.5763L10.4108 50.4937L19.5865 59.7492L14.3812 65L0 50.4937L24.4978 25.7829C22.9981 23.234 22.1369 20.2578 22.1369 17.0788C22.1369 7.64636 29.7175 0 39.0685 0C48.4195 0 56 7.64636 56 17.0788ZM39.0162 26.732C44.3015 26.732 48.5862 22.4101 48.5862 17.0788C48.5862 11.7474 44.3015 7.42555 39.0162 7.42555C33.7308 7.42555 29.4462 11.7474 29.4462 17.0788C29.4462 22.4101 33.7308 26.732 39.0162 26.732Z" fill="#293858"/>
</svg>
