<svg width="62" height="66" viewBox="0 0 62 66" fill="none" xmlns="http://www.w3.org/2000/svg">
<path d="M20.5044 6.66156L19.6847 1.57941C19.5968 1.03417 19.9675 0.520878 20.5127 0.432936L22.4872 0.114471C23.0324 0.0265295 23.5457 0.397242 23.6337 0.94248L24.4534 6.02463C24.9301 8.98061 25.9145 11.8094 27.3438 14.3941C27.8134 15.2432 29 14.8817 29 13.9114V6.7737C29 6.22142 29.4477 5.7737 30 5.7737H32C32.5522 5.7737 33 6.22142 33 6.7737V13.9114C33 14.8817 34.1865 15.2432 34.6561 14.3941C36.0854 11.8094 37.0698 8.98061 37.5465 6.02463L38.3662 0.94248C38.4542 0.397242 38.9675 0.0265294 39.5127 0.114471L41.4872 0.432936C42.0324 0.520878 42.4031 1.03417 42.3152 1.57941L41.4955 6.66156C40.5081 12.7834 37.6361 18.4332 33.296 22.832C33.108 23.0226 33 23.2787 33 23.5464V33.1682C33 33.9669 33.8901 34.4432 34.5546 34.0002L44.2773 27.5184C44.4116 27.4289 44.5222 27.3082 44.5997 27.1667L55.2654 7.69017C55.5307 7.20576 56.1385 7.02812 56.6229 7.29339L58.377 8.25402C58.8615 8.51929 59.0391 9.12702 58.7738 9.61143L51.268 23.3178C50.8384 24.1022 51.5758 25.0129 52.4324 24.7559L59.4674 22.6454C59.9964 22.4867 60.5539 22.7869 60.7126 23.3159L61.2873 25.2315C61.446 25.7605 61.1458 26.318 60.6168 26.4767L47.0039 30.5606C46.909 30.5891 46.8189 30.6314 46.7365 30.6864L33.4453 39.5472C33.1671 39.7327 33 40.0449 33 40.3793V64.2737C33 64.826 32.5522 65.2737 32 65.2737H30C29.4477 65.2737 29 64.826 29 64.2737V40.3793C29 40.0449 28.8328 39.7327 28.5547 39.5472L15.2634 30.6864C15.181 30.6314 15.0909 30.5891 14.996 30.5606L1.38308 26.4767C0.854089 26.318 0.553905 25.7605 0.712603 25.2315L1.2873 23.3159C1.446 22.7869 2.00348 22.4867 2.53247 22.6454L9.56748 24.7559C10.4241 25.0129 11.1615 24.1022 10.7319 23.3178L3.22607 9.61143C2.9608 9.12702 3.13845 8.51929 3.62285 8.25402L5.37705 7.29339C5.86145 7.02812 6.46919 7.20576 6.73446 7.69017L17.4002 27.1667C17.4777 27.3082 17.5883 27.4289 17.7226 27.5184L27.4452 34.0002C28.1098 34.4432 29 33.9668 29 33.1682V23.5464C29 23.2787 28.8919 23.0226 28.7039 22.832C24.3638 18.4332 21.4918 12.7834 20.5044 6.66156Z" fill="#293858"/>
</svg>
