<svg width="62" height="40" viewBox="0 0 62 40" fill="none" xmlns="http://www.w3.org/2000/svg">
<path d="M23.3478 24.8893C22.8841 25.3341 22.8841 26.0552 23.3478 26.5L30.125 33L41.6522 21.9443C42.1159 21.4995 42.1159 20.7783 41.6522 20.3336C41.1884 19.8888 40.4366 19.8888 39.9728 20.3336L30.125 29.7786L25.0272 24.8893C24.5634 24.4446 23.8116 24.4446 23.3478 24.8893Z" fill="#293858"/>
<path d="M14 5H8V11H14V5Z" fill="#293858"/>
<path d="M18 5H24V11H18V5Z" fill="#293858"/>
<path d="M34 5H28V11H34V5Z" fill="#293858"/>
<path d="M38 5H44V11H38V5Z" fill="#293858"/>
<path d="M54 5H48V11H54V5Z" fill="#293858"/>
<path fill-rule="evenodd" clip-rule="evenodd" d="M4 0C1.79086 0 0 1.79089 0 4V36C0 38.2091 1.79086 40 4 40H58C60.2091 40 62 38.2091 62 36V4C62 1.79089 60.2091 0 58 0H4ZM58 2H4C2.89542 2 2 2.89539 2 4V36C2 37.1046 2.89542 38 4 38H58C59.1046 38 60 37.1046 60 36V4C60 2.89539 59.1046 2 58 2Z" fill="#293858"/>
</svg>
