<svg width="60" height="42" viewBox="0 0 60 42" fill="none" xmlns="http://www.w3.org/2000/svg">
<path fill-rule="evenodd" clip-rule="evenodd" d="M9.62272 2C5.41009 2 1.99976 5.40495 1.99976 9.59942V24.6308C1.99976 28.8253 5.4101 32.2302 9.62272 32.2302H12.4517L8.61464 37.668L17.6014 32.2302H50.3768C54.5894 32.2302 57.9998 28.8253 57.9998 24.6308V9.59943C57.9998 5.40496 54.5894 2 50.3768 2H9.62272ZM-0.000244141 9.59942C-0.000244141 4.29523 4.31068 0 9.62272 0H50.3768C55.6888 0 59.9998 4.29524 59.9998 9.59943V24.6308C59.9998 29.935 55.6888 34.2302 50.3768 34.2302H18.1593L5.55725 41.8556L4.22249 40.4235L8.62836 34.1796C3.78299 33.6832 -0.000244141 29.5997 -0.000244141 24.6308V9.59942Z" fill="#293858"/>
<path d="M16.9998 15H21.9998V20H16.9998V15Z" fill="#293858"/>
<path d="M27.9998 15H32.9998V20H27.9998V15Z" fill="#293858"/>
<path d="M38.9998 15H43.9998V20H38.9998V15Z" fill="#293858"/>
</svg>
