<svg width="56" height="57" viewBox="0 0 56 57" fill="none" xmlns="http://www.w3.org/2000/svg">
<path d="M13.2011 35.318C13.0645 35.7254 12.6828 36 12.253 36H11.8534C11.1637 36 10.6811 35.3184 10.9101 34.6679L14.8147 23.577C14.9556 23.1768 15.3337 22.9091 15.7579 22.9091H17.2696C17.6937 22.9091 18.0717 23.1766 18.2127 23.5766L22.1227 34.6675C22.352 35.3181 21.8694 36 21.1796 36H20.7801C20.3506 36 19.969 35.7257 19.8322 35.3185L16.581 25.6422C16.5713 25.6132 16.5442 25.5937 16.5136 25.5937C16.4831 25.5937 16.4559 25.6133 16.4462 25.6422L13.2011 35.318ZM13.0555 31.8196C13.0555 31.2936 13.4819 30.8672 14.0079 30.8672H19.0065C19.5325 30.8672 19.9589 31.2936 19.9589 31.8196C19.9589 32.3456 19.5325 32.772 19.0065 32.772H14.0079C13.4819 32.772 13.0555 32.3456 13.0555 31.8196Z" fill="#293858"/>
<path d="M33.2092 27.0895C32.7706 27.0895 32.3979 26.7943 32.1844 26.4111C32.1365 26.3252 32.0851 26.2424 32.0303 26.1626C31.8471 25.8856 31.6255 25.6491 31.3655 25.4531C31.1098 25.2571 30.8158 25.1101 30.4834 25.0121C30.151 24.9098 29.7888 24.8587 29.3968 24.8587C28.6936 24.8587 28.0672 25.0355 27.5175 25.3892C26.9678 25.7429 26.5353 26.2628 26.2199 26.9489C25.9088 27.6307 25.7533 28.4616 25.7533 29.4418C25.7533 30.4304 25.9088 31.2677 26.2199 31.9538C26.531 32.6399 26.9635 33.1619 27.5175 33.5199C28.0715 33.8736 28.7149 34.0504 29.4479 34.0504C30.1127 34.0504 30.688 33.9226 31.1738 33.6669C31.6638 33.4112 32.0409 33.049 32.3051 32.5802C32.5631 32.1184 32.6952 31.5793 32.7012 30.9631C32.7015 30.9396 32.7224 30.9216 32.7457 30.9252C32.7925 30.9324 32.7872 31.0014 32.7398 31.0014H29.9383C29.7981 31.0014 29.6844 30.8878 29.6844 30.7476V30.0746C29.6844 29.5627 30.0994 29.1477 30.6113 29.1477H33.9962C34.5485 29.1477 34.9962 29.5954 34.9962 30.1477V30.7202C34.9962 31.8409 34.7576 32.8104 34.2803 33.6285C33.803 34.4467 33.1468 35.0774 32.3115 35.5206C31.4763 35.9595 30.5175 36.179 29.4351 36.179C28.2292 36.179 27.1702 35.9084 26.2583 35.3672C25.3506 34.8217 24.6411 34.0483 24.1297 33.0469C23.6226 32.0412 23.3691 30.848 23.3691 29.4673C23.3691 28.4105 23.5182 27.4666 23.8165 26.6356C24.1191 25.8047 24.5409 25.0994 25.0821 24.5199C25.6233 23.9361 26.2583 23.4929 26.987 23.1903C27.7157 22.8835 28.5083 22.7301 29.3648 22.7301C30.0892 22.7301 30.7647 22.8366 31.3911 23.0497C32.0175 23.2585 32.5736 23.5568 33.0594 23.9446C33.5495 24.3324 33.9522 24.7926 34.2675 25.3253C34.3895 25.5314 34.4952 25.7457 34.5847 25.9684C34.813 26.5365 34.336 27.0895 33.7237 27.0895H33.2092Z" fill="#293858"/>
<path d="M38.2893 36C37.7371 36 37.2893 35.5523 37.2893 35V23.9091C37.2893 23.3568 37.7371 22.9091 38.2893 22.9091H44.8096C45.3585 22.9091 45.8036 23.3541 45.8036 23.903C45.8036 24.452 45.3585 24.897 44.8096 24.897H40.6608C40.1085 24.897 39.6608 25.3447 39.6608 25.897V27.451C39.6608 28.0033 40.1085 28.451 40.6608 28.451H44.3685C44.9175 28.451 45.3625 28.896 45.3625 29.4449C45.3625 29.9939 44.9175 30.4389 44.3685 30.4389H40.6608C40.1085 30.4389 39.6608 30.8866 39.6608 31.4389V33.0121C39.6608 33.5643 40.1085 34.0121 40.6608 34.0121H44.8607C45.4097 34.0121 45.8547 34.4571 45.8547 35.006C45.8547 35.555 45.4097 36 44.8607 36H38.2893Z" fill="#293858"/>
<path d="M54.46 22.4905C55.4573 22.2596 56.0845 21.2617 55.7893 20.2815C54.2716 15.2417 51.3834 10.7079 47.4309 7.19574C43.0155 3.27219 37.49 0.817505 31.6187 0.171143C25.7473 -0.47522 19.8202 0.71868 14.657 3.58774C9.49377 6.45679 5.34956 10.8592 2.79746 16.1863C0.245355 21.5133 -0.588526 27.5017 0.411132 33.3233C1.41079 39.1449 4.19459 44.5121 8.37756 48.6826C12.5605 52.8531 17.936 55.6209 23.7605 56.6032C28.9744 57.4824 34.3175 56.8922 39.1961 54.9168C40.1449 54.5326 40.5296 53.4184 40.0845 52.4965C39.6395 51.5747 38.5335 51.1951 37.5809 51.5701C33.3976 53.2168 28.8331 53.6992 24.377 52.9477C19.3101 52.0932 14.6338 49.6854 10.9949 46.0574C7.35605 42.4293 4.93434 37.7603 4.06471 32.6959C3.19508 27.6315 3.9205 22.4221 6.14064 17.7879C8.36078 13.1538 11.966 9.324 16.4576 6.82812C20.9492 4.33225 26.1054 3.29364 31.213 3.85593C36.3207 4.41822 41.1274 6.55362 44.9685 9.96683C48.3465 12.9685 50.8309 16.828 52.1691 21.12C52.4738 22.0972 53.4627 22.7214 54.46 22.4905Z" fill="#293858"/>
</svg>
