<svg width="58" height="57" viewBox="0 0 58 57" fill="none" xmlns="http://www.w3.org/2000/svg">
<path d="M19.0936 25.7289C18.1349 25.7289 17.3121 25.488 16.6251 25.0062C15.9419 24.5205 15.416 23.8208 15.0473 22.9073C14.6824 21.9899 14.5 20.8855 14.5 19.5942C14.5039 18.3029 14.6882 17.2043 15.0531 16.2985C15.4218 15.3888 15.9478 14.6949 16.6309 14.217C17.3179 13.739 18.1388 13.5 19.0936 13.5C20.0485 13.5 20.8694 13.739 21.5564 14.217C22.2434 14.6949 22.7693 15.3888 23.1342 16.2985C23.5029 17.2082 23.6873 18.3068 23.6873 19.5942C23.6873 20.8894 23.5029 21.9957 23.1342 22.9131C22.7693 23.8266 22.2434 24.5243 21.5564 25.0062C20.8733 25.488 20.0524 25.7289 19.0936 25.7289ZM19.0936 23.9191C19.8389 23.9191 20.4269 23.5549 20.8577 22.8263C21.2925 22.094 21.5098 21.0166 21.5098 19.5942C21.5098 18.6537 21.4108 17.8635 21.2129 17.2236C21.0149 16.5837 20.7355 16.1019 20.3745 15.7781C20.0135 15.4505 19.5866 15.2866 19.0936 15.2866C18.3523 15.2866 17.7662 15.6528 17.3354 16.3852C16.9045 17.1137 16.6872 18.1834 16.6833 19.5942C16.6794 20.5386 16.7745 21.3327 16.9686 21.9764C17.1665 22.6201 17.446 23.1058 17.807 23.4335C18.1679 23.7572 18.5968 23.9191 19.0936 23.9191Z" fill="#293858"/>
<path d="M28.8806 13.6619C29.7592 13.6619 30.4715 14.3742 30.4715 15.2528V24.4234C30.4715 25.0199 29.988 25.5034 29.3915 25.5034C28.795 25.5034 28.3115 25.0199 28.3115 24.4234V15.8033C28.3115 15.7734 28.2873 15.7492 28.2574 15.7492C28.2471 15.7492 28.237 15.7521 28.2284 15.7576L26.7284 16.7093C26.1754 17.0601 25.4529 16.6628 25.4529 16.0079C25.4529 15.7243 25.5976 15.4603 25.8367 15.3077L28.0249 13.9116C28.2805 13.7485 28.5774 13.6619 28.8806 13.6619Z" fill="#293858"/>
<path d="M37.9064 25.7289C36.9476 25.7289 36.1248 25.488 35.4378 25.0062C34.7546 24.5205 34.2287 23.8208 33.86 22.9073C33.4951 21.9899 33.3127 20.8855 33.3127 19.5942C33.3166 18.3029 33.501 17.2043 33.8658 16.2985C34.2345 15.3888 34.7605 14.6949 35.4436 14.217C36.1306 13.739 36.9515 13.5 37.9064 13.5C38.8612 13.5 39.6821 13.739 40.3691 14.217C41.0561 14.6949 41.582 15.3888 41.9469 16.2985C42.3156 17.2082 42.5 18.3068 42.5 19.5942C42.5 20.8894 42.3156 21.9957 41.9469 22.9131C41.582 23.8266 41.0561 24.5243 40.3691 25.0062C39.686 25.488 38.8651 25.7289 37.9064 25.7289ZM37.9064 23.9191C38.6516 23.9191 39.2396 23.5549 39.6705 22.8263C40.1052 22.094 40.3225 21.0166 40.3225 19.5942C40.3225 18.6537 40.2236 17.8635 40.0256 17.2236C39.8276 16.5837 39.5482 16.1019 39.1872 15.7781C38.8262 15.4505 38.3993 15.2866 37.9064 15.2866C37.165 15.2866 36.5789 15.6528 36.1481 16.3852C35.7172 17.1137 35.4999 18.1834 35.496 19.5942C35.4921 20.5386 35.5872 21.3327 35.7813 21.9764C35.9792 22.6201 36.2587 23.1058 36.6197 23.4335C36.9806 23.7572 37.4095 23.9191 37.9064 23.9191Z" fill="#293858"/>
<path d="M19.9452 33.433C20.8238 33.433 21.5361 34.1453 21.5361 35.0239V44.1945C21.5361 44.791 21.0526 45.2745 20.4561 45.2745C19.8597 45.2745 19.3761 44.791 19.3761 44.1945V35.5744C19.3761 35.5445 19.3519 35.5203 19.322 35.5203C19.3117 35.5203 19.3017 35.5232 19.293 35.5287L17.793 36.4803C17.24 36.8312 16.5175 36.4339 16.5175 35.779C16.5175 35.4954 16.6622 35.2314 16.9013 35.0788L19.0895 33.6827C19.3451 33.5196 19.642 33.433 19.9452 33.433Z" fill="#293858"/>
<path d="M28.971 45.5C28.0123 45.5 27.1894 45.2591 26.5024 44.7773C25.8193 44.2916 25.2933 43.5919 24.9246 42.6784C24.5597 41.761 24.3773 40.6566 24.3773 39.3653C24.3812 38.074 24.5656 36.9754 24.9304 36.0696C25.2992 35.1599 25.8251 34.466 26.5082 33.9881C27.1952 33.5101 28.0161 33.2711 28.971 33.2711C29.9258 33.2711 30.7467 33.5101 31.4337 33.9881C32.1207 34.466 32.6467 35.1599 33.0115 36.0696C33.3802 36.9793 33.5646 38.0779 33.5646 39.3653C33.5646 40.6605 33.3802 41.7668 33.0115 42.6842C32.6467 43.5977 32.1207 44.2954 31.4337 44.7773C30.7506 45.2591 29.9297 45.5 28.971 45.5ZM28.971 43.6902C29.7162 43.6902 30.3042 43.326 30.7351 42.5974C31.1698 41.8651 31.3871 40.7877 31.3871 39.3653C31.3871 38.4248 31.2882 37.6346 31.0902 36.9947C30.8923 36.3548 30.6128 35.873 30.2518 35.5492C29.8909 35.2216 29.4639 35.0577 28.971 35.0577C28.2296 35.0577 27.6435 35.4239 27.2127 36.1563C26.7819 36.8848 26.5645 37.9545 26.5606 39.3653C26.5567 40.3097 26.6518 41.1038 26.8459 41.7475C27.0438 42.3912 27.3233 42.8769 27.6843 43.2046C28.0452 43.5283 28.4741 43.6902 28.971 43.6902Z" fill="#293858"/>
<path d="M38.7579 33.433C39.6366 33.433 40.3488 34.1453 40.3488 35.0239V44.1945C40.3488 44.791 39.8653 45.2745 39.2688 45.2745C38.6724 45.2745 38.1888 44.791 38.1888 44.1945V35.5744C38.1888 35.5445 38.1646 35.5203 38.1347 35.5203C38.1244 35.5203 38.1144 35.5232 38.1057 35.5287L36.6057 36.4803C36.0527 36.8312 35.3302 36.4339 35.3302 35.779C35.3302 35.4954 35.4749 35.2314 35.714 35.0788L37.9022 33.6827C38.1578 33.5196 38.4547 33.433 38.7579 33.433Z" fill="#293858"/>
<path d="M2 29V33.402C2 39.2405 4.25528 44.8533 8.29498 49.0687L10.1306 50.9841C12.3181 53.2667 15.1849 54.7808 18.3034 55.3006C19.0998 55.4333 19.9057 55.5 20.7131 55.5H37.2869C38.0943 55.5 38.9002 55.4333 39.6966 55.3006C42.8151 54.7808 45.6819 53.2667 47.8694 50.9841L49.705 49.0687C53.7447 44.8533 56 39.2405 56 33.402V29C56 14.0883 43.9117 2 29 2C14.0883 2 2 14.0883 2 29Z" stroke="#293858" stroke-width="3" stroke-linecap="square"/>
</svg>
