<svg width="32" height="52" viewBox="0 0 32 52" fill="none" xmlns="http://www.w3.org/2000/svg">
<path fill-rule="evenodd" clip-rule="evenodd" d="M1.99976 15.1304C1.99976 8.04676 7.74219 2.30432 14.8258 2.30432H17.1302C24.2139 2.30432 29.9563 8.04676 29.9563 15.1304C29.9563 17.9056 29.0562 20.6059 27.3911 22.8261L25.7077 25.0706C24.0052 27.3405 22.7328 29.9029 21.9533 32.6311L20.7774 36.747C20.6256 37.278 20.9331 37.8315 21.4642 37.9832C21.9952 38.135 22.5487 37.8275 22.7004 37.2964L23.8764 33.1805C24.5888 30.6871 25.7517 28.3452 27.3077 26.2706L28.9911 24.0261C30.9158 21.4597 31.9563 18.3383 31.9563 15.1304C31.9563 6.94219 25.3184 0.304321 17.1302 0.304321H14.8258C6.63762 0.304321 -0.000244141 6.94219 -0.000244141 15.1304C-0.000244141 18.3383 1.04022 21.4597 2.96497 24.0261L4.64838 26.2706C6.20431 28.3452 7.36724 30.6871 8.07965 33.1805L9.25562 37.2964C9.40735 37.8275 9.96083 38.135 10.4919 37.9832C11.0229 37.8315 11.3304 37.278 11.1787 36.747L10.0027 32.6311C9.22322 29.9029 7.9508 27.3405 6.24838 25.0706L4.56497 22.8261C2.89986 20.6059 1.99976 17.9056 1.99976 15.1304ZM9.23126 40.4782C8.56908 40.4782 8.08975 41.1102 8.2683 41.7479L9.83411 47.3401C10.6056 50.0953 13.1169 52 15.978 52C18.8392 52 21.3505 50.0953 22.1219 47.3401L23.6877 41.7479C23.8663 41.1102 23.387 40.4782 22.7248 40.4782H9.23126Z" fill="#293858"/>
</svg>
