<svg width="38" height="62" viewBox="0 0 38 62" fill="none" xmlns="http://www.w3.org/2000/svg">
<path fill-rule="evenodd" clip-rule="evenodd" d="M35.3911 2H2.86938C2.3171 2 1.86938 2.44772 1.86938 3V59C1.86938 59.5523 2.3171 60 2.86939 60H35.3911C35.9434 60 36.3911 59.5523 36.3911 59V3C36.3911 2.44772 35.9434 2 35.3911 2ZM2.86938 1C1.76482 1 0.869385 1.89543 0.869385 3V59C0.869385 60.1046 1.76482 61 2.86939 61H35.3911C36.4957 61 37.3911 60.1046 37.3911 59V3C37.3911 1.89543 36.4957 1 35.3911 1H2.86938ZM14.0096 7.21733H7.08678V54.7825H31.1737V7.21733H24.251C24.0534 8.22885 23.5589 9.16728 22.8195 9.90664C21.8411 10.8851 20.514 11.4348 19.1303 11.4348C17.7465 11.4348 16.4195 10.8851 15.441 9.90664C14.7016 9.16728 14.2071 8.22885 14.0096 7.21733ZM7.08678 6.21733H6.08678V7.21733V54.7825V55.7825H7.08678H31.1737H32.1737V54.7825V7.21733V6.21733H31.1737H7.08678Z" fill="#293858" stroke="#293858"/>
</svg>
