<svg width="36" height="51" viewBox="0 0 36 51" fill="none" xmlns="http://www.w3.org/2000/svg">
<path d="M5.18726 12.8296C1.39036 15.0889 0.143929 19.9985 2.40328 23.7954C4.66264 27.5923 9.57222 28.8387 13.3691 26.5794L31.4157 15.8407C35.2126 13.5813 36.4591 8.67176 34.1997 4.87485C31.9404 1.07795 27.0308 -0.168481 23.2339 2.09088L5.18726 12.8296Z" fill="#293858"/>
<path d="M4.59086 35.2939C0.793957 37.5532 -0.452473 42.4628 1.80688 46.2597C4.06624 50.0566 8.97581 51.303 12.7727 49.0437L30.8193 38.305C34.6162 36.0456 35.8627 31.136 33.6033 27.3391C31.344 23.5422 26.4344 22.2958 22.6375 24.5552L4.59086 35.2939Z" fill="#293858"/>
</svg>
