<svg width="53" height="53" viewBox="0 0 53 53" fill="none" xmlns="http://www.w3.org/2000/svg">
<mask id="path-1-inside-1_398_3753" fill="white">
<path fill-rule="evenodd" clip-rule="evenodd" d="M29.1731 1.90385L22.8269 1.90385C21.0745 1.90385 19.6538 3.32448 19.6538 5.07692L19.6538 11.4231C19.6538 13.1755 21.0745 14.5962 22.8269 14.5962L29.1731 14.5962C30.9255 14.5962 32.3462 13.1755 32.3462 11.4231L32.3462 5.07692C32.3462 3.32448 30.9255 1.90385 29.1731 1.90385ZM22.8269 0C20.023 0 17.75 2.27302 17.75 5.07692L17.75 11.4231C17.75 14.227 20.023 16.5 22.8269 16.5L29.1731 16.5C31.977 16.5 34.25 14.227 34.25 11.4231L34.25 5.07692C34.25 2.27302 31.977 0 29.1731 0L22.8269 0Z"/>
</mask>
<path fill-rule="evenodd" clip-rule="evenodd" d="M29.1731 1.90385L22.8269 1.90385C21.0745 1.90385 19.6538 3.32448 19.6538 5.07692L19.6538 11.4231C19.6538 13.1755 21.0745 14.5962 22.8269 14.5962L29.1731 14.5962C30.9255 14.5962 32.3462 13.1755 32.3462 11.4231L32.3462 5.07692C32.3462 3.32448 30.9255 1.90385 29.1731 1.90385ZM22.8269 0C20.023 0 17.75 2.27302 17.75 5.07692L17.75 11.4231C17.75 14.227 20.023 16.5 22.8269 16.5L29.1731 16.5C31.977 16.5 34.25 14.227 34.25 11.4231L34.25 5.07692C34.25 2.27302 31.977 0 29.1731 0L22.8269 0Z" fill="#293858"/>
<path d="M22.8269 4.90385L29.1731 4.90385L29.1731 -1.09615L22.8269 -1.09615L22.8269 4.90385ZM22.6538 5.07692C22.6538 4.98134 22.7313 4.90385 22.8269 4.90385L22.8269 -1.09615C19.4176 -1.09615 16.6538 1.66763 16.6538 5.07692L22.6538 5.07692ZM22.6538 11.4231L22.6538 5.07692L16.6538 5.07692L16.6538 11.4231L22.6538 11.4231ZM22.8269 11.5962C22.7313 11.5962 22.6538 11.5187 22.6538 11.4231L16.6538 11.4231C16.6538 14.8324 19.4176 17.5962 22.8269 17.5962L22.8269 11.5962ZM29.1731 11.5962L22.8269 11.5962L22.8269 17.5962L29.1731 17.5962L29.1731 11.5962ZM29.3462 11.4231C29.3462 11.5187 29.2687 11.5962 29.1731 11.5962L29.1731 17.5962C32.5824 17.5962 35.3462 14.8324 35.3462 11.4231L29.3462 11.4231ZM29.3462 5.07692L29.3462 11.4231L35.3462 11.4231L35.3462 5.07692L29.3462 5.07692ZM29.1731 4.90385C29.2687 4.90385 29.3462 4.98134 29.3462 5.07692L35.3462 5.07692C35.3462 1.66763 32.5824 -1.09615 29.1731 -1.09615L29.1731 4.90385ZM20.75 5.07692C20.75 3.92987 21.6799 3 22.8269 3L22.8269 -3C18.3662 -3 14.75 0.616161 14.75 5.07692L20.75 5.07692ZM20.75 11.4231L20.75 5.07692L14.75 5.07692L14.75 11.4231L20.75 11.4231ZM22.8269 13.5C21.6799 13.5 20.75 12.5701 20.75 11.4231L14.75 11.4231C14.75 15.8838 18.3662 19.5 22.8269 19.5L22.8269 13.5ZM29.1731 13.5L22.8269 13.5L22.8269 19.5L29.1731 19.5L29.1731 13.5ZM31.25 11.4231C31.25 12.5701 30.3201 13.5 29.1731 13.5L29.1731 19.5C33.6338 19.5 37.25 15.8838 37.25 11.4231L31.25 11.4231ZM31.25 5.07692L31.25 11.4231L37.25 11.4231L37.25 5.07692L31.25 5.07692ZM29.1731 3C30.3201 3 31.25 3.92987 31.25 5.07692L37.25 5.07692C37.25 0.616162 33.6338 -3 29.1731 -3L29.1731 3ZM22.8269 3L29.1731 3L29.1731 -3L22.8269 -3L22.8269 3Z" fill="#293858" mask="url(#path-1-inside-1_398_3753)"/>
<mask id="path-3-inside-2_398_3753" fill="white">
<path fill-rule="evenodd" clip-rule="evenodd" d="M47.4231 1.90385L41.0769 1.90385C39.3245 1.90385 37.9038 3.32448 37.9038 5.07692L37.9038 11.4231C37.9038 13.1755 39.3245 14.5962 41.0769 14.5962L47.4231 14.5962C49.1755 14.5962 50.5962 13.1755 50.5962 11.4231L50.5962 5.07692C50.5962 3.32448 49.1755 1.90385 47.4231 1.90385ZM41.0769 0C38.273 0 36 2.27302 36 5.07692L36 11.4231C36 14.227 38.273 16.5 41.0769 16.5L47.4231 16.5C50.227 16.5 52.5 14.227 52.5 11.4231L52.5 5.07692C52.5 2.27302 50.227 0 47.4231 0L41.0769 0Z"/>
</mask>
<path fill-rule="evenodd" clip-rule="evenodd" d="M47.4231 1.90385L41.0769 1.90385C39.3245 1.90385 37.9038 3.32448 37.9038 5.07692L37.9038 11.4231C37.9038 13.1755 39.3245 14.5962 41.0769 14.5962L47.4231 14.5962C49.1755 14.5962 50.5962 13.1755 50.5962 11.4231L50.5962 5.07692C50.5962 3.32448 49.1755 1.90385 47.4231 1.90385ZM41.0769 0C38.273 0 36 2.27302 36 5.07692L36 11.4231C36 14.227 38.273 16.5 41.0769 16.5L47.4231 16.5C50.227 16.5 52.5 14.227 52.5 11.4231L52.5 5.07692C52.5 2.27302 50.227 0 47.4231 0L41.0769 0Z" fill="#293858"/>
<path d="M41.0769 4.90385L47.4231 4.90385L47.4231 -1.09615L41.0769 -1.09615L41.0769 4.90385ZM40.9038 5.07692C40.9038 4.98134 40.9813 4.90385 41.0769 4.90385L41.0769 -1.09615C37.6676 -1.09615 34.9038 1.66763 34.9038 5.07692L40.9038 5.07692ZM40.9038 11.4231L40.9038 5.07692L34.9038 5.07692L34.9038 11.4231L40.9038 11.4231ZM41.0769 11.5962C40.9813 11.5962 40.9038 11.5187 40.9038 11.4231L34.9038 11.4231C34.9038 14.8324 37.6676 17.5962 41.0769 17.5962L41.0769 11.5962ZM47.4231 11.5962L41.0769 11.5962L41.0769 17.5962L47.4231 17.5962L47.4231 11.5962ZM47.5962 11.4231C47.5962 11.5187 47.5187 11.5962 47.4231 11.5962L47.4231 17.5962C50.8324 17.5962 53.5962 14.8324 53.5962 11.4231L47.5962 11.4231ZM47.5962 5.07692L47.5962 11.4231L53.5962 11.4231L53.5962 5.07692L47.5962 5.07692ZM47.4231 4.90385C47.5187 4.90385 47.5962 4.98134 47.5962 5.07692L53.5962 5.07692C53.5962 1.66763 50.8324 -1.09615 47.4231 -1.09615L47.4231 4.90385ZM39 5.07692C39 3.92987 39.9299 3 41.0769 3L41.0769 -3C36.6162 -3 33 0.616161 33 5.07692L39 5.07692ZM39 11.4231L39 5.07692L33 5.07692L33 11.4231L39 11.4231ZM41.0769 13.5C39.9299 13.5 39 12.5701 39 11.4231L33 11.4231C33 15.8838 36.6162 19.5 41.0769 19.5L41.0769 13.5ZM47.4231 13.5L41.0769 13.5L41.0769 19.5L47.4231 19.5L47.4231 13.5ZM49.5 11.4231C49.5 12.5701 48.5701 13.5 47.4231 13.5L47.4231 19.5C51.8838 19.5 55.5 15.8838 55.5 11.4231L49.5 11.4231ZM49.5 5.07692L49.5 11.4231L55.5 11.4231L55.5 5.07692L49.5 5.07692ZM47.4231 3C48.5701 3 49.5 3.92987 49.5 5.07692L55.5 5.07692C55.5 0.616162 51.8838 -3 47.4231 -3L47.4231 3ZM41.0769 3L47.4231 3L47.4231 -3L41.0769 -3L41.0769 3Z" fill="#293858" mask="url(#path-3-inside-2_398_3753)"/>
<mask id="path-5-inside-3_398_3753" fill="white">
<path fill-rule="evenodd" clip-rule="evenodd" d="M11.4231 1.90385L5.07692 1.90385C3.32448 1.90385 1.90385 3.32448 1.90385 5.07692L1.90385 11.4231C1.90385 13.1755 3.32448 14.5962 5.07692 14.5962L11.4231 14.5962C13.1755 14.5962 14.5962 13.1755 14.5962 11.4231L14.5962 5.07692C14.5962 3.32448 13.1755 1.90385 11.4231 1.90385ZM5.07692 0C2.27302 0 0 2.27302 0 5.07692L0 11.4231C0 14.227 2.27302 16.5 5.07692 16.5L11.4231 16.5C14.227 16.5 16.5 14.227 16.5 11.4231L16.5 5.07692C16.5 2.27302 14.227 0 11.4231 0L5.07692 0Z"/>
</mask>
<path fill-rule="evenodd" clip-rule="evenodd" d="M11.4231 1.90385L5.07692 1.90385C3.32448 1.90385 1.90385 3.32448 1.90385 5.07692L1.90385 11.4231C1.90385 13.1755 3.32448 14.5962 5.07692 14.5962L11.4231 14.5962C13.1755 14.5962 14.5962 13.1755 14.5962 11.4231L14.5962 5.07692C14.5962 3.32448 13.1755 1.90385 11.4231 1.90385ZM5.07692 0C2.27302 0 0 2.27302 0 5.07692L0 11.4231C0 14.227 2.27302 16.5 5.07692 16.5L11.4231 16.5C14.227 16.5 16.5 14.227 16.5 11.4231L16.5 5.07692C16.5 2.27302 14.227 0 11.4231 0L5.07692 0Z" fill="#293858"/>
<path d="M5.07692 4.90385L11.4231 4.90385L11.4231 -1.09615L5.07692 -1.09615L5.07692 4.90385ZM4.90385 5.07692C4.90385 4.98134 4.98134 4.90385 5.07692 4.90385L5.07692 -1.09615C1.66763 -1.09615 -1.09615 1.66763 -1.09615 5.07692L4.90385 5.07692ZM4.90385 11.4231L4.90385 5.07692L-1.09615 5.07692L-1.09615 11.4231L4.90385 11.4231ZM5.07692 11.5962C4.98134 11.5962 4.90385 11.5187 4.90385 11.4231L-1.09615 11.4231C-1.09615 14.8324 1.66763 17.5962 5.07692 17.5962L5.07692 11.5962ZM11.4231 11.5962L5.07692 11.5962L5.07692 17.5962L11.4231 17.5962L11.4231 11.5962ZM11.5962 11.4231C11.5962 11.5187 11.5187 11.5962 11.4231 11.5962L11.4231 17.5962C14.8324 17.5962 17.5962 14.8324 17.5962 11.4231L11.5962 11.4231ZM11.5962 5.07692L11.5962 11.4231L17.5962 11.4231L17.5962 5.07692L11.5962 5.07692ZM11.4231 4.90385C11.5187 4.90385 11.5962 4.98134 11.5962 5.07692L17.5962 5.07692C17.5962 1.66763 14.8324 -1.09615 11.4231 -1.09615L11.4231 4.90385ZM3 5.07692C3 3.92987 3.92987 3 5.07692 3L5.07692 -3C0.616162 -3 -3 0.616161 -3 5.07692L3 5.07692ZM3 11.4231L3 5.07692L-3 5.07692L-3 11.4231L3 11.4231ZM5.07692 13.5C3.92987 13.5 3 12.5701 3 11.4231L-3 11.4231C-3 15.8838 0.616161 19.5 5.07692 19.5L5.07692 13.5ZM11.4231 13.5L5.07692 13.5L5.07692 19.5L11.4231 19.5L11.4231 13.5ZM13.5 11.4231C13.5 12.5701 12.5701 13.5 11.4231 13.5L11.4231 19.5C15.8838 19.5 19.5 15.8838 19.5 11.4231L13.5 11.4231ZM13.5 5.07692L13.5 11.4231L19.5 11.4231L19.5 5.07692L13.5 5.07692ZM11.4231 3C12.5701 3 13.5 3.92987 13.5 5.07692L19.5 5.07692C19.5 0.616162 15.8838 -3 11.4231 -3L11.4231 3ZM5.07692 3L11.4231 3L11.4231 -3L5.07692 -3L5.07692 3Z" fill="#293858" mask="url(#path-5-inside-3_398_3753)"/>
<mask id="path-7-inside-4_398_3753" fill="white">
<path fill-rule="evenodd" clip-rule="evenodd" d="M31 30L21 30C18.2386 30 16 32.2386 16 35L16 45C16 47.7614 18.2386 50 21 50L31 50C33.7614 50 36 47.7614 36 45L36 35C36 32.2386 33.7614 30 31 30ZM21 27C16.5817 27 13 30.5817 13 35L13 45C13 49.4183 16.5817 53 21 53L31 53C35.4183 53 39 49.4183 39 45L39 35C39 30.5817 35.4183 27 31 27L21 27Z"/>
</mask>
<path fill-rule="evenodd" clip-rule="evenodd" d="M31 30L21 30C18.2386 30 16 32.2386 16 35L16 45C16 47.7614 18.2386 50 21 50L31 50C33.7614 50 36 47.7614 36 45L36 35C36 32.2386 33.7614 30 31 30ZM21 27C16.5817 27 13 30.5817 13 35L13 45C13 49.4183 16.5817 53 21 53L31 53C35.4183 53 39 49.4183 39 45L39 35C39 30.5817 35.4183 27 31 27L21 27Z" fill="#293858"/>
<path d="M21 33L31 33L31 27L21 27L21 33ZM19 35C19 33.8954 19.8954 33 21 33L21 27C16.5817 27 13 30.5817 13 35L19 35ZM19 45L19 35L13 35L13 45L19 45ZM21 47C19.8954 47 19 46.1046 19 45L13 45C13 49.4183 16.5817 53 21 53L21 47ZM31 47L21 47L21 53L31 53L31 47ZM33 45C33 46.1046 32.1046 47 31 47L31 53C35.4183 53 39 49.4183 39 45L33 45ZM33 35L33 45L39 45L39 35L33 35ZM31 33C32.1046 33 33 33.8954 33 35L39 35C39 30.5817 35.4183 27 31 27L31 33ZM16 35C16 32.2386 18.2386 30 21 30L21 24C14.9249 24 10 28.9249 10 35L16 35ZM16 45L16 35L10 35L10 45L16 45ZM21 50C18.2386 50 16 47.7614 16 45L10 45C10 51.0751 14.9249 56 21 56L21 50ZM31 50L21 50L21 56L31 56L31 50ZM36 45C36 47.7614 33.7614 50 31 50L31 56C37.0751 56 42 51.0751 42 45L36 45ZM36 35L36 45L42 45L42 35L36 35ZM31 30C33.7614 30 36 32.2386 36 35L42 35C42 28.9249 37.0751 24 31 24L31 30ZM21 30L31 30L31 24L21 24L21 30Z" fill="#293858" mask="url(#path-7-inside-4_398_3753)"/>
<path d="M26 18L26 23L26 28" stroke="#293858" stroke-width="3" stroke-linecap="square"/>
</svg>
