<svg width="54" height="74" viewBox="0 0 54 74" fill="none" xmlns="http://www.w3.org/2000/svg">
<path fill-rule="evenodd" clip-rule="evenodd" d="M3 3H47V62H3V3ZM0 3C0 1.34315 1.34315 0 3 0H47C48.6569 0 50 1.34315 50 3V62C50 63.6569 48.6569 65 47 65H3C1.34315 65 0 63.6569 0 62V3ZM7 15H43V13H7V15ZM7 39H43V37H7V39ZM43 23H7V21H43V23ZM7 47H31V45H7V47ZM43 31H7V29H43V31Z" fill="#293858"/>
<path d="M48.5 62C48.5 62.3197 48.4812 62.6349 48.4448 62.9448L54 68.5L50.3461 69.5V73.5L44.7659 68.7689C43.5312 69.5487 42.0683 70 40.5 70C38.941 70 37.4862 69.5541 36.2561 68.7828L30.6923 73.5V69.5L27 68.5L32.557 62.96C32.5193 62.6453 32.5 62.3249 32.5 62C32.5 57.5817 36.0817 54 40.5 54C44.9182 54 48.5 57.5817 48.5 62Z" fill="#293858"/>
</svg>
