<svg width="73" height="43" viewBox="0 0 73 43" fill="none" xmlns="http://www.w3.org/2000/svg">
<path fill-rule="evenodd" clip-rule="evenodd" d="M36.5 36.3552C44.1878 36.3552 50.42 29.9081 50.42 21.9552C50.42 14.0023 44.1878 7.5552 36.5 7.5552C28.8122 7.5552 22.58 14.0023 22.58 21.9552C22.58 29.9081 28.8122 36.3552 36.5 36.3552ZM36.5 36.9552C44.5081 36.9552 51 30.2395 51 21.9552C51 13.6709 44.5081 6.9552 36.5 6.9552C28.4919 6.9552 22 13.6709 22 21.9552C22 30.2395 28.4919 36.9552 36.5 36.9552Z" fill="#293858"/>
<path opacity="0.5" fill-rule="evenodd" clip-rule="evenodd" d="M42.4804 11.7383C43.0543 12.0907 43.1611 12.8706 42.7594 13.4166C42.3577 13.9626 41.6 14.0663 41.0177 13.7285C39.7037 12.9662 38.2283 12.5223 36.7068 12.4394C34.7798 12.3343 32.8654 12.8131 31.2057 13.8151C29.5461 14.8172 28.2157 16.2974 27.3828 18.0688C26.7253 19.4673 26.4012 20.9977 26.4291 22.5365C26.4415 23.2184 25.9889 23.8454 25.3254 23.9425C24.6619 24.0396 24.0403 23.5705 24.0114 22.8891C23.9253 20.8644 24.3282 18.8423 25.1931 17.0029C26.2331 14.7908 27.8945 12.9423 29.967 11.691C32.0395 10.4396 34.4302 9.84178 36.8367 9.97296C38.8378 10.082 40.7752 10.6912 42.4804 11.7383Z" fill="#293858"/>
<path fill-rule="evenodd" clip-rule="evenodd" d="M36.5 38.1552C45.1985 38.1552 52.25 30.9022 52.25 21.9552C52.25 13.0082 45.1985 5.7552 36.5 5.7552C27.8015 5.7552 20.75 13.0082 20.75 21.9552C20.75 30.9022 27.8015 38.1552 36.5 38.1552ZM36.5 39.9552C46.165 39.9552 54 31.8963 54 21.9552C54 12.0141 46.165 3.9552 36.5 3.9552C26.835 3.9552 19 12.0141 19 21.9552C19 31.8963 26.835 39.9552 36.5 39.9552Z" fill="#293858"/>
<path fill-rule="evenodd" clip-rule="evenodd" d="M72.4089 37.927V5.98337C72.4089 3.53309 70.4241 1.54675 67.9757 1.54675H17.0678C16.6189 1.54675 16.2551 1.91091 16.2551 2.36013C16.2551 3.46275 15.3619 4.35661 14.2601 4.35661H4.5625C2.36915 4.35661 0.591093 6.13604 0.591093 8.33108V37.927C0.591093 40.3773 2.5759 42.3637 5.02429 42.3637H67.9757C70.4241 42.3637 72.4089 40.3773 72.4089 37.927ZM4.5625 3.76506C2.0427 3.76506 0 5.80934 0 8.33108V37.927C0 40.704 2.24945 42.9552 5.02429 42.9552H67.9757C70.7505 42.9552 73 40.704 73 37.927V5.98337C73 3.20639 70.7505 0.9552 67.9757 0.9552H17.0678C16.2925 0.9552 15.664 1.58421 15.664 2.36013C15.664 3.13605 15.0354 3.76506 14.2601 3.76506H4.5625Z" fill="#293858"/>
<path d="M5 2.38377C5 1.59479 5.64991 0.9552 6.45161 0.9552H12.5484C13.3501 0.9552 14 1.59479 14 2.38377V2.9552H5V2.38377Z" fill="#293858"/>
<path d="M60 5.52663C60 5.21104 60.2411 4.9552 60.5385 4.9552H66.4615C66.7589 4.9552 67 5.21104 67 5.52663V8.38377C67 8.69936 66.7589 8.9552 66.4615 8.9552H60.5385C60.2411 8.9552 60 8.69936 60 8.38377V5.52663Z" fill="#293858"/>
</svg>
