<svg width="53" height="63" viewBox="0 0 53 63" fill="none" xmlns="http://www.w3.org/2000/svg">
<mask id="path-1-outside-1_398_3763" maskUnits="userSpaceOnUse" x="0" y="0" width="53" height="63" fill="black">
<rect fill="white" width="53" height="63"/>
<path d="M24.1937 3C24.1606 3 24.1277 3.00386 24.0955 3.0115C22.4027 3.41327 20.016 4.20669 17.9644 5.38971C15.9385 6.55786 14.1111 8.1803 13.7687 10.2934C13.4431 12.3025 13.5209 14.3008 13.7205 16.056C13.724 16.305 13.7281 16.5595 13.7322 16.8192C13.7466 17.7295 13.762 18.7056 13.7629 19.757C13.7236 19.761 13.6843 19.7661 13.645 19.7724C12.8493 19.8983 12.2281 20.4505 11.8516 21.1753C11.4751 21.8999 11.3262 22.8214 11.4684 23.7713C11.6106 24.7212 12.0221 25.5539 12.593 26.1285C13.1027 26.6415 13.7579 26.963 14.4586 26.9367C15.1902 30.4716 16.487 33.5743 18.2885 35.8941C18.8523 40.3851 18.4852 43.7882 18.1651 46.4688C18.0971 46.4485 18.0244 46.4452 17.9535 46.4606L3.34661 49.6234C3.1446 49.6671 3 49.8504 3 50.0627V59.551C3 59.799 3.19545 60 3.43654 60H49.5635C49.8046 60 50 59.799 50 59.551V50.0627C50 49.8504 49.8554 49.6671 49.6534 49.6234L35.3146 46.5186C34.9555 43.3312 34.9409 38.7863 35.1532 35.3628C36.753 33.1074 37.9104 30.1993 38.5759 26.9088L38.5939 26.9117C39.3897 27.0377 40.1435 26.7033 40.7146 26.1285C41.2855 25.5539 41.697 24.7212 41.8392 23.7713C41.9814 22.8214 41.8325 21.8999 41.456 21.1753C41.0794 20.4505 40.4583 19.8983 39.6626 19.7724C39.5989 19.7623 39.5353 19.7551 39.472 19.7509C39.7437 16.8623 39.5374 13.1501 38.3374 9.94221C37.0563 6.51777 34.6189 3.62353 30.4059 3.00451C30.3854 3.00151 30.3648 3 30.3441 3H24.1937Z"/>
</mask>
<path d="M24.0955 3.0115L23.4027 0.0925801L23.4027 0.0925872L24.0955 3.0115ZM17.9644 5.38971L19.4629 7.9886V7.9886L17.9644 5.38971ZM13.7687 10.2934L16.7301 10.7732V10.7732L13.7687 10.2934ZM13.7205 16.056L16.7202 16.0129C16.7187 15.9141 16.7124 15.8153 16.7013 15.7171L13.7205 16.056ZM13.7322 16.8192L10.7325 16.8666V16.8666L13.7322 16.8192ZM13.7629 19.757L14.0668 22.7416C15.5991 22.5856 16.7643 21.2946 16.7629 19.7544L13.7629 19.757ZM13.645 19.7724L13.1758 16.8093L13.1758 16.8093L13.645 19.7724ZM11.8516 21.1753L14.5137 22.5584L14.5137 22.5584L11.8516 21.1753ZM11.4684 23.7713L14.4353 23.3272V23.3272L11.4684 23.7713ZM12.593 26.1285L10.4649 28.2431L12.593 26.1285ZM14.4586 26.9367L17.3963 26.3287C17.0994 24.8941 15.8098 23.8838 14.3459 23.9388L14.4586 26.9367ZM18.2885 35.8941L21.2651 35.5204C21.198 34.986 20.9883 34.4795 20.658 34.0541L18.2885 35.8941ZM18.1651 46.4688L17.307 49.3435C18.1551 49.5966 19.0717 49.4623 19.8115 48.9766C20.5513 48.4909 21.039 47.7033 21.1439 46.8245L18.1651 46.4688ZM17.9535 46.4606L18.5883 49.3927L18.5884 49.3926L17.9535 46.4606ZM3.34661 49.6234L3.98148 52.5554H3.98148L3.34661 49.6234ZM49.6534 49.6234L49.0185 52.5554H49.0185L49.6534 49.6234ZM35.3146 46.5186L32.3334 46.8545C32.4775 48.1336 33.4216 49.1783 34.6797 49.4507L35.3146 46.5186ZM35.1532 35.3628L32.7063 33.6271C32.3831 34.0828 32.1935 34.6196 32.1589 35.1771L35.1532 35.3628ZM38.5759 26.9088L39.0578 23.9478C37.4665 23.6888 35.955 24.7339 35.6354 26.3141L38.5759 26.9088ZM38.5939 26.9117L38.112 29.8728L38.1248 29.8748L38.5939 26.9117ZM40.7146 26.1285L42.8426 28.2431L42.8427 28.2431L40.7146 26.1285ZM41.456 21.1753L44.1181 19.7922V19.7922L41.456 21.1753ZM39.6626 19.7724L40.1318 16.8093L40.1317 16.8093L39.6626 19.7724ZM39.472 19.7509L36.4851 19.4699C36.4093 20.2759 36.6624 21.0782 37.1869 21.6948C37.7114 22.3113 38.4628 22.6897 39.2705 22.7441L39.472 19.7509ZM38.3374 9.94221L41.1472 8.89108L41.1472 8.89108L38.3374 9.94221ZM30.4059 3.00451L30.842 0.0363793L30.842 0.0363781L30.4059 3.00451ZM24.1937 0C23.927 0 23.6616 0.0311522 23.4027 0.0925801L24.7883 5.93042C24.5938 5.97656 24.3943 6 24.1937 6V0ZM23.4027 0.0925872C21.5185 0.539804 18.8391 1.42228 16.4658 2.79081L19.4629 7.9886C21.1929 6.9911 23.287 6.28674 24.7883 5.93041L23.4027 0.0925872ZM16.4658 2.79081C14.2785 4.05202 11.3788 6.28665 10.8073 9.81347L16.7301 10.7732C16.8434 10.0739 17.5985 9.0637 19.4629 7.9886L16.4658 2.79081ZM10.8073 9.81347C10.4219 12.1921 10.5229 14.4886 10.7397 16.3949L16.7013 15.7171C16.5189 14.1129 16.4644 12.4129 16.7301 10.7732L10.8073 9.81347ZM10.7208 16.099C10.7244 16.3507 10.7284 16.6074 10.7325 16.8666L16.7318 16.7717C16.7277 16.5116 16.7237 16.2594 16.7202 16.0129L10.7208 16.099ZM10.7325 16.8666C10.747 17.779 10.762 18.7338 10.7629 19.7597L16.7629 19.7544C16.762 18.6774 16.7462 17.68 16.7318 16.7717L10.7325 16.8666ZM13.4591 16.7725C13.3648 16.782 13.2704 16.7943 13.1758 16.8093L14.1141 22.7354C14.0983 22.7379 14.0825 22.74 14.0668 22.7416L13.4591 16.7725ZM13.1758 16.8093C11.2047 17.1214 9.88215 18.4589 9.18944 19.7922L14.5137 22.5584C14.5381 22.5115 14.5391 22.5321 14.479 22.5808C14.4095 22.637 14.2827 22.7087 14.1142 22.7354L13.1758 16.8093ZM9.18945 19.7922C8.49251 21.1336 8.27517 22.7039 8.50142 24.2154L14.4353 23.3272C14.3772 22.9388 14.4577 22.6662 14.5137 22.5584L9.18945 19.7922ZM8.50142 24.2154C8.72759 25.7264 9.39561 27.1669 10.4649 28.2431L14.7211 24.014C14.6486 23.941 14.4935 23.716 14.4353 23.3272L8.50142 24.2154ZM10.4649 28.2431C11.417 29.2012 12.8437 29.9995 14.5712 29.9346L14.3459 23.9388C14.4983 23.9331 14.6159 23.968 14.6811 23.9972C14.7402 24.0237 14.7475 24.0405 14.7211 24.014L10.4649 28.2431ZM11.5208 27.5447C12.3185 31.3988 13.7654 34.9608 15.919 37.7341L20.658 34.0541C19.2087 32.1878 18.0618 29.5443 17.3963 26.3287L11.5208 27.5447ZM15.3119 36.2678C15.8291 40.3881 15.4984 43.4987 15.1862 46.113L21.1439 46.8245C21.4719 44.0778 21.8755 40.3822 21.2651 35.5204L15.3119 36.2678ZM19.0231 43.5941C18.4771 43.4311 17.891 43.4046 17.3185 43.5286L18.5884 49.3926C18.1579 49.4859 17.717 49.4658 17.307 49.3435L19.0231 43.5941ZM17.3186 43.5285L2.71174 46.6913L3.98148 52.5554L18.5883 49.3927L17.3186 43.5285ZM2.71174 46.6913C1.07545 47.0456 0 48.4943 0 50.0627H6C6 51.2065 5.21375 52.2886 3.98148 52.5554L2.71174 46.6913ZM0 50.0627V59.551H6V50.0627H0ZM0 59.551C0 61.3758 1.45968 63 3.43654 63V57C4.93121 57 6 58.2222 6 59.551H0ZM3.43654 63H49.5635V57H3.43654V63ZM49.5635 63C51.5403 63 53 61.3758 53 59.551H47C47 58.2222 48.0688 57 49.5635 57V63ZM53 59.551V50.0627H47V59.551H53ZM53 50.0627C53 48.4943 51.9245 47.0456 50.2882 46.6913L49.0185 52.5554C47.7862 52.2886 47 51.2065 47 50.0627H53ZM50.2883 46.6913L35.9494 43.5866L34.6797 49.4507L49.0185 52.5554L50.2883 46.6913ZM38.2957 46.1828C37.9619 43.2196 37.9422 38.8583 38.1474 35.5485L32.1589 35.1771C31.9396 38.7142 31.9491 43.4428 32.3334 46.8545L38.2957 46.1828ZM37.6001 37.0985C39.4981 34.4228 40.7894 31.0982 41.5164 27.5035L35.6354 26.3141C35.0315 29.3004 34.0079 31.7921 32.7063 33.6271L37.6001 37.0985ZM38.094 29.8698L38.112 29.8728L39.0758 23.9507L39.0578 23.9478L38.094 29.8698ZM38.1248 29.8748C40.1033 30.1881 41.776 29.3165 42.8426 28.2431L38.5865 24.014C38.5559 24.0448 38.5695 24.0186 38.6513 23.9868C38.7448 23.9505 38.8937 23.9218 39.0631 23.9487L38.1248 29.8748ZM42.8427 28.2431C43.912 27.1669 44.58 25.7264 44.8062 24.2154L38.8723 23.3272C38.8141 23.716 38.659 23.941 38.5865 24.014L42.8427 28.2431ZM44.8062 24.2154C45.0324 22.7039 44.8151 21.1336 44.1181 19.7922L38.7938 22.5584C38.8498 22.6662 38.9304 22.9388 38.8723 23.3272L44.8062 24.2154ZM44.1181 19.7922C43.4254 18.4589 42.1029 17.1214 40.1318 16.8093L39.1934 22.7354C39.0249 22.7087 38.898 22.637 38.8286 22.5808C38.7684 22.5321 38.7695 22.5115 38.7938 22.5584L44.1181 19.7922ZM40.1317 16.8093C39.979 16.7851 39.8261 16.7679 39.6734 16.7576L39.2705 22.7441C39.2445 22.7424 39.2188 22.7395 39.1935 22.7354L40.1317 16.8093ZM42.4588 20.0318C42.7593 16.8372 42.5505 12.6424 41.1472 8.89108L35.5275 10.9933C36.5243 13.6577 36.7281 16.8874 36.4851 19.4699L42.4588 20.0318ZM41.1472 8.89108C39.6211 4.81161 36.4767 0.864287 30.842 0.0363793L29.9698 5.97265C32.7612 6.38278 34.4915 8.22392 35.5275 10.9933L41.1472 8.89108ZM30.842 0.0363781C30.6772 0.0121708 30.5108 0 30.3441 0V6C30.2188 6 30.0936 5.99084 29.9698 5.97265L30.842 0.0363781ZM30.3441 0H24.1937V6H30.3441V0Z" fill="#293858" mask="url(#path-1-outside-1_398_3763)"/>
</svg>
