<svg width="70" height="28" viewBox="0 0 70 28" fill="none" xmlns="http://www.w3.org/2000/svg">
<path d="M7.77779 16.3838C7.77779 20.6443 4.29556 24.0981 0 24.0981V4.8124C0 4.67537 0.00719989 4.54004 0.0212472 4.40671C-0.215997 2.50717 1.57063 0.9552 3.63181 0.9552C3.67441 0.9552 3.7167 0.955899 3.75864 0.957298C3.80189 0.955899 3.84529 0.9552 3.8889 0.9552H23.3333C23.3333 5.2157 19.8511 8.6695 15.5555 8.6695H13.1412C13.292 8.84019 13.446 9.02206 13.603 9.21592C17.7354 14.3197 23.5295 17.9885 30.0866 19.6535C36.6437 21.3186 43.5973 20.8866 49.8689 18.4248C54.948 16.431 59.35 13.1963 62.6432 9.07899C63.9292 7.47119 66.2686 6.85536 68.1122 7.864C69.9558 8.87275 70.6027 11.12 69.3595 12.7576C65.1871 18.2545 59.4671 22.565 52.8192 25.1746C44.9796 28.2518 36.2876 28.7918 28.0913 26.7105C20.0478 24.6681 12.9227 20.2132 7.77779 14.0184V16.3838Z" fill="#293858"/>
</svg>
