<svg width="54" height="53" viewBox="0 0 54 53" fill="none" xmlns="http://www.w3.org/2000/svg">
<path fill-rule="evenodd" clip-rule="evenodd" d="M8.49976 0C4.08148 0 0.499756 3.58172 0.499756 8V45C0.499756 49.4183 4.08148 53 8.49976 53H45.4998C49.918 53 53.4998 49.4183 53.4998 45V8C53.4998 3.58172 49.918 0 45.4998 0H8.49976ZM31.915 27.7046C31.915 29.1889 31.6296 30.4471 31.0587 31.4791C30.4878 32.5111 29.7148 33.295 28.7399 33.8308C27.7694 34.3666 26.6803 34.6345 25.4726 34.6345C24.2605 34.6345 23.1692 34.3644 22.1987 33.8242C21.2281 33.284 20.4574 32.5002 19.8865 31.4725C19.32 30.4405 19.0367 29.1845 19.0367 27.7046C19.0367 26.2202 19.32 24.962 19.8865 23.93C20.4574 22.898 21.2281 22.1141 22.1987 21.5783C23.1692 21.0425 24.2605 20.7747 25.4726 20.7747C26.6803 20.7747 27.7694 21.0425 28.7399 21.5783C29.7148 22.1141 30.4878 22.898 31.0587 23.93C31.6296 24.962 31.915 26.2202 31.915 27.7046ZM28.5818 27.7046C28.5818 26.8262 28.4567 26.0841 28.2063 25.478C27.9604 24.872 27.6047 24.4131 27.1392 24.1013C26.6781 23.7895 26.1225 23.6336 25.4726 23.6336C24.827 23.6336 24.2715 23.7895 23.806 24.1013C23.3405 24.4131 22.9826 24.872 22.7322 25.478C22.4863 26.0841 22.3633 26.8262 22.3633 27.7046C22.3633 28.5829 22.4863 29.325 22.7322 29.9311C22.9826 30.5371 23.3405 30.996 23.806 31.3078C24.2715 31.6196 24.827 31.7755 25.4726 31.7755C26.1225 31.7755 26.6781 31.6196 27.1392 31.3078C27.6047 30.996 27.9604 30.5371 28.2063 29.9311C28.4567 29.325 28.5818 28.5829 28.5818 27.7046ZM11.1458 34.45C10.0412 34.45 9.14581 33.5546 9.14581 32.45V22.5895C9.14581 21.689 9.87576 20.9591 10.7762 20.9591C11.6766 20.9591 12.4066 21.689 12.4066 22.5895V29.8019C12.4066 30.9065 13.302 31.8019 14.4066 31.8019H16.6949C17.4262 31.8019 18.019 32.3947 18.019 33.126C18.019 33.8572 17.4262 34.45 16.6949 34.45H11.1458ZM42.3428 24.6348C42.6122 25.0267 43.0025 25.366 43.478 25.366H44.011C45.0551 25.366 45.889 24.4189 45.3664 23.515C45.0414 22.9529 44.6176 22.4676 44.095 22.0592C43.5768 21.6508 42.9796 21.3346 42.3033 21.1106C41.6314 20.8866 40.9046 20.7747 40.1229 20.7747C39.2226 20.7747 38.3816 20.9284 37.5999 21.2358C36.8226 21.5432 36.1375 21.9955 35.5446 22.5928C34.9562 23.19 34.4973 23.919 34.1679 24.7798C33.8385 25.6361 33.6738 26.6176 33.6738 27.7243C33.6738 29.1472 33.9461 30.3768 34.4907 31.4132C35.0352 32.4453 35.795 33.2401 36.7699 33.7979C37.7448 34.3556 38.8757 34.6345 40.1624 34.6345C41.3218 34.6345 42.3472 34.4039 43.2387 33.9428C44.1346 33.4817 44.8372 32.8207 45.3466 31.96C45.8605 31.0992 46.1174 30.065 46.1174 28.8573C46.1174 27.8714 45.3181 27.0722 44.3322 27.0722H41.4897C40.8331 27.0722 40.3007 27.6045 40.3007 28.2612C40.3007 28.9179 40.8331 29.4502 41.4897 29.4502H43.4524C43.1873 29.4823 42.9729 29.7098 42.9128 29.9837C42.8598 30.2255 42.773 30.4473 42.6524 30.6491C42.4372 31.0092 42.121 31.2881 41.7038 31.4857C41.291 31.6789 40.786 31.7755 40.1887 31.7755C39.5124 31.7755 38.9371 31.6153 38.4628 31.2947C37.9886 30.9741 37.6263 30.5086 37.3759 29.8981C37.1256 29.2877 37.0005 28.5499 37.0005 27.6848C37.0005 26.824 37.13 26.0929 37.3891 25.4912C37.6482 24.8852 38.0149 24.4241 38.4892 24.1079C38.9679 23.7917 39.5344 23.6336 40.1887 23.6336C40.5137 23.6336 40.8123 23.6731 41.0846 23.7521C41.3569 23.8268 41.5984 23.9388 41.8092 24.0881C42.02 24.2374 42.1979 24.4197 42.3428 24.6348Z" fill="#293858"/>
</svg>
