<svg width="76" height="70" viewBox="0 0 76 70" fill="none" xmlns="http://www.w3.org/2000/svg">
<path fill-rule="evenodd" clip-rule="evenodd" d="M30.1183 26.2777C27.7391 25.4217 25.174 24.9552 22.5 24.9552C10.0736 24.9552 0 35.0288 0 47.4552C0 59.8816 10.0736 69.9552 22.5 69.9552C34.9264 69.9552 45 59.8816 45 47.4552C45 46.7515 44.9677 46.0553 44.9045 45.3681C44.2398 45.1123 43.5898 44.8277 42.9563 44.5159C43.093 45.476 43.1637 46.4573 43.1637 47.4552C43.1637 58.8675 33.9123 68.1189 22.5 68.1189C11.0877 68.1189 1.83626 58.8675 1.83626 47.4552C1.83626 36.0429 11.0877 26.7915 22.5 26.7915C25.3104 26.7915 27.9898 27.3525 30.4322 28.3687C30.2959 27.6821 30.1908 26.9846 30.1183 26.2777Z" fill="#293858"/>
<path fill-rule="evenodd" clip-rule="evenodd" d="M32.8363 23.4552C32.8363 34.8675 42.0877 44.1189 53.5 44.1189C64.9123 44.1189 74.1637 34.8675 74.1637 23.4552C74.1637 12.0429 64.9123 2.79146 53.5 2.79146C42.0877 2.79146 32.8363 12.0429 32.8363 23.4552ZM53.5 0.9552C41.0736 0.9552 31 11.0288 31 23.4552C31 35.8816 41.0736 45.9552 53.5 45.9552C65.9264 45.9552 76 35.8816 76 23.4552C76 11.0288 65.9264 0.9552 53.5 0.9552Z" fill="#293858"/>
<path fill-rule="evenodd" clip-rule="evenodd" d="M55.3702 51.2203C55.7665 51.5949 55.7913 52.2276 55.4255 52.6334L53.5589 54.9552H64.0235C64.5628 54.9552 65 55.4029 65 55.9552C65 56.5075 64.5628 56.9552 64.0235 56.9552H53.5589L55.4255 59.277C55.7913 59.6828 55.7665 60.3155 55.3702 60.6901C54.9738 61.0646 54.356 61.0393 53.9903 60.6334L50 55.9552L53.9903 51.277C54.356 50.8711 54.9738 50.8458 55.3702 51.2203Z" fill="#293858"/>
<path fill-rule="evenodd" clip-rule="evenodd" d="M61.6298 69.6635C61.2335 69.2515 61.2087 68.5556 61.5745 68.1092L63.4411 65.5552L52.9765 65.5552C52.4372 65.5552 52 65.0627 52 64.4552C52 63.8477 52.4372 63.3552 52.9765 63.3552L63.4411 63.3552L61.5745 60.8012C61.2087 60.3548 61.2335 59.6589 61.6298 59.2469C62.0262 58.8348 62.644 58.8627 63.0097 59.3092L67 64.4552L63.0097 69.6012C62.644 70.0477 62.0262 70.0756 61.6298 69.6635Z" fill="#293858"/>
<path d="M59.587 13.1228C60.5331 13.1228 61.3001 12.3577 61.3001 11.414C61.3001 10.4703 60.5331 9.70523 59.587 9.70523C58.6408 9.70523 57.8738 10.4703 57.8738 11.414C57.8738 12.3577 58.6408 13.1228 59.587 13.1228Z" fill="#293858"/>
<path d="M61.5144 37.2594C62.4606 37.2594 63.2276 36.4944 63.2276 35.5506C63.2276 34.6069 62.4606 33.8419 61.5144 33.8419C60.5683 33.8419 59.8013 34.6069 59.8013 35.5506C59.8013 36.4944 60.5683 37.2594 61.5144 37.2594Z" fill="#293858"/>
<path d="M60.0768 17.3948C60.8709 17.3948 61.5146 16.7527 61.5146 15.9606C61.5146 15.1686 60.8709 14.5265 60.0768 14.5265C59.2827 14.5265 58.6389 15.1686 58.6389 15.9606C58.6389 16.7527 59.2827 17.3948 60.0768 17.3948Z" fill="#293858"/>
<path d="M63.901 17.9439C64.6951 17.9439 65.3388 17.3018 65.3388 16.5097C65.3388 15.7177 64.6951 15.0756 63.901 15.0756C63.1069 15.0756 62.4631 15.7177 62.4631 16.5097C62.4631 17.3018 63.1069 17.9439 63.901 17.9439Z" fill="#293858"/>
<path d="M59.5872 21.0258C60.2631 21.0258 60.8109 20.4794 60.8109 19.8053C60.8109 19.1312 60.2631 18.5847 59.5872 18.5847C58.9114 18.5847 58.3635 19.1312 58.3635 19.8053C58.3635 20.4794 58.9114 21.0258 59.5872 21.0258Z" fill="#293858"/>
<path d="M63.411 21.5448C64.0868 21.5448 64.6347 20.9984 64.6347 20.3243C64.6347 19.6502 64.0868 19.1037 63.411 19.1037C62.7351 19.1037 62.1873 19.6502 62.1873 20.3243C62.1873 20.9984 62.7351 21.5448 63.411 21.5448Z" fill="#293858"/>
<path d="M66.4705 22.7347C67.1464 22.7347 67.6942 22.1883 67.6942 21.5142C67.6942 20.8401 67.1464 20.2936 66.4705 20.2936C65.7947 20.2936 65.2468 20.8401 65.2468 21.5142C65.2468 22.1883 65.7947 22.7347 66.4705 22.7347Z" fill="#293858"/>
<path d="M62.2792 24.4739C62.8706 24.4739 63.35 23.9958 63.35 23.4059C63.35 22.8161 62.8706 22.338 62.2792 22.338C61.6879 22.338 61.2085 22.8161 61.2085 23.4059C61.2085 23.9958 61.6879 24.4739 62.2792 24.4739Z" fill="#293858"/>
<path d="M58.4553 23.9549C59.0466 23.9549 59.526 23.4768 59.526 22.887C59.526 22.2971 59.0466 21.819 58.4553 21.819C57.8639 21.819 57.3845 22.2971 57.3845 22.887C57.3845 23.4768 57.8639 23.9549 58.4553 23.9549Z" fill="#293858"/>
<path d="M65.3691 25.6638C65.9604 25.6638 66.4398 25.1857 66.4398 24.5959C66.4398 24.006 65.9604 23.5279 65.3691 23.5279C64.7777 23.5279 64.2983 24.006 64.2983 24.5959C64.2983 25.1857 64.7777 25.6638 65.3691 25.6638Z" fill="#293858"/>
<path d="M60.7498 26.7012C61.2567 26.7012 61.6676 26.2914 61.6676 25.7858C61.6676 25.2803 61.2567 24.8704 60.7498 24.8704C60.2429 24.8704 59.832 25.2803 59.832 25.7858C59.832 26.2914 60.2429 26.7012 60.7498 26.7012Z" fill="#293858"/>
<path d="M63.8397 27.8609C64.3465 27.8609 64.7574 27.451 64.7574 26.9455C64.7574 26.4399 64.3465 26.0301 63.8397 26.0301C63.3328 26.0301 62.9219 26.4399 62.9219 26.9455C62.9219 27.451 63.3328 27.8609 63.8397 27.8609Z" fill="#293858"/>
<path d="M56.9561 26.1518C57.463 26.1518 57.8739 25.742 57.8739 25.2364C57.8739 24.7308 57.463 24.321 56.9561 24.321C56.4492 24.321 56.0383 24.7308 56.0383 25.2364C56.0383 25.742 56.4492 26.1518 56.9561 26.1518Z" fill="#293858"/>
<path d="M59.0671 28.1967C59.4895 28.1967 59.8319 27.8551 59.8319 27.4338C59.8319 27.0125 59.4895 26.671 59.0671 26.671C58.6447 26.671 58.3022 27.0125 58.3022 27.4338C58.3022 27.8551 58.6447 28.1967 59.0671 28.1967Z" fill="#293858"/>
<path d="M60.3825 30.3021C60.7542 30.3021 61.0555 30.0015 61.0555 29.6308C61.0555 29.26 60.7542 28.9595 60.3825 28.9595C60.0108 28.9595 59.7095 29.26 59.7095 29.6308C59.7095 30.0015 60.0108 30.3021 60.3825 30.3021Z" fill="#293858"/>
<path d="M58.7611 30.7295C59.0652 30.7295 59.3118 30.4836 59.3118 30.1802C59.3118 29.8769 59.0652 29.631 58.7611 29.631C58.457 29.631 58.2104 29.8769 58.2104 30.1802C58.2104 30.4836 58.457 30.7295 58.7611 30.7295Z" fill="#293858"/>
<path d="M57.3232 29.1424C57.6949 29.1424 57.9962 28.8419 57.9962 28.4711C57.9962 28.1004 57.6949 27.7999 57.3232 27.7999C56.9515 27.7999 56.6501 28.1004 56.6501 28.4711C56.6501 28.8419 56.9515 29.1424 57.3232 29.1424Z" fill="#293858"/>
<path d="M55.2431 27.678C55.6655 27.678 56.0079 27.3364 56.0079 26.9151C56.0079 26.4938 55.6655 26.1523 55.2431 26.1523C54.8207 26.1523 54.4783 26.4938 54.4783 26.9151C54.4783 27.3364 54.8207 27.678 55.2431 27.678Z" fill="#293858"/>
<path d="M55.2123 21.9409C55.6347 21.9409 55.9771 21.5994 55.9771 21.1781C55.9771 20.7568 55.6347 20.4152 55.2123 20.4152C54.7899 20.4152 54.4475 20.7568 54.4475 21.1781C54.4475 21.5994 54.7899 21.9409 55.2123 21.9409Z" fill="#293858"/>
<path d="M55.5488 19.2559C55.9205 19.2559 56.2218 18.9553 56.2218 18.5846C56.2218 18.2138 55.9205 17.9133 55.5488 17.9133C55.1771 17.9133 54.8757 18.2138 54.8757 18.5846C54.8757 18.9553 55.1771 19.2559 55.5488 19.2559Z" fill="#293858"/>
<path d="M56.2831 17.0588C56.5872 17.0588 56.8338 16.8129 56.8338 16.5096C56.8338 16.2062 56.5872 15.9603 56.2831 15.9603C55.979 15.9603 55.7324 16.2062 55.7324 16.5096C55.7324 16.8129 55.979 17.0588 56.2831 17.0588Z" fill="#293858"/>
<path d="M54.9982 16.0216C55.3699 16.0216 55.6713 15.7211 55.6713 15.3503C55.6713 14.9796 55.3699 14.679 54.9982 14.679C54.6265 14.679 54.3252 14.9796 54.3252 15.3503C54.3252 15.7211 54.6265 16.0216 54.9982 16.0216Z" fill="#293858"/>
<path d="M62.1264 29.3558C62.5488 29.3558 62.8912 29.0143 62.8912 28.593C62.8912 28.1717 62.5488 27.8302 62.1264 27.8302C61.704 27.8302 61.3616 28.1717 61.3616 28.593C61.3616 29.0143 61.704 29.3558 62.1264 29.3558Z" fill="#293858"/>
<path d="M53.2546 15.1366C53.677 15.1366 54.0194 14.7951 54.0194 14.3738C54.0194 13.9525 53.677 13.611 53.2546 13.611C52.8322 13.611 52.4897 13.9525 52.4897 14.3738C52.4897 14.7951 52.8322 15.1366 53.2546 15.1366Z" fill="#293858"/>
<path d="M53.7746 18.3712C54.197 18.3712 54.5394 18.0297 54.5394 17.6084C54.5394 17.1871 54.197 16.8455 53.7746 16.8455C53.3522 16.8455 53.0098 17.1871 53.0098 17.6084C53.0098 18.0297 53.3522 18.3712 53.7746 18.3712Z" fill="#293858"/>
<path d="M52.9183 21.453C53.4251 21.453 53.836 21.0431 53.836 20.5375C53.836 20.032 53.4251 19.6221 52.9183 19.6221C52.4114 19.6221 52.0005 20.032 52.0005 20.5375C52.0005 21.0431 52.4114 21.453 52.9183 21.453Z" fill="#293858"/>
<path d="M50.134 21.4527C50.7253 21.4527 51.2047 20.9746 51.2047 20.3848C51.2047 19.7949 50.7253 19.3168 50.134 19.3168C49.5426 19.3168 49.0632 19.7949 49.0632 20.3848C49.0632 20.9746 49.5426 21.4527 50.134 21.4527Z" fill="#293858"/>
<path d="M46.8914 22.1854C47.5673 22.1854 48.1151 21.639 48.1151 20.9649C48.1151 20.2908 47.5673 19.7443 46.8914 19.7443C46.2156 19.7443 45.6677 20.2908 45.6677 20.9649C45.6677 21.639 46.2156 22.1854 46.8914 22.1854Z" fill="#293858"/>
<path d="M43.3426 23.9249C44.1367 23.9249 44.7805 23.2828 44.7805 22.4907C44.7805 21.6987 44.1367 21.0566 43.3426 21.0566C42.5485 21.0566 41.9048 21.6987 41.9048 22.4907C41.9048 23.2828 42.5485 23.9249 43.3426 23.9249Z" fill="#293858"/>
<path d="M39.6714 26.854C40.6176 26.854 41.3846 26.0889 41.3846 25.1452C41.3846 24.2015 40.6176 23.4364 39.6714 23.4364C38.7253 23.4364 37.9583 24.2015 37.9583 25.1452C37.9583 26.0889 38.7253 26.854 39.6714 26.854Z" fill="#293858"/>
<path d="M41.9051 20.3546C42.6992 20.3546 43.343 19.7125 43.343 18.9205C43.343 18.1284 42.6992 17.4863 41.9051 17.4863C41.111 17.4863 40.4673 18.1284 40.4673 18.9205C40.4673 19.7125 41.111 20.3546 41.9051 20.3546Z" fill="#293858"/>
<path d="M45.4534 18.6151C46.1293 18.6151 46.6771 18.0687 46.6771 17.3946C46.6771 16.7205 46.1293 16.174 45.4534 16.174C44.7776 16.174 44.2297 16.7205 44.2297 17.3946C44.2297 18.0687 44.7776 18.6151 45.4534 18.6151Z" fill="#293858"/>
<path d="M44.9332 15.3806C45.609 15.3806 46.1569 14.8341 46.1569 14.16C46.1569 13.4859 45.609 12.9395 44.9332 12.9395C44.2573 12.9395 43.7095 13.4859 43.7095 14.16C43.7095 14.8341 44.2573 15.3806 44.9332 15.3806Z" fill="#293858"/>
<path d="M48.1762 14.6484C48.7676 14.6484 49.2469 14.1702 49.2469 13.5804C49.2469 12.9905 48.7676 12.5124 48.1762 12.5124C47.5849 12.5124 47.1055 12.9905 47.1055 13.5804C47.1055 14.1702 47.5849 14.6484 48.1762 14.6484Z" fill="#293858"/>
<path d="M50.9598 14.6484C51.4666 14.6484 51.8775 14.2385 51.8775 13.733C51.8775 13.2274 51.4666 12.8176 50.9598 12.8176C50.4529 12.8176 50.042 13.2274 50.042 13.733C50.042 14.2385 50.4529 14.6484 50.9598 14.6484Z" fill="#293858"/>
<path d="M51.48 17.8826C51.9869 17.8826 52.3978 17.4728 52.3978 16.9672C52.3978 16.4616 51.9869 16.0518 51.48 16.0518C50.9732 16.0518 50.5623 16.4616 50.5623 16.9672C50.5623 17.4728 50.9732 17.8826 51.48 17.8826Z" fill="#293858"/>
<path d="M48.6962 17.9135C49.2876 17.9135 49.767 17.4353 49.767 16.8455C49.767 16.2557 49.2876 15.7775 48.6962 15.7775C48.1049 15.7775 47.6255 16.2557 47.6255 16.8455C47.6255 17.4353 48.1049 17.9135 48.6962 17.9135Z" fill="#293858"/>
<path d="M45.6674 26.03C45.9715 26.03 46.218 25.7841 46.218 25.4807C46.218 25.1774 45.9715 24.9315 45.6674 24.9315C45.3632 24.9315 45.1167 25.1774 45.1167 25.4807C45.1167 25.7841 45.3632 26.03 45.6674 26.03Z" fill="#293858"/>
<path d="M47.8703 25.7556C48.242 25.7556 48.5433 25.455 48.5433 25.0843C48.5433 24.7135 48.242 24.413 47.8703 24.413C47.4986 24.413 47.1973 24.7135 47.1973 25.0843C47.1973 25.455 47.4986 25.7556 47.8703 25.7556Z" fill="#293858"/>
<path d="M50.2868 24.8403C50.7092 24.8403 51.0516 24.4988 51.0516 24.0775C51.0516 23.6562 50.7092 23.3147 50.2868 23.3147C49.8644 23.3147 49.522 23.6562 49.522 24.0775C49.522 24.4988 49.8644 24.8403 50.2868 24.8403Z" fill="#293858"/>
<path d="M50.8682 27.2811C51.3751 27.2811 51.786 26.8713 51.786 26.3657C51.786 25.8602 51.3751 25.4503 50.8682 25.4503C50.3613 25.4503 49.9504 25.8602 49.9504 26.3657C49.9504 26.8713 50.3613 27.2811 50.8682 27.2811Z" fill="#293858"/>
<path d="M47.9316 27.8607C48.354 27.8607 48.6964 27.5192 48.6964 27.0979C48.6964 26.6766 48.354 26.335 47.9316 26.335C47.5092 26.335 47.1667 26.6766 47.1667 27.0979C47.1667 27.5192 47.5092 27.8607 47.9316 27.8607Z" fill="#293858"/>
<path d="M45.331 27.8302C45.7027 27.8302 46.004 27.5297 46.004 27.1589C46.004 26.7882 45.7027 26.4876 45.331 26.4876C44.9593 26.4876 44.658 26.7882 44.658 27.1589C44.658 27.5297 44.9593 27.8302 45.331 27.8302Z" fill="#293858"/>
<path d="M45.3615 29.9359C45.7839 29.9359 46.1263 29.5943 46.1263 29.173C46.1263 28.7517 45.7839 28.4102 45.3615 28.4102C44.9391 28.4102 44.5967 28.7517 44.5967 29.173C44.5967 29.5943 44.9391 29.9359 45.3615 29.9359Z" fill="#293858"/>
<path d="M48.482 30.3325C48.9889 30.3325 49.3998 29.9226 49.3998 29.417C49.3998 28.9115 48.9889 28.5016 48.482 28.5016C47.9751 28.5016 47.5642 28.9115 47.5642 29.417C47.5642 29.9226 47.9751 30.3325 48.482 30.3325Z" fill="#293858"/>
<path d="M52.1227 29.9358C52.7141 29.9358 53.1935 29.4577 53.1935 28.8678C53.1935 28.278 52.7141 27.7999 52.1227 27.7999C51.5314 27.7999 51.052 28.278 51.052 28.8678C51.052 29.4577 51.5314 29.9358 52.1227 29.9358Z" fill="#293858"/>
<path d="M54.2637 32.5903C54.9396 32.5903 55.4874 32.0438 55.4874 31.3698C55.4874 30.6957 54.9396 30.1492 54.2637 30.1492C53.5879 30.1492 53.04 30.6957 53.04 31.3698C53.04 32.0438 53.5879 32.5903 54.2637 32.5903Z" fill="#293858"/>
<path d="M49.767 32.9567C50.3584 32.9567 50.8378 32.4785 50.8378 31.8887C50.8378 31.2989 50.3584 30.8207 49.767 30.8207C49.1757 30.8207 48.6963 31.2989 48.6963 31.8887C48.6963 32.4785 49.1757 32.9567 49.767 32.9567Z" fill="#293858"/>
<path d="M47.2277 35.0315C47.8191 35.0315 48.2985 34.5533 48.2985 33.9635C48.2985 33.3736 47.8191 32.8955 47.2277 32.8955C46.6364 32.8955 46.157 33.3736 46.157 33.9635C46.157 34.5533 46.6364 35.0315 47.2277 35.0315Z" fill="#293858"/>
<path d="M49.3385 37.7169C50.0143 37.7169 50.5622 37.1704 50.5622 36.4963C50.5622 35.8222 50.0143 35.2758 49.3385 35.2758C48.6626 35.2758 48.1147 35.8222 48.1147 36.4963C48.1147 37.1704 48.6626 37.7169 49.3385 37.7169Z" fill="#293858"/>
<path d="M54.9676 38.2052C55.7617 38.2052 56.4055 37.5631 56.4055 36.7711C56.4055 35.979 55.7617 35.3369 54.9676 35.3369C54.1735 35.3369 53.5298 35.979 53.5298 36.7711C53.5298 37.5631 54.1735 38.2052 54.9676 38.2052Z" fill="#293858"/>
<path d="M51.8778 35.6417C52.5536 35.6417 53.1015 35.0953 53.1015 34.4212C53.1015 33.7471 52.5536 33.2006 51.8778 33.2006C51.2019 33.2006 50.6541 33.7471 50.6541 34.4212C50.6541 35.0953 51.2019 35.6417 51.8778 35.6417Z" fill="#293858"/>
<path d="M57.3236 35.1539C58.1177 35.1539 58.7614 34.5118 58.7614 33.7198C58.7614 32.9277 58.1177 32.2856 57.3236 32.2856C56.5295 32.2856 55.8857 32.9277 55.8857 33.7198C55.8857 34.5118 56.5295 35.1539 57.3236 35.1539Z" fill="#293858"/>
<path d="M45.9427 32.4076C46.4496 32.4076 46.8605 31.9977 46.8605 31.4922C46.8605 30.9866 46.4496 30.5768 45.9427 30.5768C45.4358 30.5768 45.0249 30.9866 45.0249 31.4922C45.0249 31.9977 45.4358 32.4076 45.9427 32.4076Z" fill="#293858"/>
</svg>
