<svg width="48" height="62" viewBox="0 0 48 62" fill="none" xmlns="http://www.w3.org/2000/svg">
<mask id="path-1-inside-1_398_3652" fill="white">
<path fill-rule="evenodd" clip-rule="evenodd" d="M41.7785 3.56204H6.22147C4.21712 3.56204 2.59228 5.19601 2.59228 7.21161V55.6988C2.59228 57.7144 4.21713 59.3484 6.22148 59.3484H41.7785C43.7829 59.3484 45.4077 57.7144 45.4077 55.6988V7.21161C45.4077 5.19601 43.7829 3.56204 41.7785 3.56204ZM6.22147 0.9552C2.78545 0.9552 0 3.75629 0 7.21161V55.6988C0 59.1541 2.78545 61.9552 6.22148 61.9552H41.7785C45.2146 61.9552 48 59.1541 48 55.6988V7.21161C48 3.75629 45.2145 0.9552 41.7785 0.9552H6.22147Z"/>
</mask>
<path fill-rule="evenodd" clip-rule="evenodd" d="M41.7785 3.56204H6.22147C4.21712 3.56204 2.59228 5.19601 2.59228 7.21161V55.6988C2.59228 57.7144 4.21713 59.3484 6.22148 59.3484H41.7785C43.7829 59.3484 45.4077 57.7144 45.4077 55.6988V7.21161C45.4077 5.19601 43.7829 3.56204 41.7785 3.56204ZM6.22147 0.9552C2.78545 0.9552 0 3.75629 0 7.21161V55.6988C0 59.1541 2.78545 61.9552 6.22148 61.9552H41.7785C45.2146 61.9552 48 59.1541 48 55.6988V7.21161C48 3.75629 45.2145 0.9552 41.7785 0.9552H6.22147Z" fill="#293858"/>
<path d="M6.22147 8.56204H41.7785V-1.43796H6.22147V8.56204ZM7.59228 7.21161C7.59228 7.93099 7.00491 8.56204 6.22147 8.56204V-1.43796C1.42934 -1.43796 -2.40772 2.46102 -2.40772 7.21161H7.59228ZM7.59228 55.6988V7.21161H-2.40772V55.6988H7.59228ZM6.22148 54.3484C7.00491 54.3484 7.59228 54.9794 7.59228 55.6988H-2.40772C-2.40772 60.4494 1.42934 64.3484 6.22148 64.3484V54.3484ZM41.7785 54.3484H6.22148V64.3484H41.7785V54.3484ZM40.4077 55.6988C40.4077 54.9794 40.9951 54.3484 41.7785 54.3484V64.3484C46.5707 64.3484 50.4077 60.4494 50.4077 55.6988H40.4077ZM40.4077 7.21161V55.6988H50.4077V7.21161H40.4077ZM41.7785 8.56204C40.9951 8.56204 40.4077 7.93101 40.4077 7.21161H50.4077C50.4077 2.46102 46.5707 -1.43796 41.7785 -1.43796V8.56204ZM5 7.21161C5 6.49128 5.57323 5.9552 6.22147 5.9552V-4.0448C-0.00234014 -4.0448 -5 1.0213 -5 7.21161H5ZM5 55.6988V7.21161H-5V55.6988H5ZM6.22148 56.9552C5.57324 56.9552 5 56.4191 5 55.6988H-5C-5 61.8891 -0.00232677 66.9552 6.22148 66.9552V56.9552ZM41.7785 56.9552H6.22148V66.9552H41.7785V56.9552ZM43 55.6988C43 56.4191 42.4268 56.9552 41.7785 56.9552V66.9552C48.0023 66.9552 53 61.8891 53 55.6988H43ZM43 7.21161V55.6988H53V7.21161H43ZM41.7785 5.9552C42.4268 5.9552 43 6.49128 43 7.21161H53C53 1.0213 48.0023 -4.0448 41.7785 -4.0448V5.9552ZM6.22147 5.9552H41.7785V-4.0448H6.22147V5.9552Z" fill="#293858" mask="url(#path-1-inside-1_398_3652)"/>
<path d="M33.4958 30.8045C33.5093 30.7341 33.4903 30.6617 33.4178 30.5902C33.3402 30.5137 33.2126 30.4552 33.0661 30.4552C32.8428 30.4552 32.6282 30.6393 32.3909 31.112C32.2211 31.4505 31.9235 31.6045 31.7378 31.7005C31.7116 31.714 31.6877 31.7264 31.6667 31.738C31.4719 31.8452 31.2196 32.002 30.892 32.41C29.7597 33.8198 28.1755 34.8295 26.3875 35.2873C24.5996 35.745 22.7037 35.6265 20.9926 34.9493C19.6065 34.4007 18.4024 33.5096 17.5 32.3721C17.3022 32.1227 16.9617 32.0547 16.7269 32.1842C16.4769 32.3221 16.4553 32.5698 16.5641 32.7144C17.5806 34.0644 18.9762 35.126 20.6019 35.7694C22.5194 36.5282 24.6467 36.6616 26.6525 36.1481C28.6582 35.6346 30.4263 34.5042 31.685 32.9369C32.1503 32.3575 32.55 32.0089 32.8421 31.7543C32.908 31.6968 32.9684 31.6441 33.0229 31.5946C33.1706 31.4604 33.2636 31.3604 33.3323 31.252C33.3982 31.1483 33.4554 31.015 33.4958 30.8045Z" fill="#293858" stroke="#293858"/>
<mask id="path-4-inside-2_398_3652" fill="white">
<path d="M32 33.9552C32 35.0598 32.8954 35.9552 34 35.9552L34 30.9552C34 30.4029 33.5523 29.9552 33 29.9552C32.4477 29.9552 32 30.4029 32 30.9552L32 33.9552Z"/>
</mask>
<path d="M32 33.9552C32 35.0598 32.8954 35.9552 34 35.9552L34 30.9552C34 30.4029 33.5523 29.9552 33 29.9552C32.4477 29.9552 32 30.4029 32 30.9552L32 33.9552Z" fill="#293858"/>
<path d="M34 35.9552L35 35.9552L35 36.9552L34 36.9552L34 35.9552ZM33 33.9552C33 34.5075 33.4477 34.9552 34 34.9552L34 36.9552C32.3431 36.9552 31 35.6121 31 33.9552L33 33.9552ZM33 35.9552L33 30.9552L35 30.9552L35 35.9552L33 35.9552ZM33 30.9552L33 30.9552L33 28.9552C34.1046 28.9552 35 29.8506 35 30.9552L33 30.9552ZM33 30.9552L33 30.9552L31 30.9552C31 29.8506 31.8954 28.9552 33 28.9552L33 30.9552ZM33 30.9552L33 33.9552L31 33.9552L31 30.9552L33 30.9552Z" fill="#293858" mask="url(#path-4-inside-2_398_3652)"/>
<mask id="path-6-inside-3_398_3652" fill="white">
<path d="M30 31.9552C28.8954 31.9552 28 31.0598 28 29.9552L33 29.9552C33.5523 29.9552 34 30.4029 34 30.9552C34 31.5075 33.5523 31.9552 33 31.9552L30 31.9552Z"/>
</mask>
<path d="M30 31.9552C28.8954 31.9552 28 31.0598 28 29.9552L33 29.9552C33.5523 29.9552 34 30.4029 34 30.9552C34 31.5075 33.5523 31.9552 33 31.9552L30 31.9552Z" fill="#293858"/>
<path d="M28 29.9552L28 28.9552L27 28.9552L27 29.9552L28 29.9552ZM30 30.9552C29.4477 30.9552 29 30.5075 29 29.9552L27 29.9552C27 31.6121 28.3431 32.9552 30 32.9552L30 30.9552ZM28 30.9552L33 30.9552L33 28.9552L28 28.9552L28 30.9552ZM33 30.9552L33 30.9552L35 30.9552C35 29.8506 34.1046 28.9552 33 28.9552L33 30.9552ZM33 30.9552L33 30.9552L33 32.9552C34.1046 32.9552 35 32.0598 35 30.9552L33 30.9552ZM33 30.9552L30 30.9552L30 32.9552L33 32.9552L33 30.9552Z" fill="#293858" mask="url(#path-6-inside-3_398_3652)"/>
<path d="M30.519 22.263L30.1083 22.5481L30.519 22.263C30.7314 22.569 31.0477 22.6114 31.2479 22.4852C31.4959 22.3288 31.5764 21.974 31.4178 21.7332C30.3941 20.1793 28.9949 18.9669 27.376 18.2346C25.4681 17.3717 23.3559 17.221 21.3639 17.8039C19.371 18.387 17.601 19.6745 16.3342 21.4772C15.8719 22.1352 15.4753 22.5305 15.1832 22.8216C15.1169 22.8876 15.0561 22.9483 15.001 23.0055C14.8535 23.1587 14.7562 23.277 14.6826 23.4097C14.6106 23.5394 14.549 23.7052 14.5063 23.9596C14.4627 24.2185 14.6708 24.4552 14.9339 24.4552C15.0263 24.4552 15.1231 24.4172 15.2429 24.2865C15.37 24.1479 15.4873 23.9407 15.5981 23.6884C15.7586 23.3229 16.0449 23.1526 16.2344 23.0398C16.2611 23.0239 16.2859 23.0091 16.3082 22.9951C16.5007 22.874 16.756 22.6937 17.0888 22.2201C18.2129 20.6203 19.7953 19.462 21.5961 18.9351C23.3979 18.4079 25.3088 18.5452 27.0295 19.3234C28.422 19.9533 29.6232 20.9726 30.519 22.263Z" fill="#293858" stroke="#293858"/>
<mask id="path-9-inside-4_398_3652" fill="white">
<path d="M16 20.2885C16 18.9999 15.1046 17.9552 14 17.9552L14 23.7885C14 24.4329 14.4477 24.9552 15 24.9552C15.5523 24.9552 16 24.4328 16 23.7885L16 20.2885Z"/>
</mask>
<path d="M16 20.2885C16 18.9999 15.1046 17.9552 14 17.9552L14 23.7885C14 24.4329 14.4477 24.9552 15 24.9552C15.5523 24.9552 16 24.4328 16 23.7885L16 20.2885Z" fill="#293858"/>
<path d="M14 17.9552L13 17.9552L13 16.9552L14 16.9552L14 17.9552ZM15 20.2885C15 19.402 14.4132 18.9552 14 18.9552L14 16.9552C15.7959 16.9552 17 18.5977 17 20.2885L15 20.2885ZM15 17.9552L15 23.7885L13 23.7885L13 17.9552L15 17.9552ZM15 23.7885C15 23.8813 15.0325 23.9398 15.0521 23.9627C15.0612 23.9733 15.0634 23.9717 15.0533 23.9667C15.0417 23.961 15.0224 23.9552 15 23.9552L15 25.9552C13.7564 25.9552 13 24.835 13 23.7885L15 23.7885ZM15 23.9552C14.9776 23.9552 14.9583 23.961 14.9467 23.9667C14.9366 23.9717 14.9388 23.9733 14.9479 23.9627C14.9675 23.9398 15 23.8813 15 23.7885L17 23.7885C17 24.835 16.2436 25.9552 15 25.9552L15 23.9552ZM15 23.7885L15 20.2885L17 20.2885L17 23.7885L15 23.7885Z" fill="#293858" mask="url(#path-9-inside-4_398_3652)"/>
<mask id="path-11-inside-5_398_3652" fill="white">
<path d="M18 22.9552C19.1046 22.9552 20 23.8506 20 24.9552L15 24.9552C14.4477 24.9552 14 24.5075 14 23.9552C14 23.4029 14.4477 22.9552 15 22.9552L18 22.9552Z"/>
</mask>
<path d="M18 22.9552C19.1046 22.9552 20 23.8506 20 24.9552L15 24.9552C14.4477 24.9552 14 24.5075 14 23.9552C14 23.4029 14.4477 22.9552 15 22.9552L18 22.9552Z" fill="#293858"/>
<path d="M20 24.9552L20 25.9552L21 25.9552L21 24.9552L20 24.9552ZM18 23.9552C18.5523 23.9552 19 24.4029 19 24.9552L21 24.9552C21 23.2983 19.6569 21.9552 18 21.9552L18 23.9552ZM20 23.9552L15 23.9552L15 25.9552L20 25.9552L20 23.9552ZM15 23.9552L15 23.9552L13 23.9552C13 25.0598 13.8954 25.9552 15 25.9552L15 23.9552ZM15 23.9552L15 23.9552L15 21.9552C13.8954 21.9552 13 22.8506 13 23.9552L15 23.9552ZM15 23.9552L18 23.9552L18 21.9552L15 21.9552L15 23.9552Z" fill="#293858" mask="url(#path-11-inside-5_398_3652)"/>
<mask id="path-13-inside-6_398_3652" fill="white">
<path fill-rule="evenodd" clip-rule="evenodd" d="M43.2527 54.6855H4.74725C3.55709 54.6855 2.59228 55.7017 2.59228 56.9552C2.59228 58.2087 3.55709 59.2249 4.74726 59.2249H43.2527C44.4429 59.2249 45.4077 58.2087 45.4077 56.9552C45.4077 55.7017 44.4429 54.6855 43.2527 54.6855ZM4.74725 51.9552C2.12542 51.9552 0 54.1938 0 56.9552C0 59.7166 2.12542 61.9552 4.74726 61.9552H43.2527C45.8746 61.9552 48 59.7166 48 56.9552C48 54.1938 45.8746 51.9552 43.2527 51.9552H4.74725Z"/>
</mask>
<path fill-rule="evenodd" clip-rule="evenodd" d="M43.2527 54.6855H4.74725C3.55709 54.6855 2.59228 55.7017 2.59228 56.9552C2.59228 58.2087 3.55709 59.2249 4.74726 59.2249H43.2527C44.4429 59.2249 45.4077 58.2087 45.4077 56.9552C45.4077 55.7017 44.4429 54.6855 43.2527 54.6855ZM4.74725 51.9552C2.12542 51.9552 0 54.1938 0 56.9552C0 59.7166 2.12542 61.9552 4.74726 61.9552H43.2527C45.8746 61.9552 48 59.7166 48 56.9552C48 54.1938 45.8746 51.9552 43.2527 51.9552H4.74725Z" fill="#293858"/>
<path d="M4.74725 59.6855H43.2527V49.6855H4.74725V59.6855ZM7.59228 56.9552C7.59228 58.2155 6.55974 59.6855 4.74725 59.6855V49.6855C0.554449 49.6855 -2.40772 53.1878 -2.40772 56.9552H7.59228ZM4.74726 54.2249C6.55974 54.2249 7.59228 55.6949 7.59228 56.9552H-2.40772C-2.40772 60.7226 0.554453 64.2249 4.74726 64.2249V54.2249ZM43.2527 54.2249H4.74726V64.2249H43.2527V54.2249ZM40.4077 56.9552C40.4077 55.6949 41.4403 54.2249 43.2527 54.2249V64.2249C47.4455 64.2249 50.4077 60.7226 50.4077 56.9552H40.4077ZM43.2527 59.6855C41.4403 59.6855 40.4077 58.2156 40.4077 56.9552H50.4077C50.4077 53.1878 47.4455 49.6855 43.2527 49.6855V59.6855ZM5 56.9552C5 56.871 5.02894 56.8492 5.01643 56.8624C5.00966 56.8695 4.98508 56.8927 4.93406 56.9154C4.87875 56.9401 4.81134 56.9552 4.74725 56.9552V46.9552C-0.877226 46.9552 -5 51.6799 -5 56.9552H5ZM4.74726 56.9552C4.81135 56.9552 4.87875 56.9703 4.93406 56.995C4.98508 57.0177 5.00966 57.0409 5.01643 57.048C5.02894 57.0612 5 57.0394 5 56.9552H-5C-5 62.2305 -0.877216 66.9552 4.74726 66.9552V56.9552ZM43.2527 56.9552H4.74726V66.9552H43.2527V56.9552ZM43 56.9552C43 57.0394 42.9711 57.0612 42.9836 57.048C42.9903 57.0409 43.0149 57.0177 43.0659 56.995C43.1213 56.9703 43.1887 56.9552 43.2527 56.9552V66.9552C48.8772 66.9552 53 62.2305 53 56.9552H43ZM43.2527 56.9552C43.1886 56.9552 43.1212 56.9401 43.0659 56.9154C43.0149 56.8927 42.9903 56.8695 42.9836 56.8624C42.9711 56.8492 43 56.871 43 56.9552H53C53 51.6799 48.8772 46.9552 43.2527 46.9552V56.9552ZM4.74725 56.9552H43.2527V46.9552H4.74725V56.9552Z" fill="#293858" mask="url(#path-13-inside-6_398_3652)"/>
</svg>
