<svg width="48" height="48" viewBox="0 0 48 48" fill="none" xmlns="http://www.w3.org/2000/svg">
<rect width="48" height="48" rx="8" fill="#202E4A"/>
<path d="M13 33H17.1818V20.4H13L13 33ZM36 21.45C36 20.295 35.0591 19.35 33.9091 19.35H27.3123L28.3055 14.5515L28.3368 14.2155C28.3368 13.785 28.1591 13.386 27.8768 13.1025L26.7686 12L19.8895 18.9195C19.5027 19.2975 19.2727 19.8225 19.2727 20.4V30.9C19.2727 32.055 20.2136 33 21.3636 33H30.7727C31.6405 33 32.3827 32.475 32.6964 31.719L35.8536 24.3165C35.9477 24.075 36 23.823 36 23.55V21.45Z" fill="white"/>
</svg>
