<svg width="48" height="48" viewBox="0 0 48 48" fill="none" xmlns="http://www.w3.org/2000/svg">
<rect width="48" height="48" rx="8" fill="#202E4A"/>
<g clip-path="url(#clip0_6_668)">
<path d="M15.5803 28.4156C16.0111 28.9643 16.557 29.3855 17.1116 29.7959C17.9256 30.3979 18.8199 30.8539 19.7659 31.2069C19.9266 31.2669 19.9691 31.3079 19.8452 31.46C19.6089 31.7505 19.3924 32.058 19.1704 32.3602C19.1111 32.4407 19.0476 32.4929 18.9371 32.4827C16.3319 32.2455 14.0244 31.3535 12.1862 29.4198C12.0516 29.2784 11.9876 29.1529 12.002 28.9331C12.1406 26.776 12.4778 24.6528 13.0421 22.567C13.5133 20.8249 14.1411 19.1459 15.0139 17.5597C15.281 17.074 15.7236 16.8352 16.1544 16.5729C17.3204 15.8627 18.5698 15.356 19.9148 15.0998C20.0816 15.0681 20.2505 15.0435 20.4193 15.025C20.7084 14.9938 20.8982 15.15 20.9442 15.4431C20.9672 15.5912 20.8332 15.5558 20.7749 15.5702C20.1788 15.7172 19.5966 15.9032 19.0302 16.1425C17.921 16.6113 16.933 17.2656 16.0428 18.0992C21.3371 15.3693 26.6233 15.3596 31.9048 18.1151C31.9381 17.9952 31.8291 17.9711 31.7739 17.9204C30.5229 16.7834 29.0515 16.0646 27.4286 15.6368C27.4204 15.6347 27.4117 15.6347 27.4035 15.6327C26.9983 15.5292 26.9569 15.3847 27.2275 15.0532C27.293 14.9733 27.358 15.0056 27.4332 15.0112C28.4646 15.0911 29.4342 15.4026 30.373 15.8161C30.966 16.0774 31.5267 16.4012 32.087 16.7276C32.5797 17.015 32.9061 17.4152 33.164 17.9142C34.0614 19.6516 34.6917 21.4833 35.147 23.3796C35.5297 24.9715 35.783 26.5839 35.9237 28.2158C35.9488 28.5037 35.9334 28.7963 35.9948 29.0806C36.0245 29.2184 35.9206 29.281 35.849 29.3593C34.5039 30.8288 32.8212 31.707 30.9102 32.1871C30.2978 32.3408 29.6747 32.4187 29.0484 32.4822C28.9251 32.4945 28.8637 32.4289 28.7998 32.3418C28.5833 32.0462 28.3705 31.747 28.1393 31.4626C28.0216 31.3176 28.0431 31.271 28.2124 31.2079C29.3303 30.7919 30.3679 30.2288 31.296 29.4746C31.692 29.1529 32.0895 28.8301 32.4011 28.4187C32.4221 28.4033 32.4733 28.3997 32.4482 28.3628C32.4282 28.3336 32.3929 28.3561 32.373 28.3848C31.8209 28.7204 31.2842 29.0801 30.7046 29.3706C29.2669 30.0905 27.7468 30.5198 26.1536 30.7063C25.3417 30.8011 24.5277 30.8626 23.7111 30.8437C21.3172 30.7878 19.0154 30.3415 16.8962 29.1657C16.4583 28.9228 16.0387 28.6456 15.6105 28.3848C15.591 28.3705 15.5721 28.3556 15.5527 28.3408C15.5353 28.3285 15.5184 28.3146 15.5 28.3044C15.4974 28.3029 15.4851 28.3198 15.4775 28.3285C15.4974 28.3372 15.5174 28.3459 15.5378 28.3546C15.5517 28.3751 15.566 28.3956 15.5803 28.4156ZM25.6246 24.8352C25.6144 25.1939 25.7085 25.5289 25.8487 25.8512C26.3961 27.107 27.909 27.4016 28.833 26.4353C29.7294 25.4987 29.6312 23.8489 28.6304 23.0307C27.997 22.5127 27.0725 22.5173 26.4406 23.0394C25.8763 23.5061 25.6461 24.123 25.6246 24.8352ZM20.4577 22.6474C20.1103 22.6315 19.7987 22.733 19.5132 22.9174C18.3666 23.6578 18.1927 25.4603 19.1699 26.4573C19.8918 27.1941 20.9688 27.1997 21.6973 26.4701C22.3798 25.7872 22.5589 24.6641 22.1138 23.771C21.7736 23.0886 21.2435 22.6735 20.4577 22.6474Z" fill="white"/>
</g>
<defs>
<clipPath id="clip0_6_668">
<rect width="24" height="24" fill="white" transform="translate(12 12)"/>
</clipPath>
</defs>
</svg>
