<svg width="48" height="48" viewBox="0 0 48 48" fill="none" xmlns="http://www.w3.org/2000/svg">
<rect width="48" height="48" rx="8" fill="#202E4A"/>
<path d="M29 24L21.5 28.3301L21.5 19.6699L29 24Z" stroke="white" stroke-width="2"/>
<path d="M36 28.9241C36 30.0415 35.386 31.0921 34.359 31.6712L25.6923 36.5583C24.6479 37.1472 23.3521 37.1472 22.3077 36.5583L13.641 31.6712C12.614 31.0921 12 30.0415 12 28.9241V19.0759C12 17.9585 12.614 16.9079 13.641 16.3288L22.3077 11.4417C23.3521 10.8528 24.6479 10.8528 25.6923 11.4417L34.359 16.3288C35.386 16.9079 36 17.9585 36 19.0759V28.9241Z" stroke="white" stroke-width="2"/>
</svg>
