<svg width="48" height="48" viewBox="0 0 48 48" fill="none" xmlns="http://www.w3.org/2000/svg">
<rect width="48" height="48" rx="8" fill="#202E4A"/>
<path fill-rule="evenodd" clip-rule="evenodd" d="M11 12.0652C11 11.4769 11.4759 11 12.063 11H24.0223C26.6978 11 29.1878 11.8097 31.2576 13.198C31.7455 13.5252 31.8763 14.1868 31.5497 14.6757C31.2231 15.1646 30.5628 15.2956 30.075 14.9683C28.3441 13.8074 26.2637 13.1304 24.0223 13.1304H12.063C11.4759 13.1304 11 12.6535 11 12.0652ZM32.8391 15.8827C33.3035 15.5229 33.9712 15.6085 34.3303 16.0739C36.0316 18.279 37.0445 21.0468 37.0445 24.0487C37.0445 29.2311 34.0294 33.7058 29.6658 35.8114C29.1369 36.0666 28.5016 35.8439 28.2468 35.3138C27.9921 34.7838 28.2144 34.1472 28.7434 33.892C32.3992 32.1279 34.9185 28.3821 34.9185 24.0487C34.9185 21.5348 34.0719 19.2221 32.6483 17.377C32.2892 16.9115 32.3746 16.2426 32.8391 15.8827ZM11 36.0322C11 35.4439 11.4759 34.967 12.063 34.967H25.6168C26.2039 34.967 26.6799 35.4439 26.6799 36.0322C26.6799 36.6205 26.2039 37.0974 25.6168 37.0974H12.063C11.4759 37.0974 11 36.6205 11 36.0322Z" fill="white"/>
<path fill-rule="evenodd" clip-rule="evenodd" d="M13.125 16.8583C13.125 16.27 13.6009 15.7931 14.188 15.7931H24.0212C26.8122 15.7931 29.2787 17.1847 30.7672 19.3085C31.1046 19.7899 30.9887 20.4543 30.5083 20.7924C30.0278 21.1305 29.3648 21.0144 29.0274 20.5329C27.9198 18.9527 26.0904 17.9235 24.0212 17.9235H14.188C13.6009 17.9235 13.125 17.4466 13.125 16.8583ZM31.1967 22.9832C31.7838 22.9832 32.2598 23.4601 32.2598 24.0484C32.2598 28.6077 28.5712 32.3037 24.0212 32.3037H14.188C13.6009 32.3037 13.125 31.8268 13.125 31.2385C13.125 30.6502 13.6009 30.1733 14.188 30.1733H24.0212C27.397 30.1733 30.1337 27.4311 30.1337 24.0484C30.1337 23.4601 30.6096 22.9832 31.1967 22.9832Z" fill="white"/>
<path fill-rule="evenodd" clip-rule="evenodd" d="M14.7207 21.3855C14.7207 20.7972 15.1966 20.3203 15.7837 20.3203H23.4908C25.5457 20.3203 27.2114 21.9895 27.2114 24.0485C27.2114 26.1075 25.5457 27.7767 23.4908 27.7767C22.9037 27.7767 22.4278 27.2998 22.4278 26.7115C22.4278 26.1232 22.9037 25.6463 23.4908 25.6463C24.3715 25.6463 25.0854 24.9309 25.0854 24.0485C25.0854 23.1661 24.3715 22.4507 23.4908 22.4507H15.7837C15.1966 22.4507 14.7207 21.9738 14.7207 21.3855ZM14.7207 26.7115C14.7207 26.1232 15.1966 25.6463 15.7837 25.6463H19.5044C20.0915 25.6463 20.5674 26.1232 20.5674 26.7115C20.5674 27.2998 20.0915 27.7767 19.5044 27.7767H15.7837C15.1966 27.7767 14.7207 27.2998 14.7207 26.7115Z" fill="white"/>
</svg>
