<svg width="48" height="48" viewBox="0 0 48 48" fill="none" xmlns="http://www.w3.org/2000/svg">
<rect width="48" height="48" rx="8" fill="#202E4A"/>
<path d="M29.5471 14.8779C30.3438 14.8779 30.9897 14.2337 30.9897 13.439C30.9897 12.6442 30.3438 12 29.5471 12C28.7503 12 28.1044 12.6442 28.1044 13.439C28.1044 14.2337 28.7503 14.8779 29.5471 14.8779Z" fill="white"/>
<path d="M31.1701 35.2035C31.9669 35.2035 32.6128 34.5593 32.6128 33.7646C32.6128 32.9699 31.9669 32.3256 31.1701 32.3256C30.3733 32.3256 29.7274 32.9699 29.7274 33.7646C29.7274 34.5593 30.3733 35.2035 31.1701 35.2035Z" fill="white"/>
<path d="M29.9594 18.4755C30.6281 18.4755 31.1702 17.9348 31.1702 17.2678C31.1702 16.6008 30.6281 16.0601 29.9594 16.0601C29.2906 16.0601 28.7485 16.6008 28.7485 17.2678C28.7485 17.9348 29.2906 18.4755 29.9594 18.4755Z" fill="white"/>
<path d="M33.1799 18.9379C33.8487 18.9379 34.3908 18.3972 34.3908 17.7302C34.3908 17.0632 33.8487 16.5225 33.1799 16.5225C32.5112 16.5225 31.9691 17.0632 31.9691 17.7302C31.9691 18.3972 32.5112 18.9379 33.1799 18.9379Z" fill="white"/>
<path d="M29.5473 21.5331C30.1165 21.5331 30.5778 21.073 30.5778 20.5053C30.5778 19.9377 30.1165 19.4775 29.5473 19.4775C28.9782 19.4775 28.5168 19.9377 28.5168 20.5053C28.5168 21.073 28.9782 21.5331 29.5473 21.5331Z" fill="white"/>
<path d="M32.7673 21.9702C33.3364 21.9702 33.7978 21.51 33.7978 20.9424C33.7978 20.3747 33.3364 19.9146 32.7673 19.9146C32.1982 19.9146 31.7368 20.3747 31.7368 20.9424C31.7368 21.51 32.1982 21.9702 32.7673 21.9702Z" fill="white"/>
<path d="M35.3436 22.9722C35.9127 22.9722 36.3741 22.5121 36.3741 21.9444C36.3741 21.3767 35.9127 20.9166 35.3436 20.9166C34.7745 20.9166 34.3131 21.3767 34.3131 21.9444C34.3131 22.5121 34.7745 22.9722 35.3436 22.9722Z" fill="white"/>
<path d="M31.8142 24.4368C32.3121 24.4368 32.7158 24.0342 32.7158 23.5375C32.7158 23.0408 32.3121 22.6381 31.8142 22.6381C31.3162 22.6381 30.9125 23.0408 30.9125 23.5375C30.9125 24.0342 31.3162 24.4368 31.8142 24.4368Z" fill="white"/>
<path d="M28.5941 23.9998C29.092 23.9998 29.4957 23.5972 29.4957 23.1005C29.4957 22.6038 29.092 22.2011 28.5941 22.2011C28.0961 22.2011 27.6924 22.6038 27.6924 23.1005C27.6924 23.5972 28.0961 23.9998 28.5941 23.9998Z" fill="white"/>
<path d="M34.4161 25.4388C34.9141 25.4388 35.3178 25.0362 35.3178 24.5395C35.3178 24.0428 34.9141 23.6401 34.4161 23.6401C33.9181 23.6401 33.5144 24.0428 33.5144 24.5395C33.5144 25.0362 33.9181 25.4388 34.4161 25.4388Z" fill="white"/>
<path d="M30.5263 26.3124C30.9531 26.3124 31.2991 25.9673 31.2991 25.5416C31.2991 25.1158 30.9531 24.7707 30.5263 24.7707C30.0994 24.7707 29.7534 25.1158 29.7534 25.5416C29.7534 25.9673 30.0994 26.3124 30.5263 26.3124Z" fill="white"/>
<path d="M33.1283 27.289C33.5552 27.289 33.9012 26.9439 33.9012 26.5181C33.9012 26.0924 33.5552 25.7473 33.1283 25.7473C32.7015 25.7473 32.3555 26.0924 32.3555 26.5181C32.3555 26.9439 32.7015 27.289 33.1283 27.289Z" fill="white"/>
<path d="M27.3315 25.8498C27.7583 25.8498 28.1043 25.5047 28.1043 25.0789C28.1043 24.6532 27.7583 24.308 27.3315 24.308C26.9046 24.308 26.5586 24.6532 26.5586 25.0789C26.5586 25.5047 26.9046 25.8498 27.3315 25.8498Z" fill="white"/>
<path d="M29.1091 27.5718C29.4648 27.5718 29.7532 27.2842 29.7532 26.9294C29.7532 26.5746 29.4648 26.287 29.1091 26.287C28.7534 26.287 28.4651 26.5746 28.4651 26.9294C28.4651 27.2842 28.7534 27.5718 29.1091 27.5718Z" fill="white"/>
<path d="M30.2169 29.3447C30.5299 29.3447 30.7837 29.0916 30.7837 28.7794C30.7837 28.4672 30.5299 28.2141 30.2169 28.2141C29.9039 28.2141 29.6501 28.4672 29.6501 28.7794C29.6501 29.0916 29.9039 29.3447 30.2169 29.3447Z" fill="white"/>
<path d="M28.8515 29.7046C29.1076 29.7046 29.3153 29.4976 29.3153 29.2421C29.3153 28.9867 29.1076 28.7796 28.8515 28.7796C28.5954 28.7796 28.3878 28.9867 28.3878 29.2421C28.3878 29.4976 28.5954 29.7046 28.8515 29.7046Z" fill="white"/>
<path d="M27.6406 28.3682C27.9536 28.3682 28.2074 28.1151 28.2074 27.8029C28.2074 27.4907 27.9536 27.2376 27.6406 27.2376C27.3276 27.2376 27.0739 27.4907 27.0739 27.8029C27.0739 28.1151 27.3276 28.3682 27.6406 28.3682Z" fill="white"/>
<path d="M25.8892 27.1349C26.2449 27.1349 26.5332 26.8473 26.5332 26.4926C26.5332 26.1378 26.2449 25.8502 25.8892 25.8502C25.5335 25.8502 25.2451 26.1378 25.2451 26.4926C25.2451 26.8473 25.5335 27.1349 25.8892 27.1349Z" fill="white"/>
<path d="M25.863 22.3038C26.2188 22.3038 26.5071 22.0162 26.5071 21.6614C26.5071 21.3066 26.2188 21.019 25.863 21.019C25.5073 21.019 25.219 21.3066 25.219 21.6614C25.219 22.0162 25.5073 22.3038 25.863 22.3038Z" fill="white"/>
<path d="M26.1465 20.0427C26.4595 20.0427 26.7132 19.7896 26.7132 19.4774C26.7132 19.1651 26.4595 18.912 26.1465 18.912C25.8335 18.912 25.5797 19.1651 25.5797 19.4774C25.5797 19.7896 25.8335 20.0427 26.1465 20.0427Z" fill="white"/>
<path d="M26.7649 18.1925C27.021 18.1925 27.2286 17.9854 27.2286 17.73C27.2286 17.4745 27.021 17.2675 26.7649 17.2675C26.5088 17.2675 26.3011 17.4745 26.3011 17.73C26.3011 17.9854 26.5088 18.1925 26.7649 18.1925Z" fill="white"/>
<path d="M25.6829 17.3191C25.9959 17.3191 26.2496 17.066 26.2496 16.7538C26.2496 16.4416 25.9959 16.1885 25.6829 16.1885C25.3698 16.1885 25.1161 16.4416 25.1161 16.7538C25.1161 17.066 25.3698 17.3191 25.6829 17.3191Z" fill="white"/>
<path d="M31.6854 28.5479C32.0411 28.5479 32.3295 28.2603 32.3295 27.9055C32.3295 27.5507 32.0411 27.2631 31.6854 27.2631C31.3297 27.2631 31.0414 27.5507 31.0414 27.9055C31.0414 28.2603 31.3297 28.5479 31.6854 28.5479Z" fill="white"/>
<path d="M24.2144 16.5739C24.5701 16.5739 24.8584 16.2862 24.8584 15.9315C24.8584 15.5767 24.5701 15.2891 24.2144 15.2891C23.8587 15.2891 23.5703 15.5767 23.5703 15.9315C23.5703 16.2862 23.8587 16.5739 24.2144 16.5739Z" fill="white"/>
<path d="M24.6524 19.2977C25.0081 19.2977 25.2964 19.0101 25.2964 18.6553C25.2964 18.3005 25.0081 18.0129 24.6524 18.0129C24.2967 18.0129 24.0083 18.3005 24.0083 18.6553C24.0083 19.0101 24.2967 19.2977 24.6524 19.2977Z" fill="white"/>
<path d="M23.9312 21.8928C24.358 21.8928 24.7041 21.5477 24.7041 21.1219C24.7041 20.6962 24.358 20.3511 23.9312 20.3511C23.5043 20.3511 23.1583 20.6962 23.1583 21.1219C23.1583 21.5477 23.5043 21.8928 23.9312 21.8928Z" fill="white"/>
<path d="M21.5865 21.8927C22.0845 21.8927 22.4882 21.49 22.4882 20.9933C22.4882 20.4966 22.0845 20.094 21.5865 20.094C21.0885 20.094 20.6848 20.4966 20.6848 20.9933C20.6848 21.49 21.0885 21.8927 21.5865 21.8927Z" fill="white"/>
<path d="M18.8561 22.5096C19.4252 22.5096 19.8865 22.0495 19.8865 21.4818C19.8865 20.9142 19.4252 20.454 18.8561 20.454C18.2869 20.454 17.8256 20.9142 17.8256 21.4818C17.8256 22.0495 18.2869 22.5096 18.8561 22.5096Z" fill="white"/>
<path d="M15.8676 23.9745C16.5363 23.9745 17.0784 23.4338 17.0784 22.7668C17.0784 22.0998 16.5363 21.5591 15.8676 21.5591C15.1988 21.5591 14.6567 22.0998 14.6567 22.7668C14.6567 23.4338 15.1988 23.9745 15.8676 23.9745Z" fill="white"/>
<path d="M12.7761 26.441C13.5728 26.441 14.2187 25.7968 14.2187 25.0021C14.2187 24.2074 13.5728 23.5631 12.7761 23.5631C11.9793 23.5631 11.3334 24.2074 11.3334 25.0021C11.3334 25.7968 11.9793 26.441 12.7761 26.441Z" fill="white"/>
<path d="M14.657 20.968C15.3257 20.968 15.8678 20.4272 15.8678 19.7603C15.8678 19.0933 15.3257 18.5526 14.657 18.5526C13.9883 18.5526 13.4462 19.0933 13.4462 19.7603C13.4462 20.4272 13.9883 20.968 14.657 20.968Z" fill="white"/>
<path d="M17.645 19.5031C18.2141 19.5031 18.6755 19.0429 18.6755 18.4753C18.6755 17.9076 18.2141 17.4474 17.645 17.4474C17.0759 17.4474 16.6145 17.9076 16.6145 18.4753C16.6145 19.0429 17.0759 19.5031 17.645 19.5031Z" fill="white"/>
<path d="M17.207 16.7793C17.7761 16.7793 18.2375 16.3191 18.2375 15.7515C18.2375 15.1838 17.7761 14.7236 17.207 14.7236C16.6379 14.7236 16.1765 15.1838 16.1765 15.7515C16.1765 16.3191 16.6379 16.7793 17.207 16.7793Z" fill="white"/>
<path d="M19.9379 16.1627C20.4359 16.1627 20.8396 15.76 20.8396 15.2633C20.8396 14.7666 20.4359 14.364 19.9379 14.364C19.4399 14.364 19.0363 14.7666 19.0363 15.2633C19.0363 15.76 19.4399 16.1627 19.9379 16.1627Z" fill="white"/>
<path d="M22.2821 16.1627C22.709 16.1627 23.055 15.8175 23.055 15.3918C23.055 14.966 22.709 14.6209 22.2821 14.6209C21.8553 14.6209 21.5093 14.966 21.5093 15.3918C21.5093 15.8175 21.8553 16.1627 22.2821 16.1627Z" fill="white"/>
<path d="M22.7203 18.8862C23.1471 18.8862 23.4931 18.5411 23.4931 18.1154C23.4931 17.6896 23.1471 17.3445 22.7203 17.3445C22.2934 17.3445 21.9474 17.6896 21.9474 18.1154C21.9474 18.5411 22.2934 18.8862 22.7203 18.8862Z" fill="white"/>
<path d="M20.3759 18.9122C20.8739 18.9122 21.2776 18.5096 21.2776 18.0129C21.2776 17.5162 20.8739 17.1135 20.3759 17.1135C19.8779 17.1135 19.4742 17.5162 19.4742 18.0129C19.4742 18.5096 19.8779 18.9122 20.3759 18.9122Z" fill="white"/>
<path d="M17.8254 25.7472C18.0815 25.7472 18.2891 25.5401 18.2891 25.2847C18.2891 25.0292 18.0815 24.8221 17.8254 24.8221C17.5693 24.8221 17.3617 25.0292 17.3617 25.2847C17.3617 25.5401 17.5693 25.7472 17.8254 25.7472Z" fill="white"/>
<path d="M19.6803 25.5161C19.9933 25.5161 20.2471 25.263 20.2471 24.9508C20.2471 24.6386 19.9933 24.3855 19.6803 24.3855C19.3673 24.3855 19.1135 24.6386 19.1135 24.9508C19.1135 25.263 19.3673 25.5161 19.6803 25.5161Z" fill="white"/>
<path d="M21.7153 24.7454C22.071 24.7454 22.3594 24.4578 22.3594 24.103C22.3594 23.7482 22.071 23.4606 21.7153 23.4606C21.3596 23.4606 21.0713 23.7482 21.0713 24.103C21.0713 24.4578 21.3596 24.7454 21.7153 24.7454Z" fill="white"/>
<path d="M22.2049 26.8008C22.6317 26.8008 22.9777 26.4557 22.9777 26.0299C22.9777 25.6042 22.6317 25.259 22.2049 25.259C21.778 25.259 21.432 25.6042 21.432 26.0299C21.432 26.4557 21.778 26.8008 22.2049 26.8008Z" fill="white"/>
<path d="M19.7321 27.2888C20.0878 27.2888 20.3761 27.0012 20.3761 26.6464C20.3761 26.2916 20.0878 26.004 19.7321 26.004C19.3764 26.004 19.088 26.2916 19.088 26.6464C19.088 27.0012 19.3764 27.2888 19.7321 27.2888Z" fill="white"/>
<path d="M17.542 27.2632C17.855 27.2632 18.1088 27.0101 18.1088 26.6979C18.1088 26.3857 17.855 26.1326 17.542 26.1326C17.229 26.1326 16.9752 26.3857 16.9752 26.6979C16.9752 27.0101 17.229 27.2632 17.542 27.2632Z" fill="white"/>
<path d="M17.5676 29.0364C17.9233 29.0364 18.2117 28.7488 18.2117 28.394C18.2117 28.0392 17.9233 27.7516 17.5676 27.7516C17.2119 27.7516 16.9236 28.0392 16.9236 28.394C16.9236 28.7488 17.2119 29.0364 17.5676 29.0364Z" fill="white"/>
<path d="M20.1955 29.3703C20.6223 29.3703 20.9683 29.0252 20.9683 28.5994C20.9683 28.1737 20.6223 27.8286 20.1955 27.8286C19.7686 27.8286 19.4226 28.1737 19.4226 28.5994C19.4226 29.0252 19.7686 29.3703 20.1955 29.3703Z" fill="white"/>
<path d="M23.2614 29.0363C23.7594 29.0363 24.1631 28.6337 24.1631 28.137C24.1631 27.6403 23.7594 27.2376 23.2614 27.2376C22.7634 27.2376 22.3597 27.6403 22.3597 28.137C22.3597 28.6337 22.7634 29.0363 23.2614 29.0363Z" fill="white"/>
<path d="M25.0644 31.2717C25.6335 31.2717 26.0949 30.8115 26.0949 30.2438C26.0949 29.6762 25.6335 29.216 25.0644 29.216C24.4953 29.216 24.0339 29.6762 24.0339 30.2438C24.0339 30.8115 24.4953 31.2717 25.0644 31.2717Z" fill="white"/>
<path d="M21.2777 31.5802C21.7756 31.5802 22.1793 31.1775 22.1793 30.6808C22.1793 30.1841 21.7756 29.7815 21.2777 29.7815C20.7797 29.7815 20.376 30.1841 20.376 30.6808C20.376 31.1775 20.7797 31.5802 21.2777 31.5802Z" fill="white"/>
<path d="M19.1392 33.3274C19.6372 33.3274 20.0409 32.9247 20.0409 32.428C20.0409 31.9313 19.6372 31.5287 19.1392 31.5287C18.6412 31.5287 18.2375 31.9313 18.2375 32.428C18.2375 32.9247 18.6412 33.3274 19.1392 33.3274Z" fill="white"/>
<path d="M20.9167 35.5887C21.4858 35.5887 21.9472 35.1286 21.9472 34.5609C21.9472 33.9933 21.4858 33.5331 20.9167 33.5331C20.3476 33.5331 19.8862 33.9933 19.8862 34.5609C19.8862 35.1286 20.3476 35.5887 20.9167 35.5887Z" fill="white"/>
<path d="M25.6571 36C26.3258 36 26.8679 35.4593 26.8679 34.7923C26.8679 34.1253 26.3258 33.5846 25.6571 33.5846C24.9884 33.5846 24.4463 34.1253 24.4463 34.7923C24.4463 35.4593 24.9884 36 25.6571 36Z" fill="white"/>
<path d="M23.0551 33.8413C23.6243 33.8413 24.0856 33.3811 24.0856 32.8135C24.0856 32.2458 23.6243 31.7856 23.0551 31.7856C22.486 31.7856 22.0247 32.2458 22.0247 32.8135C22.0247 33.3811 22.486 33.8413 23.0551 33.8413Z" fill="white"/>
<path d="M27.641 33.4305C28.3097 33.4305 28.8518 32.8898 28.8518 32.2228C28.8518 31.5558 28.3097 31.0151 27.641 31.0151C26.9723 31.0151 26.4302 31.5558 26.4302 32.2228C26.4302 32.8898 26.9723 33.4305 27.641 33.4305Z" fill="white"/>
<path d="M18.0572 31.1178C18.484 31.1178 18.83 30.7727 18.83 30.3469C18.83 29.9212 18.484 29.576 18.0572 29.576C17.6303 29.576 17.2843 29.9212 17.2843 30.3469C17.2843 30.7727 17.6303 31.1178 18.0572 31.1178Z" fill="white"/>
</svg>
