<svg width="48" height="48" viewBox="0 0 48 48" fill="none" xmlns="http://www.w3.org/2000/svg">
<rect width="48" height="48" rx="8" fill="#202E4A"/>
<path d="M36 28.9241C36 30.0415 35.386 31.0921 34.359 31.6712L25.6923 36.5583C24.6479 37.1472 23.3521 37.1472 22.3077 36.5583L13.641 31.6712C12.614 31.0921 12 30.0415 12 28.9241V19.0759C12 17.9585 12.614 16.9079 13.641 16.3288L22.3077 11.4417C23.3521 10.8528 24.6479 10.8528 25.6923 11.4417L34.359 16.3288C35.386 16.9079 36 17.9585 36 19.0759V28.9241Z" stroke="white" stroke-width="2"/>
<circle cx="24" cy="24" r="4" stroke="white" stroke-width="2"/>
<path d="M29.821 20.1107C30.3238 20.8617 30.6851 21.7155 30.8668 22.6339L29.8858 22.8279C29.9606 23.2062 30 23.598 30 24C30 24.402 29.9606 24.7938 29.8858 25.1721L30.8668 25.3661C30.6851 26.2845 30.3238 27.1383 29.821 27.8893L28.99 27.333C28.5517 27.9877 27.9877 28.5517 27.333 28.99L27.8893 29.821C27.1383 30.3238 26.2845 30.6851 25.3661 30.8668L25.1721 29.8858C24.7938 29.9606 24.402 30 24 30C23.598 30 23.2062 29.9606 22.8279 29.8858L22.6339 30.8668C21.7155 30.6851 20.8617 30.3238 20.1107 29.821L20.667 28.99C20.0123 28.5517 19.4483 27.9877 19.01 27.333L18.179 27.8893C17.6762 27.1383 17.3149 26.2845 17.1332 25.3661L18.1142 25.1721C18.0394 24.7938 18 24.402 18 24C18 23.598 18.0394 23.2062 18.1142 22.8279L17.1332 22.6339C17.3149 21.7155 17.6762 20.8617 18.179 20.1107L19.01 20.667C19.4483 20.0123 20.0123 19.4483 20.667 19.01L20.1107 18.179C20.8617 17.6762 21.7155 17.3149 22.6339 17.1332L22.8279 18.1142C23.2062 18.0394 23.598 18 24 18C24.402 18 24.7938 18.0394 25.1721 18.1142L25.3661 17.1332C26.2845 17.3149 27.1383 17.6762 27.8893 18.179L27.333 19.01C27.9877 19.4483 28.5517 20.0123 28.99 20.667L29.821 20.1107Z" stroke="white" stroke-width="2" stroke-dasharray="3 3"/>
</svg>
