<svg width="48" height="48" viewBox="0 0 48 48" fill="none" xmlns="http://www.w3.org/2000/svg">
<rect width="48" height="48" rx="8" fill="#202E4A"/>
<path fill-rule="evenodd" clip-rule="evenodd" d="M27.1883 17.208C27.1883 16.3906 26.4532 15.7317 25.689 15.2677C25.825 15.0971 25.9705 14.9391 26.1255 14.7998C26.6048 14.3882 27.1883 14.1824 27.7926 14.0177C27.8343 14.0177 27.876 13.9971 27.9176 13.9765C28.1677 13.8325 28.2511 13.5031 28.1052 13.2561C27.9593 13.0091 27.6259 12.9268 27.3758 13.0709C27.0424 13.2356 26.7507 13.4414 26.4589 13.6678C26.1672 13.8942 25.9171 14.1618 25.7088 14.4705C25.5848 14.6746 25.47 14.8786 25.3762 15.0886C25.152 14.9674 24.9336 14.8637 24.7393 14.7783C24.2687 14.5714 23.735 14.5814 23.2701 14.8006C23.05 14.9044 22.7984 15.0324 22.5425 15.1816C22.4471 14.9328 22.3248 14.6898 22.1662 14.4705C21.9578 14.1618 21.7078 13.8942 21.416 13.6678C21.1243 13.4414 20.8117 13.2562 20.4992 13.0709C20.4783 13.0606 20.4575 13.0555 20.4366 13.0503C20.4158 13.0452 20.3949 13.04 20.3741 13.0297C20.0824 12.9474 19.8115 13.1121 19.7281 13.4002C19.6448 13.6884 19.8115 13.956 20.1032 14.0383C20.7075 14.203 21.291 14.4088 21.7703 14.8204C21.9454 14.9777 22.1083 15.1589 22.2591 15.355C21.523 15.8289 20.8325 16.47 20.8325 17.208C20.8325 18.0794 21.3031 18.8564 22.0336 19.3619C21.6912 19.555 21.3838 19.7983 21.1199 20.0835C21.1008 20.078 21.0814 20.0732 21.0618 20.069C17.4359 19.2662 12.1221 18.3194 8.97544 17.8255C7.85017 17.6608 7.18333 18.3194 7.03746 19.0398C6.87076 19.8631 7.26669 20.9129 8.10023 21.8802C8.99628 22.8888 10.2466 23.6504 11.6219 23.9797C11.856 24.0405 12.0992 24.0906 12.3494 24.1309C12.3049 24.2971 12.285 24.4681 12.2888 24.6383C12.3096 26.1409 13.8517 27.17 15.2062 27.17C17.4587 27.17 19.2837 25.7844 20.4565 24.577C20.5987 24.8851 20.7785 25.1691 20.9908 25.4238C20.4013 26.3508 20.0823 27.5667 20.0823 28.9401C20.0823 31.8835 21.5827 36 24.0208 36C26.4589 36 27.9593 31.8835 27.9176 28.9401C27.9176 27.5778 27.6053 26.3763 27.0246 25.4549C27.237 25.2057 27.4178 24.9276 27.5622 24.6257C28.7363 25.8282 30.5457 27.17 32.773 27.17C34.1275 27.17 35.6696 26.1203 35.6904 24.6384C35.6904 24.469 35.6677 24.2989 35.6213 24.1335C35.88 24.0927 36.1328 24.0419 36.3781 23.9797C37.7534 23.6504 39.0037 22.8889 39.8998 21.8803C40.7333 20.9335 41.1292 19.8632 40.9625 19.0399C40.8167 18.2989 40.1498 17.6403 39.0246 17.8255C35.8779 18.3195 30.585 19.2663 26.9382 20.069C26.93 20.0708 26.9218 20.0727 26.9136 20.0747C26.65 19.7916 26.3433 19.5501 26.002 19.3585C26.7328 18.8495 27.2002 18.0693 27.1883 17.208ZM25.7243 26.4369C25.2144 26.6707 24.6389 26.7995 24.0208 26.7995C23.3859 26.7995 22.7957 26.6636 22.2756 26.4175C21.9421 27.0003 21.7499 27.7673 21.7139 28.6372L21.7912 28.6828C22.0251 28.8208 22.2534 28.9555 22.4996 29.0636C22.7079 29.1846 22.9234 29.2843 23.1461 29.3668C23.271 29.4131 23.2648 29.5962 23.1331 29.6173C22.8779 29.6583 22.6197 29.6811 22.3538 29.6811C22.1484 29.6908 21.9431 29.6868 21.74 29.6799C21.799 30.3694 21.9357 31.046 22.1212 31.6618C22.2677 31.7483 22.4129 31.8303 22.5621 31.904C22.7621 32.0151 22.9695 32.1113 23.1843 32.1928C23.3063 32.2391 23.3011 32.4147 23.1725 32.4376C22.9291 32.4809 22.6792 32.5089 22.4371 32.5215L22.4273 32.522C22.8901 33.6343 23.4967 34.3946 24 34.3946C24.5011 34.3946 25.1047 33.6408 25.5667 32.5361C25.3345 32.512 25.1087 32.481 24.8895 32.4398C24.7612 32.4156 24.7563 32.2392 24.8786 32.194C25.0934 32.1145 25.3006 32.0233 25.5004 31.9246C25.6212 31.8649 25.7392 31.7999 25.8575 31.7314C26.0536 31.0977 26.1985 30.3968 26.2598 29.6819C26.0772 29.6875 25.893 29.6898 25.7088 29.6811C25.4459 29.6811 25.1829 29.6588 24.929 29.6187C24.7974 29.5979 24.7929 29.4175 24.9185 29.3734C25.1508 29.2918 25.371 29.1954 25.5837 29.0842C25.8098 28.966 26.0359 28.8394 26.2674 28.7098L26.2882 28.6981C26.2582 27.8132 26.0628 27.0375 25.7243 26.4369ZM24.393 16.2214C24.1534 16.1313 23.8899 16.1367 23.653 16.2335C23.191 16.4225 22.4579 16.7855 22.4579 17.1874C22.4579 17.7742 23.1665 18.3401 24.0208 18.3401C24.8544 18.3401 25.5837 17.8782 25.5837 17.1874C25.5959 16.7441 24.8591 16.3966 24.393 16.2214ZM24.0208 20.4807C22.6663 20.4807 21.7286 21.448 21.7286 22.8271C21.7286 24.2061 22.6663 25.1735 24.0208 25.1735C25.3753 25.1735 26.3131 24.2061 26.3131 22.8271C26.3131 21.448 25.3753 20.4807 24.0208 20.4807ZM35.9405 22.2508C33.4398 22.8477 29.7097 22.0861 27.9593 21.6745C31.3768 20.9541 36.1905 20.0896 39.1913 19.6162C39.0246 20.2749 37.9826 21.7568 35.9405 22.2508ZM29.4805 23.9591C30.3557 24.7001 31.5019 25.3794 32.773 25.3794C33.2523 25.3794 33.5857 25.1324 33.7524 24.9059C33.8774 24.7413 33.8774 24.6178 33.8774 24.5766C33.8566 24.556 33.7107 24.4531 33.3148 24.4325C32.127 24.412 30.8767 24.2473 29.4805 23.9591ZM8.7879 19.6161C8.93377 20.2748 9.97569 21.7567 12.0387 22.2507C14.5185 22.8476 18.2694 22.0861 20.0198 21.6744C16.6023 20.954 11.7886 20.0895 8.7879 19.6161ZM14.6644 24.4325C15.8522 24.3913 17.1025 24.2473 18.4987 23.9591C17.6234 24.7207 16.4773 25.3793 15.2062 25.3793C14.7477 25.3793 14.3935 25.1323 14.2268 24.9059C14.1017 24.7207 14.1017 24.5972 14.1017 24.5766C14.1226 24.5354 14.2684 24.4531 14.6644 24.4325Z" fill="white"/>
</svg>
