<svg width="48" height="48" viewBox="0 0 48 48" fill="none" xmlns="http://www.w3.org/2000/svg">
<rect width="48" height="48" rx="8" fill="#202E4A"/>
<path fill-rule="evenodd" clip-rule="evenodd" d="M23.1237 13.0376C22.6995 13.0376 22.3083 13.1584 21.9789 13.3697C21.8342 13.0811 21.6699 12.7979 21.4854 12.5212C20.9061 11.6528 20.2945 11.1105 19.6069 10.6139C18.1336 9.62079 16.1211 8.99161 14.9906 9.00008C13.8601 9.00856 13.7198 11.0381 15.0889 10.9863C17.7958 10.8839 20.0163 11.3909 21.658 13.6226C21.2307 14.0319 20.9673 14.6241 20.9673 15.295C20.9673 16.4146 21.7007 17.3149 22.7057 17.5122C22.2555 17.711 21.8472 18.0046 21.3971 18.3426C21.3761 18.3623 21.3012 18.4237 21.1817 18.5218C20.0376 19.4608 14.8001 23.7595 13.4562 27.0391C12.0347 30.4412 14.3594 33.4681 14.6866 33.8942C14.7011 33.913 14.7117 33.9267 14.7178 33.9352C15.1203 34.4744 16.0869 34.4146 16.3505 33.7959L21.5235 22.6123C21.7355 22.8187 21.9807 22.9981 22.2519 23.1444C22.6284 23.4694 22.8575 23.9221 22.8575 24.289C22.8575 24.6933 22.715 24.7967 22.0774 25.2594L21.9783 25.3315C21.9399 25.3593 21.9187 25.3856 21.9127 25.4104C21.0562 26.02 20.4513 27.0072 20.3185 28.1872C20.3164 28.2052 20.3148 28.2233 20.3135 28.2415C20.1557 30.5284 20.1388 34.0014 20.9095 36.5629C20.9131 36.5749 20.9169 36.5868 20.9208 36.5987C21.2352 37.5391 21.6091 38.3351 22.0573 38.9181C22.5004 39.4943 23.1299 40 23.9366 40C24.7432 40 25.3727 39.4943 25.8158 38.9181C26.2613 38.3387 26.6333 37.5488 26.9465 36.6159C27.894 34.0235 27.8733 30.5373 27.6366 28.2255C27.545 26.801 26.7111 25.7043 25.623 25.1494C25.0977 24.7767 25.0266 24.6589 25.0266 24.289C25.0266 23.8699 25.5638 23.3467 26.0554 23.0018C26.0861 22.9803 26.0955 22.9602 26.0863 22.9415C26.227 22.8432 26.3584 22.735 26.4792 22.6181L31.6495 33.7959C31.9131 34.4146 32.8797 34.4744 33.2822 33.9352C33.2883 33.9268 33.2987 33.9132 33.313 33.8946L33.3134 33.8942C33.6406 33.4681 35.9653 30.4412 34.5438 27.0391C33.1513 23.6408 27.6566 19.1786 26.7199 18.4179C26.681 18.3863 26.6499 18.3611 26.6274 18.3426C26.298 18.0727 25.8245 17.7435 25.2752 17.5157C26.2898 17.3259 27.0323 16.4215 27.0323 15.295C27.0323 14.6186 26.7646 14.0223 26.331 13.6126C27.972 11.3894 30.1899 10.8841 32.8928 10.9863C34.2618 11.0381 34.1215 9.00856 32.991 9.00009C31.8605 8.99161 29.848 9.62079 28.3747 10.6139C27.6872 11.1105 27.0756 11.6528 26.4963 12.5212C26.3136 12.7951 26.1508 13.0755 26.0071 13.3611C25.6805 13.1551 25.2942 13.0376 24.8758 13.0376L23.1237 13.0376ZM25.2181 19.8916L25.1245 19.6893C24.9096 19.33 24.4754 19.0701 24.0043 19.0701C23.3364 19.0701 22.7427 19.5925 22.7427 20.1803V20.6374C22.7427 21.2251 23.3364 21.7476 24.0043 21.7476C24.6722 21.7476 25.2659 21.2251 25.2659 20.6374V20.1803C25.2659 20.0815 25.2492 19.9845 25.2181 19.8916ZM15.3115 27.7357C15.9053 26.2728 17.4638 24.5314 19.0223 22.9989L15.3115 31.0792C15.0147 30.1737 14.792 28.9198 15.3115 27.7357ZM28.9777 22.9989C30.5362 24.5314 32.0947 26.2728 32.6885 27.7357C33.208 28.9198 32.9853 30.1737 32.6885 31.0792L28.9777 22.9989ZM23.0337 14.8885C22.8851 14.8885 22.7365 15.0918 22.7365 15.2951C22.7365 15.4983 22.8851 15.7016 23.0337 15.7016L24.9658 15.7016C25.1145 15.7016 25.2631 15.4983 25.2631 15.2951C25.2631 15.0918 25.1145 14.8885 24.9658 14.8885L23.0337 14.8885ZM22.4601 32.4755C22.4176 31.7752 22.4045 31.0652 22.4122 30.3808L23.5265 31.1298C23.815 31.3238 24.1851 31.3238 24.4736 31.1298L25.5838 30.3835C25.5994 31.0678 25.5869 31.778 25.5368 32.4776L24 33.5108L22.4601 32.4755ZM22.7449 34.8476C22.8117 35.189 22.8901 35.5155 22.9814 35.8214C23.2498 36.6201 23.5169 37.1307 23.7396 37.4203C23.8301 37.5381 23.8962 37.5987 23.9366 37.629C23.9769 37.5987 24.043 37.5381 24.1335 37.4203C24.3579 37.1286 24.6273 36.6125 24.8978 35.8034C24.9016 35.7918 24.9057 35.7803 24.9099 35.7688C25.0103 35.4959 25.0978 35.2057 25.1735 34.9024L24.4736 35.373C24.1851 35.5669 23.815 35.5669 23.5265 35.373L22.7449 34.8476ZM24 29.2676L22.5202 28.2728C22.6802 27.596 23.2514 27.0977 23.9755 27.0977C24.7815 27.0977 25.3576 27.6728 25.4484 28.2939L24 29.2676Z" fill="white"/>
</svg>
