<svg width="42" height="48" viewBox="0 0 42 48" fill="none" xmlns="http://www.w3.org/2000/svg">
<path fill-rule="evenodd" clip-rule="evenodd" d="M28.8328 1.77191C24.7971 -0.590635 19.7369 -0.590635 15.7014 1.77191L6.10263 7.3914C2.31404 9.60933 0 13.578 0 17.8574V30.1426C0 34.4221 2.31404 38.3907 6.10263 40.6087L15.7014 46.2281C19.7369 48.5906 24.7971 48.5906 28.8326 46.2281L38.4314 40.6087C39.3353 40.0796 40.1551 39.4508 40.8795 38.7421C41.4564 38.1777 41.2945 37.2509 40.6091 36.8211C40.0295 36.4577 39.2736 36.5829 38.7718 37.0456C38.2559 37.5212 37.6819 37.9478 37.0556 38.3145L27.4568 43.9339C24.2697 45.7999 20.2643 45.7999 17.0772 43.9339L7.47859 38.3145C6.30751 37.6289 5.31973 36.7343 4.55168 35.6999C4.31964 35.3875 4.43998 34.9523 4.78708 34.7718L8.33261 32.9281C8.63513 32.7708 9.00652 32.8638 9.22019 33.1274C9.84009 33.8917 10.6049 34.5538 11.4908 35.0725L17.8898 38.8188C20.5802 40.3938 23.9538 40.3938 26.6442 38.8188L33.0433 35.0725C33.3544 34.8902 33.6507 34.6904 33.9308 34.4747C34.6055 33.9552 34.4582 32.9644 33.736 32.5116C33.1834 32.1652 32.4703 32.2594 31.9257 32.6178C31.8415 32.6733 31.7553 32.7268 31.6675 32.7783L25.2682 36.5246C23.4264 37.603 21.1077 37.603 19.2658 36.5246L12.8667 32.7783C11.1443 31.77 10.1214 29.9869 10.1214 28.095V19.9049C10.1214 18.013 11.1443 16.2301 12.8667 15.2216L19.2658 11.4753C21.1077 10.3971 23.4264 10.3971 25.2682 11.4753L31.6675 15.2216C31.7967 15.2974 31.922 15.3775 32.0433 15.4616C32.5927 15.8428 33.3277 15.9484 33.8915 15.5881C34.5918 15.1403 34.7411 14.1788 34.0962 13.656C33.768 13.3898 33.4162 13.146 33.0433 12.9276L26.6442 9.18128C25.8029 8.68881 24.8951 8.35029 23.9621 8.16587C23.6295 8.10003 23.377 7.81993 23.377 7.48488V3.46918C23.377 3.07255 23.7262 2.76182 24.1211 2.8335C25.2824 3.04445 26.4134 3.45528 27.4568 4.06601L37.0556 9.68559C37.7078 10.0674 38.3029 10.5139 38.8351 11.0133C39.3393 11.4865 40.1071 11.6144 40.6909 11.2412C41.3639 10.8111 41.5229 9.8978 40.9583 9.3357C40.2147 8.59502 39.368 7.93977 38.4314 7.3914L28.8328 1.77191ZM17.0772 4.06601C17.9677 3.54481 18.9219 3.16918 19.9042 2.93913C20.3074 2.84471 20.678 3.15892 20.678 3.56818V7.59209C20.678 7.91308 20.4458 8.18561 20.1312 8.26503C19.3534 8.46129 18.5979 8.76681 17.8898 9.18128L11.4908 12.9276C8.96513 14.4063 7.42234 17.0519 7.42234 19.9049V28.0951C7.42234 28.644 7.47955 29.1852 7.58966 29.712C7.65406 30.0192 7.51726 30.3388 7.23616 30.4849L3.78891 32.2774C3.40889 32.4751 2.93985 32.276 2.86074 31.859C2.75399 31.2975 2.69902 30.7233 2.69902 30.1427V17.8574C2.69902 14.5391 4.49319 11.4332 7.47843 9.68559L17.0772 4.06601Z" fill="black"/>
<path fill-rule="evenodd" clip-rule="evenodd" d="M20.4624 16.7629C21.7763 15.9937 23.4239 15.9937 24.7379 16.7629L27.8631 18.5926C29.0967 19.3146 29.85 20.6068 29.85 22.0001V26C29.85 27.3934 29.0967 28.6856 27.8631 29.4076L24.7379 31.2373C23.4239 32.0066 21.7763 32.0066 20.4624 31.2373L17.3371 29.4076C16.1037 28.6856 15.3502 27.3934 15.3502 26V22.0001C15.3502 20.6068 16.1037 19.3146 17.3371 18.5926L20.4624 16.7629ZM23.3939 19.0037L26.5191 20.8334C26.968 21.0961 27.2136 21.5457 27.2136 22.0001V26C27.2136 26.4546 26.968 26.9041 26.5191 27.1668L23.3939 28.9965C22.9087 29.2805 22.2917 29.2805 21.8063 28.9965L18.6811 27.1668C18.2322 26.9041 17.9866 26.4546 17.9866 26V22.0001C17.9866 21.5457 18.2322 21.0961 18.6811 20.8334L21.8063 19.0037C22.2917 18.7197 22.9087 18.7197 23.3939 19.0037Z" fill="black"/>
</svg>
