<svg width="26" height="30" viewBox="0 0 26 30" fill="none" xmlns="http://www.w3.org/2000/svg">
<path fill-rule="evenodd" clip-rule="evenodd" d="M18.0205 1.10744C15.4982 -0.369147 12.3356 -0.369147 9.81338 1.10744L3.81414 4.61963C1.44627 6.00583 0 8.48623 0 11.1608V18.8391C0 21.5138 1.44627 23.9942 3.81414 25.3804L9.81338 28.8926C12.3356 30.3691 15.4982 30.3691 18.0204 28.8926L24.0196 25.3804C24.5845 25.0497 25.0969 24.6568 25.5497 24.2138C25.9103 23.8611 25.8091 23.2818 25.3807 23.0132C25.0184 22.786 24.546 22.8643 24.2324 23.1535C23.9099 23.4508 23.5512 23.7174 23.1597 23.9465L17.1605 27.4587C15.1686 28.6249 12.6652 28.6249 10.6733 27.4587L4.67412 23.9465C3.94219 23.5181 3.32483 22.9589 2.8448 22.3125C2.69978 22.1172 2.77499 21.8452 2.99193 21.7324L5.20788 20.5801C5.39695 20.4818 5.62908 20.5399 5.76262 20.7046C6.15005 21.1823 6.62808 21.5961 7.18172 21.9203L11.1811 24.2617C12.8626 25.2461 14.9711 25.2461 16.6526 24.2617L20.652 21.9203C20.8465 21.8064 21.0317 21.6815 21.2068 21.5467C21.6285 21.222 21.5364 20.6028 21.085 20.3197C20.7396 20.1032 20.294 20.1621 19.9536 20.3862C19.9009 20.4208 19.8471 20.4542 19.7922 20.4864L15.7926 22.8279C14.6415 23.5019 13.1923 23.5019 12.0411 22.8279L8.0417 20.4864C6.96518 19.8562 6.32584 18.7418 6.32584 17.5594V12.4406C6.32584 11.2581 6.96518 10.1438 8.0417 9.51353L12.0411 7.17207C13.1923 6.49816 14.6415 6.49816 15.7926 7.17207L19.7922 9.51353C19.873 9.5609 19.9513 9.61093 20.0271 9.66353C20.3705 9.90175 20.8298 9.96777 21.1822 9.74257C21.6199 9.46271 21.7132 8.86172 21.3101 8.53498C21.105 8.36861 20.8852 8.21624 20.652 8.07976L16.6526 5.7383C16.1268 5.43051 15.5594 5.21893 14.9763 5.10367C14.7685 5.06252 14.6106 4.88745 14.6106 4.67805V2.16824C14.6106 1.92034 14.8289 1.72614 15.0757 1.77094C15.8015 1.90278 16.5084 2.15955 17.1605 2.54126L23.1597 6.0535C23.5673 6.29211 23.9393 6.57119 24.2719 6.88332C24.587 7.17908 25.067 7.25901 25.4318 7.02572C25.8524 6.75691 25.9518 6.18612 25.5989 5.83481C25.1342 5.37189 24.605 4.96235 24.0196 4.61963L18.0205 1.10744ZM10.6733 2.54126C11.2298 2.21551 11.8262 1.98074 12.4401 1.83696C12.6921 1.77794 12.9238 1.97432 12.9238 2.23011V4.74505C12.9238 4.94568 12.7786 5.116 12.582 5.16564C12.0959 5.2883 11.6237 5.47926 11.1811 5.7383L7.18172 8.07976C5.60321 9.00393 4.63896 10.6575 4.63896 12.4406V17.5595C4.63896 17.9025 4.67472 18.2408 4.74353 18.57C4.78379 18.762 4.69829 18.9618 4.5226 19.053L2.36807 20.1734C2.13056 20.2969 1.83741 20.1725 1.78796 19.9119C1.72124 19.561 1.68689 19.2021 1.68689 18.8392V11.1608C1.68689 9.08692 2.80825 7.14572 4.67402 6.0535L10.6733 2.54126Z" fill="black"/>
<path fill-rule="evenodd" clip-rule="evenodd" d="M12.789 10.4768C13.6102 9.99604 14.64 9.99604 15.4612 10.4768L17.4144 11.6204C18.1854 12.0716 18.6563 12.8793 18.6563 13.7501V16.25C18.6563 17.1209 18.1854 17.9285 17.4144 18.3798L15.4612 19.5233C14.64 20.0041 13.6102 20.0041 12.789 19.5233L10.8357 18.3798C10.0648 17.9285 9.59389 17.1209 9.59389 16.25V13.7501C9.59389 12.8793 10.0648 12.0716 10.8357 11.6204L12.789 10.4768ZM14.6212 11.8773L16.5745 13.0209C16.855 13.1851 17.0085 13.466 17.0085 13.7501V16.25C17.0085 16.5341 16.855 16.8151 16.5745 16.9793L14.6212 18.1228C14.3179 18.3003 13.9323 18.3003 13.629 18.1228L11.6757 16.9793C11.3951 16.8151 11.2416 16.5341 11.2416 16.25V13.7501C11.2416 13.466 11.3951 13.1851 11.6757 13.0209L13.629 11.8773C13.9323 11.6998 14.3179 11.6998 14.6212 11.8773Z" fill="black"/>
</svg>
