<svg width="22" height="29" viewBox="0 0 22 29" fill="none" xmlns="http://www.w3.org/2000/svg">
<path d="M21.1658 3.84295C16.4158 -1.18492 8.60928 -1.2933 3.72962 3.60099C-1.15004 8.49527 -1.25513 16.5388 3.49488 21.5666L6.61766 18.4347C3.5543 15.1724 3.62811 9.96899 6.78713 6.80051C9.94614 3.63203 14.9963 3.69609 18.0788 6.93917L21.1658 3.84295Z" fill="black"/>
<path d="M0.421754 24.6572C5.17177 29.685 12.9781 29.7932 17.8578 24.899C22.7374 20.0047 22.8425 11.9613 18.0926 6.93339L14.9701 10.0652C18.0335 13.3274 17.9597 18.5309 14.8006 21.6994C11.6416 24.8678 6.59142 24.8038 3.50897 21.5607L0.421754 24.6572Z" fill="black"/>
</svg>
