<svg width="22" height="26" viewBox="0 0 22 26" fill="none" xmlns="http://www.w3.org/2000/svg">
<path fill-rule="evenodd" clip-rule="evenodd" d="M9.78076 1.03527C9.87787 1.01187 9.97746 1 10.0775 1H12.3852C12.4477 1 12.5102 1.00464 12.572 1.01386C14.6862 1.32925 15.8659 2.83299 16.4385 4.38708C16.8541 5.51516 16.9905 6.74852 16.974 7.81662C17.2286 8.02395 17.4213 8.28212 17.5532 8.53988C17.8147 9.0509 17.8963 9.6491 17.8114 10.2249C17.7265 10.8005 17.4759 11.3493 17.0747 11.7593C16.8936 11.9443 16.6659 12.1136 16.4021 12.2325C16.1476 13.1904 15.781 14.0806 15.2963 14.8486C15.2518 15.7735 15.2501 16.8592 15.3029 17.7835L19.8683 18.7872C20.4822 18.9221 20.8857 19.474 20.8857 20.0715V23.6861C20.8857 24.3813 20.338 25 19.5963 25H2.2894C1.54768 25 1 24.3813 1 23.6861V20.0715C1 19.474 1.40351 18.9221 2.01745 18.7872L6.78581 17.7389C6.85213 16.9909 6.88274 16.1336 6.77785 15.1068C6.19664 14.2666 5.76772 13.2618 5.4816 12.1754C5.26702 12.0622 5.08024 11.9164 4.92647 11.7593C4.52525 11.3493 4.27461 10.8005 4.18975 10.2249C4.10486 9.6491 4.18641 9.0509 4.4479 8.53988C4.58075 8.28026 4.77534 8.02022 5.03261 7.81214C5.03085 7.68072 5.02884 7.55198 5.02687 7.42537C5.02563 7.34583 5.02439 7.26614 5.02325 7.18835C4.94637 6.47366 4.91409 5.62091 5.05493 4.73847C5.26936 3.39492 6.35734 2.54363 7.178 2.06317C8.06848 1.54182 9.07379 1.20564 9.78076 1.03527ZM6.14795 7.11656C6.14928 7.21133 6.15079 7.30815 6.15233 7.40695C6.15773 7.75376 6.16353 8.12593 6.16387 8.52649C6.14914 8.52801 6.13439 8.52995 6.11963 8.53232C5.82107 8.58032 5.58802 8.79068 5.44674 9.06678C5.30549 9.34282 5.2496 9.69385 5.30296 10.0557C5.35631 10.4176 5.51071 10.7348 5.72493 10.9537C5.91615 11.1491 6.16199 11.2716 6.42488 11.2616C6.69938 12.6082 7.18598 13.7902 7.86188 14.6739C8.00167 15.8045 7.98894 16.7541 7.92956 17.5629C7.89908 17.978 7.85631 18.356 7.81557 18.7024C7.79811 18.6971 7.77984 18.6948 7.7615 18.6958C7.75305 18.6963 7.74458 18.6974 7.73618 18.6993L2.25566 19.9041C2.17986 19.9208 2.12561 19.9906 2.12561 20.0715V23.6861C2.12561 23.7806 2.19894 23.8571 2.2894 23.8571H19.5963C19.6868 23.8571 19.7601 23.7806 19.7601 23.6861V20.0715C19.7601 19.9906 19.7059 19.9208 19.6301 19.9041L14.2501 18.7214C14.1154 17.5071 14.1099 15.7757 14.1895 14.4715C14.7898 13.6124 15.2241 12.5045 15.4738 11.251L15.4805 11.2521C15.7791 11.3001 16.0619 11.1727 16.2762 10.9537C16.4904 10.7348 16.6448 10.4176 16.6982 10.0557C16.7515 9.69385 16.6956 9.34282 16.5544 9.06678C16.4131 8.79068 16.18 8.58032 15.8815 8.53232C15.8717 8.53076 15.862 8.52938 15.8523 8.52818C15.8382 8.52645 15.824 8.52511 15.81 8.52414C15.8242 8.37047 15.8349 8.21068 15.8417 8.04614C15.883 7.0325 15.7716 5.83889 15.3843 4.78751C14.9036 3.48296 13.9891 2.38039 12.4083 2.14458C12.4007 2.14343 12.3929 2.14286 12.3852 2.14286H10.0775C10.0651 2.14286 10.0528 2.14433 10.0407 2.14724C9.40555 2.30029 8.51005 2.60255 7.74027 3.05322C6.98016 3.49823 6.29452 4.11631 6.16604 4.92128C6.04388 5.68667 6.07307 6.44791 6.14795 7.11656Z" fill="#293858"/>
<path d="M9.78076 1.03527L9.66363 0.549182L9.66362 0.549184L9.78076 1.03527ZM12.572 1.01386L12.6457 0.519331L12.6457 0.519331L12.572 1.01386ZM11.9316 1.94783C11.8921 2.22113 12.0816 2.47474 12.3548 2.51429C12.6281 2.55384 12.8818 2.36435 12.9213 2.09105L11.9316 1.94783ZM16.4385 4.38708L16.9077 4.21421V4.21421L16.4385 4.38708ZM15.3027 4.28364C15.0445 4.38169 14.9148 4.67044 15.0128 4.92859C15.1109 5.18674 15.3996 5.31653 15.6578 5.21848L15.3027 4.28364ZM16.974 7.81662L16.4741 7.80892C16.4717 7.96195 16.5396 8.10763 16.6583 8.20429L16.974 7.81662ZM17.5532 8.53988L17.9983 8.31212V8.31212L17.5532 8.53988ZM17.8114 10.2249L18.306 10.2978V10.2978L17.8114 10.2249ZM17.0747 11.7593L17.432 12.109L17.432 12.109L17.0747 11.7593ZM16.7198 10.691C16.5254 10.4949 16.2088 10.4935 16.0127 10.6879C15.8165 10.8823 15.8152 11.1989 16.0096 11.395L16.7198 10.691ZM16.4021 12.2325L16.1967 11.7766C16.0596 11.8384 15.9575 11.9587 15.9189 12.1041L16.4021 12.2325ZM15.2963 14.8486L14.8735 14.5817C14.8274 14.6547 14.801 14.7384 14.7969 14.8245L15.2963 14.8486ZM15.3029 17.7835L14.8037 17.812C14.8164 18.0358 14.9766 18.2237 15.1955 18.2718L15.3029 17.7835ZM19.8683 18.7872L19.7609 19.2755H19.7609L19.8683 18.7872ZM2.01745 18.7872L2.12481 19.2755H2.12481L2.01745 18.7872ZM6.78581 17.7389L6.89316 18.2272C7.1064 18.1803 7.26457 18.0005 7.28385 17.783L6.78581 17.7389ZM6.77785 15.1068L7.27526 15.056C7.26669 14.9721 7.23703 14.8917 7.18905 14.8223L6.77785 15.1068ZM5.4816 12.1754L5.96511 12.0481C5.92946 11.9127 5.83869 11.7985 5.71487 11.7332L5.4816 12.1754ZM4.92647 11.7593L4.56912 12.109L4.92647 11.7593ZM4.18975 10.2249L4.6844 10.152L4.18975 10.2249ZM4.4479 8.53988L4.89301 8.76764H4.89301L4.4479 8.53988ZM5.03261 7.81214L5.34704 8.2009C5.46624 8.10449 5.53463 7.95872 5.53257 7.80542L5.03261 7.81214ZM5.02687 7.42537L4.52693 7.43316V7.43316L5.02687 7.42537ZM5.02325 7.18835L5.5232 7.18103C5.52297 7.16561 5.52203 7.15021 5.52038 7.13487L5.02325 7.18835ZM5.05493 4.73847L5.54868 4.81727V4.81727L5.05493 4.73847ZM7.178 2.06317L7.43062 2.49466V2.49466L7.178 2.06317ZM6.14795 7.11656L6.6479 7.1095C6.64767 7.09326 6.64665 7.07705 6.64484 7.06092L6.14795 7.11656ZM6.15233 7.40695L5.65239 7.41474V7.41474L6.15233 7.40695ZM6.16387 8.52649L6.21529 9.02384C6.47033 8.99747 6.66409 8.78246 6.66387 8.52605L6.16387 8.52649ZM6.11963 8.53232L6.04027 8.03866L6.04026 8.03866L6.11963 8.53232ZM5.44674 9.06678L5.89185 9.29454L5.44674 9.06678ZM5.30296 10.0557L5.79761 9.98281L5.30296 10.0557ZM5.72493 10.9537L5.36758 11.3034H5.36758L5.72493 10.9537ZM6.42488 11.2616L6.91481 11.1617C6.8659 10.9218 6.65048 10.7526 6.40582 10.762L6.42488 11.2616ZM7.86188 14.6739L8.3581 14.6126C8.3472 14.5244 8.31301 14.4408 8.25904 14.3702L7.86188 14.6739ZM7.92956 17.5629L7.4309 17.5263L7.92956 17.5629ZM7.81557 18.7024L7.67057 19.1809C7.81223 19.2238 7.96564 19.2018 8.08948 19.1207C8.21332 19.0396 8.29486 18.9078 8.31215 18.7608L7.81557 18.7024ZM7.7615 18.6958L7.78828 19.1951L7.78834 19.1951L7.7615 18.6958ZM7.73618 18.6993L7.62885 18.2109L7.62882 18.2109L7.73618 18.6993ZM2.25566 19.9041L2.1483 19.4158L2.14829 19.4158L2.25566 19.9041ZM19.6301 19.9041L19.7374 19.4158L19.7374 19.4158L19.6301 19.9041ZM14.2501 18.7214L13.7532 18.7765C13.7768 18.9895 13.9335 19.1637 14.1427 19.2097L14.2501 18.7214ZM14.1895 14.4715L13.7797 14.1852C13.727 14.2606 13.6961 14.3492 13.6905 14.4411L14.1895 14.4715ZM15.4738 11.251L15.5553 10.7577C15.2892 10.7137 15.0361 10.8887 14.9834 11.1533L15.4738 11.251ZM15.4805 11.2521L15.399 11.7454L15.4012 11.7458L15.4805 11.2521ZM16.2762 10.9537L16.6335 11.3034L16.6335 11.3034L16.2762 10.9537ZM16.6982 10.0557L16.2035 9.98281L16.6982 10.0557ZM16.5544 9.06678L16.1093 9.29454L16.1093 9.29454L16.5544 9.06678ZM15.8815 8.53232L15.9609 8.03866L15.9608 8.03866L15.8815 8.53232ZM15.8523 8.52818L15.7914 9.02446H15.7914L15.8523 8.52818ZM15.81 8.52414L15.3121 8.47802C15.2997 8.61215 15.3419 8.74562 15.4292 8.8482C15.5165 8.95078 15.6415 9.0138 15.7759 9.02298L15.81 8.52414ZM15.8417 8.04614L15.3421 8.02576L15.8417 8.04614ZM15.3843 4.78751L15.8534 4.61465L15.8534 4.61464L15.3843 4.78751ZM12.4083 2.14458L12.4821 1.65005L12.4821 1.65005L12.4083 2.14458ZM10.0407 2.14724L9.92355 1.66115L9.92355 1.66115L10.0407 2.14724ZM7.74027 3.05322L7.99289 3.48471L7.74027 3.05322ZM6.16604 4.92128L6.65979 5.00008L6.16604 4.92128ZM10.0775 0.5C9.93791 0.5 9.79901 0.51656 9.66363 0.549182L9.89789 1.52135C9.95674 1.50718 10.017 1.5 10.0775 1.5V0.5ZM12.3852 0.5H10.0775V1.5H12.3852V0.5ZM12.6457 0.519331C12.5595 0.506469 12.4724 0.5 12.3852 0.5V1.5C12.423 1.5 12.4608 1.5028 12.4982 1.50839L12.6457 0.519331ZM12.9213 2.09105L13.0668 1.08547L12.0771 0.942251L11.9316 1.94783L12.9213 2.09105ZM16.9077 4.21421C16.2964 2.55523 15.0012 0.870723 12.6457 0.519331L12.4982 1.50839C14.3711 1.78778 15.4354 3.11076 15.9693 4.55994L16.9077 4.21421ZM15.6578 5.21848L16.616 4.8545L16.261 3.91966L15.3027 4.28364L15.6578 5.21848ZM17.474 7.82432C17.4911 6.71327 17.3502 5.4153 16.9077 4.21421L15.9693 4.55994C16.3581 5.61502 16.4899 6.78376 16.4741 7.80892L17.474 7.82432ZM17.9983 8.31212C17.8392 8.0012 17.605 7.68571 17.2898 7.42895L16.6583 8.20429C16.8521 8.36218 17.0034 8.56304 17.1081 8.76765L17.9983 8.31212ZM18.306 10.2978C18.4045 9.63015 18.3121 8.92526 17.9983 8.31212L17.1081 8.76764C17.3173 9.17655 17.3881 9.66805 17.3167 10.152L18.306 10.2978ZM17.432 12.109C17.9156 11.6148 18.2076 10.9652 18.306 10.2978L17.3167 10.152C17.2454 10.6359 17.0362 11.0837 16.7173 11.4096L17.432 12.109ZM16.0096 11.395L16.7195 12.1113L17.4298 11.4073L16.7198 10.691L16.0096 11.395ZM16.6075 12.6883C16.9342 12.5411 17.2122 12.3335 17.432 12.109L16.7173 11.4095C16.5749 11.5551 16.3976 11.6861 16.1967 11.7766L16.6075 12.6883ZM15.7192 15.1154C16.2356 14.2971 16.6203 13.3584 16.8853 12.3609L15.9189 12.1041C15.6748 13.0224 15.3264 13.864 14.8735 14.5817L15.7192 15.1154ZM15.8021 17.755C15.7505 16.8503 15.752 15.7822 15.7957 14.8726L14.7969 14.8245C14.7517 15.7647 14.7498 16.8681 14.8037 17.812L15.8021 17.755ZM19.9756 18.2988L15.4102 17.2952L15.1955 18.2718L19.7609 19.2755L19.9756 18.2988ZM21.3857 20.0715C21.3857 19.2553 20.8342 18.4876 19.9756 18.2988L19.7609 19.2755C20.1302 19.3567 20.3857 19.6927 20.3857 20.0715H21.3857ZM21.3857 23.6861V20.0715H20.3857V23.6861H21.3857ZM19.5963 25.5C20.6378 25.5 21.3857 24.6332 21.3857 23.6861H20.3857C20.3857 24.1293 20.0383 24.5 19.5963 24.5V25.5ZM2.2894 25.5H19.5963V24.5H2.2894V25.5ZM0.5 23.6861C0.5 24.6332 1.24794 25.5 2.2894 25.5V24.5C1.84741 24.5 1.5 24.1293 1.5 23.6861H0.5ZM0.5 20.0715V23.6861H1.5V20.0715H0.5ZM1.91009 18.2988C1.05149 18.4876 0.5 19.2553 0.5 20.0715H1.5C1.5 19.6927 1.75553 19.3567 2.12481 19.2755L1.91009 18.2988ZM6.67845 17.2505L1.91009 18.2988L2.12481 19.2755L6.89316 18.2272L6.67845 17.2505ZM6.28044 15.1576C6.38127 16.1446 6.35212 16.969 6.28776 17.6947L7.28385 17.783C7.35215 17.0129 7.38421 16.1225 7.27526 15.056L6.28044 15.1576ZM4.99809 12.3028C5.29569 13.4327 5.74572 14.4936 6.36665 15.3912L7.18905 14.8223C6.64756 14.0396 6.23975 13.0909 5.96511 12.0481L4.99809 12.3028ZM4.56912 12.109C4.75557 12.2995 4.98347 12.478 5.24833 12.6177L5.71487 11.7332C5.55058 11.6465 5.40492 11.5333 5.28382 11.4096L4.56912 12.109ZM3.6951 10.2978C3.79348 10.9652 4.08554 11.6148 4.56912 12.109L5.28382 11.4096C4.96496 11.0837 4.75574 10.6359 4.6844 10.152L3.6951 10.2978ZM4.00279 8.31212C3.68904 8.92526 3.59666 9.63015 3.6951 10.2978L4.6844 10.152C4.61306 9.66805 4.68377 9.17655 4.89301 8.76764L4.00279 8.31212ZM4.71818 7.42337C4.39946 7.68115 4.16302 7.99898 4.00279 8.31212L4.89301 8.76764C4.99848 8.56153 5.15121 8.35928 5.34704 8.2009L4.71818 7.42337ZM4.52693 7.43316C4.52891 7.55984 4.5309 7.68806 4.53266 7.81885L5.53257 7.80542C5.53079 7.67339 5.52878 7.54412 5.52681 7.41759L4.52693 7.43316ZM4.52331 7.19567C4.52445 7.27373 4.52569 7.35366 4.52693 7.43316L5.52681 7.41759C5.52557 7.338 5.52433 7.25854 5.5232 7.18103L4.52331 7.19567ZM4.56118 4.65966C4.41089 5.6013 4.44653 6.50196 4.52612 7.24183L5.52038 7.13487C5.44621 6.44537 5.41729 5.64052 5.54868 4.81727L4.56118 4.65966ZM6.92538 1.63168C6.0767 2.12854 4.81291 3.08243 4.56118 4.65966L5.54868 4.81727C5.72582 3.7074 6.63798 2.95871 7.43062 2.49466L6.92538 1.63168ZM9.66362 0.549184C8.92426 0.727359 7.86976 1.07878 6.92538 1.63168L7.43062 2.49466C8.26721 2.00486 9.22332 1.68391 9.8979 1.52135L9.66362 0.549184ZM5.648 7.12362C5.64934 7.21882 5.65085 7.31601 5.65239 7.41474L6.65227 7.39916C6.65073 7.3003 6.64923 7.20384 6.6479 7.1095L5.648 7.12362ZM5.65239 7.41474C5.6578 7.76189 5.66353 8.13056 5.66387 8.52692L6.66387 8.52605C6.66352 8.1213 6.65767 7.74563 6.65227 7.39916L5.65239 7.41474ZM6.11246 8.02914C6.08844 8.03162 6.06437 8.03479 6.04027 8.03866L6.19899 9.02599C6.20441 9.02511 6.20984 9.0244 6.21529 9.02384L6.11246 8.02914ZM6.04026 8.03866C5.54309 8.11859 5.19407 8.46294 5.00163 8.83901L5.89185 9.29454C5.98198 9.11841 6.09905 9.04205 6.19899 9.02598L6.04026 8.03866ZM5.00163 8.83901C4.8082 9.21704 4.74138 9.67474 4.8083 10.1287L5.79761 9.98281C5.75783 9.71297 5.80279 9.4686 5.89185 9.29454L5.00163 8.83901ZM4.8083 10.1287C4.8752 10.5824 5.07112 11.0005 5.36758 11.3034L6.08228 10.604C5.9503 10.4692 5.83741 10.2528 5.79761 9.98281L4.8083 10.1287ZM5.36758 11.3034C5.6317 11.5733 6.00699 11.7779 6.44394 11.7612L6.40582 10.762C6.317 10.7653 6.2006 10.7249 6.08228 10.604L5.36758 11.3034ZM5.93496 11.3615C6.22012 12.7604 6.73105 14.0184 7.46472 14.9777L8.25904 14.3702C7.64091 13.562 7.17865 12.456 6.91481 11.1617L5.93496 11.3615ZM7.36566 14.7353C7.50061 15.8267 7.48843 16.7427 7.4309 17.5263L8.42822 17.5995C8.48945 16.7655 8.50273 15.7823 8.3581 14.6126L7.36566 14.7353ZM7.4309 17.5263C7.40127 17.9299 7.35959 18.2988 7.319 18.644L8.31215 18.7608C8.35303 18.4132 8.39689 18.0261 8.42822 17.5995L7.4309 17.5263ZM7.96058 18.2239C7.88804 18.2019 7.81164 18.1924 7.73467 18.1966L7.78834 19.1951C7.74803 19.1973 7.70817 19.1923 7.67057 19.1809L7.96058 18.2239ZM7.73472 18.1966C7.69915 18.1985 7.66375 18.2033 7.62885 18.2109L7.84351 19.1876C7.82542 19.1916 7.80695 19.1941 7.78828 19.1951L7.73472 18.1966ZM7.62882 18.2109L2.1483 19.4158L2.36301 20.3925L7.84354 19.1876L7.62882 18.2109ZM2.14829 19.4158C1.82945 19.4859 1.62561 19.7702 1.62561 20.0715H2.62561C2.62561 20.211 2.53027 20.3557 2.36302 20.3925L2.14829 19.4158ZM1.62561 20.0715V23.6861H2.62561V20.0715H1.62561ZM1.62561 23.6861C1.62561 24.0361 1.90261 24.3571 2.2894 24.3571V23.3571C2.49527 23.3571 2.62561 23.5251 2.62561 23.6861H1.62561ZM2.2894 24.3571H19.5963V23.3571H2.2894V24.3571ZM19.5963 24.3571C19.9831 24.3571 20.2601 24.0361 20.2601 23.6861H19.2601C19.2601 23.5251 19.3904 23.3571 19.5963 23.3571V24.3571ZM20.2601 23.6861V20.0715H19.2601V23.6861H20.2601ZM20.2601 20.0715C20.2601 19.7702 20.0563 19.4859 19.7374 19.4158L19.5227 20.3925C19.3554 20.3557 19.2601 20.211 19.2601 20.0715H20.2601ZM19.7374 19.4158L14.3575 18.233L14.1427 19.2097L19.5227 20.3925L19.7374 19.4158ZM14.7471 18.6662C14.6164 17.4888 14.6101 15.7875 14.6886 14.502L13.6905 14.4411C13.6097 15.7639 13.6143 17.5254 13.7532 18.7765L14.7471 18.6662ZM14.5994 14.7579C15.2485 13.8288 15.7045 12.652 15.9641 11.3486L14.9834 11.1533C14.7437 12.3569 14.3311 13.3959 13.7797 14.1852L14.5994 14.7579ZM15.3922 11.7443L15.399 11.7454L15.5621 10.7588L15.5553 10.7577L15.3922 11.7443ZM15.4012 11.7458C15.9003 11.826 16.3376 11.6058 16.6335 11.3034L15.9188 10.604C15.7862 10.7395 15.6578 10.7742 15.5599 10.7584L15.4012 11.7458ZM16.6335 11.3034C16.93 11.0005 17.1259 10.5824 17.1928 10.1287L16.2035 9.98281C16.1637 10.2528 16.0508 10.4692 15.9188 10.604L16.6335 11.3034ZM17.1928 10.1287C17.2597 9.67474 17.1929 9.21704 16.9995 8.83901L16.1093 9.29454C16.1983 9.4686 16.2433 9.71297 16.2035 9.98281L17.1928 10.1287ZM16.9995 8.83901C16.8071 8.46294 16.458 8.11859 15.9609 8.03866L15.8021 9.02598C15.9021 9.04205 16.0191 9.11841 16.1093 9.29454L16.9995 8.83901ZM15.9608 8.03866C15.9449 8.03611 15.9291 8.03386 15.9132 8.03191L15.7914 9.02446C15.7949 9.0249 15.7985 9.02541 15.8021 9.02599L15.9608 8.03866ZM15.9132 8.03191C15.8901 8.02908 15.8671 8.02688 15.844 8.02531L15.7759 9.02298C15.781 9.02333 15.7862 9.02382 15.7914 9.02446L15.9132 8.03191ZM16.3078 8.57026C16.3229 8.40793 16.3342 8.23955 16.3412 8.06653L15.3421 8.02576C15.3357 8.1818 15.3255 8.33301 15.3121 8.47802L16.3078 8.57026ZM16.3412 8.06653C16.3844 7.00826 16.2699 5.74499 15.8534 4.61465L14.9151 4.96037C15.2734 5.93279 15.3816 7.05674 15.3421 8.02576L16.3412 8.06653ZM15.8534 4.61464C15.3335 3.20361 14.3029 1.92168 12.4821 1.65005L12.3346 2.6391C13.6753 2.83911 14.4737 3.76231 14.9151 4.96037L15.8534 4.61464ZM12.4821 1.65005C12.45 1.64526 12.4177 1.64286 12.3852 1.64286V2.64286C12.3682 2.64286 12.3513 2.6416 12.3346 2.6391L12.4821 1.65005ZM12.3852 1.64286H10.0775V2.64286H12.3852V1.64286ZM10.0775 1.64286C10.0256 1.64286 9.9739 1.64902 9.92355 1.66115L10.1578 2.63332C10.1316 2.63964 10.1047 2.64286 10.0775 2.64286V1.64286ZM9.92355 1.66115C9.25602 1.82202 8.31132 2.13951 7.48765 2.62173L7.99289 3.48471C8.70877 3.06559 9.55508 2.77857 10.1578 2.63332L9.92355 1.66115ZM7.48765 2.62173C6.69884 3.08355 5.838 3.80424 5.67229 4.84248L6.65979 5.00008C6.75104 4.42837 7.26148 3.91292 7.99289 3.48471L7.48765 2.62173ZM5.67229 4.84248C5.54045 5.66856 5.5734 6.47875 5.65105 7.1722L6.64484 7.06092C6.57274 6.41707 6.54732 5.70479 6.65979 5.00008L5.67229 4.84248Z" fill="#293858"/>
</svg>
