<svg width="24" height="24" viewBox="0 0 24 24" fill="none" xmlns="http://www.w3.org/2000/svg">
<path d="M5.55822 14.8707C5.50068 15.0423 5.33997 15.1579 5.15902 15.1579H4.99074C4.70037 15.1579 4.49716 14.8709 4.59358 14.597L6.2376 9.92715C6.29693 9.75864 6.45612 9.64592 6.63476 9.64592H7.27125C7.44983 9.64592 7.60898 9.75856 7.66835 9.92698L9.31466 14.5968C9.41122 14.8707 9.208 15.1579 8.91756 15.1579H8.74937C8.56851 15.1579 8.40785 15.0424 8.35024 14.8709L6.98133 10.7967C6.97723 10.7845 6.96581 10.7763 6.95294 10.7763C6.94008 10.7763 6.92865 10.7845 6.92456 10.7967L5.55822 14.8707ZM5.4969 13.3977C5.4969 13.1762 5.67644 12.9967 5.89792 12.9967H8.00258C8.22405 12.9967 8.40359 13.1762 8.40359 13.3977C8.40359 13.6192 8.22405 13.7987 8.00258 13.7987H5.89792C5.67644 13.7987 5.4969 13.6192 5.4969 13.3977Z" fill="#293858"/>
<path d="M13.9827 11.4061C13.798 11.4061 13.6411 11.2818 13.5511 11.1205C13.531 11.0843 13.5094 11.0494 13.4863 11.0158C13.4091 10.8992 13.3158 10.7996 13.2064 10.7171C13.0987 10.6346 12.9749 10.5726 12.835 10.5314C12.695 10.4883 12.5425 10.4668 12.3774 10.4668C12.0814 10.4668 11.8176 10.5412 11.5862 10.6902C11.3547 10.8391 11.1726 11.058 11.0398 11.3469C10.9088 11.634 10.8433 11.9838 10.8433 12.3965C10.8433 12.8128 10.9088 13.1653 11.0398 13.4542C11.1708 13.7431 11.3529 13.9629 11.5862 14.1136C11.8194 14.2625 12.0903 14.337 12.399 14.337C12.6789 14.337 12.9211 14.2832 13.1256 14.1755C13.332 14.0679 13.4908 13.9153 13.602 13.718C13.7106 13.5235 13.7662 13.2965 13.7688 13.0371C13.7689 13.0272 13.7777 13.0196 13.7875 13.0211C13.8072 13.0242 13.805 13.0532 13.785 13.0532H12.6054C12.5464 13.0532 12.4985 13.0054 12.4985 12.9463V12.663C12.4985 12.4474 12.6733 12.2727 12.8888 12.2727H14.314C14.5466 12.2727 14.7351 12.4612 14.7351 12.6938V12.9348C14.7351 13.4067 14.6346 13.8149 14.4336 14.1594C14.2327 14.5039 13.9564 14.7694 13.6047 14.956C13.253 15.1408 12.8493 15.2332 12.3936 15.2332C11.8858 15.2332 11.4399 15.1193 11.056 14.8914C10.6738 14.6618 10.375 14.3361 10.1597 13.9145C9.94621 13.491 9.83945 12.9886 9.83945 12.4073C9.83945 11.9623 9.90225 11.5649 10.0278 11.215C10.1552 10.8651 10.3329 10.5682 10.5607 10.3241C10.7886 10.0783 11.056 9.89173 11.3628 9.76434C11.6696 9.63515 12.0033 9.57056 12.364 9.57056C12.669 9.57056 12.9534 9.61541 13.2171 9.70513C13.4809 9.79304 13.715 9.91864 13.9196 10.0819C14.1259 10.2452 14.2955 10.439 14.4283 10.6633C14.4796 10.75 14.5241 10.8403 14.5618 10.934C14.6579 11.1733 14.4571 11.4061 14.1993 11.4061H13.9827Z" fill="#293858"/>
<path d="M16.1217 15.1579C15.8891 15.1579 15.7006 14.9694 15.7006 14.7368V10.067C15.7006 9.83443 15.8891 9.64592 16.1217 9.64592H18.867C19.0982 9.64592 19.2855 9.83329 19.2855 10.0644C19.2855 10.2956 19.0982 10.4829 18.867 10.4829H17.1202C16.8876 10.4829 16.6991 10.6714 16.6991 10.904V11.5583C16.6991 11.7908 16.8876 11.9793 17.1202 11.9793H18.6813C18.9125 11.9793 19.0998 12.1667 19.0998 12.3979C19.0998 12.629 18.9125 12.8164 18.6813 12.8164H17.1202C16.8876 12.8164 16.6991 13.0049 16.6991 13.2374V13.8998C16.6991 14.1323 16.8876 14.3209 17.1202 14.3209H18.8886C19.1197 14.3209 19.3071 14.5082 19.3071 14.7394C19.3071 14.9705 19.1197 15.1579 18.8886 15.1579H16.1217Z" fill="#293858"/>
<path d="M22.9305 9.46969C23.3504 9.37248 23.6145 8.95228 23.4902 8.53957C22.8512 6.41756 21.6351 4.5086 19.9709 3.0298C18.1118 1.37778 15.7853 0.344225 13.3131 0.0720729C10.841 -0.200079 8.34535 0.302615 6.17136 1.51064C3.99737 2.71866 2.25244 4.57232 1.17787 6.81528C0.103307 9.05823 -0.2478 11.5797 0.173108 14.0309C0.594016 16.4821 1.76614 18.7419 3.52739 20.4979C5.28864 22.2539 7.55199 23.4193 10.0044 23.8329C12.1997 24.2031 14.4494 23.9546 16.5036 23.1228C16.9031 22.9611 17.0651 22.4919 16.8777 22.1038C16.6903 21.7156 16.2246 21.5558 15.8235 21.7137C14.0621 22.407 12.1402 22.6102 10.264 22.2938C8.13055 21.934 6.1616 20.9202 4.62944 19.3926C3.09728 17.865 2.07762 15.8991 1.71146 13.7667C1.3453 11.6343 1.65073 9.44087 2.58553 7.48966C3.52033 5.53845 5.03829 3.9259 6.92951 2.87501C8.82072 1.82412 10.9917 1.38681 13.1423 1.62356C15.2929 1.86032 17.3168 2.75943 18.9341 4.19657C20.3564 5.46043 21.4025 7.08549 21.9659 8.89263C22.0942 9.30411 22.5106 9.56689 22.9305 9.46969Z" fill="#293858"/>
</svg>
