<svg width="25" height="25" viewBox="0 0 25 25" fill="none" xmlns="http://www.w3.org/2000/svg">
<path fill-rule="evenodd" clip-rule="evenodd" d="M5.79628 15.5779C5.73951 15.7524 5.57685 15.8706 5.39334 15.8706H4.61997C4.32885 15.8706 4.12444 15.5838 4.21943 15.3086L6.48008 8.76003C6.53906 8.5892 6.69989 8.47458 6.88062 8.47458H8.29162C8.47241 8.47458 8.63329 8.58929 8.69222 8.76021L10.9497 15.3087C11.0445 15.5839 10.8401 15.8706 10.5491 15.8706H9.77562C9.59201 15.8706 9.4293 15.7523 9.3726 15.5777L8.92011 14.1841H6.24972L5.79628 15.5779ZM7.62401 10.1922L8.5238 12.9635H6.64681L7.54836 10.1921C7.55369 10.1758 7.56896 10.1647 7.58618 10.1647C7.60341 10.1647 7.61868 10.1758 7.62401 10.1922Z" fill="#293858"/>
<path fill-rule="evenodd" clip-rule="evenodd" d="M12.4573 15.8706C12.2232 15.8706 12.0335 15.6809 12.0335 15.4468V8.89831C12.0335 8.66429 12.2232 8.47458 12.4573 8.47458H14.9515C15.5124 8.47458 15.9903 8.58171 16.3852 8.79598C16.78 9.00785 17.081 9.30277 17.288 9.68076C17.4975 10.0563 17.6022 10.4897 17.6022 10.9808C17.6022 11.472 17.4963 11.9053 17.2844 12.2809C17.0725 12.6565 16.7656 12.949 16.3635 13.1585C15.9639 13.3679 15.4799 13.4726 14.9118 13.4726H13.5972V15.4468C13.5972 15.6809 13.4075 15.8706 13.1735 15.8706H12.4573ZM14.659 12.2195H13.5972V10.1767C13.5972 9.9427 13.787 9.75299 14.021 9.75299H14.6517C14.9551 9.75299 15.2055 9.80475 15.4029 9.90827C15.6003 10.0094 15.7472 10.1526 15.8435 10.338C15.9422 10.521 15.9916 10.7353 15.9916 10.9808C15.9916 11.224 15.9422 11.4395 15.8435 11.6273C15.7472 11.8126 15.6003 11.9583 15.4029 12.0642C15.2079 12.1678 14.9599 12.2195 14.659 12.2195Z" fill="#293858"/>
<path d="M20.1816 8.8983C20.1816 8.66429 19.9919 8.47458 19.7579 8.47458H19.0416C18.8076 8.47458 18.6179 8.66429 18.6179 8.89831V15.4468C18.6179 15.6809 18.8076 15.8706 19.0416 15.8706H19.7579C19.9919 15.8706 20.1816 15.6809 20.1816 15.4468V8.8983Z" fill="#293858"/>
<path fill-rule="evenodd" clip-rule="evenodd" d="M25 12.5C25 19.4036 19.4036 25 12.5 25C5.59644 25 0 19.4036 0 12.5C0 5.59644 5.59644 0 12.5 0C19.4036 0 25 5.59644 25 12.5ZM23.9407 12.5C23.9407 18.8185 18.8185 23.9407 12.5 23.9407C6.18149 23.9407 1.05932 18.8185 1.05932 12.5C1.05932 6.18149 6.18149 1.05932 12.5 1.05932C18.8185 1.05932 23.9407 6.18149 23.9407 12.5Z" fill="#293858"/>
</svg>
