<svg width="24" height="24" viewBox="0 0 24 24" fill="none" xmlns="http://www.w3.org/2000/svg">
<path fill-rule="evenodd" clip-rule="evenodd" d="M0 1.10204C0 0.493401 0.495931 0 1.10769 0H10.3385C10.9502 0 11.4462 0.4934 11.4462 1.10204V10.2857C11.4462 10.8944 10.9502 11.3878 10.3385 11.3878H1.10769C0.495931 11.3878 0 10.8944 0 10.2857V1.10204ZM1.10769 1.10204H10.3385V10.2857H1.10769V1.10204Z" fill="#293858"/>
<path fill-rule="evenodd" clip-rule="evenodd" d="M12.5538 1.10204C12.5538 0.493401 13.0498 0 13.6615 0H22.8923C23.5041 0 24 0.4934 24 1.10204V10.2857C24 10.8944 23.5041 11.3878 22.8923 11.3878H13.6615C13.0498 11.3878 12.5538 10.8944 12.5538 10.2857V1.10204ZM13.6615 1.10204H22.8923V10.2857H13.6615V1.10204Z" fill="#293858"/>
<path d="M12.5538 13.2245C12.5538 12.6158 13.0498 12.1224 13.6615 12.1224H22.8923C23.5041 12.1224 24 12.6158 24 13.2245V22.4082C24 23.0168 23.5041 23.5102 22.8923 23.5102H13.6615C13.0498 23.5102 12.5538 23.0168 12.5538 22.4082V13.2245Z" fill="#293858"/>
<path fill-rule="evenodd" clip-rule="evenodd" d="M0 13.2245C0 12.6158 0.495931 12.1224 1.10769 12.1224H10.3385C10.9502 12.1224 11.4462 12.6158 11.4462 13.2245V22.4082C11.4462 23.0168 10.9502 23.5102 10.3385 23.5102H1.10769C0.495931 23.5102 0 23.0168 0 22.4082V13.2245ZM1.10769 13.2245H10.3385V22.4082H1.10769V13.2245Z" fill="#293858"/>
</svg>
