<svg width="20" height="24" viewBox="0 0 20 24" fill="none" xmlns="http://www.w3.org/2000/svg">
<path d="M11.0954 6.51036C10.2576 6.13567 9.32727 6.06959 8.45009 6.32338C7.78128 6.51688 7.17429 6.8873 6.68099 7.39407C6.56668 6.93003 6.19208 6.55738 5.69914 6.55738H5.46119L5.46119 9.04275C5.46119 9.05407 5.46144 9.06535 5.46194 9.07656C5.46144 9.08665 5.46119 9.09681 5.46119 9.10704C5.46119 9.11211 5.46125 9.11718 5.46138 9.12224C5.45254 9.46507 5.74022 9.72806 6.06344 9.72806L6.07597 9.72792L6.08923 9.72806H8.27761V9.49277C8.27761 8.98497 7.8974 8.56498 7.40313 8.49596C7.77318 8.05244 8.25299 7.73516 8.78388 7.58156C9.38657 7.40719 10.0256 7.45217 10.6033 7.71055C11.0716 7.92001 11.4802 8.26108 11.7873 8.69848C11.9725 8.96241 12.3429 9.09875 12.6582 8.9022C12.9507 8.71984 13.0565 8.31664 12.8551 8.01443C12.4132 7.35101 11.8053 6.82788 11.0954 6.51036Z" fill="#293858"/>
<path d="M13.7376 11.7685C13.7649 11.4109 13.4314 11.1861 13.1366 11.1861L13.1265 11.1862L13.1237 11.1862L13.1218 11.1862L13.1108 11.1861H10.9224V11.4214C10.9224 11.8864 11.2412 12.2778 11.6744 12.3934C11.3274 12.7115 10.8977 12.9434 10.4239 13.0634C9.81463 13.2176 9.16844 13.1775 8.58618 12.9496C8.11478 12.7652 7.70757 12.4664 7.40367 12.0876C7.21145 11.848 6.85257 11.7433 6.55374 11.9063C6.2622 12.0653 6.12842 12.4476 6.35346 12.7432C6.79888 13.3282 7.40842 13.7856 8.11512 14.0622C8.94833 14.3883 9.87151 14.4454 10.7421 14.225C11.4164 14.0543 12.0311 13.7242 12.5301 13.2687C12.6606 13.676 13.0459 13.9711 13.5008 13.9711H13.7388V11.8071C13.7388 11.7942 13.7384 11.7813 13.7376 11.7685Z" fill="#293858"/>
<path fill-rule="evenodd" clip-rule="evenodd" d="M2.66486 0C1.19184 0 0 1.18705 0 2.64857V21.3514C0 21.4364 0.00403491 21.5205 0.0119357 21.6036C0.00404187 21.68 0 21.7576 0 21.8361C0 23.0195 0.924152 24 2.08979 24H17.1102C18.2759 24 19.2 23.0195 19.2 21.8361C19.2 21.7576 19.196 21.68 19.1881 21.6036C19.196 21.5205 19.2 21.4364 19.2 21.3514V2.64857C19.2 1.18705 18.0082 0 16.5351 0H2.66486ZM1.48711 2.64857C1.48711 1.9998 2.01566 1.47612 2.66486 1.47612H16.5351C17.1843 1.47612 17.7129 1.9998 17.7129 2.64857V19.7635C17.522 19.7041 17.3197 19.6721 17.1102 19.6721H2.08979C1.88032 19.6721 1.67795 19.7041 1.48711 19.7635V2.64857ZM2.33131 22.4763C1.93098 22.3588 1.61843 22.0345 1.51984 21.6273C1.60322 21.3698 1.83293 21.1959 2.08979 21.1959H17.1102C17.3671 21.1959 17.5968 21.3698 17.6802 21.6273C17.5816 22.0345 17.269 22.3588 16.8687 22.4763H2.33131Z" fill="#293858"/>
</svg>
