<svg width="24" height="24" viewBox="0 0 24 24" fill="none" xmlns="http://www.w3.org/2000/svg">
<path d="M2.68027 3.34706L2.90011 4.24962L3.54431 3.58032C4.97643 2.09239 6.73473 1.00869 8.66713 0.443268C11.2004 -0.297982 13.887 -0.10548 16.309 0.990021C18.3624 1.91882 20.1265 3.45183 21.4121 5.40348C21.8555 6.07644 21.6256 6.99175 20.971 7.40446C20.3025 7.82593 19.4732 7.56057 19.0303 6.92247C18.0522 5.51341 16.7464 4.40863 15.2426 3.7284C13.3861 2.88867 11.3291 2.74166 9.38924 3.30926C7.6816 3.80892 6.1456 4.83891 4.96526 6.26961L4.38517 6.97273L5.28774 7.1002C6.53334 7.2761 7.49173 8.34741 7.49173 9.64172V9.85036H1.39041L1.3475 9.84992L1.3072 9.85035C0.599708 9.84895 -0.0184803 9.26382 0.000422445 8.52206L0.000741906 8.50938L0.000438029 8.4967C0.000243235 8.48856 0.000110776 8.48041 5.62334e-05 8.47223L2.50664e-05 8.46259C2.50664e-05 8.43969 0.000586072 8.41692 0.0016925 8.39428L0.00284568 8.37064L0.00180158 8.34697C0.00062503 8.32015 2.50664e-05 8.29318 2.50664e-05 8.26607V1.17913H0.208625C1.40701 1.17913 2.37598 2.09784 2.68027 3.34706Z" fill="#293858"/>
<path d="M23.9989 16.7165V22.8209H23.7903C22.644 22.8209 21.672 22.0691 21.3429 21.0303L21.1002 20.2643L20.5098 20.8093C19.0644 22.1434 17.2822 23.1119 15.325 23.613C12.7974 24.2601 10.1171 24.0923 7.69916 23.1353C5.6486 22.3237 3.88298 20.9826 2.59434 19.2709C2.1338 18.6592 2.37905 17.8305 3.03841 17.4668C3.69522 17.1044 4.51383 17.3278 4.96073 17.8912C5.93604 19.1206 7.24058 20.0876 8.74716 20.6839C10.6076 21.4202 12.6709 21.5495 14.6165 21.0514C16.1298 20.664 17.5047 19.9143 18.6169 18.8833L19.2933 18.2563L18.4029 18.0158C17.3104 17.7208 16.5072 16.7223 16.5072 15.5374V15.3288H22.6112L22.635 15.329L22.6401 15.329L22.6407 15.3291L22.6523 15.3293L22.6673 15.3289L22.6892 15.3287H22.6908C23.014 15.3292 23.3683 15.4571 23.6268 15.683C23.8759 15.9005 24.0243 16.1952 23.9967 16.5598L23.9941 16.5948L23.9962 16.6298C23.998 16.6586 23.9989 16.6875 23.9989 16.7165Z" fill="#293858"/>
</svg>
