<svg width="26" height="26" viewBox="0 0 26 26" fill="none" xmlns="http://www.w3.org/2000/svg">
<path fill-rule="evenodd" clip-rule="evenodd" d="M3.39185 13.1015C3.39185 7.87765 7.62661 3.64288 12.8505 3.64288C18.0743 3.64288 22.3091 7.87765 22.3091 13.1015V14.8881C22.3091 16.8711 21.5431 18.7773 20.1711 20.209L19.4261 20.9864C18.7621 21.6793 17.8919 22.1389 16.9453 22.2966C16.7036 22.3369 16.459 22.3572 16.2139 22.3572H9.48701C9.24195 22.3572 8.99731 22.3369 8.75559 22.2966C7.80901 22.1389 6.93882 21.6793 6.27485 20.9864L5.5298 20.209C4.1578 18.7774 3.39185 16.8711 3.39185 14.8881V13.1015ZM12.8505 0.642883C5.96975 0.642883 0.391846 6.22079 0.391846 13.1015V14.8881C0.391846 17.6446 1.45661 20.2946 3.36383 22.2847L4.10888 23.0622C5.22057 24.2222 6.67754 24.9917 8.26239 25.2558C8.66711 25.3233 9.07671 25.3572 9.48701 25.3572H16.2139C16.6242 25.3572 17.0338 25.3233 17.4385 25.2558C19.0234 24.9917 20.4803 24.2222 21.592 23.0622L22.3371 22.2847C24.2443 20.2946 25.3091 17.6446 25.3091 14.8881V13.1015C25.3091 6.2208 19.7312 0.642883 12.8505 0.642883ZM7.82783 11.4805C8.10667 11.6761 8.44065 11.7739 8.82976 11.7739C9.21888 11.7739 9.55207 11.6761 9.82933 11.4805C10.1082 11.285 10.3216 11.0018 10.4697 10.631C10.6194 10.2587 10.6942 9.80964 10.6942 9.28397C10.6942 8.76142 10.6194 8.31554 10.4697 7.94631C10.3216 7.57709 10.1082 7.29548 9.82933 7.10148C9.55049 6.90748 9.2173 6.81048 8.82976 6.81048C8.44222 6.81048 8.10904 6.90748 7.8302 7.10148C7.55293 7.29548 7.33947 7.57709 7.18981 7.94631C7.04173 8.31397 6.9669 8.75986 6.96532 9.28397C6.96532 9.80808 7.03936 10.2563 7.18745 10.6287C7.33711 10.9994 7.55057 11.2834 7.82783 11.4805ZM9.54577 10.5958C9.3709 10.8915 9.13223 11.0393 8.82976 11.0393C8.62812 11.0393 8.45404 10.9736 8.30753 10.8422C8.16102 10.7092 8.0476 10.5121 7.96725 10.2508C7.88848 9.98956 7.84989 9.66727 7.85146 9.28397C7.85304 8.71136 7.94126 8.27721 8.11612 7.98151C8.29099 7.68426 8.52887 7.53563 8.82976 7.53563C9.02984 7.53563 9.20313 7.60212 9.34964 7.7351C9.49614 7.86652 9.60957 8.06209 9.68991 8.32179C9.77026 8.5815 9.81043 8.90223 9.81043 9.28397C9.81043 9.86127 9.72221 10.2985 9.54577 10.5958ZM13.4477 7.5219C13.4477 7.16529 13.1587 6.87619 12.802 6.87619C12.679 6.87619 12.5585 6.91136 12.4547 6.97755L11.5666 7.54418C11.4695 7.6061 11.4108 7.71326 11.4108 7.82838C11.4108 8.09418 11.7041 8.25543 11.9285 8.11303L12.5373 7.72679C12.5408 7.72456 12.5449 7.72337 12.5491 7.72337C12.5612 7.72337 12.5711 7.73321 12.5711 7.74534V11.244C12.5711 11.4861 12.7673 11.6824 13.0094 11.6824C13.2515 11.6824 13.4477 11.4861 13.4477 11.244V7.5219ZM16.4654 11.7739C16.0762 11.7739 15.7423 11.6761 15.4634 11.4805C15.1862 11.2834 14.9727 10.9994 14.823 10.6287C14.675 10.2563 14.6009 9.80808 14.6009 9.28397C14.6025 8.75986 14.6773 8.31397 14.8254 7.94631C14.9751 7.57709 15.1885 7.29548 15.4658 7.10148C15.7446 6.90748 16.0778 6.81048 16.4654 6.81048C16.8529 6.81048 17.1861 6.90748 17.4649 7.10148C17.7438 7.29548 17.9572 7.57709 18.1053 7.94631C18.255 8.31554 18.3298 8.76142 18.3298 9.28397C18.3298 9.80964 18.255 10.2587 18.1053 10.631C17.9572 11.0018 17.7438 11.285 17.4649 11.4805C17.1877 11.6761 16.8545 11.7739 16.4654 11.7739ZM16.4654 11.0393C16.7678 11.0393 17.0065 10.8915 17.1814 10.5958C17.3578 10.2985 17.446 9.86127 17.446 9.28397C17.446 8.90223 17.4059 8.5815 17.3255 8.32179C17.2452 8.06209 17.1317 7.86652 16.9852 7.7351C16.8387 7.60212 16.6654 7.53563 16.4654 7.53563C16.1645 7.53563 15.9266 7.68426 15.7517 7.98151C15.5769 8.27721 15.4886 8.71136 15.4871 9.28397C15.4855 9.66727 15.5241 9.98956 15.6028 10.2508C15.6832 10.5121 15.7966 10.7092 15.9431 10.8422C16.0896 10.9736 16.2637 11.0393 16.4654 11.0393ZM9.82111 15.5465C9.82111 15.1899 9.53201 14.9008 9.17539 14.9008C9.05233 14.9008 8.93183 14.9359 8.82809 15.0021L7.93995 15.5688C7.8429 15.6307 7.78416 15.7378 7.78416 15.853C7.78416 16.1188 8.07742 16.28 8.30186 16.1376L8.91067 15.7514C8.91419 15.7491 8.91827 15.748 8.92244 15.748C8.93458 15.748 8.94441 15.7578 8.94441 15.7699V19.2686C8.94441 19.5107 9.14067 19.7069 9.38276 19.7069C9.62485 19.7069 9.82111 19.5107 9.82111 19.2686V15.5465ZM12.8387 19.7985C12.4496 19.7985 12.1156 19.7007 11.8368 19.5051C11.5595 19.308 11.3461 19.024 11.1964 18.6532C11.0483 18.2809 10.9743 17.8327 10.9743 17.3085C10.9758 16.7844 11.0507 16.3386 11.1988 15.9709C11.3484 15.6017 11.5619 15.3201 11.8391 15.1261C12.118 14.9321 12.4512 14.8351 12.8387 14.8351C13.2263 14.8351 13.5594 14.9321 13.8383 15.1261C14.1171 15.3201 14.3306 15.6017 14.4787 15.9709C14.6283 16.3401 14.7032 16.786 14.7032 17.3085C14.7032 17.8342 14.6283 18.2832 14.4787 18.6556C14.3306 19.0264 14.1171 19.3096 13.8383 19.5051C13.561 19.7007 13.2278 19.7985 12.8387 19.7985ZM12.8387 19.0639C13.1412 19.0639 13.3799 18.9161 13.5547 18.6204C13.7312 18.3231 13.8194 17.8859 13.8194 17.3085C13.8194 16.9268 13.7792 16.6061 13.6989 16.3464C13.6185 16.0867 13.5051 15.8911 13.3586 15.7597C13.2121 15.6267 13.0388 15.5602 12.8387 15.5602C12.5378 15.5602 12.2999 15.7088 12.1251 16.0061C11.9502 16.3018 11.862 16.7359 11.8604 17.3085C11.8588 17.6919 11.8974 18.0141 11.9762 18.2754C12.0565 18.5367 12.17 18.7338 12.3165 18.8668C12.463 18.9982 12.6371 19.0639 12.8387 19.0639ZM17.4567 15.5465C17.4567 15.1899 17.1676 14.9008 16.811 14.9008C16.6879 14.9008 16.5674 14.9359 16.4637 15.0021L15.5755 15.5688C15.4785 15.6307 15.4198 15.7378 15.4198 15.853C15.4198 16.1188 15.713 16.28 15.9375 16.1376L16.5463 15.7514C16.5498 15.7491 16.5539 15.748 16.558 15.748C16.5702 15.748 16.58 15.7578 16.58 15.7699V19.2686C16.58 19.5107 16.7763 19.7069 17.0184 19.7069C17.2604 19.7069 17.4567 19.5107 17.4567 19.2686V15.5465Z" fill="#293858"/>
</svg>
