<svg width="24" height="24" viewBox="0 0 24 24" fill="none" xmlns="http://www.w3.org/2000/svg">
<path d="M12.7164 12.5455C12.7164 12.1477 12.6597 11.8117 12.5464 11.5372C12.435 11.2628 12.2739 11.055 12.0631 10.9138C11.8543 10.7726 11.6028 10.702 11.3084 10.702C11.0161 10.702 10.7646 10.7726 10.5538 10.9138C10.343 11.055 10.1809 11.2628 10.0675 11.5372C9.95618 11.8117 9.90049 12.1477 9.90049 12.5455C9.90049 12.9432 9.95618 13.2793 10.0675 13.5537C10.1809 13.8281 10.343 14.0359 10.5538 14.1771C10.7646 14.3183 11.0161 14.3889 11.3084 14.3889C11.6028 14.3889 11.8543 14.3183 12.0631 14.1771C12.2739 14.0359 12.435 13.8281 12.5464 13.5537C12.6597 13.2793 12.7164 12.9432 12.7164 12.5455Z" fill="#293858"/>
<path fill-rule="evenodd" clip-rule="evenodd" d="M3.62264 0C1.62191 0 0 1.62191 0 3.62264V20.3774C0 22.3781 1.62191 24 3.62264 24H20.3774C22.3781 24 24 22.3781 24 20.3774V3.62264C24 1.62191 22.3781 0 20.3774 0H3.62264ZM14.2258 12.5455C14.2258 13.2176 14.0965 13.7874 13.838 14.2547C13.5795 14.722 13.2295 15.077 12.788 15.3196C12.3485 15.5622 11.8553 15.6835 11.3084 15.6835C10.7596 15.6835 10.2654 15.5612 9.82592 15.3166C9.38643 15.072 9.03743 14.7171 8.7789 14.2517C8.52237 13.7844 8.3941 13.2156 8.3941 12.5455C8.3941 11.8733 8.52237 11.3036 8.7789 10.8362C9.03743 10.3689 9.38643 10.0139 9.82592 9.77131C10.2654 9.5287 10.7596 9.40739 11.3084 9.40739C11.8553 9.40739 12.3485 9.5287 12.788 9.77131C13.2295 10.0139 13.5795 10.3689 13.838 10.8362C14.0965 11.3036 14.2258 11.8733 14.2258 12.5455ZM4.82086 15.6C4.32067 15.6 3.9152 15.1945 3.9152 14.6943V10.2292C3.9152 9.82146 4.24574 9.49092 4.65348 9.49092C5.06122 9.49092 5.39176 9.82146 5.39176 10.2292V13.4952C5.39176 13.9954 5.79724 14.4009 6.29742 14.4009H7.33366C7.6648 14.4009 7.93324 14.6693 7.93324 15.0004C7.93324 15.3316 7.6648 15.6 7.33366 15.6H4.82086ZM18.9478 11.1554C19.0698 11.3328 19.2465 11.4865 19.4618 11.4865H19.7032C20.176 11.4865 20.5536 11.0576 20.317 10.6483C20.1698 10.3938 19.9779 10.174 19.7413 9.98907C19.5066 9.80413 19.2361 9.66094 18.9299 9.55952C18.6256 9.4581 18.2965 9.40739 17.9425 9.40739C17.5349 9.40739 17.154 9.477 16.8001 9.6162C16.4481 9.7554 16.1379 9.96023 15.8694 10.2307C15.6029 10.5011 15.3951 10.8313 15.2459 11.221C15.0968 11.6088 15.0222 12.0533 15.0222 12.5544C15.0222 13.1987 15.1455 13.7555 15.3921 14.2249C15.6387 14.6922 15.9827 15.0521 16.4242 15.3047C16.8657 15.5573 17.3778 15.6835 17.9604 15.6835C18.4854 15.6835 18.9498 15.5791 19.3535 15.3703C19.7592 15.1615 20.0773 14.8622 20.308 14.4725C20.5407 14.0827 20.657 13.6144 20.657 13.0675C20.657 12.621 20.2951 12.2591 19.8486 12.2591H18.5615C18.2641 12.2591 18.0231 12.5002 18.0231 12.7975C18.0231 13.0949 18.2641 13.3359 18.5615 13.3359H19.4503C19.3302 13.3505 19.2331 13.4535 19.2059 13.5775C19.1819 13.687 19.1426 13.7875 19.088 13.8788C18.9906 14.0419 18.8474 14.1682 18.6584 14.2577C18.4715 14.3452 18.2428 14.3889 17.9724 14.3889C17.6661 14.3889 17.4056 14.3163 17.1908 14.1712C16.9761 14.026 16.812 13.8152 16.6986 13.5388C16.5853 13.2624 16.5286 12.9283 16.5286 12.5365C16.5286 12.1467 16.5873 11.8156 16.7046 11.5432C16.8219 11.2688 16.988 11.0599 17.2028 10.9168C17.4195 10.7736 17.6761 10.702 17.9724 10.702C18.1195 10.702 18.2548 10.7199 18.3781 10.7557C18.5013 10.7895 18.6107 10.8402 18.7062 10.9078C18.8016 10.9754 18.8822 11.058 18.9478 11.1554Z" fill="#293858"/>
</svg>
