<svg width="22" height="24" viewBox="0 0 22 24" fill="none" xmlns="http://www.w3.org/2000/svg">
<path d="M7.19348 2.41575L6.89619 0.544225C6.86429 0.343438 6.99874 0.154415 7.19649 0.12203L7.91259 0.00475366C8.11034 -0.0276313 8.2965 0.108886 8.3284 0.309673L8.62569 2.1812C8.7986 3.26976 9.1556 4.31148 9.674 5.2633C9.84431 5.57599 10.2746 5.44287 10.2746 5.08554V2.45705C10.2746 2.25367 10.437 2.0888 10.6373 2.0888H11.3627C11.563 2.0888 11.7254 2.25367 11.7254 2.45705V5.08554C11.7254 5.44287 12.1557 5.57599 12.326 5.26329C12.8444 4.31148 13.2014 3.26976 13.3743 2.1812L13.6716 0.309673C13.7035 0.108886 13.8897 -0.0276313 14.0874 0.00475365L14.8035 0.12203C15.0013 0.154415 15.1357 0.343438 15.1038 0.544225L14.8065 2.41575C14.4484 4.67017 13.4068 6.75071 11.8327 8.37061C11.7645 8.4408 11.7254 8.5351 11.7254 8.63371V12.177C11.7254 12.4711 12.0482 12.6465 12.2892 12.4834L15.8154 10.0964C15.8641 10.0634 15.9043 10.019 15.9324 9.96687L19.8006 2.79455C19.8968 2.61616 20.1172 2.55074 20.2929 2.64843L20.9291 3.00219C21.1048 3.09987 21.1692 3.32368 21.073 3.50206L18.3508 8.54949C18.195 8.83835 18.4625 9.17373 18.7731 9.07909L21.3246 8.30189C21.5164 8.24345 21.7186 8.35399 21.7762 8.5488L21.9846 9.25425C22.0422 9.44905 21.9333 9.65435 21.7414 9.71279L16.8043 11.2167C16.7699 11.2272 16.7372 11.2428 16.7073 11.263L11.8869 14.5261C11.786 14.5944 11.7254 14.7094 11.7254 14.8325V23.6317C11.7254 23.8351 11.563 24 11.3627 24H10.6373C10.437 24 10.2746 23.8351 10.2746 23.6317V14.8325C10.2746 14.7094 10.214 14.5944 10.1131 14.5261L5.29267 11.263C5.26279 11.2428 5.23011 11.2272 5.19571 11.2167L0.25856 9.71279C0.066705 9.65435 -0.0421654 9.44905 0.015391 9.25425L0.223822 8.5488C0.281378 8.35399 0.483566 8.24345 0.675421 8.30189L3.22687 9.07909C3.53755 9.17373 3.80499 8.83835 3.64919 8.54949L0.926976 3.50206C0.830768 3.32368 0.895196 3.09987 1.07088 3.00219L1.70709 2.64843C1.88278 2.55074 2.10319 2.61616 2.1994 2.79455L6.06763 9.96687C6.09574 10.019 6.13586 10.0634 6.18456 10.0964L9.71078 12.4834C9.9518 12.6465 10.2746 12.4711 10.2746 12.177V8.63371C10.2746 8.5351 10.2355 8.4408 10.1673 8.37061C8.5932 6.75071 7.55159 4.67017 7.19348 2.41575Z" fill="#293858"/>
</svg>
