<svg width="15" height="25" viewBox="0 0 15 25" fill="none" xmlns="http://www.w3.org/2000/svg">
<path fill-rule="evenodd" clip-rule="evenodd" d="M6.99333 0C3.13102 0 0 3.39289 0 7.57823C0 9.21793 0.490778 10.8134 1.39867 12.1252L2.13894 13.1948C2.78847 14.1332 3.27394 15.1926 3.57134 16.3206L4.08846 18.2819C4.22704 18.8075 4.73257 19.1118 5.21759 18.9617C5.70261 18.8115 5.98346 18.2637 5.84488 17.7381L5.32775 15.7768C4.9691 14.4165 4.38363 13.1388 3.6003 12.0071L2.86003 10.9375C2.18929 9.96836 1.8267 8.78963 1.8267 7.57823C1.8267 4.48613 4.13988 1.97948 6.99333 1.97948H8.00667C10.8601 1.97948 13.1733 4.48613 13.1733 7.57823C13.1733 8.78963 12.8107 9.96836 12.14 10.9375L11.3997 12.0071C10.6164 13.1388 10.0309 14.4165 9.67225 15.7768L9.15512 17.7381C9.01654 18.2637 9.29739 18.8115 9.78241 18.9617C10.2674 19.1118 10.773 18.8075 10.9115 18.2819L11.4287 16.3206C11.7261 15.1926 12.2115 14.1332 12.8611 13.1948L13.6013 12.1252C14.5092 10.8134 15 9.21793 15 7.57823C15 3.39289 11.869 0 8.00667 0H6.99333ZM4.01917 21.5421C3.92819 21.2699 4.17246 21 4.50991 21H10.4901C10.8275 21 11.0718 21.2699 10.9808 21.5421L10.576 23.0102C10.1829 24.1867 8.90307 25 7.44499 25C5.98691 25 4.70712 24.1867 4.31398 23.0102L4.01917 21.5421Z" fill="#293858"/>
</svg>
