<svg width="19" height="24" viewBox="0 0 19 24" fill="none" xmlns="http://www.w3.org/2000/svg">
<path fill-rule="evenodd" clip-rule="evenodd" d="M14.8048 1.79284H1.79284V19.2407H8.73828C8.73805 19.2248 8.73794 19.2089 8.73794 19.193C8.73794 17.3462 10.2998 15.8491 12.2264 15.8491C13.2479 15.8491 14.1668 16.2699 14.8048 16.9406V1.79284ZM16.153 20.031C16.4112 19.7276 16.5976 19.426 16.5976 19.2407V1.79284C16.5976 1.30286 15.2948 0 14.8048 0H1.79284C1.30286 0 0 1.30286 0 1.79284V19.2407C0 19.7306 1.30286 21.0335 1.79284 21.0335H7.25682L6.33962 21.91L7.94967 22.328V24L10.3758 22.0282C10.9122 22.3506 11.5466 22.537 12.2264 22.537C12.9103 22.537 13.5482 22.3484 14.0866 22.0224L16.5199 24V22.328L18.1132 21.91L16.153 20.031ZM13.6219 5.24721H2.97574V3.7501H13.6219V5.24721ZM2.97574 9.61302H13.6219V8.1159H2.97574V9.61302ZM2.97574 13.9788H13.6219V12.4817H2.97574V13.9788Z" fill="#293858"/>
</svg>
