<svg width="24" height="20" viewBox="0 0 24 20" fill="none" xmlns="http://www.w3.org/2000/svg">
<path fill-rule="evenodd" clip-rule="evenodd" d="M15.7895 9.47368C18.4056 9.47368 20.5263 7.35293 20.5263 4.73684C20.5263 2.12076 18.4056 0 15.7895 0C13.1734 0 11.0526 2.12076 11.0526 4.73684C11.0526 7.35293 13.1734 9.47368 15.7895 9.47368ZM0.947368 2.21053C1.47059 2.21053 1.89474 2.63468 1.89474 3.15789V16.4211C1.89474 16.9443 2.31889 17.3684 2.84211 17.3684H21.1579C21.6811 17.3684 22.1053 16.9443 22.1053 16.4211V3.15789C22.1053 2.63468 22.5294 2.21053 23.0526 2.21053C23.5758 2.21053 24 2.63468 24 3.15789V16.4211C24 17.9907 22.7275 19.2632 21.1579 19.2632H2.84211C1.27245 19.2632 0 17.9907 0 16.4211V3.15789C0 2.63468 0.424151 2.21053 0.947368 2.21053ZM12.3158 11.0526C12.3158 13.6687 10.195 15.7895 7.57895 15.7895C4.96286 15.7895 2.84211 13.6687 2.84211 11.0526C2.84211 8.43655 4.96286 6.31579 7.57895 6.31579C10.195 6.31579 12.3158 8.43655 12.3158 11.0526Z" fill="#293856"/>
</svg>
