<svg width="19" height="24" viewBox="0 0 19 24" fill="none" xmlns="http://www.w3.org/2000/svg">
<path fill-rule="evenodd" clip-rule="evenodd" d="M2.04569 2.04569H16.8928V21.9543H2.04569V2.04569ZM0 2.04569C0 1.48662 1.48662 0 2.04569 0H16.8928C17.4519 0 18.9385 1.48662 18.9385 2.04569V21.9543C18.9385 22.5134 17.4519 24 16.8928 24H2.04569C1.48662 24 0 22.5134 0 21.9543V2.04569ZM3.39543 7.1283H15.5431V5.42004H3.39543V7.1283ZM3.39543 15.2267H15.5431V13.5185H3.39543V15.2267ZM15.5431 9.82777H3.39543V8.11951H15.5431V9.82777ZM3.39543 17.9262H11.4938V16.2179H3.39543V17.9262ZM15.5431 12.5272H3.39543V10.819H15.5431V12.5272Z" fill="#293858"/>
</svg>
