<svg width="26" height="24" viewBox="0 0 26 24" fill="none" xmlns="http://www.w3.org/2000/svg">
<path fill-rule="evenodd" clip-rule="evenodd" d="M17.8946 0.499939C13.6943 0.499939 10.2893 3.90495 10.2893 8.10524C10.2893 12.3055 13.6943 15.7105 17.8946 15.7105C22.0949 15.7105 25.4999 12.3055 25.4999 8.10524C25.4999 3.90495 22.0949 0.499939 17.8946 0.499939ZM11.8692 8.10524C11.8692 4.77749 14.5669 2.07981 17.8946 2.07981C21.2224 2.07981 23.92 4.77749 23.92 8.10524C23.92 11.433 21.2224 14.1307 17.8946 14.1307C14.5669 14.1307 11.8692 11.433 11.8692 8.10524Z" fill="#293858"/>
<path fill-rule="evenodd" clip-rule="evenodd" d="M9.79088 8.26647C9.24838 8.14368 8.68418 8.07892 8.1053 8.07892C3.90501 8.07892 0.5 11.4839 0.5 15.6842C0.5 19.8845 3.90501 23.2895 8.1053 23.2895C12.2294 23.2895 15.5868 20.0069 15.7073 15.912C15.1508 15.7564 14.6185 15.5429 14.1173 15.2784C14.1262 15.4125 14.1307 15.5478 14.1307 15.6842C14.1307 19.012 11.4331 21.7096 8.1053 21.7096C4.77755 21.7096 2.07987 19.012 2.07987 15.6842C2.07987 12.3565 4.77755 9.65879 8.1053 9.65879C8.76913 9.65879 9.4071 9.76596 10.0034 9.96369C9.87516 9.41718 9.80225 8.84937 9.79088 8.26647ZM14.0475 14.6672C14.5641 14.9707 15.1197 15.215 15.705 15.3906C15.6998 15.2526 15.6909 15.1155 15.6783 14.9794L15.6499 14.6701L15.36 14.5585C15.1642 14.4832 14.9727 14.3993 14.786 14.3075L13.9368 13.8895L14.0475 14.6672ZM10.2949 8.39897C10.4248 8.43797 10.5533 8.48036 10.6802 8.52602L10.9763 8.63254L11.0084 8.94554C11.0296 9.15315 11.0605 9.35792 11.1005 9.55944L11.283 10.4783L10.5771 10.1846C10.4152 9.6139 10.3183 9.01584 10.2949 8.39897Z" fill="#293858"/>
<path fill-rule="evenodd" clip-rule="evenodd" d="M18.4852 16.8733C18.6103 16.9916 18.6181 17.1914 18.5026 17.3195L17.9132 18.0527H21.2178C21.3881 18.0527 21.5262 18.1941 21.5262 18.3685C21.5262 18.5429 21.3881 18.6843 21.2178 18.6843H17.9132L18.5026 19.4175C18.6181 19.5457 18.6103 19.7454 18.4852 19.8637C18.36 19.982 18.1649 19.974 18.0494 19.8458L16.7893 18.3685L18.0494 16.8912C18.1649 16.763 18.36 16.755 18.4852 16.8733Z" fill="#293858"/>
<path fill-rule="evenodd" clip-rule="evenodd" d="M20.4619 22.6974C20.3367 22.5673 20.3289 22.3476 20.4444 22.2066L21.0339 21.4001L17.7292 21.4001C17.5589 21.4001 17.4208 21.2445 17.4208 21.0527C17.4208 20.8609 17.5589 20.7053 17.7292 20.7053L21.0339 20.7053L20.4444 19.8988C20.3289 19.7578 20.3367 19.5381 20.4619 19.4079C20.587 19.2778 20.7821 19.2866 20.8976 19.4276L22.1577 21.0527L20.8976 22.6778C20.7821 22.8188 20.587 22.8276 20.4619 22.6974Z" fill="#293858"/>
<path d="M19.8166 4.84235C20.1154 4.84235 20.3577 4.60076 20.3577 4.30274C20.3577 4.00472 20.1154 3.76312 19.8166 3.76312C19.5179 3.76312 19.2756 4.00472 19.2756 4.30274C19.2756 4.60076 19.5179 4.84235 19.8166 4.84235Z" fill="#293858"/>
<path d="M20.4253 12.4645C20.7241 12.4645 20.9663 12.2229 20.9663 11.9249C20.9663 11.6268 20.7241 11.3853 20.4253 11.3853C20.1265 11.3853 19.8843 11.6268 19.8843 11.9249C19.8843 12.2229 20.1265 12.4645 20.4253 12.4645Z" fill="#293858"/>
<path d="M19.9714 6.19142C20.2222 6.19142 20.4255 5.98866 20.4255 5.73853C20.4255 5.48841 20.2222 5.28564 19.9714 5.28564C19.7206 5.28564 19.5173 5.48841 19.5173 5.73853C19.5173 5.98866 19.7206 6.19142 19.9714 6.19142Z" fill="#293858"/>
<path d="M21.1792 6.36483C21.4299 6.36483 21.6332 6.16206 21.6332 5.91194C21.6332 5.66181 21.4299 5.45905 21.1792 5.45905C20.9284 5.45905 20.7251 5.66181 20.7251 5.91194C20.7251 6.16206 20.9284 6.36483 21.1792 6.36483Z" fill="#293858"/>
<path d="M19.8169 7.33808C20.0303 7.33808 20.2033 7.16551 20.2033 6.95264C20.2033 6.73977 20.0303 6.5672 19.8169 6.5672C19.6034 6.5672 19.4304 6.73977 19.4304 6.95264C19.4304 7.16551 19.6034 7.33808 19.8169 7.33808Z" fill="#293858"/>
<path d="M21.0244 7.50196C21.2378 7.50196 21.4108 7.32939 21.4108 7.11652C21.4108 6.90365 21.2378 6.73108 21.0244 6.73108C20.811 6.73108 20.6379 6.90365 20.6379 7.11652C20.6379 7.32939 20.811 7.50196 21.0244 7.50196Z" fill="#293858"/>
<path d="M21.9904 7.87775C22.2039 7.87775 22.3769 7.70518 22.3769 7.49231C22.3769 7.27944 22.2039 7.10687 21.9904 7.10687C21.777 7.10687 21.604 7.27944 21.604 7.49231C21.604 7.70518 21.777 7.87775 21.9904 7.87775Z" fill="#293858"/>
<path d="M20.667 8.42696C20.8537 8.42696 21.0051 8.27596 21.0051 8.0897C21.0051 7.90344 20.8537 7.75244 20.667 7.75244C20.4802 7.75244 20.3289 7.90344 20.3289 8.0897C20.3289 8.27596 20.4802 8.42696 20.667 8.42696Z" fill="#293858"/>
<path d="M19.4595 8.26308C19.6462 8.26308 19.7976 8.11208 19.7976 7.92582C19.7976 7.73956 19.6462 7.58856 19.4595 7.58856C19.2727 7.58856 19.1213 7.73956 19.1213 7.92582C19.1213 8.11208 19.2727 8.26308 19.4595 8.26308Z" fill="#293858"/>
<path d="M21.6426 8.80269C21.8293 8.80269 21.9807 8.6517 21.9807 8.46543C21.9807 8.27917 21.8293 8.12817 21.6426 8.12817C21.4558 8.12817 21.3044 8.27917 21.3044 8.46543C21.3044 8.6517 21.4558 8.80269 21.6426 8.80269Z" fill="#293858"/>
<path d="M20.1839 9.13034C20.3439 9.13034 20.4737 9.00092 20.4737 8.84126C20.4737 8.68161 20.3439 8.55219 20.1839 8.55219C20.0238 8.55219 19.894 8.68161 19.894 8.84126C19.894 9.00092 20.0238 9.13034 20.1839 9.13034Z" fill="#293858"/>
<path d="M21.1597 9.49656C21.3198 9.49656 21.4495 9.36713 21.4495 9.20748C21.4495 9.04782 21.3198 8.9184 21.1597 8.9184C20.9996 8.9184 20.8699 9.04782 20.8699 9.20748C20.8699 9.36713 20.9996 9.49656 21.1597 9.49656Z" fill="#293858"/>
<path d="M18.9859 8.95682C19.1459 8.95682 19.2757 8.82739 19.2757 8.66774C19.2757 8.50809 19.1459 8.37866 18.9859 8.37866C18.8258 8.37866 18.696 8.50809 18.696 8.66774C18.696 8.82739 18.8258 8.95682 18.9859 8.95682Z" fill="#293858"/>
<path d="M19.6524 9.60259C19.7858 9.60259 19.8939 9.49473 19.8939 9.36169C19.8939 9.22864 19.7858 9.12079 19.6524 9.12079C19.519 9.12079 19.4109 9.22864 19.4109 9.36169C19.4109 9.49473 19.519 9.60259 19.6524 9.60259Z" fill="#293858"/>
<path d="M20.068 10.2674C20.1854 10.2674 20.2805 10.1725 20.2805 10.0554C20.2805 9.93836 20.1854 9.84344 20.068 9.84344C19.9506 9.84344 19.8555 9.93836 19.8555 10.0554C19.8555 10.1725 19.9506 10.2674 20.068 10.2674Z" fill="#293858"/>
<path d="M19.556 10.4024C19.652 10.4024 19.7299 10.3247 19.7299 10.2289C19.7299 10.1331 19.652 10.0555 19.556 10.0555C19.4599 10.0555 19.3821 10.1331 19.3821 10.2289C19.3821 10.3247 19.4599 10.4024 19.556 10.4024Z" fill="#293858"/>
<path d="M19.1019 9.90122C19.2193 9.90122 19.3145 9.8063 19.3145 9.68922C19.3145 9.57215 19.2193 9.47723 19.1019 9.47723C18.9846 9.47723 18.8894 9.57215 18.8894 9.68922C18.8894 9.8063 18.9846 9.90122 19.1019 9.90122Z" fill="#293858"/>
<path d="M18.4449 9.43877C18.5783 9.43877 18.6864 9.33091 18.6864 9.19787C18.6864 9.06482 18.5783 8.95697 18.4449 8.95697C18.3115 8.95697 18.2034 9.06482 18.2034 9.19787C18.2034 9.33091 18.3115 9.43877 18.4449 9.43877Z" fill="#293858"/>
<path d="M18.4351 7.62706C18.5685 7.62706 18.6766 7.51921 18.6766 7.38616C18.6766 7.25312 18.5685 7.14526 18.4351 7.14526C18.3017 7.14526 18.1936 7.25312 18.1936 7.38616C18.1936 7.51921 18.3017 7.62706 18.4351 7.62706Z" fill="#293858"/>
<path d="M18.5416 6.77915C18.659 6.77915 18.7542 6.68423 18.7542 6.56715C18.7542 6.45007 18.659 6.35516 18.5416 6.35516C18.4243 6.35516 18.3291 6.45007 18.3291 6.56715C18.3291 6.68423 18.4243 6.77915 18.5416 6.77915Z" fill="#293858"/>
<path d="M18.7735 6.08536C18.8695 6.08536 18.9474 6.00771 18.9474 5.91191C18.9474 5.81612 18.8695 5.73846 18.7735 5.73846C18.6775 5.73846 18.5996 5.81612 18.5996 5.91191C18.5996 6.00771 18.6775 6.08536 18.7735 6.08536Z" fill="#293858"/>
<path d="M18.3676 5.75778C18.485 5.75778 18.5801 5.66287 18.5801 5.54579C18.5801 5.42871 18.485 5.3338 18.3676 5.3338C18.2502 5.3338 18.155 5.42871 18.155 5.54579C18.155 5.66287 18.2502 5.75778 18.3676 5.75778Z" fill="#293858"/>
<path d="M20.6187 9.96862C20.7521 9.96862 20.8602 9.86076 20.8602 9.72772C20.8602 9.59467 20.7521 9.48682 20.6187 9.48682C20.4853 9.48682 20.3772 9.59467 20.3772 9.72772C20.3772 9.86076 20.4853 9.96862 20.6187 9.96862Z" fill="#293858"/>
<path d="M17.817 5.47832C17.9504 5.47832 18.0585 5.37047 18.0585 5.23742C18.0585 5.10438 17.9504 4.99652 17.817 4.99652C17.6836 4.99652 17.5754 5.10438 17.5754 5.23742C17.5754 5.37047 17.6836 5.47832 17.817 5.47832Z" fill="#293858"/>
<path d="M17.9813 6.4998C18.1147 6.4998 18.2228 6.39195 18.2228 6.2589C18.2228 6.12586 18.1147 6.01801 17.9813 6.01801C17.8479 6.01801 17.7397 6.12586 17.7397 6.2589C17.7397 6.39195 17.8479 6.4998 17.9813 6.4998Z" fill="#293858"/>
<path d="M17.7107 7.47293C17.8708 7.47293 18.0006 7.34351 18.0006 7.18385C18.0006 7.0242 17.8708 6.89478 17.7107 6.89478C17.5507 6.89478 17.4209 7.0242 17.4209 7.18385C17.4209 7.34351 17.5507 7.47293 17.7107 7.47293Z" fill="#293858"/>
<path d="M16.8315 7.47292C17.0183 7.47292 17.1697 7.32192 17.1697 7.13566C17.1697 6.9494 17.0183 6.7984 16.8315 6.7984C16.6448 6.7984 16.4934 6.9494 16.4934 7.13566C16.4934 7.32192 16.6448 7.47292 16.8315 7.47292Z" fill="#293858"/>
<path d="M15.8076 7.70429C16.021 7.70429 16.194 7.53172 16.194 7.31885C16.194 7.10598 16.021 6.93341 15.8076 6.93341C15.5942 6.93341 15.4211 7.10598 15.4211 7.31885C15.4211 7.53172 15.5942 7.70429 15.8076 7.70429Z" fill="#293858"/>
<path d="M14.687 8.25356C14.9377 8.25356 15.141 8.05079 15.141 7.80067C15.141 7.55054 14.9377 7.34778 14.687 7.34778C14.4362 7.34778 14.2329 7.55054 14.2329 7.80067C14.2329 8.05079 14.4362 8.25356 14.687 8.25356Z" fill="#293858"/>
<path d="M13.5276 9.17853C13.8264 9.17853 14.0686 8.93694 14.0686 8.63892C14.0686 8.3409 13.8264 8.0993 13.5276 8.0993C13.2288 8.0993 12.9866 8.3409 12.9866 8.63892C12.9866 8.93694 13.2288 9.17853 13.5276 9.17853Z" fill="#293858"/>
<path d="M14.2329 7.12612C14.4836 7.12612 14.6869 6.92335 14.6869 6.67323C14.6869 6.4231 14.4836 6.22034 14.2329 6.22034C13.9821 6.22034 13.7788 6.4231 13.7788 6.67323C13.7788 6.92335 13.9821 7.12612 14.2329 7.12612Z" fill="#293858"/>
<path d="M15.3535 6.57679C15.5669 6.57679 15.7399 6.40422 15.7399 6.19135C15.7399 5.97848 15.5669 5.80591 15.3535 5.80591C15.1401 5.80591 14.967 5.97848 14.967 6.19135C14.967 6.40422 15.1401 6.57679 15.3535 6.57679Z" fill="#293858"/>
<path d="M15.1892 5.55536C15.4026 5.55536 15.5756 5.3828 15.5756 5.16992C15.5756 4.95705 15.4026 4.78448 15.1892 4.78448C14.9757 4.78448 14.8027 4.95705 14.8027 5.16992C14.8027 5.3828 14.9757 5.55536 15.1892 5.55536Z" fill="#293858"/>
<path d="M16.2134 5.32412C16.4001 5.32412 16.5515 5.17312 16.5515 4.98686C16.5515 4.80059 16.4001 4.6496 16.2134 4.6496C16.0266 4.6496 15.8752 4.80059 15.8752 4.98686C15.8752 5.17312 16.0266 5.32412 16.2134 5.32412Z" fill="#293858"/>
<path d="M17.0923 5.32413C17.2524 5.32413 17.3821 5.19471 17.3821 5.03505C17.3821 4.8754 17.2524 4.74597 17.0923 4.74597C16.9322 4.74597 16.8025 4.8754 16.8025 5.03505C16.8025 5.19471 16.9322 5.32413 17.0923 5.32413Z" fill="#293858"/>
<path d="M17.2566 6.34549C17.4167 6.34549 17.5465 6.21607 17.5465 6.05641C17.5465 5.89676 17.4167 5.76733 17.2566 5.76733C17.0966 5.76733 16.9668 5.89676 16.9668 6.05641C16.9668 6.21607 17.0966 6.34549 17.2566 6.34549Z" fill="#293858"/>
<path d="M16.3774 6.35524C16.5642 6.35524 16.7156 6.20425 16.7156 6.01798C16.7156 5.83172 16.5642 5.68073 16.3774 5.68073C16.1907 5.68073 16.0393 5.83172 16.0393 6.01798C16.0393 6.20425 16.1907 6.35524 16.3774 6.35524Z" fill="#293858"/>
<path d="M15.421 8.91837C15.517 8.91837 15.5949 8.84071 15.5949 8.74492C15.5949 8.64913 15.517 8.57147 15.421 8.57147C15.3249 8.57147 15.2471 8.64913 15.2471 8.74492C15.2471 8.84071 15.3249 8.91837 15.421 8.91837Z" fill="#293858"/>
<path d="M16.1166 8.8317C16.234 8.8317 16.3291 8.73679 16.3291 8.61971C16.3291 8.50263 16.234 8.40771 16.1166 8.40771C15.9992 8.40771 15.9041 8.50263 15.9041 8.61971C15.9041 8.73679 15.9992 8.8317 16.1166 8.8317Z" fill="#293858"/>
<path d="M16.8799 8.54265C17.0133 8.54265 17.1215 8.4348 17.1215 8.30175C17.1215 8.16871 17.0133 8.06085 16.8799 8.06085C16.7466 8.06085 16.6384 8.16871 16.6384 8.30175C16.6384 8.4348 16.7466 8.54265 16.8799 8.54265Z" fill="#293858"/>
<path d="M17.0635 9.31345C17.2236 9.31345 17.3533 9.18403 17.3533 9.02437C17.3533 8.86472 17.2236 8.73529 17.0635 8.73529C16.9034 8.73529 16.7737 8.86472 16.7737 9.02437C16.7737 9.18403 16.9034 9.31345 17.0635 9.31345Z" fill="#293858"/>
<path d="M16.1361 9.49645C16.2694 9.49645 16.3776 9.38859 16.3776 9.25555C16.3776 9.1225 16.2694 9.01465 16.1361 9.01465C16.0027 9.01465 15.8945 9.1225 15.8945 9.25555C15.8945 9.38859 16.0027 9.49645 16.1361 9.49645Z" fill="#293858"/>
<path d="M15.3148 9.48685C15.4322 9.48685 15.5274 9.39194 15.5274 9.27486C15.5274 9.15778 15.4322 9.06287 15.3148 9.06287C15.1975 9.06287 15.1023 9.15778 15.1023 9.27486C15.1023 9.39194 15.1975 9.48685 15.3148 9.48685Z" fill="#293858"/>
<path d="M15.3245 10.1518C15.4579 10.1518 15.5661 10.0439 15.5661 9.91088C15.5661 9.77784 15.4579 9.66998 15.3245 9.66998C15.1911 9.66998 15.083 9.77784 15.083 9.91088C15.083 10.0439 15.1911 10.1518 15.3245 10.1518Z" fill="#293858"/>
<path d="M16.3098 10.277C16.4699 10.277 16.5997 10.1476 16.5997 9.98793C16.5997 9.82828 16.4699 9.69885 16.3098 9.69885C16.1498 9.69885 16.02 9.82828 16.02 9.98793C16.02 10.1476 16.1498 10.277 16.3098 10.277Z" fill="#293858"/>
<path d="M17.4597 10.1518C17.6465 10.1518 17.7978 10.0008 17.7978 9.81449C17.7978 9.62823 17.6465 9.47723 17.4597 9.47723C17.273 9.47723 17.1216 9.62823 17.1216 9.81449C17.1216 10.0008 17.273 10.1518 17.4597 10.1518Z" fill="#293858"/>
<path d="M18.1357 10.9901C18.3491 10.9901 18.5221 10.8175 18.5221 10.6046C18.5221 10.3917 18.3491 10.2192 18.1357 10.2192C17.9223 10.2192 17.7493 10.3917 17.7493 10.6046C17.7493 10.8175 17.9223 10.9901 18.1357 10.9901Z" fill="#293858"/>
<path d="M16.7156 11.1057C16.9023 11.1057 17.0537 10.9547 17.0537 10.7685C17.0537 10.5822 16.9023 10.4312 16.7156 10.4312C16.5288 10.4312 16.3774 10.5822 16.3774 10.7685C16.3774 10.9547 16.5288 11.1057 16.7156 11.1057Z" fill="#293858"/>
<path d="M15.9138 11.7609C16.1006 11.7609 16.2519 11.6099 16.2519 11.4237C16.2519 11.2374 16.1006 11.0864 15.9138 11.0864C15.7271 11.0864 15.5757 11.2374 15.5757 11.4237C15.5757 11.6099 15.7271 11.7609 15.9138 11.7609Z" fill="#293858"/>
<path d="M16.5803 12.609C16.7937 12.609 16.9667 12.4364 16.9667 12.2235C16.9667 12.0106 16.7937 11.8381 16.5803 11.8381C16.3669 11.8381 16.1938 12.0106 16.1938 12.2235C16.1938 12.4364 16.3669 12.609 16.5803 12.609Z" fill="#293858"/>
<path d="M18.3581 12.7631C18.6089 12.7631 18.8122 12.5604 18.8122 12.3103C18.8122 12.0601 18.6089 11.8574 18.3581 11.8574C18.1073 11.8574 17.9041 12.0601 17.9041 12.3103C17.9041 12.5604 18.1073 12.7631 18.3581 12.7631Z" fill="#293858"/>
<path d="M17.3823 11.9536C17.5957 11.9536 17.7687 11.781 17.7687 11.5682C17.7687 11.3553 17.5957 11.1827 17.3823 11.1827C17.1689 11.1827 16.9958 11.3553 16.9958 11.5682C16.9958 11.781 17.1689 11.9536 17.3823 11.9536Z" fill="#293858"/>
<path d="M19.102 11.7996C19.3528 11.7996 19.5561 11.5968 19.5561 11.3467C19.5561 11.0966 19.3528 10.8938 19.102 10.8938C18.8512 10.8938 18.6479 11.0966 18.6479 11.3467C18.6479 11.5968 18.8512 11.7996 19.102 11.7996Z" fill="#293858"/>
<path d="M15.5081 10.9323C15.6682 10.9323 15.7979 10.8029 15.7979 10.6433C15.7979 10.4836 15.6682 10.3542 15.5081 10.3542C15.348 10.3542 15.2183 10.4836 15.2183 10.6433C15.2183 10.8029 15.348 10.9323 15.5081 10.9323Z" fill="#293858"/>
</svg>
