<svg width="24" height="24" viewBox="0 0 24 24" fill="none" xmlns="http://www.w3.org/2000/svg">
<path fill-rule="evenodd" clip-rule="evenodd" d="M14.4 2.4C14.4 3.72548 13.3255 4.8 12 4.8C10.6745 4.8 9.6 3.72548 9.6 2.4C9.6 1.07452 10.6745 0 12 0C13.3255 0 14.4 1.07452 14.4 2.4ZM3.61727 3.61684C2.68001 4.5541 2.68001 6.07369 3.61727 7.01095C4.55453 7.94821 6.07412 7.94821 7.01138 7.01095C7.94864 6.07369 7.94864 4.5541 7.01138 3.61684C6.07412 2.67958 4.55453 2.67958 3.61727 3.61684ZM16.8 12C16.8 14.651 14.651 16.8 12 16.8C9.34903 16.8 7.2 14.651 7.2 12C7.2 9.34903 9.34903 7.2 12 7.2C14.651 7.2 16.8 9.34903 16.8 12ZM14.4 21.6C14.4 22.9255 13.3255 24 12 24C10.6745 24 9.6 22.9255 9.6 21.6C9.6 20.2745 10.6745 19.2 12 19.2C13.3255 19.2 14.4 20.2745 14.4 21.6ZM0 12C0 13.3255 1.07452 14.4 2.4 14.4C3.72548 14.4 4.8 13.3255 4.8 12C4.8 10.6745 3.72548 9.6 2.4 9.6C1.07452 9.6 0 10.6745 0 12ZM7.01127 20.4853C6.07402 21.4225 4.55442 21.4225 3.61716 20.4853C2.6799 19.548 2.6799 18.0284 3.61716 17.0912C4.55442 16.1539 6.07402 16.1539 7.01127 17.0912C7.94853 18.0284 7.94853 19.548 7.01127 20.4853ZM19.2 12C19.2 13.3255 20.2745 14.4 21.6 14.4C22.9255 14.4 24 13.3255 24 12C24 10.6745 22.9255 9.6 21.6 9.6C20.2745 9.6 19.2 10.6745 19.2 12ZM20.5882 6.90883C19.6509 7.84609 18.1313 7.84609 17.194 6.90883C16.2568 5.97158 16.2568 4.45198 17.194 3.51472C18.1313 2.57746 19.6509 2.57746 20.5882 3.51472C21.5254 4.45198 21.5254 5.97158 20.5882 6.90883ZM17.1937 17.1937C16.2564 18.131 16.2564 19.6506 17.1937 20.5878C18.1309 21.5251 19.6505 21.5251 20.5878 20.5878C21.525 19.6506 21.525 18.131 20.5878 17.1937C19.6505 16.2565 18.1309 16.2565 17.1937 17.1937Z" fill="#293856"/>
</svg>
