<svg width="25" height="25" viewBox="0 0 25 25" fill="none" xmlns="http://www.w3.org/2000/svg">
<path fill-rule="evenodd" clip-rule="evenodd" d="M0 2.41936C0 1.08318 1.08318 0 2.41935 0H22.5806C23.9168 0 25 1.08318 25 2.41935V22.5806C25 23.9168 23.9168 25 22.5806 25H2.41935C1.08318 25 0 23.9168 0 22.5806V2.41936ZM1.81695 1.82412H23.1831V23.1759H1.81695V1.82412Z" fill="#293856"/>
<path fill-rule="evenodd" clip-rule="evenodd" d="M4.94648 14.7322C4.94648 14.2135 5.37931 13.793 5.91324 13.793C6.44716 13.793 6.87999 14.2135 6.87999 14.7322L6.87999 16.4828L16.4469 7.18915L14.6449 7.18915L14.6449 6.81513L14.6449 7.18915C14.1109 7.18915 13.6781 6.76868 13.6781 6.25002C13.6781 5.73135 14.1109 5.31089 14.6449 5.31089L18.7809 5.31089C19.3148 5.31089 19.7476 5.73135 19.7476 6.25002L19.7476 10.2679C19.7476 10.7865 19.3148 11.207 18.7809 11.207C18.247 11.207 17.8141 10.7865 17.8141 10.2679L17.8141 8.51728L8.24718 17.8109L10.0493 17.8109C10.5832 17.8109 11.016 18.2314 11.016 18.75C11.016 19.2687 10.5832 19.6891 10.0493 19.6891L5.91324 19.6891C5.37931 19.6891 4.94648 19.2687 4.94648 18.75L4.94648 14.7322ZM14.645 6.29629L14.6449 6.29629L14.6449 6.69645L14.6449 6.29629M18.7332 10.2679C18.7332 10.2678 18.7332 10.2678 18.7332 10.2677L18.7332 10.2679Z" fill="#293856"/>
</svg>
