<svg width="24" height="23" viewBox="0 0 24 23" fill="none" xmlns="http://www.w3.org/2000/svg">
<path fill-rule="evenodd" clip-rule="evenodd" d="M17.916 8.41169C17.916 9.7513 16.8068 10.8373 15.4385 10.8373C14.0703 10.8373 12.9611 9.7513 12.9611 8.41169C12.9611 7.07208 14.0703 5.98611 15.4385 5.98611C16.8068 5.98611 17.916 7.07208 17.916 8.41169ZM16.6773 8.41169C16.6773 9.0815 16.1227 9.62448 15.4385 9.62448C14.7544 9.62448 14.1998 9.0815 14.1998 8.41169C14.1998 7.74188 14.7544 7.1989 15.4385 7.1989C16.1227 7.1989 16.6773 7.74188 16.6773 8.41169Z" fill="#293858"/>
<path fill-rule="evenodd" clip-rule="evenodd" d="M18.4274 2.8632C17.6724 2.43643 16.7176 2.5675 16.1116 3.18112L16.0876 3.20538C15.9629 3.33164 15.7502 3.41617 15.4772 3.41651C15.2073 3.41685 14.9981 3.33352 14.8719 3.20577L14.8475 3.18107C14.2415 2.56745 13.2867 2.43638 12.5317 2.86315L12.0455 3.138C11.2905 3.56478 10.929 4.43988 11.1688 5.26052L11.1785 5.2937C11.2282 5.46401 11.197 5.68497 11.0617 5.91448C10.9263 6.14401 10.7465 6.28095 10.5709 6.32392L10.5368 6.33227C9.69105 6.53929 9.09771 7.28331 9.09771 8.13687V8.68656C9.09771 9.54012 9.69105 10.2841 10.5368 10.4912L10.5708 10.4995C10.7469 10.5426 10.9252 10.6783 11.0599 10.9073C11.1961 11.139 11.2277 11.3616 11.1783 11.5305L11.1689 11.5629C10.9291 12.3836 11.2905 13.2587 12.0455 13.6854L12.5318 13.9603C13.2868 14.3871 14.2416 14.256 14.8476 13.6424L14.8716 13.618C14.9963 13.4918 15.2089 13.4073 15.4819 13.4069C15.7518 13.4066 15.961 13.4899 16.0871 13.6176L16.1115 13.6423C16.7175 14.2559 17.6723 14.387 18.4273 13.9602L18.9135 13.6854C19.6685 13.2586 20.03 12.3835 19.7902 11.5629L19.7806 11.5299C19.7308 11.3595 19.762 11.1385 19.8974 10.909C20.0327 10.6794 20.2126 10.5425 20.3881 10.4995L20.4222 10.4912C21.268 10.2841 21.8614 9.54012 21.8614 8.68657L21.8614 8.13687C21.8614 7.28331 21.268 6.53929 20.4222 6.33227L20.3882 6.32394C20.2121 6.28084 20.0338 6.14513 19.8992 5.91614C19.763 5.68449 19.7315 5.46194 19.7808 5.29312L19.7903 5.26057C20.0301 4.43993 19.6686 3.56483 18.9136 3.13805L18.4274 2.8632ZM17.0021 4.02415C17.213 3.81061 17.5453 3.76499 17.808 3.91351L18.2942 4.18836C18.557 4.33688 18.6828 4.64143 18.5993 4.92701L18.5898 4.95957C18.4241 5.52663 18.5718 6.08948 18.8256 6.52118C19.0814 6.95618 19.5046 7.35779 20.0878 7.50052L20.1218 7.50885C20.4161 7.5809 20.6226 7.83982 20.6226 8.13687V8.68657C20.6226 8.98361 20.4161 9.24254 20.1218 9.31458L20.0877 9.32293C19.5045 9.46568 19.0803 9.86894 18.8246 10.3026C18.5689 10.7362 18.4243 11.2975 18.5896 11.8634L18.5993 11.8964C18.6827 12.182 18.5569 12.4866 18.2942 12.6351L17.8079 12.9099C17.5452 13.0584 17.2129 13.0128 17.002 12.7993L16.9776 12.7746C16.5598 12.3516 15.993 12.1935 15.4803 12.1941C14.9716 12.1948 14.3999 12.351 13.9811 12.775L13.9571 12.7993C13.7462 13.0129 13.4139 13.0585 13.1511 12.91L12.6649 12.6351C12.4022 12.4866 12.2764 12.1821 12.3598 11.8965L12.3693 11.864C12.535 11.2969 12.3873 10.734 12.1334 10.3023C11.8777 9.86727 11.4544 9.46563 10.8713 9.3229L10.8373 9.31458C10.5429 9.24254 10.3364 8.98361 10.3364 8.68656V8.13687C10.3364 7.83982 10.5429 7.5809 10.8373 7.50885L10.8714 7.5005C11.4546 7.35775 11.8788 6.9545 12.1345 6.52088C12.3902 6.08727 12.5348 5.52601 12.3694 4.96015L12.3597 4.92696C12.2763 4.64137 12.4021 4.33683 12.6648 4.18831L13.1511 3.91346C13.4138 3.76494 13.7461 3.81056 13.957 4.0241L13.9814 4.0488C14.3992 4.47187 14.9661 4.62995 15.4788 4.6293C15.9876 4.62867 16.5593 4.47246 16.9781 4.04841L17.0021 4.02415Z" fill="#293858"/>
<path fill-rule="evenodd" clip-rule="evenodd" d="M8.82351 16.0825C8.89348 17.4204 7.84246 18.5609 6.47601 18.6299C5.10955 18.699 3.94511 17.6704 3.87515 16.3326C3.80519 14.9947 4.8562 13.8542 6.22265 13.7852C7.58911 13.7161 8.75355 14.7447 8.82351 16.0825ZM7.58642 16.145C7.6214 16.814 7.0959 17.3842 6.41267 17.4187C5.72944 17.4533 5.14722 16.939 5.11224 16.2701C5.07726 15.6011 5.60277 15.0309 6.28599 14.9964C6.96922 14.9618 7.55144 15.4761 7.58642 16.145Z" fill="#293858"/>
<path fill-rule="evenodd" clip-rule="evenodd" d="M9.04444 10.5156C8.26814 10.1274 7.32146 10.3065 6.7483 10.9499L6.72564 10.9754C6.60771 11.1077 6.39972 11.2029 6.12706 11.217C5.85752 11.231 5.64422 11.1583 5.51155 11.0371L5.4859 11.0137C4.84865 10.4314 3.88827 10.3487 3.15655 10.813L2.68531 11.112C1.95359 11.5763 1.63832 12.4685 1.92063 13.276L1.93204 13.3086C1.99063 13.4762 1.97102 13.6985 1.84784 13.9345C1.72466 14.1706 1.55218 14.3164 1.37911 14.3682L1.34548 14.3782C0.511629 14.6276 -0.0420694 15.4006 0.00250777 16.2531L0.0312159 16.802C0.0757931 17.6545 0.707203 18.3676 1.56268 18.5316L1.59707 18.5382C1.77517 18.5724 1.96035 18.6989 2.10678 18.9209C2.25492 19.1454 2.29808 19.3661 2.25763 19.5372L2.24985 19.5701C2.05325 20.4017 2.45993 21.2574 3.23623 21.6456L3.73618 21.8955C4.51248 22.2836 5.45916 22.1045 6.03232 21.4612L6.05506 21.4356C6.17296 21.3033 6.38091 21.2081 6.65353 21.194C6.92302 21.1801 7.13628 21.2527 7.26893 21.3739L7.29456 21.3973C7.93182 21.9796 8.89219 22.0623 9.62391 21.598L10.0951 21.2989C10.8269 20.8346 11.1421 19.9425 10.8598 19.135L10.8485 19.1025C10.7899 18.9349 10.8095 18.7126 10.9327 18.4765C11.0559 18.2405 11.2284 18.0946 11.4014 18.0429L11.4351 18.0328C12.2689 17.7834 12.8226 17.0104 12.778 16.158L12.7493 15.609C12.7047 14.7566 12.0733 14.0435 11.2179 13.8794L11.1834 13.8728C11.0053 13.8386 10.8202 13.7121 10.6738 13.4902C10.5257 13.2657 10.4825 13.0451 10.523 12.874L10.5308 12.841C10.7274 12.0093 10.3207 11.1536 9.54439 10.7655L9.04444 10.5156ZM7.68168 11.7469C7.88114 11.523 8.21059 11.4607 8.48075 11.5957L8.9807 11.8457C9.25086 11.9808 9.39238 12.2786 9.32397 12.568L9.31617 12.601C9.18032 13.1756 9.3572 13.7303 9.63323 14.1486C9.91137 14.5701 10.355 14.9499 10.9448 15.063L10.9793 15.0696C11.277 15.1267 11.4967 15.3749 11.5122 15.6715L11.5409 16.2205C11.5565 16.5171 11.3638 16.7861 11.0736 16.8729L11.04 16.883C10.465 17.055 10.0624 17.4791 9.82968 17.9251C9.59695 18.371 9.48183 18.9389 9.67651 19.4957L9.68787 19.5282C9.78611 19.8092 9.6764 20.1197 9.42175 20.2813L8.95051 20.5803C8.69587 20.7419 8.36165 20.7131 8.13988 20.5105L8.11425 20.4871C7.67491 20.0856 7.10054 19.9564 6.58859 19.9829C6.08053 20.0092 5.51774 20.1941 5.12168 20.6386L5.09895 20.6642C4.89948 20.8881 4.57003 20.9504 4.29987 20.8153L3.79992 20.5654C3.52977 20.4303 3.38824 20.1325 3.45666 19.8431L3.46443 19.8102C3.60029 19.2355 3.42338 18.6808 3.14733 18.2624C2.86917 17.8409 2.42549 17.4612 1.83566 17.348L1.80127 17.3414C1.50356 17.2843 1.28382 17.0362 1.26831 16.7395L1.2396 16.1905C1.22409 15.8939 1.41678 15.6249 1.70696 15.5381L1.7406 15.528C2.31559 15.356 2.71814 14.9319 2.95086 14.486C3.18358 14.04 3.29867 13.4722 3.10401 12.9154L3.09259 12.8828C2.99435 12.6018 3.10406 12.2913 3.35871 12.1297L3.82995 11.8307C4.08459 11.6691 4.41881 11.6979 4.64058 11.9005L4.66623 11.9239C5.1056 12.3254 5.68 12.4546 6.19198 12.4281C6.70008 12.4018 7.26292 12.217 7.65901 11.7723L7.68168 11.7469Z" fill="#293858"/>
<path d="M16.1627 0.0311309C15.1032 -0.0597818 14.0373 0.0489435 13.0194 0.350526C12.6837 0.449983 12.5192 0.809318 12.6271 1.1258C12.7372 1.44874 13.0822 1.61165 13.3966 1.52003C14.2594 1.26859 15.1617 1.17857 16.0586 1.25554C17.0759 1.34283 18.064 1.64305 18.9598 2.13707C19.8556 2.6311 20.6394 3.30809 21.2609 4.12486C21.8825 4.94163 22.3281 5.8802 22.5693 6.88059C22.8104 7.88097 22.8417 8.92107 22.6612 9.93437C22.4807 10.9477 22.0924 11.9118 21.5211 12.765C20.9498 13.6183 20.2082 14.342 19.3438 14.8899C18.5817 15.3729 17.7389 15.7099 16.8578 15.8852C16.537 15.949 16.3057 16.2523 16.3547 16.5892C16.4029 16.9205 16.7136 17.165 17.0582 17.098C18.1 16.8955 19.0966 16.4995 19.9965 15.9292C21.005 15.29 21.87 14.4459 22.5361 13.4509C23.2022 12.4559 23.6549 11.3319 23.8653 10.1508C24.0757 8.96976 24.0392 7.75743 23.7581 6.59135C23.477 5.42526 22.9575 4.33099 22.2327 3.37851C21.5079 2.42603 20.5937 1.63628 19.5485 1.05985C18.5033 0.483418 17.3501 0.13302 16.1627 0.0311309Z" fill="#293858"/>
</svg>
