<svg width="26" height="11" viewBox="0 0 26 11" fill="none" xmlns="http://www.w3.org/2000/svg">
<path d="M1 1.45416C1 1.20334 1.20236 1 1.45199 1H5.06794C5.81683 1 6.42392 1.61001 6.42392 2.36249V8.418C6.42392 9.17048 5.81683 9.78049 5.06794 9.78049H1.45199C1.20236 9.78049 1 9.57715 1 9.32632C1 9.0755 1.20236 8.87216 1.45199 8.87216H5.06794C5.31757 8.87216 5.51993 8.66883 5.51993 8.418V2.36249C5.51993 2.11166 5.31757 1.90833 5.06794 1.90833H1.45199C1.20236 1.90833 1 1.70499 1 1.45416Z" fill="#293858"/>
<path d="M13.0735 2.19921C12.4652 2.02031 11.8197 2.01249 11.2072 2.17659L7.7457 3.10409C7.5045 3.16872 7.25683 3.02464 7.19251 2.78229C7.12819 2.53993 7.27158 2.29107 7.51278 2.22644L10.9743 1.29893C11.7465 1.09202 12.5604 1.10189 13.3274 1.32746L17.834 2.65279C18.3938 2.81741 18.7784 3.33323 18.7784 3.91926C18.7784 3.96472 18.7761 4.00965 18.7717 4.05393L23.2792 3.05479C23.7581 2.94862 24.2577 3.09917 24.5994 3.4527C25.2933 4.17043 25.0522 5.36461 24.1349 5.75395L16.2198 9.1132C15.6819 9.34153 15.1038 9.45917 14.5198 9.45917H7.47857C7.22894 9.45917 7.02658 9.25583 7.02658 9.00501C7.02658 8.75418 7.22894 8.55084 7.47857 8.55084H14.5198C14.9829 8.55084 15.4414 8.45754 15.8681 8.27645L23.7831 4.9172C24.1146 4.77651 24.2018 4.34496 23.951 4.08559C23.8275 3.95783 23.647 3.90343 23.4739 3.94179L17.6705 5.22819C17.624 5.23849 17.5776 5.2412 17.5326 5.23714C17.5102 5.23828 17.4877 5.23886 17.4651 5.23886H12.8355C12.5859 5.23886 12.3835 5.03552 12.3835 4.78469C12.3835 4.53387 12.5859 4.33053 12.8355 4.33053H17.4651C17.6912 4.33053 17.8744 4.1464 17.8744 3.91926C17.8744 3.73661 17.7545 3.57585 17.5801 3.52455L13.0735 2.19921Z" fill="#293858"/>
<path d="M1 1.45416C1 1.20334 1.20236 1 1.45199 1H5.06794C5.81683 1 6.42392 1.61001 6.42392 2.36249V8.418C6.42392 9.17048 5.81683 9.78049 5.06794 9.78049H1.45199C1.20236 9.78049 1 9.57715 1 9.32632C1 9.0755 1.20236 8.87216 1.45199 8.87216H5.06794C5.31757 8.87216 5.51993 8.66883 5.51993 8.418V2.36249C5.51993 2.11166 5.31757 1.90833 5.06794 1.90833H1.45199C1.20236 1.90833 1 1.70499 1 1.45416Z" stroke="#293858" stroke-width="0.5" stroke-linecap="round"/>
<path d="M13.0735 2.19921C12.4652 2.02031 11.8197 2.01249 11.2072 2.17659L7.7457 3.10409C7.5045 3.16872 7.25683 3.02464 7.19251 2.78229C7.12819 2.53993 7.27158 2.29107 7.51278 2.22644L10.9743 1.29893C11.7465 1.09202 12.5604 1.10189 13.3274 1.32746L17.834 2.65279C18.3938 2.81741 18.7784 3.33323 18.7784 3.91926C18.7784 3.96472 18.7761 4.00965 18.7717 4.05393L23.2792 3.05479C23.7581 2.94862 24.2577 3.09917 24.5994 3.4527C25.2933 4.17043 25.0522 5.36461 24.1349 5.75395L16.2198 9.1132C15.6819 9.34153 15.1038 9.45917 14.5198 9.45917H7.47857C7.22894 9.45917 7.02658 9.25583 7.02658 9.00501C7.02658 8.75418 7.22894 8.55084 7.47857 8.55084H14.5198C14.9829 8.55084 15.4414 8.45754 15.8681 8.27645L23.7831 4.9172C24.1146 4.77651 24.2018 4.34496 23.951 4.08559C23.8275 3.95783 23.647 3.90343 23.4739 3.94179L17.6705 5.22819C17.624 5.23849 17.5776 5.2412 17.5326 5.23714C17.5102 5.23828 17.4877 5.23886 17.4651 5.23886H12.8355C12.5859 5.23886 12.3835 5.03552 12.3835 4.78469C12.3835 4.53387 12.5859 4.33053 12.8355 4.33053H17.4651C17.6912 4.33053 17.8744 4.1464 17.8744 3.91926C17.8744 3.73661 17.7545 3.57585 17.5801 3.52455L13.0735 2.19921Z" stroke="#293858" stroke-width="0.5" stroke-linecap="round"/>
</svg>
