<svg width="25" height="25" viewBox="0 0 25 25" fill="none" xmlns="http://www.w3.org/2000/svg">
<path d="M0.682552 11.7509L0.859726 11.926L0.682552 11.7509C0.124822 12.3153 0.220062 13.2482 0.880335 13.6883L1.99857 14.4336V23.2982C1.99857 23.7717 2.38239 24.1555 2.85585 24.1555C3.32932 24.1555 3.71313 23.7717 3.71313 23.2982V14.1914C3.71313 13.7693 3.50217 13.3752 3.15096 13.1411L2.28773 12.5658L12.0807 2.6558L21.8202 12.5117L20.7663 13.1138C20.373 13.3384 20.1302 13.7567 20.1302 14.2097V23.2982C20.1302 23.7717 20.514 24.1555 20.9875 24.1555C21.461 24.1555 21.8448 23.7717 21.8448 23.2982V14.4723L23.1819 13.7084C23.9019 13.2971 24.0364 12.3151 23.4536 11.7253L12.9785 1.12499C12.4844 0.625002 11.677 0.625007 11.183 1.12499L0.682552 11.7509Z" fill="#293858" stroke="#293858" stroke-width="0.5" stroke-linecap="round"/>
</svg>
