<svg width="20" height="24" viewBox="0 0 20 24" fill="none" xmlns="http://www.w3.org/2000/svg">
<path fill-rule="evenodd" clip-rule="evenodd" d="M20 6.306C20 9.78874 17.2927 12.612 13.953 12.612C12.6911 12.612 11.5194 12.2089 10.55 11.5194L6.61016 15.6279L9.09849 18.2228L7.23942 20.1616L4.7511 17.5666L3.71813 18.6438L6.99519 22.0612L5.13613 24L0 18.6438L8.74921 9.51985C8.2136 8.57872 7.90604 7.47981 7.90604 6.306C7.90604 2.82327 10.6134 0 13.953 0C17.2927 0 20 2.82327 20 6.306ZM13.9343 9.87027C15.822 9.87027 17.3522 8.27449 17.3522 6.306C17.3522 4.33752 15.822 2.74174 13.9343 2.74174C12.0467 2.74174 10.5165 4.33752 10.5165 6.306C10.5165 8.27449 12.0467 9.87027 13.9343 9.87027Z" fill="#293858"/>
</svg>
