<svg width="24" height="19" viewBox="0 0 24 19" fill="none" xmlns="http://www.w3.org/2000/svg">
<path d="M9.93971 2.8823H8.89523L8.89524 8.51788H9.93971V2.8823Z" fill="#293858"/>
<path d="M3.62697 2.88232H2.5825L2.5825 7.08318H3.62697L3.62697 2.88232Z" fill="#293858"/>
<path d="M5.63555 2.88232H4.59107L4.59107 7.08318H5.63555L5.63555 2.88232Z" fill="#293858"/>
<path d="M7.93114 2.88232H6.88666L6.88666 7.08318H7.93114L7.93114 2.88232Z" fill="#293858"/>
<path d="M3.62697 7.47339H2.5825L2.5825 11.6742H3.62697L3.62697 7.47339Z" fill="#293858"/>
<path d="M5.63555 7.47339H4.59107L4.59107 11.6742H5.63555L5.63555 7.47339Z" fill="#293858"/>
<path d="M7.93114 7.47339H6.88666L6.88666 11.6742H7.93114L7.93114 7.47339Z" fill="#293858"/>
<path d="M21.4175 7.7475H12.9125V8.79197H21.4175V7.7475Z" fill="#293858"/>
<path d="M21.4175 9.7561H12.9125V10.8006H21.4175V9.7561Z" fill="#293858"/>
<path d="M21.4175 11.7776H12.9125V12.822H21.4175V11.7776Z" fill="#293858"/>
<path d="M17.9742 13.4864H12.9125V14.5308H17.9742V13.4864Z" fill="#293858"/>
<path fill-rule="evenodd" clip-rule="evenodd" d="M2.16059 0C0.967331 0 0 0.96733 0 2.16059V12.0833C0 13.2766 0.967332 14.2439 2.16059 14.2439H10.33V16.6814C10.33 17.7123 11.1657 18.5481 12.1967 18.5481H22.1333C23.1643 18.5481 24 17.7123 24 16.6814V6.74474C24 5.7138 23.1643 4.87806 22.1333 4.87806H14.2439V2.16059C14.2439 0.967331 13.2766 0 12.0833 0H2.16059ZM10.33 6.74474V13.1809H2.16059C1.5544 13.1809 1.06299 12.6895 1.06299 12.0833V2.16059C1.06299 1.5544 1.5544 1.06299 2.16059 1.06299H12.0833C12.6895 1.06299 13.1809 1.5544 13.1809 2.16059V4.87806H12.1967C11.1657 4.87806 10.33 5.7138 10.33 6.74474ZM11.3938 6.74474C11.3938 6.30134 11.7533 5.94188 12.1967 5.94188H22.1333C22.5767 5.94188 22.9362 6.30134 22.9362 6.74474V16.6814C22.9362 17.1248 22.5767 17.4842 22.1333 17.4842H12.1967C11.7533 17.4842 11.3938 17.1248 11.3938 16.6814V6.74474Z" fill="#293858"/>
</svg>
