<svg width="25" height="18" viewBox="0 0 25 18" fill="none" xmlns="http://www.w3.org/2000/svg">
<path fill-rule="evenodd" clip-rule="evenodd" d="M0.75 4.76928C0.75 2.54862 2.54868 0.75 4.76553 0.75H20.7345C22.9513 0.75 24.75 2.54863 24.75 4.76929V10.6795C24.75 12.9001 22.9513 14.6987 20.7345 14.6987H8.17902L3.12897 17.765L2.33512 16.9103L3.94884 14.6155C2.12317 14.2378 0.75 12.6199 0.75 10.6794V4.76928ZM4.76553 2.02617C3.25031 2.02617 2.02347 3.25513 2.02347 4.76928V10.6794C2.02347 12.1936 3.25031 13.4226 4.76553 13.4226H6.34561L5.24457 14.9883L7.82333 13.4226H20.7345C22.2497 13.4226 23.4765 12.1936 23.4765 10.6795V4.76929C23.4765 3.25513 22.2497 2.02617 20.7345 2.02617H4.76553ZM8.83174 6.87244H6.87256V8.83162H8.83174V6.87244ZM11.7704 6.87245H13.7296V8.83163H11.7704V6.87245ZM18.6276 6.87245H16.6684V8.83163H18.6276V6.87245Z" fill="#293858"/>
</svg>
