<svg width="15" height="24" viewBox="0 0 15 24" fill="none" xmlns="http://www.w3.org/2000/svg">
<path fill-rule="evenodd" clip-rule="evenodd" d="M12.8756 2.01247H2.00441V21.9875H12.8756V2.01247ZM3.23776 20.7454V3.25452H5.15004C5.26981 3.59476 5.46431 3.90728 5.7231 4.16711C6.17876 4.62461 6.79639 4.8813 7.44 4.8813C8.08362 4.8813 8.70124 4.62461 9.15691 4.16711C9.41569 3.90728 9.61019 3.59476 9.72997 3.25452H11.6422V20.7454H3.23776Z" fill="#293858"/>
<path fill-rule="evenodd" clip-rule="evenodd" d="M1.19294 0C0.535837 0 0 0.535334 0 1.19961V22.8004C0 23.4647 0.535838 24 1.19294 24H13.6871C14.3442 24 14.88 23.4647 14.88 22.8004V1.19961C14.88 0.535333 14.3442 0 13.6871 0H1.19294ZM1.23335 22.758V1.24204H13.6466V22.758H1.23335Z" fill="#293858"/>
</svg>
