<svg width="26" height="24" viewBox="0 0 26 24" fill="none" xmlns="http://www.w3.org/2000/svg">
<path d="M7.81818 3.52679V5.15698M18.1616 17.0792V18.7094M10.9899 3.52679V5.15698M21.3333 17.0792V18.7094M10.9899 7.27623V8.90642M21.3333 20.6657V22.2959M7.81818 7.27623V8.90642M18.1616 20.6657V22.2959M7.81818 11.0257V12.6558M5.44444 2.05962C5.44444 1.74451 5.6977 1.48906 6.0101 1.48906H13.0404C13.3528 1.48906 13.6061 1.74451 13.6061 2.05962V14.6121V22.3555C13.6061 22.4905 13.7146 22.6 13.8485 22.6C13.9824 22.6 14.0909 22.4905 14.0909 22.3555V14.8566H23.9495C24.2619 14.8566 24.5152 15.1121 24.5152 15.4272V22.3555C24.5152 22.4905 24.6237 22.6 24.7576 22.6C24.8915 22.6 25 22.4905 25 22.3555V15.4272C25 14.842 24.5297 14.3675 23.9495 14.3675H14.0909V2.05962C14.0909 1.47441 13.6206 1 13.0404 1H6.0101C5.42992 1 4.9596 1.47441 4.9596 2.05962V11.9258C4.79632 11.8204 4.60221 11.7592 4.39394 11.7592H2.05051C1.47033 11.7592 1 12.2337 1 12.8189V22.3555C1 22.4905 1.10854 22.6 1.24242 22.6C1.37631 22.6 1.48485 22.4905 1.48485 22.3555V12.8189C1.48485 12.5038 1.7381 12.2483 2.05051 12.2483H4.39394C4.70634 12.2483 4.9596 12.5038 4.9596 12.8189V22.3555C4.9596 22.4905 5.06813 22.6 5.20202 22.6C5.33591 22.6 5.44444 22.4905 5.44444 22.3555V12.8189V2.05962ZM8.27273 19.8287H10.5354V22.274H8.27273V19.8287Z" stroke="#293858"/>
</svg>
