<svg width="25" height="25" viewBox="0 0 25 25" fill="none" xmlns="http://www.w3.org/2000/svg">
<path fill-rule="evenodd" clip-rule="evenodd" d="M3.20804 0.5C1.71673 0.5 0.5 1.69874 0.5 3.18702V5.94581C0.5 7.43409 1.71673 8.63283 3.20804 8.63283H5.9931C7.11861 8.63283 8.08773 7.95004 8.49543 6.9753C8.90313 7.95004 9.87225 8.63283 10.9978 8.63283H11.252V12.2374H10.196C7.99621 12.2374 6.20514 14.005 6.20514 16.1951V20.5423C6.20514 22.7323 7.99621 24.5 10.196 24.5H14.5846C16.7844 24.5 18.5754 22.7323 18.5754 20.5423V16.1951C18.5754 14.005 16.7844 12.2374 14.5846 12.2374H13.5286V8.63283H13.7828C15.0269 8.63283 16.08 7.79855 16.3949 6.65788C16.7098 7.79855 17.7628 8.63283 19.0069 8.63283H21.792C23.2833 8.63283 24.5 7.43409 24.5 5.94581V3.18702C24.5 1.69874 23.2833 0.5 21.792 0.5H19.0069C17.7628 0.5 16.7098 1.33428 16.3949 2.47495C16.08 1.33428 15.0269 0.5 13.7828 0.5H10.9978C9.87225 0.5 8.90314 1.18279 8.49543 2.15753C8.08773 1.18279 7.11861 0.5 5.9931 0.5H3.20804ZM2.29552 3.18702C2.29552 2.69458 2.69977 2.28763 3.20804 2.28763H5.9931C6.50137 2.28763 6.90563 2.69458 6.90563 3.18702V5.94581C6.90563 6.43825 6.50137 6.8452 5.9931 6.8452H3.20804C2.69977 6.8452 2.29552 6.43825 2.29552 5.94581V3.18702ZM10.0852 3.18702C10.0852 2.69458 10.4895 2.28763 10.9978 2.28763H13.7828C14.2911 2.28763 14.6953 2.69458 14.6953 3.18702V5.94581C14.6953 6.43825 14.2911 6.8452 13.7828 6.8452H10.9978C10.4895 6.8452 10.0852 6.43825 10.0852 5.94581V3.18702ZM18.0944 3.18702C18.0944 2.69458 18.4986 2.28763 19.0069 2.28763H21.792C22.3002 2.28763 22.7045 2.69458 22.7045 3.18702V5.94581C22.7045 6.43825 22.3002 6.8452 21.792 6.8452H19.0069C18.4986 6.8452 18.0944 6.43825 18.0944 5.94581V3.18702ZM8.48171 16.1951C8.48171 15.264 9.24493 14.5015 10.196 14.5015H14.5846C15.5356 14.5015 16.2989 15.264 16.2989 16.1951V20.5423C16.2989 21.4733 15.5356 22.2358 14.5846 22.2358H10.196C9.24493 22.2358 8.48171 21.4733 8.48171 20.5423V16.1951Z" fill="#293858"/>
</svg>
