<svg width="19" height="24" viewBox="0 0 19 24" fill="none" xmlns="http://www.w3.org/2000/svg">
<path d="M11.987 0.569035C11.1171 0.192352 10.1817 -0.00119176 9.23674 5.52109e-06C8.2918 0.0012028 7.35682 0.197116 6.48784 0.576003C5.61887 0.95489 4.83379 1.50895 4.17966 2.20497C3.52554 2.901 3.01583 3.72465 2.68109 4.62657C2.40861 5.36076 2.25663 6.1345 2.2301 6.91671C2.21529 7.35358 2.578 7.67755 2.98233 7.66087C3.3964 7.6438 3.69744 7.29072 3.71603 6.89442C3.74376 6.30301 3.86246 5.71867 4.06867 5.16305C4.33265 4.45178 4.73462 3.80223 5.25047 3.25333C5.76633 2.70443 6.38546 2.26749 7.07075 1.96869C7.75604 1.6699 8.49338 1.51539 9.23859 1.51445C9.98379 1.51351 10.7215 1.66614 11.4075 1.9632C12.0935 2.26026 12.7137 2.69563 13.2309 3.24322C13.7481 3.79081 14.1517 4.43934 14.4174 5.14994C14.6249 5.70503 14.745 6.28907 14.7742 6.88041C14.7938 7.27666 15.0957 7.62898 15.5098 7.645C15.9141 7.66065 16.2761 7.33577 16.2602 6.89893C16.2318 6.11679 16.0779 5.34344 15.8036 4.60995C15.4667 3.70888 14.955 2.88651 14.2992 2.19215C13.6434 1.49779 12.8569 0.945719 11.987 0.569035Z" fill="#293858"/>
<path d="M9.36 12.8214C8.26606 12.8214 7.37925 13.7265 7.37925 14.8431C7.37925 15.4974 7.68378 16.0791 8.15607 16.4486V18.1134C8.15607 18.7603 8.71881 19.2432 9.36005 19.2432C10.0013 19.2432 10.564 18.7603 10.564 18.1134V16.4485C11.0363 16.079 11.3408 15.4973 11.3408 14.8431C11.3408 13.7265 10.4539 12.8214 9.36 12.8214Z" fill="#293858"/>
<path fill-rule="evenodd" clip-rule="evenodd" d="M2.36266 8.06456C1.05874 8.06456 0 9.13911 0 10.4668V21.5978C0 22.9254 1.05874 24 2.36266 24H16.3573C17.6613 24 18.72 22.9254 18.72 21.5978V10.4668C18.72 9.13911 17.6613 8.06456 16.3573 8.06456H2.36266ZM1.37876 10.4668C1.37876 9.91603 1.81833 9.46784 2.36266 9.46784H16.3573C16.9017 9.46784 17.3412 9.91603 17.3412 10.4668V21.5978C17.3412 22.1485 16.9017 22.5967 16.3573 22.5967H2.36266C1.81833 22.5967 1.37876 22.1485 1.37876 21.5978V10.4668Z" fill="#293858"/>
</svg>
