<svg width="25" height="16" viewBox="0 0 25 16" fill="none" xmlns="http://www.w3.org/2000/svg">
<path fill-rule="evenodd" clip-rule="evenodd" d="M2.03164 0C0.913242 0 0 0.881354 0 1.97647V14.0235C0 15.1186 0.913242 16 2.03164 16H22.9684C24.0868 16 25 15.1186 25 14.0235V1.97647C25 0.881354 24.0868 0 22.9684 0H2.03164ZM1.73697 1.97647C1.73697 1.82408 1.86524 1.69412 2.03164 1.69412H22.9684C23.1348 1.69412 23.263 1.82408 23.263 1.97647V14.0235C23.263 14.1759 23.1348 14.3059 22.9684 14.3059H2.03164C1.86524 14.3059 1.73697 14.1759 1.73697 14.0235V1.97647ZM15.6475 7.78468C16.0129 7.44434 16.596 7.44432 16.9614 7.78464C17.3404 8.13757 17.3403 8.72002 16.9614 9.07292L12.1607 13.5437L9.2017 10.788C8.82276 10.435 8.8228 9.85265 9.20175 9.49971C9.56718 9.15946 10.1502 9.15948 10.5156 9.49974L12.1607 11.0318L15.6475 7.78468ZM5.64518 3H3.22583V5.4H5.64518V3ZM7.25809 3H9.67744V5.4H7.25809V3ZM11.2903 3H13.7097V5.4H11.2903V3ZM15.3226 3H17.742V5.4H15.3226V3ZM19.3549 3H21.7742V5.4H19.3549V3Z" fill="#293858"/>
</svg>
