<svg width="24" height="24" viewBox="0 0 24 24" fill="none" xmlns="http://www.w3.org/2000/svg">
<path d="M21.3197 3.34706L21.0999 4.24962L20.4557 3.58032C19.0236 2.09239 17.2653 1.00869 15.3329 0.443268C12.7996 -0.297982 10.113 -0.10548 7.69102 0.990021C5.63762 1.91882 3.87349 3.45183 2.58785 5.40348C2.14455 6.07644 2.3744 6.99175 3.02899 7.40446C3.69751 7.82593 4.52682 7.56057 4.96974 6.92247C5.94782 5.51341 7.25357 4.40863 8.75743 3.7284C10.6139 2.88867 12.6709 2.74166 14.6108 3.30926C16.3184 3.80892 17.8544 4.83891 19.0347 6.26961L19.6148 6.97273L18.7123 7.1002C17.4667 7.2761 16.5083 8.34741 16.5083 9.64172V9.85036H22.6096L22.6525 9.84992L22.6928 9.85035C23.4003 9.84895 24.0185 9.26382 23.9996 8.52206L23.9993 8.50938L23.9996 8.4967C23.9998 8.48856 23.9999 8.48041 23.9999 8.47223L24 8.46259C24 8.43969 23.9994 8.41692 23.9983 8.39428L23.9972 8.37064L23.9982 8.34697C23.9994 8.32015 24 8.29318 24 8.26607V1.17913H23.7914C22.593 1.17913 21.624 2.09784 21.3197 3.34706Z" fill="#293858"/>
<path d="M0.00108719 16.7165V22.8209H0.209688C1.35596 22.8209 2.328 22.0691 2.65711 21.0303L2.8998 20.2643L3.49024 20.8093C4.93557 22.1434 6.71779 23.1119 8.67503 23.613C11.2026 24.2601 13.8829 24.0923 16.3008 23.1353C18.3514 22.3237 20.117 20.9826 21.4057 19.2709C21.8662 18.6592 21.621 17.8305 20.9616 17.4668C20.3048 17.1044 19.4862 17.3278 19.0393 17.8912C18.064 19.1206 16.7594 20.0876 15.2528 20.6839C13.3924 21.4202 11.3291 21.5495 9.38346 21.0514C7.8702 20.664 6.4953 19.9143 5.38311 18.8833L4.70667 18.2563L5.59714 18.0158C6.68959 17.7208 7.4928 16.7223 7.4928 15.5374V15.3288H1.38878L1.36497 15.329L1.35986 15.329L1.3593 15.3291L1.34766 15.3293L1.33274 15.3289L1.31084 15.3287H1.30916C0.98605 15.3292 0.631697 15.4571 0.373175 15.683C0.124111 15.9005 -0.0242977 16.1952 0.00327682 16.5598L0.00592613 16.5948L0.00376129 16.6298C0.00199127 16.6586 0.00108719 16.6875 0.00108719 16.7165Z" fill="#293858"/>
</svg>
